<?xml version="1.0" encoding="utf-8"?>
<!-- Generator: Adobe Illustrator 26.5.0, SVG Export Plug-In . SVG Version: 6.00 Build 0)  -->
<svg version="1.1" xmlns="http://www.w3.org/2000/svg" xmlns:xlink="http://www.w3.org/1999/xlink" x="0px" y="0px"
	 viewBox="0 0 1920 1920" style="enable-background:new 0 0 1920 1920;" xml:space="preserve">
<style type="text/css">
	.st0{display:none;}
	.st1{opacity:9.000000e-02;fill:#00FF00;}
	.st2{clip-path:url(#SVGID_00000168103023432491992430000015119779435606396816_);}
	.st3{fill:#0D8543;}
	.st4{clip-path:url(#SVGID_00000181799003151469422060000011065093305233123477_);}
	.st5{fill:#98ED9C;}
	.st6{clip-path:url(#SVGID_00000126324591026925243390000012004045310790897818_);}
	.st7{clip-path:url(#SVGID_00000173846523938274086160000015284490577320113306_);}
	.st8{clip-path:url(#SVGID_00000085231394390901594850000014752548918515942803_);}
	.st9{fill:#073505;}
	.st10{fill:#DCFF71;}
	.st11{clip-path:url(#SVGID_00000000187673560386959090000005805078313989488256_);fill:#4C2A09;}
	.st12{clip-path:url(#SVGID_00000000187673560386959090000005805078313989488256_);fill:#2D1705;}
	.st13{clip-path:url(#SVGID_00000151538069591883005670000001081358036539541688_);fill:#FF4040;}
	.st14{opacity:0.41;clip-path:url(#SVGID_00000151538069591883005670000001081358036539541688_);fill:#F42121;}
	.st15{fill:#298419;}
	.st16{fill:#226D13;}
	.st17{clip-path:url(#SVGID_00000163785390523657768820000003742134541465459626_);}
	.st18{fill:#FF8F1F;}
	.st19{fill:#FFB26C;}
	.st20{fill:#49AA44;}
	.st21{fill:#61BA5A;}
	.st22{fill:#41933A;}
	.st23{fill:#EDDD9A;}
	.st24{opacity:0.41;}
	.st25{fill:#514F4F;}
	.st26{fill:#E5D17F;}
	.st27{fill:#F2E6B3;}
	.st28{fill:#DDCD87;}
	.st29{fill:#FFBEA1;}
	.st30{clip-path:url(#SVGID_00000116217508132570863600000008471558262837787019_);fill:#FFC9AE;}
	.st31{opacity:0.3;clip-path:url(#SVGID_00000116217508132570863600000008471558262837787019_);fill:#F79063;}
	.st32{clip-path:url(#SVGID_00000077289173703173401160000014529187991875838640_);}
	.st33{fill:#E88B6B;}
	.st34{clip-path:url(#SVGID_00000127747471309217774330000001671583687033446787_);fill:#FFC9AE;}
	.st35{clip-path:url(#SVGID_00000147200436560335939490000005224429082147104952_);fill:#FFC9AE;}
	.st36{opacity:0.3;clip-path:url(#SVGID_00000147200436560335939490000005224429082147104952_);fill:#F79063;}
	.st37{fill:#FFC9AE;}
	.st38{fill:#FFE0D2;}
	.st39{clip-path:url(#SVGID_00000096748891716255703670000005051380271894213264_);fill:#FF3E3E;}
	.st40{clip-path:url(#SVGID_00000096748891716255703670000005051380271894213264_);fill:#FF7171;}
	.st41{opacity:0.65;clip-path:url(#SVGID_00000096748891716255703670000005051380271894213264_);}
	.st42{fill:#FFFFFF;}
	.st43{clip-path:url(#SVGID_00000157284675070520326710000013702711674393951106_);fill:#FF3E3E;}
	.st44{clip-path:url(#SVGID_00000157284675070520326710000013702711674393951106_);fill:#FF7171;}
	.st45{clip-path:url(#SVGID_00000157284675070520326710000013702711674393951106_);fill:#CCCCCC;}
	.st46{clip-path:url(#SVGID_00000157284675070520326710000013702711674393951106_);fill:#E5E5E5;}
	.st47{opacity:0.25;clip-path:url(#SVGID_00000157284675070520326710000013702711674393951106_);fill:#B5B5B5;}
	.st48{clip-path:url(#SVGID_00000157284675070520326710000013702711674393951106_);fill:none;stroke:#B5B5B5;stroke-miterlimit:10;}
	.st49{fill:#FFDCCC;}
	.st50{clip-path:url(#SVGID_00000139979408396486366370000015306494781552250242_);fill:#349922;}
	.st51{opacity:0.39;clip-path:url(#SVGID_00000139979408396486366370000015306494781552250242_);fill:#1C720A;}
	.st52{clip-path:url(#SVGID_00000008127159328605924180000010999847975317044670_);fill:#999999;}
	.st53{opacity:0.5;clip-path:url(#SVGID_00000008127159328605924180000010999847975317044670_);fill:#7C7C7C;}
	.st54{opacity:0.43;clip-path:url(#SVGID_00000008127159328605924180000010999847975317044670_);}
	.st55{clip-path:url(#SVGID_00000160886151510956141450000001538178757445044354_);}
	.st56{fill:#999999;}
	.st57{opacity:0.69;clip-path:url(#SVGID_00000160886151510956141450000001538178757445044354_);fill:#828282;}
	.st58{opacity:0.43;clip-path:url(#SVGID_00000160886151510956141450000001538178757445044354_);}
	.st59{fill:#46AA31;}
	.st60{clip-path:url(#SVGID_00000174564392276548453920000007209803666631777191_);fill:#0B1549;}
	.st61{clip-path:url(#SVGID_00000174564392276548453920000007209803666631777191_);fill:#222D5B;}
	.st62{opacity:0.3;clip-path:url(#SVGID_00000174564392276548453920000007209803666631777191_);}
	.st63{clip-path:url(#SVGID_00000174564392276548453920000007209803666631777191_);}
	.st64{clip-path:url(#SVGID_00000017513016215300741460000017566933239476398254_);fill:#999999;}
	.st65{opacity:0.65;clip-path:url(#SVGID_00000017513016215300741460000017566933239476398254_);fill:#848484;}
	.st66{clip-path:url(#SVGID_00000017513016215300741460000017566933239476398254_);}
	.st67{clip-path:url(#SVGID_00000137115016864291723710000015210987388779574446_);fill:#0B1549;}
	.st68{clip-path:url(#SVGID_00000137115016864291723710000015210987388779574446_);fill:#222D5B;}
	.st69{opacity:0.3;clip-path:url(#SVGID_00000137115016864291723710000015210987388779574446_);}
	.st70{clip-path:url(#SVGID_00000114779459610887682160000006637213831183817909_);}
	.st71{opacity:0.65;clip-path:url(#SVGID_00000114779459610887682160000006637213831183817909_);fill:#848484;}
	.st72{clip-path:url(#SVGID_00000177478882075335814710000002510577752657241777_);fill:#CCCCCC;}
	.st73{clip-path:url(#SVGID_00000177478882075335814710000002510577752657241777_);fill:#E5E5E5;}
	.st74{opacity:0.25;clip-path:url(#SVGID_00000177478882075335814710000002510577752657241777_);fill:#B5B5B5;}
	.st75{clip-path:url(#SVGID_00000073715827654176848750000014391619972463539637_);fill:#FF5A5A;}
	.st76{clip-path:url(#SVGID_00000073715827654176848750000014391619972463539637_);fill:#FF3E3E;}
	.st77{clip-path:url(#SVGID_00000073715827654176848750000014391619972463539637_);}
	.st78{fill:#FF6C6C;}
	.st79{clip-path:url(#SVGID_00000125577433434082116860000015580506401053932934_);fill:#FFAC33;}
	.st80{clip-path:url(#SVGID_00000125577433434082116860000015580506401053932934_);fill:#FFBC64;}
	.st81{clip-path:url(#SVGID_00000125577433434082116860000015580506401053932934_);}
	.st82{fill:#FFD39F;}
	.st83{clip-path:url(#SVGID_00000070832455031569967720000013586841216546949772_);fill:#FFAC33;}
	.st84{clip-path:url(#SVGID_00000070832455031569967720000013586841216546949772_);fill:#FFBC64;}
	.st85{clip-path:url(#SVGID_00000070832455031569967720000013586841216546949772_);fill:#CCCCCC;}
	.st86{clip-path:url(#SVGID_00000086660262130568520970000009118353785390209679_);fill:#999999;}
	.st87{opacity:0.5;clip-path:url(#SVGID_00000086660262130568520970000009118353785390209679_);fill:#7C7C7C;}
	.st88{opacity:0.43;clip-path:url(#SVGID_00000086660262130568520970000009118353785390209679_);}
	.st89{clip-path:url(#SVGID_00000164477592476911943270000002481186000241575601_);}
	.st90{opacity:0.5;clip-path:url(#SVGID_00000164477592476911943270000002481186000241575601_);fill:#7C7C7C;}
	.st91{opacity:0.43;clip-path:url(#SVGID_00000164477592476911943270000002481186000241575601_);}
	.st92{clip-path:url(#SVGID_00000170245604651296898260000009450236976120565424_);fill:#377BDD;}
	.st93{opacity:0.79;clip-path:url(#SVGID_00000170245604651296898260000009450236976120565424_);fill:#1561BC;}
	.st94{clip-path:url(#SVGID_00000170245604651296898260000009450236976120565424_);}
	.st95{fill:#68A3EA;}
	.st96{opacity:0.1;}
	.st97{fill:#FF3E3E;}
</style>
<g id="Livello_1" class="st0">
	
		<image style="display:inline;overflow:visible;" width="1421" height="1424" xlink:href="CB77FC9B.jpg"  transform="matrix(1.3492 0 0 1.3492 0 0)">
	</image>
</g>
<g id="Livello_2">
	<path class="st1" d="M347.8,817.3c0,0-234.8-263-61-385s253.6,42.3,394.4-14.1s178.4-309.9,366.3-267.7s112.7,342.8,248.9,385
		s338.1-70.4,403.8,23.5c65.7,93.9-122.1,417.9-65.7,540c56.3,122.1,216,300.5,37.6,352.2s-314.6,51.7-432,155
		c-117.4,103.3-413.2,216-455.5,108s-117.4-277-220.7-220.7s-267.7,136.2-324-117.4s159.7-342.8,159.7-403.8
		S347.8,817.3,347.8,817.3z"/>
	<g>
		<g>
			<g>
				<g>
					<g>
						<defs>
							<path id="SVGID_1_" d="M274.7,1150.5c-3-47,40.1-76.9,82.2-83.4c50.1-6.2,85.9,9,102.3,57.8c13.4,46.6,19.1,95,33.9,141.6
								c21.3,66.7,54.3,138.8,116.3,176.9c33.8,22.3,69.2,62.5,39,102.7c-19.3,25.7-62.3,39.2-89.2,17.1
								c-53.7-43.7-101.2-95.3-142.8-150.5C358.1,1335.1,299.6,1245.3,274.7,1150.5z"/>
						</defs>
						<clipPath id="SVGID_00000133490362037501354950000002304691741121520318_">
							<use xlink:href="#SVGID_1_"  style="overflow:visible;"/>
						</clipPath>
						<g style="clip-path:url(#SVGID_00000133490362037501354950000002304691741121520318_);">
							<path class="st3" d="M274.7,1150.5c-3-47,40.1-76.9,82.2-83.4c50.1-6.2,85.9,9,102.3,57.8c13.4,46.6,19.1,95,33.9,141.6
								c21.3,66.7,54.3,138.8,116.3,176.9c33.8,22.3,69.2,62.5,39,102.7c-19.3,25.7-62.3,39.2-89.2,17.1
								c-53.7-43.7-101.2-95.3-142.8-150.5C358.1,1335.1,299.6,1245.3,274.7,1150.5z"/>
						</g>
					</g>
				</g>
				<g>
					<g>
						<defs>
							<path id="SVGID_00000020394251875717121130000012432925291458087052_" d="M274.7,1150.5c-3-47,40.1-76.9,82.2-83.4
								c50.1-6.2,85.9,9,102.3,57.8c13.4,46.6,19.1,95,33.9,141.6c21.3,66.7,54.3,138.8,116.3,176.9c33.8,22.3,69.2,62.5,39,102.7
								c-19.3,25.7-62.3,39.2-89.2,17.1c-53.7-43.7-101.2-95.3-142.8-150.5C358.1,1335.1,299.6,1245.3,274.7,1150.5z"/>
						</defs>
						<clipPath id="SVGID_00000072278336602050119660000011005722494323348614_">
							<use xlink:href="#SVGID_00000020394251875717121130000012432925291458087052_"  style="overflow:visible;"/>
						</clipPath>
						<g style="clip-path:url(#SVGID_00000072278336602050119660000011005722494323348614_);">
							<path class="st5" d="M659.2,1538.8c0.5-3.5,1-6.7,1.6-9.3c2.4-9.9,0-19.6-7.2-27.1c-22-23.1-51.9-43.1-77.4-62.7
								c-12.7-9.7-24.6-20.7-35-32.6c-10.2-11.6-19.1-24.7-27.7-38c13.6,21.2,28.7,40.6,46.9,57.6c4.9,4.6,10.3,8.9,15.8,13
								c17.4,12.9,34.8,25.9,51.7,39.5c9,7.2,18.1,14.7,25.8,23.2c4.9,5.5,7.5,10,8.3,14.3c0.8,4.1,0,8-1,12.9
								c-0.5,2.7-1.2,5.7-1.6,9.2C659.3,1538.8,659.3,1538.8,659.2,1538.8z M472.9,1278.1c-8.8-27.7-16-55.9-21.6-84.2
								c-3.9-19.9-6.7-40.7-9.7-60.6c-3.4-21.7-10.9-43.5-26.3-59.3c-6.5-6.7-13.6-13-22.2-17.5c0,0,0-0.1,0.1-0.1
								c8.6,4.6,15.6,10.8,22.2,17.6c6.4,6.4,12.4,15.5,16.1,23.9c5.1,11.7,8.3,22.9,10.2,35.5
								C448.9,1181.1,458,1230.9,472.9,1278.1z"/>
						</g>
					</g>
				</g>
				<g>
					<g>
						<defs>
							<path id="SVGID_00000031926923858326223050000001842923831503761598_" d="M274.7,1150.5c-3-47,40.1-76.9,82.2-83.4
								c50.1-6.2,85.9,9,102.3,57.8c13.4,46.6,19.1,95,33.9,141.6c21.3,66.7,54.3,138.8,116.3,176.9c33.8,22.3,69.2,62.5,39,102.7
								c-19.3,25.7-62.3,39.2-89.2,17.1c-53.7-43.7-101.2-95.3-142.8-150.5C358.1,1335.1,299.6,1245.3,274.7,1150.5z"/>
						</defs>
						<clipPath id="SVGID_00000111893274768389488750000001009821803225366198_">
							<use xlink:href="#SVGID_00000031926923858326223050000001842923831503761598_"  style="overflow:visible;"/>
						</clipPath>
						<g style="clip-path:url(#SVGID_00000111893274768389488750000001009821803225366198_);">
							<path class="st5" d="M665.6,1551c-2.2-10.1-12.4-18.1-19.5-25c-16.3-15.6-33.7-30.2-50.9-44.8
								c-20.3-17.3-40.8-34.7-60.3-52.6c-17.7-16.3-35.4-33.3-50.8-52.1c-29.1-35.4-44.9-81-57.7-124
								c-10.9-36.8-19.2-74.9-27.1-112.7c-0.4-2.1-0.8-4.1-1.2-5.9c-4.3-18.8-11-36.9-20.5-54c-7.6-13.6-14.5-22.1-14.6-22.2
								c0,0,0.1,0,0.1-0.1c0.1,0.1,7,8.6,14.6,22.2c9.5,17.1,16.2,35.3,20.5,54c0.4,1.8,0.8,3.8,1.2,5.9
								c16.5,79.2,32.1,172.7,84.8,236.7c18.3,22.3,39.8,42.3,61.1,61.5c16.3,14.6,33.1,28.9,49.9,43.2
								c17.2,14.7,34.6,29.2,50.9,44.8c7.2,6.9,17.4,14.9,19.6,25.1C665.7,1551,665.6,1551,665.6,1551z"/>
						</g>
					</g>
				</g>
				<g>
					<g>
						<defs>
							<path id="SVGID_00000009555861657059721200000011088157725771144111_" d="M274.7,1150.5c-3-47,40.1-76.9,82.2-83.4
								c50.1-6.2,85.9,9,102.3,57.8c13.4,46.6,19.1,95,33.9,141.6c21.3,66.7,54.3,138.8,116.3,176.9c33.8,22.3,69.2,62.5,39,102.7
								c-19.3,25.7-62.3,39.2-89.2,17.1c-53.7-43.7-101.2-95.3-142.8-150.5C358.1,1335.1,299.6,1245.3,274.7,1150.5z"/>
						</defs>
						<clipPath id="SVGID_00000101100047698492448250000000616340970681449121_">
							<use xlink:href="#SVGID_00000009555861657059721200000011088157725771144111_"  style="overflow:visible;"/>
						</clipPath>
						<g style="clip-path:url(#SVGID_00000101100047698492448250000000616340970681449121_);">
							<path class="st5" d="M533.8,1515.8c-27.3-23.8-52.3-50-74.7-78c-24-30-45.9-62.5-66.1-95.4c-17.6-28.5-34.6-57.9-50.7-87.4
								c-11.1-20.2-22.6-40.7-31.6-62.1c-6-14.2-10.6-29.1-13.7-43.8c-2.7-12.7-4.5-26-5.3-39c-0.8-12.6-0.8-25.8,0.8-38.7
								c0.1,0,0.1,0,0.2,0c-1.6,12.8-1.4,25.9-0.8,38.7c1.4,28.3,8.2,56.7,18.9,82.7c20.6,49.9,51,98.6,79.7,145.3
								c39.9,65,85.1,127.6,143.4,177.4c3,2.6,6.1,5.2,9.2,7.7c31.7,25.6,64.7,51.8,100.1,71.3c10.7,5.9,23.1,13.8,35.5,13.9
								c2.8,0,3.8-1,3.8-1c0,0,0,0,0.1,0.1c0,0-1.1,1.1-3.9,1.1c-12.3-0.1-24.8-7.9-35.5-13.8c-35.4-19.5-68.5-45.7-100.2-71.3
								C539.9,1520.9,536.8,1518.4,533.8,1515.8z"/>
						</g>
					</g>
				</g>
				<g>
					<g>
						<defs>
							<path id="SVGID_00000156546930853721332650000014211306374274841478_" d="M274.7,1150.5c-3-47,40.1-76.9,82.2-83.4
								c50.1-6.2,85.9,9,102.3,57.8c13.4,46.6,19.1,95,33.9,141.6c21.3,66.7,54.3,138.8,116.3,176.9c33.8,22.3,69.2,62.5,39,102.7
								c-19.3,25.7-62.3,39.2-89.2,17.1c-53.7-43.7-101.2-95.3-142.8-150.5C358.1,1335.1,299.6,1245.3,274.7,1150.5z"/>
						</defs>
						<clipPath id="SVGID_00000041273525417278514470000016946504901059671680_">
							<use xlink:href="#SVGID_00000156546930853721332650000014211306374274841478_"  style="overflow:visible;"/>
						</clipPath>
						<g style="clip-path:url(#SVGID_00000041273525417278514470000016946504901059671680_);">
							<path class="st5" d="M644.2,1577.3c0-0.1-3.8-7.9-13.2-19.9c-13.7-17.6-30.3-32.6-47.7-46c-34.2-26.4-64.9-59.8-93.4-92.2
								c-26.5-30.2-54.7-61.7-75.4-96.4c-12.1-20.3-19.3-43.8-26.6-66.1c-8.6-26.2-16.4-52.9-24.7-79.3
								c-3.8-12.1-7.7-24.3-12.2-36.1c-9.8-25.8-18-52.4-23.4-79.5c0.1,0,0.1,0,0.2,0c5.4,27.1,13.7,53.7,23.4,79.5
								c4.5,11.9,8.4,24,12.2,36.1c15,47.7,25.7,102.2,51.4,145.4c20.6,34.7,48.8,66.2,75.4,96.4c28.5,32.4,59.2,65.8,93.4,92.2
								c10.1,7.8,19.8,16.1,29,25c6.7,6.4,13.1,13.7,18.8,21.1c9.3,12,13.1,19.9,13.2,20C644.3,1577.3,644.3,1577.3,644.2,1577.3z"
								/>
						</g>
					</g>
				</g>
			</g>
			<g>
				<path class="st5" d="M659,1524.2c-3.4,12.5-10.8,25-21.2,33c0,0,10,16.9,15.6,18c5.6,1,1.3-10.9,3.4-12.9c2.2-2,8.6-0.7,7.7-6.1
					c-0.9-5.4,0-8,3.7-10.3c3.3-2.6,4.5-4.9,2.4-8.6c-2.1-3.7-2.4-2.8,0-5.7C673,1528.6,659,1524.2,659,1524.2z"/>
			</g>
		</g>
	</g>
	<g>
		<path class="st9" d="M884.6,739.2c0,0,116.6,115.6,252.7-14.3c0,0,51.7-75,40.3-164.1s43.7-91.2-4.9-145.3L884.6,739.2z"/>
		<path class="st10" d="M940.8,759.2c0,0,102.9-15.1,171.5-117c0,0,33.9-47.2,23.6-102.7c-10.7-57.6,44.9-100.4,40.5-115.9
			c-2.7-9.6-10.3-24.9-52.4,13.3s-76.3,69.1-125.6,90.5c-51.9,22.5-134.5,107.3-132.1,164C867.6,724.5,894.3,756.7,940.8,759.2z"/>
		<g>
			<defs>
				
					<ellipse id="SVGID_00000113315232738545709260000011926980232019415229_" transform="matrix(0.7665 -0.6423 0.6423 0.7665 -173.9571 776.1513)" cx="980.4" cy="627.3" rx="87.8" ry="45.4"/>
			</defs>
			<clipPath id="SVGID_00000052819689931059916660000008332997455824609409_">
				<use xlink:href="#SVGID_00000113315232738545709260000011926980232019415229_"  style="overflow:visible;"/>
			</clipPath>
			
				<ellipse transform="matrix(0.7665 -0.6423 0.6423 0.7665 -173.9571 776.1513)" style="clip-path:url(#SVGID_00000052819689931059916660000008332997455824609409_);fill:#4C2A09;" cx="980.4" cy="627.3" rx="87.8" ry="45.4"/>
			<path style="clip-path:url(#SVGID_00000052819689931059916660000008332997455824609409_);fill:#2D1705;" d="M1049.5,566.1
				c0,0-13.9,92.6-116.1,130.9l104.3-4.4l24-72.7L1049.5,566.1z"/>
		</g>
	</g>
	<g>
		<defs>
			
				<ellipse id="SVGID_00000183241504120201558190000012631328242360104617_" transform="matrix(0.8807 -0.4737 0.4737 0.8807 -167.3442 825.3679)" cx="1554.6" cy="744.8" rx="120.4" ry="158.5"/>
		</defs>
		<clipPath id="SVGID_00000021822852645630949430000002804466380294951557_">
			<use xlink:href="#SVGID_00000183241504120201558190000012631328242360104617_"  style="overflow:visible;"/>
		</clipPath>
		
			<ellipse transform="matrix(0.8807 -0.4737 0.4737 0.8807 -167.3442 825.3679)" style="clip-path:url(#SVGID_00000021822852645630949430000002804466380294951557_);fill:#FF4040;" cx="1554.6" cy="744.8" rx="120.4" ry="158.5"/>
		<path style="opacity:0.41;clip-path:url(#SVGID_00000021822852645630949430000002804466380294951557_);fill:#F42121;" d="
			M1487.6,587.1c0,0-35.8,52.2-3.7,138.2c32.1,86,102.2,181.6,164.9,179c62.7-2.6-160.4,87.9-193.3,33.8s-74.6-248.4-74.6-248.4
			L1487.6,587.1z"/>
	</g>
	<g>
		<polygon class="st15" points="1610.1,726 1628.8,742.6 1606.2,732.2 1601.4,749.2 1599.9,734.5 1583.2,741.8 1593.7,727.4 
			1577.2,713.3 1597.4,718.5 1602,702.1 1607.7,716.8 1625.5,713.3 		"/>
	</g>
	<g>
		<g>
			<path class="st16" d="M1605.4,727.9c-0.5,2.8-4.2,2.5-6.3,0.8c-2.3-1.4-3.6-5.8-1.4-7.1C1597.7,725.6,1602.2,729.1,1605.4,727.9
				L1605.4,727.9z"/>
		</g>
	</g>
	<g>
		<defs>
			<path id="SVGID_00000124871871593539186910000013767275703697716415_" d="M1201.1,1227.1c0,0,104.6,265.2,144.4,326.3
				c8,18.4,34.2,32.6,63,14.8c-0.5,47.1-6.9,120.9,46.9,144.4c93.3,4.2-3.2-91,18.6-106.2c21.8-15.2,67.6,23.3,88.3,8.7
				c20.7-14.7-36.1-53.2-36.1-53.2s66.9,32.8,135.3-2.5c55.4-22.3,84.7-171.6-19-77.6c-82.2,43.4-138.2,43.4-171.1,35.2
				c14.6-17.9,20.8-39.5,11.1-71.8c-23.4-78.1-232.3-241-232.3-241s-20.6-18.8-34.3-9.1C1194.5,1210.2,1201.1,1227.1,1201.1,1227.1z
				"/>
		</defs>
		<clipPath id="SVGID_00000135668749661052653950000018270571361878433920_">
			<use xlink:href="#SVGID_00000124871871593539186910000013767275703697716415_"  style="overflow:visible;"/>
		</clipPath>
		<g style="clip-path:url(#SVGID_00000135668749661052653950000018270571361878433920_);">
			<g>
				<path class="st18" d="M1250.2,1204.3c0,0,208.8,162.9,232.3,241c18.9,63.1-23,85.2-68.8,119.4c-30.9,23.1-59.8,8.2-68.3-11.3
					c-39.8-61.1-144.4-326.3-144.4-326.3s-6.6-16.9,14.9-31.9C1229.7,1185.5,1250.2,1204.3,1250.2,1204.3z"/>
			</g>
			<g>
				<path class="st3" d="M1434.6,1500.1c0,0,63.4,58,207.9-18.3c103.7-94,74.4,55.3,19,77.6c-68.4,35.3-135.3,2.5-135.3,2.5
					s56.8,38.5,36.1,53.2c-20.7,14.7-66.5-23.8-88.3-8.7c-21.8,15.2,74.7,110.4-18.6,106.2c-72.8-31.7-35.5-155.5-51.4-180.8
					C1407,1499.4,1434.6,1500.1,1434.6,1500.1z"/>
			</g>
		</g>
		<g style="clip-path:url(#SVGID_00000135668749661052653950000018270571361878433920_);">
			<path class="st19" d="M1486.7,1398.2c-45.3-7-94.3,2.5-130.8,31c-1,0.8-6.4,5.4-7.3,6.1c-1.1,0.9-3.1,3-4.2,3.9
				c-3.8,3.4-7.1,7.3-10.6,11c-16.7,19.6-28.9,42.4-38.1,66.5c10.8-37.2,32-72.8,64.1-95.3C1396,1395.9,1443.7,1388.2,1486.7,1398.2
				L1486.7,1398.2z"/>
		</g>
		<g style="clip-path:url(#SVGID_00000135668749661052653950000018270571361878433920_);">
			<path class="st19" d="M1443.5,1328c-44.5-8.3-93.3-0.2-129.6,27.8c-1.9,1.7-6.9,5.5-8.7,7.3c-2.5,2.4-5.8,5.3-8.1,7.9
				c-19.3,20.2-32.7,45.2-42.8,71.3c8.6-29.3,23.4-57.8,45.5-79.3c14.7-14.5,32.9-25.5,52.4-32.3
				C1381.5,1321,1413.7,1320,1443.5,1328L1443.5,1328z"/>
		</g>
		<g style="clip-path:url(#SVGID_00000135668749661052653950000018270571361878433920_);">
			<path class="st19" d="M1408.5,1285.9c-57.9-27-133-39.1-166.1,29.3c-3.3,6.8-6.2,14-8.4,21.3c-3.1,9.7-5.4,19.7-7.2,29.8
				c1-10.2,2.7-20.4,5.3-30.4C1255.6,1245.6,1339.1,1247.1,1408.5,1285.9L1408.5,1285.9z"/>
		</g>
		<g style="clip-path:url(#SVGID_00000135668749661052653950000018270571361878433920_);">
			<path class="st19" d="M1383.4,1258.3c-52.2-32.2-132.6-62.9-166.2,9c-2.7,5.6-5,11.6-6.9,17.6c-3.2,9.6-5.4,19.6-7.2,29.6
				c0.9-10.1,2.7-20.2,5.3-30.1C1233.5,1190.6,1322.6,1213.7,1383.4,1258.3L1383.4,1258.3z"/>
		</g>
	</g>
	<path class="st20" d="M413.5,791.5l93.9,568.2l453.1,105.7c0,0,47,44.6,89.2,35.2c42.3-9.4,54-44.6,54-44.6l450.8-251.2l-115-598.7
		L977,901.9L413.5,791.5z"/>
	<polygon class="st21" points="413.5,791.5 413.4,799.7 504.3,1367.1 507.4,1359.7 	"/>
	<polygon class="st22" points="504.3,1367.1 961,1473.2 960.6,1465.3 507.4,1359.7 	"/>
	<path class="st22" d="M975.6,1482c0,0,54.3,51.3,99.1,39.1s57.4-42.2,60-49.6v11.3c0,0-11.7,35.2-59.1,47
		c-51.5,12.8-95.7-34.8-99.6-39.1L975.6,1482z"/>
	<polygon class="st22" points="1103.8,1466.1 1553,1214.1 1554.6,1204.7 1103.8,1456 	"/>
	<path class="st23" d="M528.6,1348c0,0,415.6,86.9,509.5,124.4c0,0,352.2-228.9,464.9-263l-84.5-575.2
		C1250.5,754,1061.5,697.6,977,901.9c-120.9-163.2-335.7-16.4-535.3-57.5L528.6,1348z"/>
	<g class="st24">
		<g>
			<g>
				<path class="st25" d="M535.6,916.1c8,6.4,20.8,4.2,25.9-4.8c-0.9-0.4-1.8-0.8-2.7-1.2c-0.8,5.5,4.3,8.4,9.1,8.8
					c7.3,0.6,13.4-6.4,20.6-4.5c-0.3-0.7-0.6-1.5-0.9-2.2c-1.2,1.7-3.3,2.5-5.3,2c-0.1,1-0.3,2-0.4,2.9c9.1-0.4,18.1-0.8,27.2-1.2
					c-0.4-0.1-0.7-0.3-1.1-0.4c1,1.2,1.9,3.2,3.5,3.6c1.9,0.4,4,0.3,5.9,0.1c3.6-0.3,7-1.3,10.2-2.9c2.7-1.4,7.4-6.2,10.2-3
					c1.7,2,3.1,3.5,5.8,4.1c4.8,1.1,9.7-0.9,14.5,0.2c3,0.7,3,2.8,3.9,5.4c1,2.9,3.5,4.1,6.4,3.7c4-0.6,7.7-3.2,11.2-5
					c2.1-1.1,4.5-2.7,7-2.8c1.7-0.1,4.6,1.5,3.5,3.6c-0.9,1.8,1.4,3,2.6,1.5c5.6-7.3,16.3-4.2,23.6-2.5c7,1.6,14.4,2.1,21.4-0.1
					c3.1-0.9,6-2.4,8.6-4.4c1.3-1,2.5-2.2,3.6-3.5c0.5-0.6,1.3-1.9,2.2-1.3c0.6,0.4,1,1.5,1.4,2.1c4,5.4,11.7,3.6,16.5,0.5
					c3.5-2.2,7-5.8,11.3-6.4c3.2-0.5,7.8,1.2,7.7,5c0,0.9,1,1.8,1.9,1.4c5.7-2.1,9.6-6.7,13.8-10.8c4.2-4,10.9-8.2,16.5-4.6
					c0.1-0.9,0.2-1.8,0.4-2.7c-3.1,0.9-3,4.6-1.1,6.7c2.7,3.1,6.6,1.3,9.2-0.9c1.7-1.4,3.1-3.2,5.3-3.9c1.1-0.3,2.2-0.4,3,0.5
					c0.7,0.8,1,1.8,1.8,2.6c1.4,1.3,3.3,1.6,5.1,1.7c1.1,0.1,2.4,0,3.5,0.5c0.7,0.3,2.2,1.5,1.3,2.3c-1.4,1.2,0.4,3,1.8,2.4
					c6.8-3,13.7-6,20.5-8.9c-0.5,0-1,0-1.5,0c2.4,1.8,1.3,5.8-1.2,6.9c0.5,0.9,1,1.7,1.5,2.6c5.9-3,12.7-3.6,19.1-1.9
					c-0.2-0.8-0.4-1.7-0.7-2.5c-2.4,2.3-5.2,6.6-3.7,10.1c2.2,5.1,9.1,1.1,12.8,0.8c6.2-0.6,11.8,1.7,17.7,3.4
					c6.4,1.8,12.9,3.7,19.3,5.7c1.8,0.6,2.6-2.3,0.8-2.9c-5.3-1.6-10.6-3.2-15.9-4.7c-2.6-0.7-5.2-1.5-7.8-2.2
					c-2.5-0.7-4.9-1.6-7.4-2c-4.8-0.7-9,0.2-13.6,1.4c-5.9,1.6-1.9-5.5,0-7.3c0.8-0.8,0.4-2.2-0.7-2.5c-7.2-2-14.7-1.2-21.4,2.2
					c-1.8,0.9-0.2,3.3,1.5,2.6c4.9-2.1,5.2-9.1,1.2-12.1c-0.4-0.3-1.1-0.2-1.5,0c-6.8,3-13.7,6-20.5,8.9c0.6,0.8,1.2,1.6,1.8,2.4
					c2.8-2.4,0.2-6.2-2.6-7.3c-1.8-0.7-3.8-0.4-5.6-0.7c-2.4-0.5-2.5-2.9-4.3-4.1c-3.1-2-7,0-9.4,2.2c-1.5,1.3-3.6,4-5.8,3.8
					c-0.8-0.1-2.8-2.2-1.6-2.6c1.3-0.4,1.4-2,0.4-2.7c-5.5-3.5-12.3-1.1-17.1,2.5c-5.3,4-9.1,10.2-15.5,12.6c0.6,0.5,1.3,1,1.9,1.4
					c0.3-7.4-9.1-9.3-14.5-6.9c-3.9,1.7-6.9,4.7-10.6,6.7c-3,1.6-7.9,2.7-10.6-0.1c-1-1.1-1.4-2.5-2.6-3.4c-1.4-1.1-3.1-0.9-4.4,0.1
					c-1.4,1.1-2.4,2.8-3.8,4c-1.4,1.3-3,2.3-4.7,3.2c-7.6,3.8-16.3,3.3-24.3,1.4c-8.9-2.1-19.9-4.4-26.3,4c0.9,0.5,1.7,1,2.6,1.5
					c1.3-2.6,0.2-5.5-2.1-7c-3.1-2.1-6.8-0.8-9.8,0.7c-3.7,1.8-7.4,4.4-11.3,5.6c-1.9,0.6-4,0.8-4.7-1.5c-0.5-1.5-0.6-3-1.5-4.3
					c-2.8-4.2-8.7-3.1-13-2.9c-2.4,0.2-5.1,0.4-7.4-0.7c-2.7-1.3-3.4-4.8-6.8-4.9c-4.1-0.2-7.5,3.6-11.1,5.1
					c-4.2,1.8-8.9,2.4-13.4,1.8c0.4,0.1,0.7,0.3,1.1,0.4c-0.8-1-1.6-2.6-2.6-3.3c-0.9-0.6-2.2-0.3-3.2-0.2c-2.7,0.1-5.4,0.2-8.2,0.4
					c-5.6,0.2-11.1,0.5-16.7,0.7c-1.6,0.1-2.1,2.5-0.4,2.9c3.4,0.8,6.7-0.5,8.7-3.4c0.6-0.8,0-2-0.9-2.2c-6.5-1.7-11.6,2.6-17.6,4.2
					c-3.1,0.8-10.7,0-10-4.7c0.2-1.6-1.8-2.8-2.7-1.2c-4.1,7.1-14.7,9.4-21.2,4.2C536.2,912.7,534.1,914.8,535.6,916.1L535.6,916.1z
					"/>
			</g>
		</g>
		<g>
			<g>
				<path class="st25" d="M817.2,956.7c3.9-1.4,7.8-2.9,11.7-4.3c1.9-0.7,3.7-1.4,5.6-2.1c1.5-0.5,3.3-1.1,4.9-0.8
					c2.5,0.5,3.5,3.4,4.8,5.3c1.4,2,3.4,3.6,6,3.1c1.8-0.4,3-1.7,4.5-2.7c0.5-0.3,2.5-1.3,2.9-0.3c0.4,1.1,1.6,1.5,2.5,0.7
					c3-2.8,6.2-5.8,10.3-6.7c1.7-0.4,3.6-0.3,5.3,0.3c1.5,0.6,2.6,1.8,3.6,3.1c1.6,2.2,3.2,5.1,6,6c1.7,0.5,3.3-0.1,4.9-0.8
					c0.8-0.4,1.5-0.8,2.4-0.5c1,0.3,1.8,1,2.8,1.4c4.1,1.8,9,1.5,12.9-0.8c1.7-1,0.2-3.6-1.5-2.6c-3.7,2.1-7.8,1.9-11.5-0.1
					c-1.9-1-3.6-1.3-5.6-0.5c-1.3,0.5-2.6,1.5-4,0.7c-1.2-0.6-2-1.9-2.8-3c-0.9-1.3-1.8-2.6-2.9-3.7c-2.7-2.7-6.6-3.3-10.1-2.6
					c-4.7,0.9-8.4,4.3-11.8,7.5c0.8,0.2,1.7,0.4,2.5,0.7c-1.1-2.9-4.6-3.1-7-1.6c-1.3,0.8-2.6,2.5-4.2,2.6c-1.1,0.1-1.8-0.8-2.4-1.6
					c-1.5-2.2-2.5-4.9-5-6.2c-3.5-1.9-7.6-0.1-11,1.2c-4.8,1.8-9.7,3.6-14.5,5.3C814.6,954.4,815.3,957.3,817.2,956.7L817.2,956.7z"
					/>
			</g>
		</g>
		<g>
			<g>
				<path class="st25" d="M798.6,984.7c8.4,0.3,16.9,0.5,25.3,0.8c7.3,0.2,15.4,1.5,21.7-2.9c1.3-0.9,2.9-2.3,4.6-2.4
					c1.1-0.1,3,0.8,2.5,2.1c-0.5,1.4,1.1,2.2,2.2,1.7c1.4-0.7,3.2-0.6,4.5,0.2c1.4,0.7,2.1,2.1,3.2,3.2c2.8,2.8,7,1.8,10.5,1.3
					c4.1-0.6,8.1-1.5,12.1-2.5c2-0.5,3.3,0.2,5.1,0.9c1.5,0.5,3,0.7,4.4-0.2c1.6-1,0.1-3.6-1.5-2.6c-1.2,0.8-3-0.5-4.2-0.9
					c-1.9-0.6-3.6-0.3-5.5,0.2c-4,1-8.1,1.9-12.2,2.4c-1.7,0.2-4.3,0.9-5.8,0c-1.2-0.8-2-2.3-3-3.2c-2.5-2.3-6.1-2.6-9.1-1.3
					c0.7,0.6,1.5,1.1,2.2,1.7c1.1-3.2-2.2-5.8-5.1-5.9c-3.8-0.2-6.5,3.5-9.9,4.7c-3.9,1.3-8.1,0.9-12.1,0.8
					c-4.7-0.2-9.4-0.3-14.1-0.5c-5.3-0.2-10.6-0.3-15.9-0.5C796.7,981.6,796.7,984.6,798.6,984.7L798.6,984.7z"/>
			</g>
		</g>
		<g>
			<g>
				<path class="st25" d="M775.4,1016.7c2.6-0.8,5.1-1.5,7.7-2.3c1.8-0.5,4.8-2,6.6-0.9c1.5,0.9,2.3,2.6,3.9,3.4
					c1.2,0.6,2.6,0.7,3.9,0.5c2.7-0.4,5.1-1.9,7.5-3.3c1.9-1.1,4.4-2.7,6.7-2.3c1.7,0.3,2.5,2,3.7,3c1.6,1.4,3.6,1.8,5.6,1.6
					c2.1-0.2,4.2-0.8,6.3-0.8c2.3,0,4.5,1.2,6.6,1.8c4.7,1.2,9.6,1.2,14.4,1.1c5.2-0.2,10.4-0.5,15.6-0.8c2.9-0.1,5.7-0.3,8.6-0.4
					c1.5-0.1,3-0.1,4.4-0.2c1.3-0.1,2.7,0,4-0.3c1.8-0.4,3.6-2.8,1.5-4.1c-1.4-0.9-3.9,0.1-3.2,2c0.7,1.8,3.6,1,2.9-0.8
					c0,0,0,0.1,0,0.1c-0.1,0.4-0.3,0.7-0.4,1.1c-0.1,0-0.3,0.1-0.4,0.1c-0.7,0.3-1-0.1-0.9-1.3c-0.1,0-0.3,0.1-0.4,0.1
					c-0.5,0-1.1,0.1-1.6,0.1c-1.2,0.1-2.5,0.1-3.7,0.2c-2.3,0.1-4.6,0.2-6.9,0.3c-4.7,0.2-9.4,0.5-14.1,0.7
					c-4.5,0.2-9.1,0.5-13.6,0.2c-2.2-0.2-4.3-0.5-6.4-1.1c-2-0.6-3.9-1.5-6-1.6c-1.9-0.1-3.7,0.3-5.5,0.6c-1.8,0.3-3.7,0.5-5.1-0.8
					c-1.2-1.1-2-2.4-3.5-3.1c-1.1-0.5-2.3-0.7-3.4-0.5c-2.5,0.3-4.8,1.6-6.9,2.8c-2,1.1-4.1,2.6-6.4,2.9c-1.2,0.1-2.2-0.2-3-1
					c-1.5-1.4-2.6-2.9-4.7-3.3c-2.3-0.3-4.6,0.6-6.7,1.2c-2.6,0.8-5.3,1.5-7.9,2.3C772.8,1014.4,773.6,1017.3,775.4,1016.7
					L775.4,1016.7z"/>
			</g>
		</g>
		<g>
			<g>
				<path class="st25" d="M765.2,1045.3c6-3.4,13.7-3.6,19.8-0.5c1.6,0.8,3,1.8,4.4,2.9c1.3,1.2,2.8,2.4,4.7,2.4
					c2-0.1,3.5-1.6,5-2.7c1.7-1.2,3.5-2.2,5.5-2.7c3.6-0.9,8.1,0.5,8.7,4.6c0.1,1,1.4,1.3,2.2,0.9c2.9-1.6,5.8-3.1,9.1-3.7
					c1.4-0.3,3-0.3,4.4,0c1.6,0.4,2.9,1.4,4.3,2.2c3.1,1.6,6.1,0.5,9.3-0.3c1.2-0.3,2.4-0.3,3.6,0.2c0.9,0.4,1.8,1.1,1.4,2.2
					c-0.6,1.6,1.5,2.3,2.5,1.5c6.5-5,14.8-7.2,22.9-6.4c1.9,0.2,1.9-2.8,0-3c-8.9-1-17.9,1.7-25,7.2c0.8,0.5,1.7,1,2.5,1.5
					c1.1-3-1.6-5.5-4.3-6.2c-1.8-0.5-3.4-0.1-5.2,0.3c-1.8,0.5-3.9,1.3-5.8,0.5c-1.8-0.7-3.2-2-5-2.5c-1.7-0.5-3.6-0.5-5.4-0.3
					c-3.9,0.5-7.4,2.3-10.8,4.2c0.7,0.3,1.5,0.6,2.2,0.9c-0.5-3.7-3.9-6.3-7.4-7c-4.3-0.8-8.5,1.2-11.9,3.7
					c-0.7,0.6-1.5,1.4-2.4,1.7c-1,0.4-1.9-0.5-2.7-1.1c-1.4-1.3-2.9-2.4-4.6-3.3c-3.4-1.8-7.2-2.8-11.1-2.9
					c-4.3-0.1-8.7,0.9-12.5,3.1C762,1043.7,763.5,1046.3,765.2,1045.3L765.2,1045.3z"/>
			</g>
		</g>
		<g>
			<g>
				<path class="st25" d="M529.7,1045.5c4.9-2.7,10.7-3.6,16.1-2.5c2.9,0.6,5.4,1.9,8.1,3.1c2.4,1,4.8,1.3,7.3,0.8
					c2.4-0.4,4.6-1.4,7-2.1c2-0.6,4.3-1.2,6.3-0.1c1.1,0.6,2,1.5,3.1,2.1c1,0.5,2.1,0.6,3.2,0.6c2.5-0.2,4.6-1.3,7-2
					c1.1-0.3,2.3-0.5,3.5-0.2c1.3,0.3,2.4,1.2,3.4,1.9c2.1,1.4,4.3,2.6,6.9,1.8c1.8-0.6,1.1-3.5-0.8-2.9c-2.1,0.7-4-1.2-5.7-2.3
					c-2.1-1.3-4.2-1.9-6.6-1.5c-2.4,0.4-4.5,1.5-6.8,2.1c-1,0.2-2,0.3-2.9-0.2c-1.2-0.6-2.2-1.7-3.4-2.2c-4.5-2-9.2,0.8-13.6,1.9
					c-2.7,0.7-5,0.5-7.5-0.7c-2.5-1.2-5-2.3-7.7-2.8c-6.3-1.3-12.9-0.3-18.5,2.8C526.5,1043.9,528.1,1046.5,529.7,1045.5
					L529.7,1045.5z"/>
			</g>
		</g>
		<g>
			<g>
				<path class="st25" d="M535.3,1078.3c6.4-1.7,13-3.5,19.7-3.3c3.3,0.1,6.4,0.8,9.5,1.8c2.8,0.9,5.6,1.9,8.6,2.1
					c5.4,0.4,10.3-2.1,15.2-4c2.3-0.9,4.6-1.7,7.1-1.7c2.6,0,4.5,1.1,6.6,2.5c2.7,1.8,5.4,2.3,8.6,1.9c2.9-0.4,5.8-0.9,8.7-0.8
					c5.4,0.3,10.6,2.2,16,3.1c5,0.9,10.3,1.1,14.9-1.4c1.1-0.6,2.2-1.6,3.5-1.8c1.4-0.2,1.8,1.2,2.4,2.2c1.2,1.8,2.9,3.1,5.1,3.5
					c2.6,0.5,5.2-0.1,7.7-0.9c2.4-0.9,4.6-2.2,7-3.2c3.1-1.3,9.8-3.1,11.4,1.3c0.2,0.6,0.8,1.2,1.4,1.1c8.6-0.8,17.3-0.6,25.9,0.6
					c0.8,0.1,1.6-0.2,1.8-1c0.2-0.7-0.2-1.7-1-1.8c-8.8-1.3-17.8-1.5-26.7-0.7c0.5,0.4,1,0.7,1.4,1.1c-1.6-4.4-6.1-5.3-10.4-4.7
					c-4.8,0.7-8.5,3.7-13.1,5c-1.9,0.6-4.3,1-6.2,0.1c-2.1-1-2.4-3.7-4.4-4.9c-2.7-1.6-5.4,0.6-7.7,1.9c-2.2,1.2-4.8,1.6-7.3,1.5
					c-5.6-0.1-10.9-2.1-16.3-3.1c-2.7-0.5-5.4-0.9-8.1-0.8c-3.1,0.1-6.3,1.3-9.4,0.9c-3-0.4-5-2.9-7.8-3.9c-2.3-0.8-4.7-0.7-7.1-0.3
					c-5.2,1-9.8,4-15,5.1c-3.4,0.7-6.6,0-9.8-1c-3.5-1.1-6.9-2.2-10.6-2.5c-7.6-0.6-15.1,1.4-22.4,3.3
					C532.7,1075.9,533.4,1078.8,535.3,1078.3L535.3,1078.3z"/>
			</g>
		</g>
		<g>
			<g>
				<path class="st25" d="M780,1078.8c2.4-1.1,6.3-2.7,8.3,0c1.6,2.2,2,5.1,4.6,6.4c2.9,1.5,5.9-0.1,8.7-1c1.6-0.5,3-0.5,4.6,0.1
					c1.5,0.6,3,1.5,4.6,1.8c3,0.5,6.6-0.9,6.7-4.3c0.1-1.9-2.9-1.9-3,0c0,1.4-2.2,1.6-3.2,1.4c-2-0.4-3.7-1.7-5.7-2.2
					c-1.9-0.4-3.7-0.1-5.6,0.5c-1.5,0.5-3.3,1.5-5,1.3c-1.6-0.2-2.3-1.9-3-3.2c-0.7-1.5-1.4-3-2.8-4c-3.3-2.5-7.6-1-10.9,0.5
					C776.7,1077,778.2,1079.6,780,1078.8L780,1078.8z"/>
			</g>
		</g>
		<g>
			<g>
				<path class="st25" d="M835.5,1075.9c7.4,4.7,16.3,1.8,24.4,1.3c5-0.3,10,0.4,14.9,0.6c1.1,0.1,2.3,0.1,3.4,0.1
					c1.1,0,2.1,0.1,3-0.5c1.4-0.9,1.9-3.4-0.1-3.8c-1.9-0.4-2.7,2.5-0.8,2.9c-0.1-1.5-0.3-2-0.7-1.5c-0.2,0-0.4,0-0.6,0
					c-0.5,0-1,0-1.5,0c-1.1,0-2.1-0.1-3.2-0.1c-1.9-0.1-3.9-0.3-5.8-0.4c-3.9-0.3-7.8-0.3-11.7,0.1c-6.5,0.7-13.9,2.5-19.8-1.2
					C835.4,1072.3,833.9,1074.9,835.5,1075.9L835.5,1075.9z"/>
			</g>
		</g>
		<g>
			<g>
				<path class="st25" d="M543.2,1112.7c2.3-2.6,5.4-5.9,9.1-6.3c3.9-0.4,6,3.7,9.2,5.1c3.6,1.6,7.7,1,11.3,0
					c4.1-1.2,8-3.3,12.3-3.3c3.4,0,8.3,2.7,7.3,6.8c-0.4,1.7,1.8,2.5,2.7,1.2c3-4,8.1-5.9,12.9-6.5c6.2-0.7,12.5,0.7,18.7,1.4
					c12.2,1.5,24.6-0.1,36-4.8c2.6-1.1,5.8-2.9,8.6-1.4c2.1,1.2,3.4,3.7,2.8,6.1c-0.4,1.7,1.8,2.6,2.7,1.2c1.9-3,6.6-0.5,8.8,0.8
					c1.7,1,3.5,2.1,5.5,2.5c2.1,0.5,4.1,0.1,6-0.8c2-0.9,3.9-1.9,6.1-2.3c2.2-0.4,4.5-0.3,6.7-0.1c4.7,0.4,9.4,1.5,14.1,2.3
					c5.1,0.9,10.8,1.3,15.5,3.7c1.7,0.9,3.2-1.7,1.5-2.6c-4.4-2.2-9.5-2.8-14.3-3.7c-5.1-0.9-10.2-1.9-15.3-2.6
					c-4.8-0.6-9.6-0.4-14,1.8c-2.1,1-4,2-6.4,1.2c-2.1-0.7-3.9-2.1-5.9-3.1c-3.5-1.8-8.6-2.4-11,1.4c0.9,0.4,1.8,0.8,2.7,1.2
					c1.3-5.1-2.8-10.7-8.3-10.5c-3.3,0.1-6.3,1.9-9.3,3c-3.1,1.2-6.3,2.1-9.6,2.8c-6.6,1.4-13.5,1.8-20.2,1.2
					c-6.9-0.6-13.8-2.4-20.7-1.8c-6.3,0.5-12.4,2.9-16.2,8c0.9,0.4,1.8,0.8,2.7,1.2c0.9-4-1.6-7.6-5.1-9.4c-4.2-2.1-9-1.1-13.3,0.4
					c-4.1,1.4-8.7,3.5-13.1,2.3c-2.2-0.6-3.6-2.1-5.3-3.5c-1.6-1.3-3.4-2.2-5.5-2.3c-4.9-0.2-9.1,3.8-12.1,7.2
					C539.8,1112.1,541.9,1114.2,543.2,1112.7L543.2,1112.7z"/>
			</g>
		</g>
		<g>
			<g>
				<path class="st25" d="M568.7,1308c5.1,7.1,14.1,7.5,22,8.1c4.1,0.3,8.2,0.6,12.1,2c2,0.7,3.8,1.7,5.4,3c2.2,1.9,4.2,3.6,7,4.6
					c2.8,1,5.9,1.4,8.9,1.7c3.2,0.4,6.3,0.6,9.5,0.6c6.2,0,12.3-0.8,18.3-2.1c5.4-1.1,11.4-2.4,16.5,0.3c2.2,1.1,3.7,2.8,4.7,5
					c1,2.3,1.9,4.6,4.3,5.5c2.9,1.1,6.3-0.1,9.3-0.4c3.5-0.4,7-0.6,10.5-0.5c3.5,0.1,6.9,0.3,10.3,0.9c2.6,0.4,5.6,1.1,7.3,3.4
					c0.4,0.5,1,0.9,1.7,0.7c4.8-1.9,10-2.1,14.9-0.6c0.9,0.3,1.9-0.5,1.9-1.4c0-2.5-1.3-4.8-3.5-6c-0.1,0.9-0.2,1.8-0.4,2.7
					c3.3-0.8,6.9-0.4,10,1.2c1.6,0.8,2.8,1.9,4,3.2c1.2,1.3,2.4,2.6,3.9,3.5c3.6,2,7.5,0.5,11.3,0.3c1.8-0.1,6.6,1.5,5.2,4.1
					c-0.9,1.6,1.1,2.8,2.4,1.8c5-3.9,12.2-4.1,17.5-0.8c1.6,1,3.2-1.6,1.5-2.6c-6.6-4-15.1-3.4-21.1,1.3c0.8,0.6,1.6,1.2,2.4,1.8
					c1.9-3.4-0.9-6.7-4-8c-4.1-1.7-8.2,1-12.3-0.1c-2.1-0.5-3.4-2.4-4.9-3.9c-1.3-1.4-2.9-2.6-4.6-3.4c-3.7-1.8-7.9-2.3-11.9-1.3
					c-1.2,0.3-1.5,2.1-0.4,2.7c1.3,0.7,2.1,1.9,2.1,3.4c0.6-0.5,1.3-1,1.9-1.4c-5.4-1.6-11.3-1.4-16.5,0.6c0.6,0.2,1.1,0.5,1.7,0.7
					c-3.2-4.3-9-4.9-14-5.4c-6.3-0.6-12.7-0.5-19,0.4c-2.3,0.3-5.7,1.5-7.3-0.8c-1.3-2-1.7-4.3-3.3-6.1c-3.2-3.9-8.7-5.3-13.5-5.1
					c-6.3,0.2-12.4,2.3-18.6,3c-6.2,0.6-12.5,0.6-18.6-0.3c-2.9-0.4-6.1-0.8-8.7-2.2c-2.4-1.3-4.1-3.4-6.4-4.8
					c-3.6-2.3-7.8-3.1-11.9-3.7c-4.6-0.6-9.3-0.6-13.9-1.3c-4.2-0.7-8.4-2.2-11-5.8C570.2,1304.9,567.6,1306.4,568.7,1308
					L568.7,1308z"/>
			</g>
		</g>
		<g>
			<g>
				<path class="st25" d="M798.3,1346.6c0.8,2.1,2.9,2.7,5.1,2.2c1-0.3,1.9-0.8,2.8-1.5c0.8-0.6,2.1-1.8,3.1-1.3
					c1.2,0.5,1.1,3,1.3,4.1c0.3,1.9,0.9,3.6,2.5,4.7c0.6,0.4,1.4,0.2,1.8-0.2c2.9-2.6,6.6-3.9,10.5-4.1c3.1-0.1,6.7-0.3,8.5-3.3
					c1-1.7-1.6-3.2-2.6-1.5c-0.8,1.3-2.3,1.5-3.7,1.7c-1.6,0.2-3.3,0.1-4.9,0.4c-3.7,0.6-7.1,2.3-9.9,4.7c0.6-0.1,1.2-0.2,1.8-0.2
					c-1.1-0.8-1.1-2.9-1.3-4c-0.2-1.6-0.6-3.3-1.9-4.4c-1.8-1.4-4-0.9-5.8,0.2c-0.9,0.5-1.6,1.3-2.6,1.7c-0.3,0.1-1.6,0.5-1.8,0.1
					C800.5,1344,797.6,1344.8,798.3,1346.6L798.3,1346.6z"/>
			</g>
		</g>
		<g>
			<g>
				<path class="st25" d="M577.2,1285.9c3.2-0.3,6.3-0.6,9.5-0.9c1.5-0.1,3.1-0.3,4.6-0.4c1.3-0.1,3-0.5,4.3-0.2
					c1.9,0.5,2.3,3.2,3.2,4.7c1,1.7,2.5,2.8,4.4,3.2c4.1,0.7,7.8-1.7,11.9-1.6c2.3,0,3.7,1.5,5.5,2.7c2.4,1.5,4.8,1.1,7.4,0.4
					c2.6-0.8,4.7-0.5,7.2,0.6c2.3,1,4.4,2.3,6.7,3.2c4.6,1.7,9.4,0.4,14-0.6c2.2-0.5,4.6-1,6.9-0.7c1.1,0.2,2.1,0.5,3,1.1
					c1.2,0.7,2.2,1.6,3.6,1.9c2.7,0.6,5.4-1,7.7-2.2c2.7-1.3,5.4-2.8,8.1-3.9c1.1-0.5,4.5-1.7,4.6,0.5c0.1,2-1.4,3.7-1.2,5.7
					c0.3,3.2,3.8,3.1,6.3,3.2c3.5,0.1,7.1,0.1,10.6,0.2c1.9,0,1.9-3,0-3c-3.1,0-6.3-0.1-9.4-0.1c-0.7,0-1.4,0-2.2,0
					c-0.5,0-1.6,0.2-2-0.1c-0.6-0.4-0.2-1.1-0.1-1.7c0.6-1.8,1.4-3.7,0.8-5.6c-0.7-1.9-2.6-2.8-4.5-2.7c-2.4,0.1-4.4,1.2-6.5,2.2
					c-2.8,1.4-5.5,2.8-8.4,4.1c-1.2,0.5-2.5,1-3.7,0.4c-1.2-0.6-2.2-1.5-3.4-2c-2.1-0.9-4.3-1.1-6.5-0.8c-4.7,0.5-9.5,2.7-14.3,2
					c-4.8-0.6-8.4-4.4-13.2-5c-1.2-0.1-2.4,0-3.7,0.3c-1.4,0.3-2.8,1-4.3,0.9c-2.3-0.2-4-2.6-6.2-3.3c-3.9-1.4-7.9,0.6-11.8,1.2
					c-2.1,0.3-3.8-0.1-4.8-2c-1.1-1.9-1.6-4.2-3.7-5.4c-1.3-0.7-2.8-0.7-4.2-0.5c-1.8,0.2-3.6,0.3-5.4,0.5c-3.6,0.3-7.1,0.6-10.7,1
					C575.3,1283.1,575.3,1286.1,577.2,1285.9L577.2,1285.9z"/>
			</g>
		</g>
		<g>
			<g>
				<path class="st25" d="M732.7,1304.8c3.4-3.2,9.3-2.5,11.9,1.3c1.5,2.2,3,4.4,6,4.2c2.6-0.2,5.1-2.7,7.8-2
					c1.2,0.3,2.2,1.2,2.8,2.2c0.6,1.2,0.3,2.5,0.5,3.9c0.6,3.1,3.7,3.2,6.1,2.5c6.7-1.7,13.8-0.7,20.6-0.3c8.3,0.5,16.6,1,25,1.4
					c1.9,0.1,1.9-2.9,0-3c-7.6-0.4-15.1-0.9-22.7-1.3c-3.6-0.2-7.2-0.4-10.9-0.6c-3.5-0.2-7.1-0.3-10.6,0.4c-1.1,0.2-2.8,1-3.9,0.8
					c-0.6-0.1-0.6-0.4-0.7-1.1c0-0.8,0-1.5-0.1-2.2c-0.5-2.7-2.7-4.9-5.3-5.6c-3-0.8-5.2,0.9-7.9,1.7c-3,0.8-3.9-2.7-5.6-4.3
					c-4.1-3.9-11-3.9-15.1-0.1C729.1,1303.9,731.3,1306.1,732.7,1304.8L732.7,1304.8z"/>
			</g>
		</g>
		<g>
			<g>
				<path class="st25" d="M568.1,1253.5c2.6,1.9,5.9,0.8,8.7-0.1c1.3-0.4,2.8-1,4.2-0.9c1.7,0.1,2.4,1.6,3.4,2.7
					c2.6,3,6.9,3.7,10.6,3.2c4.6-0.6,8.7-3.1,13.2-4c5-1,10.2,0.1,15.2,1.1c5.1,1.1,10.2,2.1,15.4,3.2c10.3,2.1,20.6,4.3,31,6.4
					c4.9,1,9.6,1.8,14.7,0.8c3.9-0.7,8.8-2.4,12.4,0c1.6,1.1,3,2.5,5.1,2.4c2.2-0.1,4.2-1.6,6-2.8c3-1.9,7.3-5.2,11-3.4
					c1.9,0.9,3.1,2.7,4.8,3.8c1.7,1.1,3.6,1.4,5.5,1.6c3.5,0.2,8.2-1,11,1.6c1.4,1.3,2.3,3.1,3.6,4.5c1.1,1.1,2.6,1.9,4.2,2.3
					c3.1,0.6,6.3-0.3,9.3-1.1c2.8-0.8,6.1-2,9-1c1.8,0.6,2.9,2.2,4.3,3.4c1.7,1.4,3.8,1.9,6,1.7c2.3-0.2,4.6-0.8,6.8-1.4
					c2.6-0.6,5.1-1.2,7.7-1.8c5-1.2,10.1-2.3,15.1-3.5c2.6-0.6,5.1-1.2,7.7-1.8c1.9-0.4,1.1-3.3-0.8-2.9c-10.1,2.3-20.2,4.7-30.2,7
					c-2.3,0.5-4.7,1.3-7.1,1.3c-2.4,0-3.6-1.4-5.2-2.9c-2.6-2.3-5.6-2.8-9-2.3c-3.2,0.5-6.2,1.7-9.4,2.3c-1.3,0.2-2.7,0.3-4-0.1
					c-1.7-0.5-2.7-1.8-3.7-3.2c-1.1-1.5-2.3-3.1-4-4c-1.7-0.9-3.6-1.1-5.5-1.2c-3.9-0.1-7.8,0.7-11-2.1c-1.5-1.3-2.9-2.7-4.9-3.3
					c-1.8-0.6-3.8-0.5-5.6,0.1c-2,0.6-3.9,1.7-5.7,2.8c-0.9,0.5-1.7,1.1-2.6,1.6c-1,0.6-2.1,1.4-3.2,1.7c-1.8,0.4-3.5-1.9-5-2.6
					c-1.8-0.8-3.8-1.1-5.8-0.9c-4.6,0.3-8.9,2-13.5,1.7c-5.1-0.3-10.1-1.8-15.1-2.8c-5.1-1.1-10.2-2.1-15.4-3.2
					c-5.1-1.1-10.2-2.1-15.4-3.2c-5-1-10-2.2-15-2.9c-5-0.6-9.6-0.1-14.4,1.6c-3.9,1.4-8.1,3.4-12.3,2.3c-1.9-0.4-3.2-1.4-4.4-3
					c-1.1-1.4-2.3-2.5-4-2.8c-3.1-0.5-5.9,1.1-8.9,1.8c-1.2,0.3-2.4,0.3-3.4-0.5C568.1,1249.7,566.6,1252.3,568.1,1253.5
					L568.1,1253.5z"/>
			</g>
		</g>
		<g>
			<g>
				<path class="st25" d="M1088.9,1136.3c6.1,4.1,13.9,1.4,19.7-2.1c3.2-1.9,6.2-4.1,9.6-5.6c3.8-1.7,7.6-1.7,11.7-1.2
					c3.8,0.4,7.5,0.6,11.2-0.5c3.4-1,6.5-2.7,9.1-5.1c2.4-2.2,4-4.9,5.7-7.6c1.5-2.4,3.2-5.1,5.8-6.5c1.6-0.8,3.3-0.9,5.1-0.9
					c2,0,4,0.1,6.1-0.2c4.1-0.7,7.9-2.4,11.8-4c8.1-3.3,16.3-6.6,24.4-9.9c6.5-2.7,13.1-5.3,19.1-9.1c2.8-1.8,5.5-3.9,7.7-6.3
					c2.5-2.7,4.2-5.8,6.1-9c1.8-3.1,4.2-5.6,7.6-6.9c1.6-0.6,3.2-0.9,4.9-1c1.8,0,3.5,0.5,5.3,0.5c3.8-0.2,6.4-3.9,8.6-6.6
					c2.4-2.9,4.5-6.1,6.2-9.4c0.9-1.7,1.7-3.5,2.4-5.2c0.7-1.8-2.2-2.6-2.9-0.8c-1.4,3.5-3.1,6.8-5.2,9.9c-1,1.6-2.2,3.1-3.4,4.5
					c-1.1,1.3-2.4,2.9-3.8,4c-1.6,1.2-3.5,0.6-5.3,0.4c-1.6-0.2-3.3-0.1-4.9,0.2c-3.2,0.6-6.2,2.2-8.6,4.4c-2.8,2.6-4.1,6.2-6.2,9.3
					c-1.8,2.7-4.1,5.1-6.6,7.1c-5.2,4.2-11.5,7-17.6,9.5c-7.7,3.2-15.4,6.3-23.1,9.4c-3.9,1.6-7.7,3.2-11.6,4.7
					c-1.8,0.7-3.7,1.3-5.7,1.6c-2,0.3-3.9,0.1-5.9,0.1c-3.3,0-6.2,1-8.6,3.3c-2.1,2-3.6,4.7-5.2,7.1c-1.8,2.8-3.7,5.3-6.5,7.2
					c-2.8,1.9-6.1,3.1-9.4,3.3c-4,0.3-8-0.9-12.1-0.7c-3.6,0.2-7,1.5-10.2,3.3c-5.9,3.3-11.8,8.5-19.1,8c-1.6-0.1-3.2-0.7-4.5-1.6
					C1088.8,1132.6,1087.3,1135.2,1088.9,1136.3L1088.9,1136.3z"/>
			</g>
		</g>
		<g>
			<g>
				<path class="st25" d="M1082.2,1121.7c0-2.6,1.4-4.9,3.4-6.4c2.3-1.7,4.8-2,7.5-1.2c1.5,0.5,3.1,1.1,4.7,1
					c1.6-0.1,3.1-0.6,4.4-1.3c3-1.5,5.8-3.3,8.8-4.7c6.3-3,12.9-5.4,19.7-7c6.9-1.7,14.1-2.4,20.8-4.6c6.7-2.1,12.8-5.6,18.9-8.9
					c6.5-3.6,13-7.1,19.4-10.7c6.1-3.4,12.1-6.8,17.9-10.7c2.9-1.9,5.8-4,8.6-6.1c2.5-2,5-4.2,8-5.5c3.2-1.3,6.6-1.3,9.7-2.8
					c2.7-1.2,5-3.1,7.2-5c4.3-3.7,8.3-8.2,13.9-9.7c1.9-0.5,1.1-3.4-0.8-2.9c-5.2,1.4-9.3,5.1-13.2,8.6c-1.9,1.7-3.9,3.5-6,4.9
					c-2.4,1.6-5,2.4-7.8,2.9c-3.3,0.7-6.1,1.9-8.8,3.9c-2.9,2.1-5.6,4.4-8.5,6.4c-5.8,4.1-11.9,7.8-18.1,11.2
					c-6.4,3.6-12.9,7.1-19.4,10.7c-6.4,3.5-12.8,7.3-19.7,9.9c-6.9,2.5-14.2,3.3-21.3,4.9c-6.9,1.6-13.6,3.9-20.1,6.8
					c-3.5,1.6-6.9,3.5-10.3,5.4c-1.7,0.9-3.3,1.5-5.3,1c-1.7-0.4-3.4-1.2-5.2-1.3c-6.1-0.3-11.6,5.1-11.7,11.1
					C1079.1,1123.7,1082.1,1123.7,1082.2,1121.7L1082.2,1121.7z"/>
			</g>
		</g>
		<g>
			<g>
				<path class="st25" d="M1056.1,1118.2c-0.5-3.2,0.7-6.5,2.8-8.9c1.1-1.2,2.4-2.3,3.9-3c1.6-0.7,3.3-0.8,5-1
					c3.6-0.4,5.1-2.9,6.7-5.8c0.6-1.1,1.3-2.5,2.5-3c1.6-0.8,3.6-0.3,5.3-0.1c1.8,0.2,3.5,0.1,5.2-0.7c1.6-0.8,2.8-2.2,3.9-3.6
					c2.5-3.1,5.6-5,9.2-6.5c8.2-3.5,16.8-6.3,25.4-8.6c4.8-1.3,9.7-2.4,14.5-3.4c3.2-0.7,7.3-2.5,7.1-6.3c-0.1-1.9-3.1-1.9-3,0
					c0.2,3.2-5.8,3.6-7.9,4c-4.4,0.9-8.8,2-13.2,3.2c-8.5,2.4-17,5.2-25.1,8.8c-3.6,1.6-6.8,3.7-9.3,6.8c-1,1.3-2.1,2.9-3.8,3.3
					c-1.7,0.5-3.7,0-5.4-0.2c-1.7-0.1-3.6,0.1-5,1.1c-1.2,0.8-2.1,2-2.8,3.3c-0.7,1.2-1.2,2.6-2.2,3.7c-1.3,1.4-3.2,1.2-4.9,1.4
					c-7.7,1-13.1,8.8-11.9,16.3C1053.5,1120.9,1056.4,1120.1,1056.1,1118.2L1056.1,1118.2z"/>
			</g>
		</g>
		<g>
			<g>
				<path class="st25" d="M1175.2,1060.7c2.6-1.8,5.3-3.8,8.5-4.4c1.5-0.3,2.9-0.1,4.4,0c1.8,0.2,3.4-0.1,5-0.9
					c3.1-1.6,6-3.7,8.9-5.6c3.1-2,6.3-4,9.4-6c2.8-1.8,5.6-3.5,7.6-6.2c0.8-1.1,1.7-2.2,2.8-3c1.1-0.8,2.3-1.5,3.4-2.1
					c2.3-1.3,4.4-2.7,5.8-5c0.8-1.3,1.2-2.6,2.7-3.3c1.4-0.7,3-0.9,4.4-1.4c6.8-2.4,12.4-7,17.9-11.5c1.5-1.2-0.6-3.3-2.1-2.1
					c-4.9,4-9.9,8.3-15.9,10.5c-2.6,1-5.9,1.2-7.8,3.5c-0.9,1-1.3,2.3-2.1,3.4c-0.8,1.1-2,1.9-3.1,2.6c-2.2,1.4-4.6,2.5-6.4,4.3
					c-1,1-1.7,2.2-2.7,3.3c-1.2,1.3-2.7,2.3-4.1,3.2c-6.1,3.9-12.3,7.9-18.4,11.7c-1.6,1-2.9,1.7-4.8,1.6c-2-0.1-3.7-0.4-5.7,0
					c-3.4,0.7-6.4,2.7-9.2,4.7C1172.1,1059.2,1173.6,1061.8,1175.2,1060.7L1175.2,1060.7z"/>
			</g>
		</g>
		<g>
			<g>
				<path class="st25" d="M1044.7,1084.2c1.7-2.4,4.9-2.9,7.6-3.1c3.4-0.2,6.8,0,10.1-0.7c4.1-0.8,7.8-2.9,11.4-4.9
					c4.1-2.3,8.2-4.6,12.3-6.9c3.9-2.2,7.7-4.6,11.7-6.4c4.1-1.8,8.4-1.3,12.8-1.5c8.5-0.3,16.7-2.9,24-7.1
					c7.9-4.4,14.9-10.3,21.7-16.2c1.5-1.3-0.7-3.4-2.1-2.1c-12.6,10.7-26.2,21.7-43.4,22.4c-4.3,0.2-8.7-0.3-12.9,1.2
					c-4.1,1.5-7.8,3.9-11.6,6.1c-4.1,2.3-8.2,4.6-12.3,6.9c-3.7,2.1-7.5,4.4-11.7,5.4c-6.7,1.6-15.5-1.3-20.2,5.3
					C1040.9,1084.3,1043.5,1085.8,1044.7,1084.2L1044.7,1084.2z"/>
			</g>
		</g>
		<g>
			<g>
				<path class="st25" d="M1182.1,1026.9c2.3-1.4,4.9-2.4,7.6-2.8c2.6-0.4,5.5,0.3,8-0.5c2.3-0.8,3.9-2.7,5.7-4.3
					c2.1-1.8,4.5-3.3,6.9-4.7c10.1-6.1,20.6-11.7,30.8-17.5c5.9-3.3,11.8-6.7,17.7-10c1.7-1,0.2-3.5-1.5-2.6
					c-10.5,5.9-21,11.9-31.5,17.8c-5.1,2.9-10.2,5.7-15.3,8.7c-2.3,1.3-4.6,2.7-6.8,4.3c-1.1,0.8-2.1,1.6-3.1,2.5
					c-0.9,0.8-1.8,1.8-2.9,2.5c-1.4,0.9-2.8,0.8-4.3,0.7c-1.5,0-2.9,0-4.3,0.3c-3,0.4-5.9,1.5-8.5,3.1
					C1178.9,1025.3,1180.4,1027.9,1182.1,1026.9L1182.1,1026.9z"/>
			</g>
		</g>
	</g>
	<path class="st26" d="M486.3,992.3l52.8,342.8c279.4,64.6,306.4,18.8,487.2,71.6c88-147.9,265.3-116.2,463.7-212.5l12.9,15.3
		l-464.9,263L528.6,1348l-68.1-394.4L486.3,992.3z"/>
	<polygon class="st27" points="1418.4,634.2 1436,671.8 1502.9,1209.4 1490,1194.2 	"/>
	<path class="st28" d="M977,901.9l44.6,328.7c0,0-67.6-388.2,242.3-524.3c0,0-159.7,35-215.5,89.7C992.7,850.7,977,901.9,977,901.9z
		"/>
	<path class="st29" d="M1322.9,788.4c0,0-140.1,40.7-111.1,72.8c29,32.1,111.9,74.3,137,54c25-20.3,57.9-46.2,45.4-71.2
		C1381.6,818.9,1322.9,788.4,1322.9,788.4z"/>
	<g>
		<defs>
			<path id="SVGID_00000052821625477836332500000002120648982536848812_" d="M823,1174.2c0,0-24.8,36.5-6.5,67.8
				c18.3,31.3,112.2,147.4,112.2,147.4s87.4-35.2,186.5-9.1c0,0,43-70.4,24.8-121.3s-79.6-164.3-121.3-174.8
				c-41.7-10.4-126.5-6.5-161.7,13c-35.2,19.6-77,44.3-57.4,61.3C819.1,1175.5,823,1174.2,823,1174.2z"/>
		</defs>
		<clipPath id="SVGID_00000054246902242026108620000000236265890924446607_">
			<use xlink:href="#SVGID_00000052821625477836332500000002120648982536848812_"  style="overflow:visible;"/>
		</clipPath>
		<path style="clip-path:url(#SVGID_00000054246902242026108620000000236265890924446607_);fill:#FFC9AE;" d="M823,1174.2
			c0,0-24.8,36.5-6.5,67.8c18.3,31.3,112.2,147.4,112.2,147.4s87.4-35.2,186.5-9.1c0,0,43-70.4,24.8-121.3s-79.6-164.3-121.3-174.8
			c-41.7-10.4-126.5-6.5-161.7,13c-35.2,19.6-77,44.3-57.4,61.3C819.1,1175.5,823,1174.2,823,1174.2z"/>
		<path style="opacity:0.3;clip-path:url(#SVGID_00000054246902242026108620000000236265890924446607_);fill:#F79063;" d="
			M989.2,1074.5c0,0,65.5,19.7,82.3,101.5c16.8,81.7-110.1,208.7-110.1,208.7l151.9,16.2l73-55.7L1180,1209l-144.3-128.1
			L989.2,1074.5z"/>
	</g>
	<g>
		<defs>
			<path id="SVGID_00000062187113709510669060000014686491480020862083_" d="M690,786.4c0,0-34.8-331.5-60.5-412.8
				c-3.3-23.2-28.3-47.5-66.4-36.5c15.4-52.9,45.7-134.1-7.7-177.3c-103.8-33.9-24.9,103.6-54.2,113.8
				c-29.3,10.3-68.8-47.4-96.7-37.4c-27.9,10,24,71.2,24,71.2s-65.1-57.8-153.2-39.5c-69.3,7.7-149.1,166.8-2.9,93.3
				c106.2-23.2,169.2-5.6,203.8,13.9c-22,15.7-35.8,38-35,77.4c2,95.3,186.2,344.1,186.2,344.1s17.3,27.7,35.8,21
				C692.1,807.5,690,786.4,690,786.4z"/>
		</defs>
		<clipPath id="SVGID_00000148631294948104071520000007542595882128190141_">
			<use xlink:href="#SVGID_00000062187113709510669060000014686491480020862083_"  style="overflow:visible;"/>
		</clipPath>
		<g style="clip-path:url(#SVGID_00000148631294948104071520000007542595882128190141_);">
			<g>
				<path class="st18" d="M627.5,796.7c0,0-184.2-248.9-186.2-344.1c-1.6-77,52.5-88.8,114.9-113c42-16.3,69.9,9.5,73.3,34.1
					c25.7,81.3,60.5,412.8,60.5,412.8s2.1,21.1-26.8,31.3C644.8,824.3,627.5,796.7,627.5,796.7z"/>
			</g>
			<g>
				<path class="st3" d="M512.4,405.8c0,0-53.2-85.2-239.9-44.4c-146.2,73.5-66.4-85.6,2.9-93.3c88.1-18.3,153.2,39.5,153.2,39.5
					s-51.9-61.2-24-71.2s67.5,47.7,96.7,37.4c29.3-10.3-49.6-147.8,54.2-113.8c72.1,58.5-8.7,186.3,1.3,219.8
					C543.3,415.2,512.4,405.8,512.4,405.8z"/>
			</g>
		</g>
		<g style="clip-path:url(#SVGID_00000148631294948104071520000007542595882128190141_);">
			<path class="st19" d="M421.8,504.2c60.5,27.8,132.8,27.5,188.8-10.5c3.4-2.3,7.7-5.3,11-7.8c3.3-2.5,7.3-5.8,10.4-8.5
				c6.7-5.9,13.3-12.3,19.3-18.9c8.2-8.7,15.8-18.4,22.9-28c-25.5,41-63.8,76.2-110.9,89.9C516.5,534.1,464.5,527.2,421.8,504.2
				L421.8,504.2z"/>
		</g>
		<g style="clip-path:url(#SVGID_00000148631294948104071520000007542595882128190141_);">
			<path class="st19" d="M448.5,596.9c47.4,23.6,105.2,29.9,154.8,9.5c20.5-8.4,39.3-20.8,55.6-35.7c9.9-8.9,19-18.9,27.5-29.2
				c3.4-4.2,7.7-9.9,10.9-14.2c-25.2,40.5-62.9,75.5-109.6,88.7C541.4,629.2,489.9,621,448.5,596.9L448.5,596.9z"/>
		</g>
		<g style="clip-path:url(#SVGID_00000148631294948104071520000007542595882128190141_);">
			<path class="st19" d="M474.8,655.2c34.5,29.7,80.9,58.1,127.9,55.3c28.6-1.7,53.6-17.8,71.4-39.5c6.7-7.9,12.6-16.7,18-25.6
				c4.3-7.2,8.9-16.3,12.6-23.8c-6.6,16.7-14.9,33.1-25.6,47.6C621.5,747.4,533,712.7,474.8,655.2L474.8,655.2z"/>
		</g>
		<g style="clip-path:url(#SVGID_00000148631294948104071520000007542595882128190141_);">
			<path class="st19" d="M494.4,694.2c29.9,32.5,72.2,68.8,117.4,74c30.1,3.5,55.5-11,74.3-33.6c8.1-9.6,14.9-20.3,21-31.3
				c2.1-3.9,6.2-11.9,8.1-15.9c-6.8,17.3-15.5,34.1-27,48.9C627.8,812.9,541.2,753.4,494.4,694.2L494.4,694.2z"/>
		</g>
	</g>
	<g>
		<path class="st33" d="M179.7,711.8c30-0.3,67.4,12.4,76.8,43.9c1.4,4.3,2.1,8.8,2.4,13.3l-0.4,0.1c-2-6.3-4.3-12.4-7.5-18.1
			c-10.2-17.7-25.8-28.6-45.4-34.2c-8.4-2.5-17.1-4.1-25.9-4.5C179.7,712.2,179.7,711.8,179.7,711.8L179.7,711.8z"/>
	</g>
	<g>
		<defs>
			<path id="SVGID_00000025411928505269309630000005681415443427372694_" d="M1179.7,915.2c0,0-26.6-15.7-15.7-43
				s58.7-29.7,93.1-6.3c34.4,23.5,77.5,19.6,79.8,7s14.1-43-4.7-48.5s-57.1,7.8-71.2,19.6c-14.1,11.7-78.3,57.9-101.7,14.9
				c-23.5-43,129.9-148.7,148.7-151s131.5-11.7,171.4,43.8c39.9,55.6,87.7,139.3,87.7,139.3s3.9,140.1-112.7,172.2
				C1337.8,1095.2,1179.7,915.2,1179.7,915.2z"/>
		</defs>
		<clipPath id="SVGID_00000127033734672507082270000007874921241039621520_">
			<use xlink:href="#SVGID_00000025411928505269309630000005681415443427372694_"  style="overflow:visible;"/>
		</clipPath>
		<path style="clip-path:url(#SVGID_00000127033734672507082270000007874921241039621520_);fill:#FFC9AE;" d="M1179.7,915.2
			c0,0-26.6-15.7-15.7-43s58.7-29.7,93.1-6.3c34.4,23.5,77.5,19.6,79.8,7s14.1-43-4.7-48.5s-57.1,7.8-71.2,19.6
			c-14.1,11.7-78.3,57.9-101.7,14.9c-23.5-43,129.9-148.7,148.7-151s131.5-11.7,171.4,43.8c39.9,55.6,87.7,139.3,87.7,139.3
			s3.9,140.1-112.7,172.2C1337.8,1095.2,1179.7,915.2,1179.7,915.2z"/>
	</g>
	<g>
		<defs>
			<path id="SVGID_00000148627890163702334180000009370146561439604405_" d="M468.7,711.7c0,0-84.5,142-23.5,292.3
				c0,0,30.5,44.6,128,12.9c0,0,8.2,47,55.2,47c47,0,145.6-31.7,173.7-68.1c28.2-36.4,54-102.1,34-138.5s-71.1-130.7-216-156.1
				C513.3,682.3,468.7,711.7,468.7,711.7z"/>
		</defs>
		<clipPath id="SVGID_00000080167625180575710270000003273719738082629790_">
			<use xlink:href="#SVGID_00000148627890163702334180000009370146561439604405_"  style="overflow:visible;"/>
		</clipPath>
		<path style="clip-path:url(#SVGID_00000080167625180575710270000003273719738082629790_);fill:#FFC9AE;" d="M468.7,711.7
			c0,0-84.5,142-23.5,292.3c0,0,30.5,44.6,128,12.9c0,0,8.2,47,55.2,47c47,0,145.6-31.7,173.7-68.1c28.2-36.4,54-102.1,34-138.5
			s-71.1-130.7-216-156.1C513.3,682.3,468.7,711.7,468.7,711.7z"/>
		<path style="opacity:0.3;clip-path:url(#SVGID_00000080167625180575710270000003273719738082629790_);fill:#F79063;" d="
			M592,676.5c0,0-159.7,157.3-115,363.9l-61-47l-35.2-197.2l75.1-138.5L592,676.5z"/>
	</g>
	<g>
		<path class="st37" d="M692.8,1053.4c0,0-61.3,32-104.3-12.2c-43-44.2,2.1-65.7,34.7-57.3c32.7,8.4,64.6-0.8,73.4-23.7"/>
		<path class="st33" d="M692.8,1053.4c-27.5,15.7-64.1,20.1-92,2.8c-13.2-8.1-26.8-22.1-32.3-36.8c-5.8-15.5,1-29.6,15.7-36.4
			c9.2-4.3,19.6-5.6,29.6-4.7c6.4,0.5,12.5,2.7,18.7,3.9c11.8,2.2,24.2,2.5,35.9-0.6c11.8-3,22.9-10.1,28.2-21.4
			c-1.8,6.1-5.5,11.6-10.3,15.9c-14.8,13-36.1,15.7-55,13.1c-6.2-0.8-12-2.7-18.2-2.9c-16.9-1.2-43,6.9-36.9,28.2
			c2.8,9.1,8.7,16.5,15.2,23.6C617.9,1066.6,658.5,1066.6,692.8,1053.4L692.8,1053.4z"/>
	</g>
	<g>
		<path class="st37" d="M728.1,1013.4c0,0-75.1,35.2-124.4-20c-49.3-55.2,5.9-78.7,44.6-66.9c38.7,11.7,77.1,5.5,88.8-21.5"/>
		<path class="st33" d="M728.1,1013.4c-33.8,16.9-77.4,20.1-109.8-1.8c-17.3-11.7-38.6-35.4-38.6-57.5c0.4-28.1,33.4-37.4,56.6-34.1
			c3.9,0.5,7.8,1.3,11.6,2.4c3.4,1.1,7.1,2.2,10.6,3.1c14.1,3.5,28.9,5.1,43.3,2.7c14.4-2.2,28.5-9.7,35.3-23.2
			c-2.5,7.2-7.4,13.4-13.5,18c-20.7,14.9-48.5,13.9-72.3,8.2c-5.2-1.4-10.5-2.8-15.9-3.3c-15.7-1.4-37.1,2.2-44.8,17.3
			c-6.9,15.9,6.2,33.5,16.3,45.5C637.2,1026.2,686.6,1028,728.1,1013.4L728.1,1013.4z"/>
	</g>
	<g>
		<path class="st38" d="M493.3,708.2c15.5-3.4,31.4-5.2,47.2-6c22.3-1.3,44.8-0.3,66.8,3.4c45.5,7.8,90.6,22.3,129,48.5
			c14.4,9.9,27.9,21.3,39.9,33.9c-14.8-11.8-30.1-22.9-46.6-32.1c-1.5-0.9-4.7-2.7-6.1-3.5c-36.6-19.7-76.9-31.5-117.5-39.5
			C569,705.9,530.9,705.5,493.3,708.2L493.3,708.2z"/>
	</g>
	<g>
		<defs>
			<path id="SVGID_00000055694689769674930930000007134239855166789054_" d="M667.9,707.8c0,0,40.7,7,97.8-7c0,0,0-201.9-3.1-224.6
				c-3.1-22.7-20.3-44.6-57.9-43c-37.6,1.6-58.7,34.4-57.1,48.5C649.1,495.7,667.9,707.8,667.9,707.8z"/>
		</defs>
		<clipPath id="SVGID_00000170263146025767812290000004550606805101072789_">
			<use xlink:href="#SVGID_00000055694689769674930930000007134239855166789054_"  style="overflow:visible;"/>
		</clipPath>
		<path style="clip-path:url(#SVGID_00000170263146025767812290000004550606805101072789_);fill:#FF3E3E;" d="M667.9,707.8
			c0,0,40.7,7,97.8-7c0,0,0-201.9-3.1-224.6c-3.1-22.7-20.3-44.6-57.9-43c-37.6,1.6-58.7,34.4-57.1,48.5
			C649.1,495.7,667.9,707.8,667.9,707.8z"/>
		<path style="clip-path:url(#SVGID_00000170263146025767812290000004550606805101072789_);fill:#FF7171;" d="M665.9,424.1
			c0,0,54,8.2,62.2,50.5s8.2,243,8.2,243l59.9-2.3l-24.7-294.7L665.9,424.1z"/>
		<g style="opacity:0.65;clip-path:url(#SVGID_00000170263146025767812290000004550606805101072789_);">
			<path class="st42" d="M695.7,440.9c7.2-1.5,14.6-2.2,22-1.9c4.9,0.2,9.8,0.9,14.5,2.8c5.2,2.5,9.7,6.2,13.6,10.4
				c13.9,15.7,12.9,31.6,13.3,51.1c0.6,50.3,1.1,124.7,1.1,175.2c-2.3-25.8-4.3-150.9-6-175.1c-0.7-11.4,0.1-23-3.6-33.9
				c-3.4-10.1-10.6-19.1-19.9-24.5c-10.8-4.8-23.2-4.4-34.8-3.7C695.8,441.4,695.7,440.9,695.7,440.9L695.7,440.9z"/>
		</g>
	</g>
	<g>
		<defs>
			<path id="SVGID_00000052807428917640581780000015488524887120385704_" d="M670.2,707.8c0,0,39.1,4.7,90.8-7.8
				c0,0,0.5,338.6-0.5,366.8c-1,28.2-19.8,51.1-19.8,51.1s-25-24-28.2-47C709.3,1048,670.2,707.8,670.2,707.8z"/>
		</defs>
		<clipPath id="SVGID_00000159440019016147197500000012429174662898934673_">
			<use xlink:href="#SVGID_00000052807428917640581780000015488524887120385704_"  style="overflow:visible;"/>
		</clipPath>
		<path style="clip-path:url(#SVGID_00000159440019016147197500000012429174662898934673_);fill:#FF3E3E;" d="M670.2,707.8
			c0,0,39.1,4.7,90.8-7.8c0,0,0.5,338.6-0.5,366.8c-1,28.2-19.8,51.1-19.8,51.1s-25-24-28.2-47C709.3,1048,670.2,707.8,670.2,707.8z
			"/>
		<path style="clip-path:url(#SVGID_00000159440019016147197500000012429174662898934673_);fill:#FF7171;" d="M734,673l8.2,401.3
			c0,0,9.4,1.8,18.3-2.9s9.1-391.8,9.1-391.8l-35-7.6L734,673z"/>
		<path style="clip-path:url(#SVGID_00000159440019016147197500000012429174662898934673_);fill:#CCCCCC;" d="M712.5,1070.9
			c0,0,30,8.6,48-4.2c0,0-1.3,27.9-19.8,51.1C740.7,1117.9,716.9,1098.3,712.5,1070.9z"/>
		<path style="clip-path:url(#SVGID_00000159440019016147197500000012429174662898934673_);fill:#E5E5E5;" d="M742.2,1073.1
			c0,0,1.8,23.2-1.6,44.9c0,0,20.6-25.6,19.8-51.1C760.5,1066.9,749.5,1072.7,742.2,1073.1z"/>
		<path style="opacity:0.25;clip-path:url(#SVGID_00000159440019016147197500000012429174662898934673_);fill:#B5B5B5;" d="
			M708,1068.6c0,0,4.2,3.1,13.4,4.2c0,0,3.8,30.5,14.9,43.3C736.3,1116,704.5,1085,708,1068.6z"/>
		
			<path style="clip-path:url(#SVGID_00000159440019016147197500000012429174662898934673_);fill:none;stroke:#B5B5B5;stroke-miterlimit:10;" d="
			M735.3,1112.8c0,0,5.9,2.1,11.6-0.9"/>
	</g>
	<g>
		<path class="st37" d="M575.8,743.8c0,0,131.2,27.8,179.3,77.1s15.3,78.7-8.2,79.8c-23.5,1.2-120-30.7-201.4-38.5"/>
		<path class="st33" d="M575.8,743.8c55.9,10.3,133.8,31.9,177.4,69.2c14,13,27.6,29.2,30.8,48.7c3.5,22.3-13.7,41.2-35.5,43.2
			c-5.7,0.4-11.3-0.6-16.9-1.5c-10.6-1.9-20.9-4.4-31.3-6.9c-30.8-7.6-61.5-15.8-92.5-22.7c-20.6-4.6-41.4-8.6-62.4-11.6
			c21.2,1.1,42.2,4,63.2,7.5c30.2,5.1,63.4,12.6,93.4,19.3c10.3,2.3,20.6,4.6,30.9,6.2c4.9,0.7,9.8,1.5,14.7,1.1
			c9.1-0.9,18.2-6.1,23.3-13.7c5.3-7.9,5.4-17.7,2.4-26.6c-3.1-9.4-8.9-17.9-15.4-25.5c-10-11.9-22.2-21.2-35.5-29.3
			c-27-16.2-56.5-28.1-86.1-38.5C616.4,755.6,596.2,749.4,575.8,743.8L575.8,743.8z"/>
	</g>
	<g>
		<path class="st49" d="M764.5,846.7C754.3,835,736,834,736,834c-21.4,18.3-12.5,47-12.5,47s18,5.6,34,5.6c16,0,12.9-30.1,12.9-30.1
			"/>
		<path class="st33" d="M764.5,846.7c-7.7-7.1-18.4-10.1-28.7-10.6c0,0,1.5-0.5,1.5-0.5c-10.7,9.6-14.3,24.8-12.2,38.7
			c0.3,1.9,0.7,4,1.2,5.8c0,0-2-2-2-2c5.5,1.6,11.2,3,16.9,4.2c5,1,10,1.7,15.1,2c6.8,0.9,10.1-4.6,11.8-10.4
			c1.6-5.5,2.2-11.5,2.3-17.4c1.9,10.6,2.4,30.3-11.7,32.3c-12.8,0.7-25.4-1.8-37.6-5.4c-1.6-4.9-2.3-9.9-2.4-15
			c-0.5-14,5.2-28.1,16.6-36.5C746.3,833.1,757.8,837.6,764.5,846.7L764.5,846.7z"/>
	</g>
	<g>
		<path class="st38" d="M583.1,757.9c37.1,5.7,73.4,16.4,107.4,32.5c13.6,6.4,27.1,13.3,39.4,21.9c6.2,4.4,12,9.3,17,14.8
			c-18.6-12.7-39.1-21-59.6-29.8C653.3,782.2,618,770.9,583.1,757.9L583.1,757.9z"/>
	</g>
	<g>
		<path class="st37" d="M769.9,899.8c0,0-2.7,40.5-32.3,42c-45.8,2.3-49.8,26.5-50.5,37.6c-1.2,20,4.4,34,50.5,34
			c43.4,0,72.8-24.7,85.7-55.2c12.9-30.5,32.9-66.9,3.5-118.6"/>
		<path class="st33" d="M769.9,899.8c-1.1,21.2-10.6,43.9-35,44.6c-14.3,1.5-30.7,5.5-39.1,18.1c-3.4,5.1-4.7,11.3-4.9,17.4
			c-0.3,5.8,0,12.6,3.1,17.2c4.3,6.5,12.8,8.9,20.4,10.3c7.4,1.3,15.2,1.6,22.8,1.6c35.5,0.5,68-19,82.3-51.8
			c11.8-25.7,23.5-50.2,19.5-79.4c-1.1-8.8-3.5-17.5-6.8-25.8c-1.6-4.2-3.5-8.3-5.5-12.3c9.8,15.2,16.6,32.9,17.4,51.2
			c1.3,23-7.5,45.4-16.3,66.2c-14,37-47.6,60.1-87.1,60.7c-9.3,0.1-18.6-0.2-27.8-1.9c-12.5-2.1-25.8-8.3-28.8-21.9
			c-2.4-11.6-1-25.6,6-35.5c8.5-12.1,23.6-16.9,37.6-18.4c4.4-0.6,9-0.4,13.4-0.9C759.4,936.5,767.3,916.1,769.9,899.8L769.9,899.8z
			"/>
	</g>
	<g>
		<defs>
			<path id="SVGID_00000135684616894761271970000010145125055434923185_" d="M468.7,711.7c0,0-161.6-68.1-288.4-79
				c-126.8-11-150.1,356.2,20.3,396c47,11,244.6-24.7,244.6-24.7S388.5,870.6,468.7,711.7z"/>
		</defs>
		<clipPath id="SVGID_00000012474617571308399970000008818378440250232761_">
			<use xlink:href="#SVGID_00000135684616894761271970000010145125055434923185_"  style="overflow:visible;"/>
		</clipPath>
		<path style="clip-path:url(#SVGID_00000012474617571308399970000008818378440250232761_);fill:#349922;" d="M468.7,711.7
			c0,0-161.6-68.1-288.4-79c-126.8-11-150.1,356.2,20.3,396c47,11,244.6-24.7,244.6-24.7S388.5,870.6,468.7,711.7z"/>
		<path style="opacity:0.39;clip-path:url(#SVGID_00000012474617571308399970000008818378440250232761_);fill:#1C720A;" d="
			M288.3,635.8c0,0-200.3,233.2-45.4,399.1l-131.5,18.8L23.8,836.1l34.4-150.3l59.5-86.1l176.9,34.4L288.3,635.8z"/>
	</g>
	<g>
		<defs>
			<path id="SVGID_00000002369828300521424080000007704402361310243722_" d="M739.9,480.3c0,0,14.6-16.4,45.4-8.1
				c30.8,8.3,26.1,29.7,20.9,43.3c-5.2,13.6-45.9,93.4-29.2,103.8c16.7,10.4,36.5,8.3,36.5,17.2c0,8.9-4.2,31.8-20.3,26.6
				c-16.2-5.2-40.7-13-42.3-42.8c-1.6-29.7,18.7-74.3,21.9-84c5-15.1-13-29.2-31.8-29.2C740.9,507.2,731.8,492.6,739.9,480.3z"/>
		</defs>
		<clipPath id="SVGID_00000127012575752256364090000011934502248795451811_">
			<use xlink:href="#SVGID_00000002369828300521424080000007704402361310243722_"  style="overflow:visible;"/>
		</clipPath>
		<path style="clip-path:url(#SVGID_00000127012575752256364090000011934502248795451811_);fill:#999999;" d="M739.9,480.3
			c0,0,14.6-16.4,45.4-8.1c30.8,8.3,26.1,29.7,20.9,43.3c-5.2,13.6-45.9,93.4-29.2,103.8c16.7,10.4,36.5,8.3,36.5,17.2
			c0,8.9-4.2,31.8-20.3,26.6c-16.2-5.2-40.7-13-42.3-42.8c-1.6-29.7,18.7-74.3,21.9-84c5-15.1-13-29.2-31.8-29.2
			C740.9,507.2,731.8,492.6,739.9,480.3z"/>
		<path style="opacity:0.5;clip-path:url(#SVGID_00000127012575752256364090000011934502248795451811_);fill:#7C7C7C;" d="
			M726,497.5c0,0,31.8-6.3,53.2,13c0,0,10.4,6.8,2.6,26.1c-7.8,19.3-21.4,51.7-23,67.3c-1.6,15.7-4.7,36.5,15.7,55.3
			c0,0-32.3-13.6-34.4-32.9c-2.1-19.3,28.2-81.9,24-95c-4.2-13-29.7-15.7-29.7-15.7L726,497.5z"/>
		<g style="opacity:0.43;clip-path:url(#SVGID_00000127012575752256364090000011934502248795451811_);">
			<path class="st42" d="M762.6,474.4c12.1-0.3,30.1,1,39.1,10c12.9,13.6-10.2,49.2-15,64.4c-4.1,11.2-8.2,22.5-12,33.8
				c0,0-0.3-0.1-0.3-0.1c3.4-11.5,7.1-22.8,10.9-34.2c1.8-5.7,4.3-11.2,6.7-16.7c4.5-11.1,13.6-30.2,9.6-41.8
				c-3.4-7.6-13.8-10.3-21.3-12.2c-5.8-1.3-11.7-2.3-17.6-2.9C762.6,474.7,762.6,474.4,762.6,474.4L762.6,474.4z"/>
		</g>
		<g style="opacity:0.43;clip-path:url(#SVGID_00000127012575752256364090000011934502248795451811_);">
			<path class="st42" d="M784.2,628.5c4.1,0.3,8.1,0.9,12.2,1.8c4.1,1,8.4,1.8,12.1,4c3.7,3.2,3,8.9,1.8,13c-1.2,4-2.9,7.8-5.1,11.3
				c1.4-5.8,3.5-11.6,3.2-17.5c-0.1-1.6-0.6-3.3-1.7-4.4c-1.5-1-3.4-1.6-5.1-2.2C795.8,632.4,789.9,630.7,784.2,628.5L784.2,628.5z"
				/>
		</g>
	</g>
	<g>
		<defs>
			<path id="SVGID_00000041993610330671702910000015645862978709222826_" d="M703,723.9c-22.5,0-37.2-3.8-38.3-4.1
				c-6.7-1.8-10.7-8.6-8.9-15.3c1.8-6.7,8.6-10.7,15.2-8.9l0,0c0.4,0.1,41.9,10.4,90.5-6.7c6.5-2.3,13.6,1.1,15.9,7.6
				c2.3,6.5-1.1,13.6-7.6,15.9C744.6,721.4,721.3,723.9,703,723.9z"/>
		</defs>
		<clipPath id="SVGID_00000130631134724195705880000004254821817498527149_">
			<use xlink:href="#SVGID_00000041993610330671702910000015645862978709222826_"  style="overflow:visible;"/>
		</clipPath>
		<g style="clip-path:url(#SVGID_00000130631134724195705880000004254821817498527149_);">
			<path class="st56" d="M703,723.9c-22.5,0-37.2-3.8-38.3-4.1c-6.7-1.8-10.7-8.6-8.9-15.3c1.8-6.7,8.6-10.7,15.2-8.9l0,0
				c0.4,0.1,41.9,10.4,90.5-6.7c6.5-2.3,13.6,1.1,15.9,7.6c2.3,6.5-1.1,13.6-7.6,15.9C744.6,721.4,721.3,723.9,703,723.9z"/>
		</g>
		<path style="opacity:0.69;clip-path:url(#SVGID_00000130631134724195705880000004254821817498527149_);fill:#828282;" d="
			M664.1,695.1c0,0-10.8,10.3-4.4,18s59.9,13,92.6,4.7c0,0-44.2,22.2-82.3,11.7C631.9,719.1,654.6,695.7,664.1,695.1z"/>
		<g style="opacity:0.43;clip-path:url(#SVGID_00000130631134724195705880000004254821817498527149_);">
			<path class="st42" d="M707.4,702.3c13.6,0.2,27.1-2.6,40.1-6.5c4.9-1.4,9.8-3.6,14.7-4.9c9-2.2,15.7,2.7,13.5,12.3
				c-0.5,1.7-1.1,3.4-2.2,4.8c0,0-0.2-0.2-0.2-0.2c1.7-4.2,1.9-10.1-1.8-13.2c-3.8-2.5-9.2-0.6-13.4,0.6c-3.3,1-6.6,1.9-9.9,2.8
				c-10,2.6-20.2,4.3-30.5,4.7c-3.4,0.1-6.9,0.1-10.3-0.3C707.4,702.6,707.4,702.3,707.4,702.3L707.4,702.3z"/>
		</g>
	</g>
	<g>
		<path class="st49" d="M732.6,1009.1c0,0-24.7,2.6-35.1-7.4c-10.4-9.9,10.4-34.9,10.4-34.9s25.7,4,34.1,2.2c0,0,4.3,32-4.7,39.3"/>
		<path class="st33" d="M732.6,1009.1c-11.6,2.1-27.2,2.5-36.8-5.6c-8.6-8.4-1.1-22.3,4-30.5c1.8-2.8,3.6-5.4,5.8-8
			c0.7-0.8,1.7-1.2,2.7-1c5.6,0.9,11.2,1.7,16.8,2.4c5.5,0.5,11.2,1.4,16.6,0.7c1.2-0.2,2.2,0.6,2.3,1.8c0.4,3.5,0.5,6.9,0.5,10.3
			c-0.1,8.4-0.2,23.7-7.3,29.3c2.4-2.4,3.2-5.8,3.8-9.1c0.5-3.3,0.6-6.6,0.6-10c-0.1-6.7-0.8-13.4-1.8-20c0,0,2.5,1.8,2.5,1.8
			c-5.9,1.3-11.8,0.8-17.8,0.5c-5.8-0.4-11.5-1-17.2-1.8c0,0,2.8-1,2.8-1c-5.3,7-10.8,14.9-12.7,23.5c-0.9,4.5,0.5,7.5,4,9.8
			C710.6,1007.9,721.9,1008.6,732.6,1009.1L732.6,1009.1z"/>
	</g>
	<g>
		<path class="st59" d="M182.7,641.5c40.1,4.5,80.4,12.5,119.7,21.9c50.7,12.3,100.8,28.6,149.3,47.9c2.8,1.1,4.1,4.2,3,7
			c-0.7,1.6-1.6,3.2-2.4,4.9c-7.5,15.7-14.1,31.9-19.8,48.4c-7.5,21.7-13.3,44.2-15.7,67.1c-0.9,8.8-1.3,17.5-1.2,26.4
			c0,0.3-0.2,0.6-0.5,0.6c-0.3,0-0.5-0.2-0.5-0.4c-7.2-38.7,1-78.8,14.1-115.4c4.5-12.4,9.7-24.4,16-36c0,0,2.7,7.8,2.7,7.8
			c-7.6-3.3-16.1-7-23.8-10.3c-5.3-2.2-18.6-7.4-24.1-9.7c-26.9-10.3-54.4-19.4-82-27.6c-44.3-13.1-89.3-24-135-31.4
			c-0.3,0-0.5-0.3-0.5-0.6C182.2,641.7,182.4,641.5,182.7,641.5L182.7,641.5z"/>
	</g>
	<g>
		<path class="st37" d="M888.9,1083.2c-94.8,35.4-95.4,61.5-94.2,69.3c1.2,7.8,25.5,21.4,25.5,21.4s18.6,16.8,66.7,1.7"/>
		<path class="st33" d="M888.9,1083.2c-22.9,11.8-85.1,38.6-89.8,64.6c-0.2,1.3-0.2,2.7,0,4c0.2,0.6,0.6,1.2,1.1,1.9
			c5.8,6.7,14.3,11.9,21.9,16.8c0.4,0.2,0.8,0.6,1.2,0.9c1.1,0.9,2.7,1.7,4,2.4c13.1,6.3,28.4,6.1,42.6,4.6c5.7-0.7,11.3-1.7,17-2.8
			c-6.6,2.7-13.6,5.2-20.7,6.7c-13.7,3.1-28.8,3.7-42.1-1.7c-2.4-1.1-4.4-2-6.6-3.8c0,0,0.7,0.5,0.7,0.5c-6-3.2-11.6-6.7-17.1-10.8
			c-3.8-3.1-8.6-6.7-10.5-11.9c-1.8-6.4,0.3-13.5,3.5-18.8C810.8,1108.7,859.3,1091.2,888.9,1083.2L888.9,1083.2z"/>
	</g>
	<g>
		<g>
			<g>
				<defs>
					<path id="SVGID_00000117639237127042302900000003977088054231242676_" d="M865.5,1138.5c0,0,29.6,54.8,100.9,41.7l82.6-140.9
						c0,0,20.9-49.6-36.5-86.1c-51.9-33-105.2-1.7-118.3,56.5S865.5,1138.5,865.5,1138.5z"/>
				</defs>
				<clipPath id="SVGID_00000072980700657082477280000011116127624830279555_">
					<use xlink:href="#SVGID_00000117639237127042302900000003977088054231242676_"  style="overflow:visible;"/>
				</clipPath>
				<path style="clip-path:url(#SVGID_00000072980700657082477280000011116127624830279555_);fill:#0B1549;" d="M865.5,1138.5
					c0,0,29.6,54.8,100.9,41.7l82.6-140.9c0,0,20.9-49.6-36.5-86.1c-51.9-33-105.2-1.7-118.3,56.5S865.5,1138.5,865.5,1138.5z"/>
				<path style="clip-path:url(#SVGID_00000072980700657082477280000011116127624830279555_);fill:#222D5B;" d="M980.2,909.8
					c0,0,52.2,60,39.1,99.1c-13,39.1-114.8,211.3-114.8,211.3l101.7-62.6l80.9-138.3L980.2,909.8z"/>
				<g style="opacity:0.3;clip-path:url(#SVGID_00000072980700657082477280000011116127624830279555_);">
					<path class="st42" d="M1013.6,963.2c17.9,17,42.8,48,27.1,73.1c-15.4,29-31.9,57.5-48.3,85.9c-10.2,17.5-20.4,34.9-30.7,52.3
						c-0.8,1.4-2.7,1.9-4.1,1c-1.4-0.8-1.9-2.7-1-4.1c10.7-17.1,21.4-34.3,32-51.5c17.1-28,34.3-56,50.3-84.6c0,0,1.8-3.3,1.8-3.3
						c2.9-5.4,3.9-11.7,3.2-17.8C1041.2,994.6,1027.1,976.8,1013.6,963.2L1013.6,963.2z"/>
				</g>
				<g style="clip-path:url(#SVGID_00000072980700657082477280000011116127624830279555_);">
					<defs>
						<path id="SVGID_00000003087625239704765740000001638361991847974570_" d="M912.7,1173.9c-3.6-1.7-11.6-5.2-7.5-20.9
							c4.1-15.7,11-7.5,15.1-19.1c4.1-11.6,1.7-62,10.4-84.6c8.7-22.6,26.1-24.9,35.4-22c9.3,2.9,24.3,12.2,14.5,38.3
							c-9.9,26.1-41.2,61.5-45.8,73.6s4.6,12.2-1.7,24.3C926.6,1175.6,916.3,1175.5,912.7,1173.9z"/>
					</defs>
					<clipPath id="SVGID_00000103266160213334540390000015638409014512841916_">
						<use xlink:href="#SVGID_00000003087625239704765740000001638361991847974570_"  style="overflow:visible;"/>
					</clipPath>
					<path style="clip-path:url(#SVGID_00000103266160213334540390000015638409014512841916_);fill:#999999;" d="M912.7,1173.9
						c-3.3-1.2-11.6-5.2-7.5-20.9c4.1-15.7,11-7.5,15.1-19.1c4.1-11.6,1.7-62,10.4-84.6c8.7-22.6,26.1-24.9,35.4-22
						c9.3,2.9,24.3,12.2,14.5,38.3c-9.9,26.1-41.2,61.5-45.8,73.6s4.6,12.2-1.7,24.3C926.6,1175.6,916,1175.1,912.7,1173.9z"/>
					<path style="opacity:0.65;clip-path:url(#SVGID_00000103266160213334540390000015638409014512841916_);fill:#848484;" d="
						M904.7,1147.3c0,0-5.7,37,30.2,19.6l-14.1,17.4l-27.2-0.7L904.7,1147.3z"/>
					<path style="opacity:0.65;clip-path:url(#SVGID_00000103266160213334540390000015638409014512841916_);fill:#848484;" d="
						M919.4,1131.9c0,0,7.1-52.9,11.6-67.5c4.9-16.2,9.3-35.4,34.8-39.7l-38,6.7L919.4,1131.9z"/>
					<g style="clip-path:url(#SVGID_00000103266160213334540390000015638409014512841916_);">
						<path class="st42" d="M959.4,1030.6c9,0.5,18.9,4.6,19.8,14.8c1.4,9-2.5,17.6-6.3,25.5c-8,15.6-17.8,30.3-28,44.3
							c4.5-7.3,9.6-14.6,14-22.1c6.6-11.1,13.5-22.4,17.1-34.9c1.6-6,2.4-12.7-0.4-18.4c-3.4-5.5-10.2-7.8-16.2-8.9
							C959.2,1030.8,959.3,1030.6,959.4,1030.6L959.4,1030.6z"/>
					</g>
				</g>
			</g>
		</g>
		<g>
			<defs>
				<path id="SVGID_00000119825625293427450210000008233474565757375387_" d="M862.9,1144l-34.8,172.2l1.2,28.4l26.1-11.6l109-150.7
					C964.3,1182.3,909.2,1197.9,862.9,1144z"/>
			</defs>
			<clipPath id="SVGID_00000106849692741255979300000013175171470693989512_">
				<use xlink:href="#SVGID_00000119825625293427450210000008233474565757375387_"  style="overflow:visible;"/>
			</clipPath>
			<path style="clip-path:url(#SVGID_00000106849692741255979300000013175171470693989512_);fill:#0B1549;" d="M862.9,1144
				l-34.8,172.2l1.2,28.4l27.7-13.9l107.4-148.4C964.3,1182.3,909.2,1197.9,862.9,1144z"/>
			<path style="clip-path:url(#SVGID_00000106849692741255979300000013175171470693989512_);fill:#222D5B;" d="M928.4,1176.9
				c0,0-67.8,135.1-98.6,166.4l49.3-0.6l115.9-164.1L928.4,1176.9z"/>
			<g style="opacity:0.3;clip-path:url(#SVGID_00000106849692741255979300000013175171470693989512_);">
				<path class="st42" d="M951.1,1193.3l-96.9,132.8l92-136.2C948.5,1186.6,953.4,1190,951.1,1193.3L951.1,1193.3z"/>
			</g>
		</g>
		<g>
			<defs>
				<path id="SVGID_00000093867818717642590260000015451488531716006583_" d="M943.3,1198.8c-28.7,0-49.1-10.2-62.1-19.8
					c-17.6-13.1-22.7-23-23.1-23.7c-2.3-4.4-1.5-13.6,2.8-15.9c4.4-2.3,7.1-0.5,9.3,3.8c1.1,2,27.3,47.2,92.4,36
					c4.8-0.8,5.6,0.6,6.4,5.4c0.8,4.8-3.1,11.1-8,11.9C953.3,1198,950.3,1198.8,943.3,1198.8z"/>
			</defs>
			<clipPath id="SVGID_00000016041415373460026010000012821742410350471606_">
				<use xlink:href="#SVGID_00000093867818717642590260000015451488531716006583_"  style="overflow:visible;"/>
			</clipPath>
			<g style="clip-path:url(#SVGID_00000016041415373460026010000012821742410350471606_);">
				<path class="st56" d="M943.3,1198.8c-28.7,0-49.1-10.2-62.1-19.8c-17.6-13.1-22.7-23-23.1-23.7c-2.3-4.4-1.5-13.6,2.8-15.9
					c4.4-2.3,7.1-0.5,9.3,3.8c1.1,2,27.3,47.2,92.4,36c4.8-0.8,5.6,0.6,6.4,5.4c0.8,4.8-3.1,11.1-8,11.9
					C953.3,1198,950.3,1198.8,943.3,1198.8z"/>
			</g>
			<path style="opacity:0.65;clip-path:url(#SVGID_00000016041415373460026010000012821742410350471606_);fill:#848484;" d="
				M863.1,1135.9c0,0-4.9,6.7-2.9,13.6c2,7,15.7,33,56.5,47.2l-68.1-25.8l-2.3-27L863.1,1135.9z"/>
			<g style="clip-path:url(#SVGID_00000016041415373460026010000012821742410350471606_);">
				<path class="st42" d="M897.7,1173.2c11.3,6.5,24.4,9.3,37.3,10.1c1.3,0,4.8,0.1,6.1,0.1c5.4-0.2,11-0.6,16.3-1.4
					c0,0,4.1-0.5,4.1-0.5l-0.3,0.1c5.6-2.5,6.8,4.6,5,8.4c-0.5,1.2-1.2,2.3-2.2,3.2c-0.1,0.1-0.2,0-0.2-0.1c1.4-2,2.2-4.5,2-6.9
					c-0.2-2.3-1.4-4.3-3.8-3c-8.1,1.8-16.8,2.4-25.1,1.9c-8.3-0.4-16.6-1.9-24.4-4.6c-5.2-1.8-10.3-4-15-7
					C897.5,1173.3,897.6,1173.1,897.7,1173.2L897.7,1173.2z"/>
			</g>
		</g>
		<g>
			<defs>
				<path id="SVGID_00000038400166602940375210000010808236214450306436_" d="M828.1,1316.2c0,0,9.6,15.4,28.7,14.9
					c0,0-3.9,8.3-27.6,13.5C829.2,1344.6,825.3,1326.5,828.1,1316.2z"/>
			</defs>
			<clipPath id="SVGID_00000156587083535901956440000017479879521428007848_">
				<use xlink:href="#SVGID_00000038400166602940375210000010808236214450306436_"  style="overflow:visible;"/>
			</clipPath>
			<path style="clip-path:url(#SVGID_00000156587083535901956440000017479879521428007848_);fill:#CCCCCC;" d="M828.1,1316.2
				c0,0,10.5,14.8,29.6,14.4c0,0-6.1,7.5-28.4,14C829.2,1344.6,825.3,1326.5,828.1,1316.2z"/>
			<path style="clip-path:url(#SVGID_00000156587083535901956440000017479879521428007848_);fill:#E5E5E5;" d="M826.3,1346.8
				c0,0,18-13,25.1-22.2l15.1,8.6C866.5,1333.2,847.9,1343.3,826.3,1346.8z"/>
			<path style="opacity:0.25;clip-path:url(#SVGID_00000156587083535901956440000017479879521428007848_);fill:#B5B5B5;" d="
				M829.2,1344.6c0,0-0.9-20.7,2.8-28.3l-7.4-2.3C824.6,1314,826,1339.8,829.2,1344.6z"/>
		</g>
	</g>
	<g>
		<path class="st37" d="M875,1322.6c0,0-66.7-74.2-66.1-100.3c0.6-26.1,14.5-59.7,30.1-63.2c15.7-3.5,20.9,0,19.7,3.5
			s-13.3,74.8,89.3,84.6"/>
		<path class="st33" d="M874.7,1322.9c-21.2-20.3-65.8-68.8-70.2-97.3c-1.2-20,10.4-56.8,28.3-67.6c3.6-2.2,7.9-2.7,12-3.2
			c5.2-0.4,12.6-1.1,16.2,3.8c1,1.4,1.1,3.3,0.6,4.9c-4.5,23,5.7,47.7,24.5,61.6c11.7,8.9,25.8,14.4,40,17.7
			c7.2,1.8,14.5,2.9,21.9,3.9c0,0-0.1,0.9-0.1,0.9c-14.9-1.2-29.9-3.6-43.9-9.1c-16.8-6.3-32.6-17.7-41.1-33.9
			c-6.9-12.9-9.7-28.1-7.2-42.5c0,0,0.1-0.5,0.1-0.5c0-0.1,0,0,0,0c0,0,0,0,0,0c0,0,0,0,0,0.1c0,0,0,0.1,0,0.1c0,0,0,0.1,0,0.1
			c-1.2-0.8-3.3-1-5.2-1.1c-3.4,0-6.9,0.6-10.3,1.4c-4.8,1-8.1,4.6-11.2,8.5c-10.2,14.3-14.9,32.8-15.7,50.3c-0.1,1.1,0,2.4,0.1,3.4
			c0.1,0.6,0.3,1.7,0.4,2.3c2.1,8,6.2,15.5,10.4,22.7c7.3,12.7,15.9,24.9,24.4,36.9c8.6,12.1,17.5,24,26.4,36
			C875.4,1322.3,874.7,1322.9,874.7,1322.9L874.7,1322.9z"/>
	</g>
	<g>
		<path class="st49" d="M826.9,1169c0,0,16.8-5.8,18,9.3c1.2,15.1-5.8,30.1-8.7,37.7c0,0-15.7-6.4-24.3,2.3
			C811.8,1218.2,814.7,1184.6,826.9,1169z"/>
		<path class="st33" d="M826.7,1168.7c5.1-2.4,11.9-3.4,16.5,0.6c5.5,5,4.7,14,4.1,20.8c-1.1,9.4-5,18.4-8.7,26.8
			c0,0-1.1,2.5-1.1,2.5l-2.3-1c-6.9-2.7-16-4.1-22,1.3c0,0-4,3.5-4,3.5C811.4,1205.5,815.5,1182.8,826.7,1168.7L826.7,1168.7z
			 M827.1,1169.2c-7.1,10.7-9.8,23.9-11.8,36.4c-0.6,4.2-1.1,8.6-1.4,12.8c0,0-3.4-1.6-3.4-1.6c6-6.2,15.5-6.3,23.3-4.3
			c1.1,0.3,2.2,0.6,3.4,1l-3.4,1.5c4.3-12.1,8.7-24.1,8.6-36.9C842.3,1169.1,834.1,1168.3,827.1,1169.2L827.1,1169.2z"/>
	</g>
	<g>
		<path class="st38" d="M1027.2,1095.6c15.9,15,29.5,32.1,42.1,49.8c2.4,3.3,6.9,10.1,9.1,13.6c5.7,8.9,11.4,18.9,16.4,28.3
			c2.3,4.1,5.4,10.2,7.6,14.5c1.9,3.6,5.5,10.9,7.2,14.6c5.8,12,11.4,25.1,16.1,37.5c0.8,2.1,2.3,5.6,2.9,7.8
			c2.8,10.7,3.8,21.8,2.8,32.8c-0.9,10.9-4.2,21.6-9.3,31.2c0,0-0.7-0.4-0.7-0.4c4.3-9.2,6.8-19,7.5-29c0.4-6,0.2-12-0.6-18
			c-0.9-6.5-2.2-13.1-4.8-19.1c-1.8-4.1-4.6-10.7-6.4-14.8c-2.7-5.7-5.9-12.6-8.7-18.2c-6-11.6-12.7-24.2-19.5-35.3
			c-8.3-13.6-17.3-27.5-26-40.9c-11.6-18.1-23.7-36-36.1-53.8C1026.6,1096.2,1027.2,1095.6,1027.2,1095.6L1027.2,1095.6z"/>
	</g>
	<g>
		<path class="st37" d="M1338.6,855.7c0,0,4.7-25-3.9-29c-8.6-3.9-55.6,0-90,26.6c-34.4,26.6-78.3,19.6-83.7,8.6
			c-5.5-11-14.1-23.5,18.8-57.9c32.9-34.4,97.8-92.3,125.2-96.3c27.4-3.9,104.9-6.3,143.2,17.2"/>
		<path class="st33" d="M1338.6,855.7c0.8-6.5,2.8-26-5.2-28.3c-7.5-1.5-15.3-0.2-22.9,0.9c-17.8,3.1-35.3,9.3-50.8,18.5
			c-5.1,3.1-10.1,6.7-14.8,10.3c-5.1,3.8-10.6,7.2-16.3,9.9c-17.4,8-37.6,11.2-56.5,6.4c-5.3-1.6-11.4-3.8-14.6-9.1
			c-0.6-1-1.4-2.8-2-3.8c-3.2-5.9-5-13.6-3.6-20.4c4.5-24.9,40.9-55.1,59.2-72.7c23.1-20.6,46.8-41,74.1-56.1
			c5.8-3,11.8-5.7,18.2-6.9c6.2-1,12.5-1.3,18.7-1.7c30.8-1.3,62.1,0.3,92.1,7.9c11.9,3.2,23.7,7.5,34,14.3
			c-30.5-16.2-73.4-17.5-107.5-16.7c-9.1,0.4-18.2,0.9-27.3,1.9c-2.9,0.3-6,0.7-8.8,1.2c-3.4,0.7-6.8,2.1-10,3.5
			c-7.4,3.6-14.3,7.9-21.2,12.7c-29.8,21.1-57,46-82.8,71.7c-11.2,11.5-33.5,32.8-30.2,49.8c0.5,3.1,2.2,6.5,3.7,9.6
			c0.7,1.5,1.3,2.4,3,3.6c15.9,9.2,42.3,5.5,58.6-1.7c5.4-2.3,10.6-5.3,15.4-8.7c2.3-1.6,5.3-3.9,7.6-5.4
			c13.1-8.6,27.9-14.6,43-18.4c6-1.5,12.2-2.6,18.4-3.4c7.9-0.8,16.2-1.6,24,0.5C1343.6,828.7,1340,848,1338.6,855.7L1338.6,855.7z"
			/>
	</g>
	<g>
		<defs>
			<path id="SVGID_00000160883732412336959330000013550482178049316498_" d="M881.7,1649l31.3-238.7c0,0,1.3-15.7,15.7-20.9
				c14.3-5.2,103-32.6,186.5-9.1c0,0,11.7,7.8,18.3,20.9c6.5,13,90,238.7,97.8,250.4S1038.2,1819.8,881.7,1649z"/>
		</defs>
		<clipPath id="SVGID_00000076601949030943755610000016694176399149241217_">
			<use xlink:href="#SVGID_00000160883732412336959330000013550482178049316498_"  style="overflow:visible;"/>
		</clipPath>
		<path style="clip-path:url(#SVGID_00000076601949030943755610000016694176399149241217_);fill:#FF5A5A;" d="M881.7,1649
			l31.3-238.7c0,0,1.3-15.7,15.7-20.9c14.3-5.2,103-32.6,186.5-9.1c0,0,11.7,7.8,18.3,20.9c6.5,13,90,238.7,97.8,250.4
			S1038.2,1819.8,881.7,1649z"/>
		<path style="clip-path:url(#SVGID_00000076601949030943755610000016694176399149241217_);fill:#FF3E3E;" d="M948.2,1364.6
			c0,0-18.3,277.8,41.7,379.6c60,101.7-133,24.8-133,24.8l-48.3-266.1L948.2,1364.6z"/>
		<g style="clip-path:url(#SVGID_00000076601949030943755610000016694176399149241217_);">
			<path class="st78" d="M967.8,1397.2c30.2-7.7,61.2-13.7,92.4-14.7c2.9,0.1,6.4-0.1,9.2,0.1c7.1,0.3,14.6,1.3,21.5,3.1
				c15.6,4,27,12,35.2,26c2.6,4.5,4.8,9.4,6.6,14.2c7,18.7,13.6,38,19.9,56.9c14.9,45.6,28.9,92.2,40.8,138.7
				c-23.2-63.1-45-129.7-68-192.9c-6.8-18.6-16.7-30.7-36.3-36.1c-9.3-2.6-19.2-3.7-28.9-3.9
				C1029.2,1388.5,998.4,1392.8,967.8,1397.2L967.8,1397.2z"/>
		</g>
	</g>
	<g>
		<defs>
			<path id="SVGID_00000096022657591939201050000005912070386719794606_" d="M1258.7,777.7c-32.9,24-85.2,16.7-85.2,16.7
				l-37.9-143.5c0,0-12-41.7,40.8-56.9c52.8-15.1,59.8,53.2,59.8,53.2L1258.7,777.7z"/>
		</defs>
		<clipPath id="SVGID_00000080170327613326592390000008301365577010487695_">
			<use xlink:href="#SVGID_00000096022657591939201050000005912070386719794606_"  style="overflow:visible;"/>
		</clipPath>
		<path style="clip-path:url(#SVGID_00000080170327613326592390000008301365577010487695_);fill:#FFAC33;" d="M1258.7,777.7
			c-32.9,24-85.2,16.7-85.2,16.7l-37.9-143.5c0,0-12-41.7,40.8-56.9c52.8-15.1,59.8,53.2,59.8,53.2L1258.7,777.7z"/>
		<path style="clip-path:url(#SVGID_00000080170327613326592390000008301365577010487695_);fill:#FFBC64;" d="M1141.3,593.5
			c0,0,54.8,6.3,65.7,50.1c11,43.8,29.7,164.3,29.7,164.3l43.8-42.3l-39.1-158.1l-51.7-36L1141.3,593.5z"/>
		<g style="clip-path:url(#SVGID_00000080170327613326592390000008301365577010487695_);">
			<path class="st82" d="M1170.2,606.9c9.5-5.6,21-10.2,32.4-8.2c3,0.6,6,2.1,8.4,4.1c3.9,3,7,7,9.4,11.2c5.4,9.9,7.7,21,10.1,31.9
				c3,14.3,5.1,28.7,7.4,43.1c2.1,14.4,4.4,28.7,6.4,43.1c0,0-0.6,0.1-0.6,0.1c-6.2-28.3-11.1-57-17.9-85.2
				c-2.7-10.3-5.7-20.6-10.8-29.8c-2.5-4.3-5.6-8.3-9.5-11.3c-7.1-4.5-16.5-2.8-24.5-1.2c-3.5,0.8-7,1.8-10.4,2.9L1170.2,606.9
				L1170.2,606.9z"/>
		</g>
	</g>
	<g>
		<defs>
			<path id="SVGID_00000138551224089971992130000014404342952262735512_" d="M1177.7,790.3c0,0,47,190.2,54,213.7s37.6,34,37.6,34
				s20-15.3,16.4-41.1c-3.5-25.8-32.9-221.9-32.9-221.9C1232.1,787.4,1206.9,792.3,1177.7,790.3z"/>
		</defs>
		<clipPath id="SVGID_00000128484879228128619060000016625564694754587294_">
			<use xlink:href="#SVGID_00000138551224089971992130000014404342952262735512_"  style="overflow:visible;"/>
		</clipPath>
		<path style="clip-path:url(#SVGID_00000128484879228128619060000016625564694754587294_);fill:#FFAC33;" d="M1177.7,790.3
			c0,0,47,190.2,54,213.7s37.6,34,37.6,34s20-15.3,16.4-41.1c-3.5-25.8-32.9-221.9-32.9-221.9
			C1232.1,787.4,1206.9,792.3,1177.7,790.3z"/>
		<path style="clip-path:url(#SVGID_00000128484879228128619060000016625564694754587294_);fill:#FFBC64;" d="M1231.3,779
			c0,0,34.4,188.1,37.8,256.7c0,0.8,0.1,1.6,0.1,2.4c2.7,66.5,52.8-54.8,52.8-54.8l-55.6-214.4L1231.3,779z"/>
		<path style="clip-path:url(#SVGID_00000128484879228128619060000016625564694754587294_);fill:#CCCCCC;" d="M1225.3,1008.8
			c0,0,33.9,11,66.3-11c0,0-8.1,32.3-22.3,40.2C1269.3,1038,1233.2,1028.1,1225.3,1008.8z"/>
	</g>
	<g>
		<defs>
			<path id="SVGID_00000010296879284053468490000016812100349351928202_" d="M1151.9,643.2c0,0-29-17.2-37.6,3.1
				c-8.6,20.3,48.5,86.9,43,108.8c0,0-16.4,11.7-12.5,20.3c3.9,8.6,23.5,15.7,30.5,7.8c7-7.8,11-22.7,6.3-32.1
				c-4.7-9.4-41.5-84.5-29-81.4C1152.7,669.8,1162.9,647.1,1151.9,643.2z"/>
		</defs>
		<clipPath id="SVGID_00000072992829338520793500000017692973789918750134_">
			<use xlink:href="#SVGID_00000010296879284053468490000016812100349351928202_"  style="overflow:visible;"/>
		</clipPath>
		<path style="clip-path:url(#SVGID_00000072992829338520793500000017692973789918750134_);fill:#999999;" d="M1151.9,643.2
			c0,0-29-17.2-37.6,3.1c-8.6,20.3,48.5,86.9,43,108.8c0,0-16.4,11.7-12.5,20.3c3.9,8.6,23.5,15.7,30.5,7.8c7-7.8,11-22.7,6.3-32.1
			c-4.7-9.4-41.5-84.5-29-81.4C1152.7,669.8,1162.9,647.1,1151.9,643.2z"/>
		<path style="opacity:0.5;clip-path:url(#SVGID_00000072992829338520793500000017692973789918750134_);fill:#7C7C7C;" d="
			M1133,634.2c0,0-18.7,7-12.4,24.7c2.6,7.4,45.4,85.6,41.2,93.8c-4.2,8.2-15.4,9.5-16.8,23.6s-12.4-28.4-12.4-28.4l-48.8-96.4
			L1133,634.2z"/>
		<g style="opacity:0.43;clip-path:url(#SVGID_00000072992829338520793500000017692973789918750134_);">
			<path class="st42" d="M1147.1,669.2c-4,4.1-0.6,8.7,0.9,13c0,0,5.3,13,5.3,13c5.9,14,11.6,28.2,18.4,41.8
				c5.1,9.3,11.7,19.1,9.7,30.3c-0.4,2.5-1.3,4.9-2.5,7.1c-0.4,0.7-1.3,1-2,0.6c-0.7-0.4-1-1.4-0.6-2.1c1.1-1.9,1.9-3.9,2.3-6.1
				c2-10.4-4.2-19.9-8.7-28.9c-6.5-13.8-11.8-28.1-17.3-42.4c0,0-4.9-13.2-4.9-13.2C1146.2,677.9,1143,673.2,1147.1,669.2
				L1147.1,669.2z"/>
		</g>
	</g>
	<g>
		<defs>
			<path id="SVGID_00000035496623648625976190000012854074732657632932_" d="M1187.6,801.8c-8.2,0-13.8-0.4-14.6-0.5
				c-3.9-0.3-6.7-3.7-6.4-7.5c0.3-3.9,3.7-6.7,7.5-6.4l0,0c0.6,0,56.8,4.2,80.1-15.1c3-2.5,7.4-2.1,9.9,0.9c2.5,3,2.1,7.4-0.9,9.9
				C1243.6,799.4,1207.7,801.8,1187.6,801.8z"/>
		</defs>
		<clipPath id="SVGID_00000165938799419000040920000004796294409123260822_">
			<use xlink:href="#SVGID_00000035496623648625976190000012854074732657632932_"  style="overflow:visible;"/>
		</clipPath>
		<g style="clip-path:url(#SVGID_00000165938799419000040920000004796294409123260822_);">
			<path class="st56" d="M1187.6,801.8c-8.2,0-13.8-0.4-14.6-0.5c-3.9-0.3-6.7-3.7-6.4-7.5c0.3-3.9,3.7-6.7,7.5-6.4l0,0
				c0.6,0,56.8,4.2,80.1-15.1c3-2.5,7.4-2.1,9.9,0.9c2.5,3,2.1,7.4-0.9,9.9C1243.6,799.4,1207.7,801.8,1187.6,801.8z"/>
		</g>
		<path style="opacity:0.5;clip-path:url(#SVGID_00000165938799419000040920000004796294409123260822_);fill:#7C7C7C;" d="
			M1169.8,787.5c0,0-3.1,5.6-0.9,8.5c2.2,2.9,0.7,5.7,55.2,4.2c54.5-1.6-69.3,10.6-69.3,10.6l-2.3-19.3L1169.8,787.5z"/>
		<g style="opacity:0.43;clip-path:url(#SVGID_00000165938799419000040920000004796294409123260822_);">
			<path class="st42" d="M1225.7,787.1c7.1-2,14-4.5,20.5-7.8c3.3-1.6,6.3-3.6,9.4-5.7c2.9-2,6.5-0.6,8,2.5c0.4,0.9,0.5,2,0,2.9
				c-0.1,0.1-0.2,0-0.2-0.1c0.3-2.5-2.4-4.5-4.7-4.5c-1.6,0.2-2.9,1.6-4.3,2.5c-2.4,1.6-4.9,2.7-7.5,3.8c-6.8,3-13.9,5.1-21.2,6.5
				C1225.6,787.3,1225.6,787.1,1225.7,787.1L1225.7,787.1z"/>
		</g>
	</g>
	<g>
		<path class="st37" d="M1313.5,883.1c0,0-61-12.5-88.4-25c-27.4-12.5-50.9-16.4-61,10.2s4.7,36,11.7,44.6
			c7,8.6,91.6,93.9,139.3,117.4"/>
		<path class="st33" d="M1313.5,883.1c-24.6-3.8-49-8.8-72.8-15.9c-11.9-3.3-22.9-9.3-34.8-12.5c-20.2-5.6-33.2-1.7-39.2,19.6
			c-4.1,15.1-0.2,22.5,10.5,33.3c8,9.3,16.8,17.9,25.5,26.6c23.3,23.1,47.4,45.9,72.5,67c12.7,10.5,25.7,20.7,39.9,29.1
			c-15.2-6.6-29.1-16-42.6-25.6c-33.4-24.6-64.3-52.4-93.5-81.9c-2.9-3-5.7-6.1-8.5-9.2c-2.7-2.9-5.8-6-8.4-9.9
			c-6.7-9.4-7.2-21.2-3.9-31.9c5.4-18.4,17.1-29.3,37-27.1c13.2,1.5,24.3,7.2,36,12.5C1257.8,868.1,1285.8,875.3,1313.5,883.1
			L1313.5,883.1z"/>
	</g>
	<g>
		<path class="st49" d="M1177.6,899.4c8.4,13,26.5,16.5,26.5,16.5c23.7-15.1,18.9-44.8,18.9-44.8s-17-8.1-32.9-10.3
			c-15.9-2.2-17,28-17,28"/>
		<path class="st33" d="M1177.6,899.4c6.7,8.1,16.9,12.6,26.9,14.4c0,0-1.5,0.3-1.5,0.3c11.9-8.1,17.6-22.5,17.4-36.6
			c0-1.9-0.1-4.1-0.3-5.9c0,0,1.7,2.2,1.7,2.2c-5.2-2.4-10.7-4.6-16.2-6.5c-4.8-1.6-9.7-3-14.6-4c-6.6-1.9-10.6,3.1-13.1,8.7
			c-2.4,5.2-3.7,11-4.7,16.9c-0.4-10.8,1.8-30.4,16.1-30.4c12.7,1.1,24.9,5.3,36.5,10.5c0.9,5.1,0.9,10.1,0.2,15.2
			c-1.5,14-9.1,27-21.5,33.9C1193.7,915.4,1183,909.4,1177.6,899.4L1177.6,899.4z"/>
	</g>
	<g>
		<path class="st38" d="M1236.8,873.6c21,3.4,41.3,8.9,62.1,12.7c12.3,2.1,24.7,4.5,37.3,2.6c-1.8,1.1-3.8,2.1-5.9,2.8
			C1303.7,900.4,1260.3,887.5,1236.8,873.6L1236.8,873.6z"/>
	</g>
	<g>
		<path class="st38" d="M1297.9,725c34.6-9.4,71.6-10.8,107-5.3c4.1,0.5,9.2,1.7,13.3,2.5c4.7,0.9,12,3,16.6,4.2
			c19.2,7.6,35.3,21.9,46.4,39.2c1.4,2.2,3.4,5.4,4.7,7.7c13.7,23,27.3,46.1,40,69.7c-16.7-22.8-32.5-46.3-48.1-69.8
			c-10.9-17-26.7-31.4-45.4-39.1c-4.4-1.2-11.3-3.3-15.8-4.2c-2.1-0.5-6.4-1.4-8.6-1.9c-3-0.6-9.9-1.7-13-2.3
			c-5-0.6-12.5-1.7-17.5-2.1C1351,721,1324.3,721.5,1297.9,725L1297.9,725z"/>
	</g>
	<g>
		<defs>
			<path id="SVGID_00000024697563550558839610000003924402852158750619_" d="M1423.3,1065.7l246.5,204.3c0,0,30.5,23.5,54,2.3
				c23.5-21.1,150.3-197.2,101-270s-258.4-111.4-258.4-111.4S1580.6,1049.3,1423.3,1065.7z"/>
		</defs>
		<clipPath id="SVGID_00000010277154239609980130000009175216871557932429_">
			<use xlink:href="#SVGID_00000024697563550558839610000003924402852158750619_"  style="overflow:visible;"/>
		</clipPath>
		<path style="clip-path:url(#SVGID_00000010277154239609980130000009175216871557932429_);fill:#377BDD;" d="M1423.3,1065.7
			l246.5,204.3c0,0,30.5,23.5,54,2.3c23.5-21.1,150.3-197.2,101-270s-262.2-111.9-262.2-111.9S1580.6,1049.3,1423.3,1065.7z"/>
		<path style="opacity:0.79;clip-path:url(#SVGID_00000010277154239609980130000009175216871557932429_);fill:#1561BC;" d="
			M1447.3,1049c0,0,214.4,180.8,251.2,186.3s93.1-12.5,93.1-12.5l-90.8,96.3l-174.5-101.7l-161.2-141.7L1447.3,1049z"/>
		<g style="clip-path:url(#SVGID_00000010277154239609980130000009175216871557932429_);">
			<path class="st95" d="M1582.1,907.6c53.8,13,107.1,28.5,157.7,51.1c19,9,38.9,18.1,54.1,33.5c17.2,17.9,32,42.4,28,68.2
				c-1.5,10.6-6.5,20.2-11.6,29.5c0,0-1-0.4-1-0.4c1.8-6.6,4.1-13.1,5.2-19.8c4-19.8-3.7-39-15.8-54.4c-6-7.7-12.6-15.2-20.1-21.6
				c-23.5-19.3-52-32-80-43.8c-38.1-15.8-77.2-29.2-116.8-41.1C1581.8,908.7,1582.1,907.6,1582.1,907.6L1582.1,907.6z"/>
		</g>
	</g>
	<path class="st96" d="M1043.3,803.3c0,0-11,44.9,29.7,66.8c40.7,21.9,93.9,65.2,96.5,110.6c2.6,45.4-19.3,76.2-19.3,76.2l-6.8-19.8
		l-21.4,8.9c0,0,35-50.1,24.5-78.8c-10.4-28.7-35.5-60.5-75.7-78.8c-39.4-17.9-40.7-64.7-40.7-75.7L1043.3,803.3z"/>
	<path class="st97" d="M1047.4,795.4c0,0-11,44.9,29.7,66.8c40.7,21.9,93.9,65.2,96.5,110.6c2.6,45.4-19.3,76.2-19.3,76.2l-6.8-19.8
		l-21.4,8.9c0,0,35-50.1,24.5-78.8c-10.4-28.7-35.5-60.5-75.7-78.8c-39.4-17.9-44.3-56.9-44.3-67.8L1047.4,795.4z"/>
</g>
</svg>
