<?xml version="1.0" encoding="utf-8"?>
<!-- Generator: Adobe Illustrator 26.5.0, SVG Export Plug-In . SVG Version: 6.00 Build 0)  -->
<svg version="1.1" id="Livello_1" xmlns="http://www.w3.org/2000/svg" xmlns:xlink="http://www.w3.org/1999/xlink" x="0px" y="0px"
	 viewBox="0 0 3853 3853" style="enable-background:new 0 0 3853 3853;" xml:space="preserve">
<style type="text/css">
	.st0{opacity:9.000000e-02;fill:#00FF00;enable-background:new    ;}
	.st1{clip-path:url(#SVGID_00000101099042876928151290000010457996336449801867_);}
	.st2{fill:#054C05;}
	.st3{fill:#96CC96;}
	.st4{fill:#FF4040;}
	.st5{fill:#0C0C0C;}
	.st6{clip-path:url(#SVGID_00000106842224439143532700000000682940621542509219_);fill:#054C05;}
	
		.st7{opacity:0.63;clip-path:url(#SVGID_00000106842224439143532700000000682940621542509219_);fill:none;stroke:#B9EFA5;stroke-width:41;stroke-miterlimit:10;}
	.st8{fill:#FFB531;}
	.st9{fill:#593905;}
	.st10{fill:#FFC550;}
	.st11{opacity:0.15;clip-path:url(#SVGID_00000101099042876928151290000010457996336449801867_);enable-background:new    ;}
	.st12{opacity:0.15;enable-background:new    ;}
	.st13{fill:#A867DB;}
	.st14{fill:#FF4715;}
	.st15{fill:#109923;}
	.st16{fill:#A87B40;}
	.st17{fill:#F9CC8A;}
	.st18{clip-path:url(#SVGID_00000101099042876928151290000010457996336449801867_);fill:#96CC96;}
	.st19{clip-path:url(#SVGID_00000101099042876928151290000010457996336449801867_);fill:none;}
	.st20{fill:#0D8543;}
	.st21{fill:#FF9797;}
	.st22{clip-path:url(#SVGID_00000101099042876928151290000010457996336449801867_);fill:#FF9797;}
</style>
<path class="st0" d="M694.8,1166.4c0,0-355.7,42.7-412.6,327.2s199.2,483.7,99.6,995.9s825.2,939,1180.8,597.5
	s725.6-483.7,1436.9-341.5s910.5-739.8,697.1-924.8c-213.4-185-924.8-313-1024.4-540.6c-99.6-227.6-554.9-711.4-910.5-583.3
	S1377.7,1180.6,694.8,1166.4z"/>
<g>
	<defs>
		<path id="SVGID_1_" d="M3438.5,1889c4.3-42.9,5.9-86,3.4-128.1c-18.1-137.8-45.9-274.1-103-402.2c-29.2-64-65.4-125.2-115.5-178.1
			c-5.6-7-16.7-11.1-26.4-8.3c-15.3,2.8-25,18.1-20.9,33.4c30.6,132.2,18.1,286.7-68.2,395.2c-40.9,46.1-84.9,88.3-136.9,123
			c-14.2-3.1-28.9-4.7-44-4.7c-71.8,0-135,36.4-172.2,91.8c-11.9-16-23.7-32-35.5-47.7c52.3-128.5,82.1-276.3,82.1-433.4
			c0-434.7-227.7-797.3-530.4-880.8c-43-11.9-87.6-18.1-133.2-18.1c-6.1,0-12.2,0.1-18.3,0.3c-18.3-1.1-36.7-1.7-55.2-2
			c18.2-2.7,36.6-4.5,55.2-5.1c-24.5-1.4-49.2-2.1-74.1-2.1c-398.3,0-746,181.6-931.5,451.4c-43.1,55.4-66.2,114.5-66.2,114.5
			c-37.4,78.3-62,162-71.7,249.3c-34.9,14.4-67.8,33.5-98,57.3l-20.3,17.1c-2,1.8-4,3.6-6,5.4c-22.5,21.1-42.2,44.4-59,69.3
			l-71.9-65.9l-45.4,59.5l89.1,44.3c-7.9,6.4-15.6,13.1-23.1,20.2c-66.7,62.5-109.9,141.6-130.1,228.1
			c-153.2,31.7-280.6,121.6-340,257.9c-12.4,28.3-21.2,57.4-26.8,87l-92.1-32.1l-18.2,72.6l99.3,5.5c-4.7,9-9.2,18.2-13.3,27.7
			c-75.1,172.1-31.4,369.9,95.8,520.1c-94.7,125.5-156.7,294.9-197.6,387.9c-128.9,293,75.8,362.5,245.6,281.3
			c88.8-42.5,160-46.7,290-105.5c108.9,261.4,539.2,167.7,720.9,144.2c135.5-17.6,204.7-66.1,227.3-124c37.4,11.2,79.6,13.9,122.9,6
			c95-17.3,167.3-80.5,187.1-154.7c9.4-17.2,15.8-35.4,18.9-54.2c44.8,21.7,100.2,29.8,157.4,19.4c23.5-4.3,45.6-11.4,65.9-20.7
			c46,58.6,133.2,89.7,225.2,72.9c95-17.3,167.3-80.5,187.1-154.7c4.7-8.6,8.6-17.4,11.8-26.4c11.7-0.3,23.5-1.3,35.4-3.1
			c4.7,13,9.7,26,14.9,38.8c-75.1,31.2-128,105.2-128,191.6c0,114.5,92.8,207.3,207.3,207.3s207.3-92.8,207.3-207.3
			s-92.8-207.3-207.3-207.3c-19.1,0-37.5,2.6-55.1,7.4c-0.9-12.9-1.8-25.7-2.6-38.5c80.9-23.6,141.1-81.4,158.9-148
			c18-33,25.2-69.8,18.5-106.8c-1.9-10.2-4.7-19.9-8.4-29.3c28.8,22,60.8,39.9,96.1,52.3c27.4,6.8,54.8,11.2,81.9,13
			c-45.8,38-74.9,95.4-74.9,159.6c0,114.5,92.8,207.3,207.3,207.3s207.3-92.8,207.3-207.3s-92.8-207.3-207.3-207.3
			c-36.5,0-70.8,9.4-100.6,26c-56.4-18.1-107.3-44.1-157.9-75.7c60-28,103.8-76.1,119.5-130.3c19.4-33.8,27.4-72,20.4-110.3
			c-7.3-40.2-30-74.4-62.5-99.6c1.5-2.6,2.9-5.2,4.2-7.8c46.7,58.5,83.5,98.5,100.3,103.1c36.6,9.9,126.2-12.9,228.7-55.5
			c35.9,29.8,82,47.6,132.2,47.6c114.5,0,207.3-92.8,207.3-207.3C3621.3,1988.7,3541.4,1901.1,3438.5,1889z M1427.7,2653.6
			c12.4,9.7,26.2,18,41.1,24.9c-5.5,14.5-8.9,29.5-10.1,44.9c-19.7-5.4-40.7-8.4-62.4-8.8
			C1410.7,2695.8,1421.4,2675.2,1427.7,2653.6z M2090.6,2509c14.9-26.7,22.8-56,21.9-86c10,4.4,20.5,8.2,31.3,11.3
			c-13.4,18.4-23.3,38.5-29,59.5c-18.7,33.4-26.3,71-19.5,108.7c0.1,0.5,0.2,0.9,0.3,1.4c-18.9-0.6-38.4,0.8-58,4.4
			c-6.4,1.2-12.6,2.5-18.7,4.1C2054.5,2584.5,2079.9,2548.3,2090.6,2509z M3026.2,2160.5c-10.5-10.7-21.9-23.1-33.9-37.1
			c82.5-27.4,142-105.1,142-196.8c0-85.8-52.1-159.5-126.5-191c26.1-9.4,51.7-21.3,76.4-35.9c124-88,171.3-250.1,162.8-396.9
			c85.2,137.6,119.7,306.1,139.2,465.1c8.4,40.1,17.2,79.7,25.7,119.7c-113.5,1.2-205.2,93.5-205.2,207.3c0,34.6,8.5,67.2,23.5,95.9
			C3158.3,2216.6,3083.3,2218.8,3026.2,2160.5z"/>
	</defs>
	<clipPath id="SVGID_00000043456139943764183390000008432433805932557697_">
		<use xlink:href="#SVGID_1_"  style="overflow:visible;"/>
	</clipPath>
	<g style="clip-path:url(#SVGID_00000043456139943764183390000008432433805932557697_);">
		<path class="st2" d="M2802.4,1334.4c0,426.8-219.5,784.1-513.9,876c-59.9,11.6-121.8,18.9-185.1,21.7c-18.9,0.9-37.9,1.3-57,1.3
			c-593.2,0-1074.1-402.9-1074.1-899.9c0-497,480.9-899.9,1074.1-899.9c24.9,0,49.7,0.7,74.1,2.1c51.6,3,102.2,8.9,151.5,17.8
			C2574.7,537.1,2802.4,899.7,2802.4,1334.4z"/>
		<path class="st3" d="M2802.4,1334.4c0,426.8-219.5,784.1-513.9,876c-48.1,15-98.2,23-149.7,23c-11.9,0-23.7-0.4-35.5-1.3
			c-350-25-628.1-417.3-628.1-897.7c0-488.2,287.2-885.5,645.2-898.6c6.1-0.2,12.2-0.3,18.3-0.3c45.6,0,90.2,6.2,133.2,18.1
			C2574.7,537.1,2802.4,899.7,2802.4,1334.4z"/>
		<ellipse class="st4" cx="2149.6" cy="1344.2" rx="558.4" ry="796.7"/>
		
			<ellipse transform="matrix(0.1144 -0.9934 0.9934 0.1144 378.6053 2911.5483)" class="st5" cx="1822.3" cy="1243.4" rx="24.9" ry="48.6"/>
		
			<ellipse transform="matrix(0.9673 -0.2537 0.2537 0.9673 -164.6088 579.5663)" class="st5" cx="2165" cy="928.1" rx="24.9" ry="48.6"/>
		
			<ellipse transform="matrix(0.5605 -0.8282 0.8282 0.5605 227.1382 2525.9619)" class="st5" cx="2493.4" cy="1049" rx="48.6" ry="24.9"/>
		
			<ellipse transform="matrix(0.6727 -0.7399 0.7399 0.6727 -573.043 1971.9895)" class="st5" cx="1942.7" cy="1633.8" rx="48.6" ry="24.9"/>
		
			<ellipse transform="matrix(0.77 -0.6381 0.6381 0.77 -547.5099 1962.2794)" class="st5" cx="2447.7" cy="1740.5" rx="24.9" ry="48.6"/>
		
			<ellipse transform="matrix(0.2652 -0.9642 0.9642 0.2652 -238.6094 3442.9341)" class="st5" cx="2139.5" cy="1878" rx="48.6" ry="24.9"/>
		
			<ellipse transform="matrix(0.9962 -8.686405e-02 8.686405e-02 0.9962 -113.2493 226.308)" class="st5" cx="2543.8" cy="1414.4" rx="48.6" ry="24.9"/>
		<g>
			<defs>
				<path id="SVGID_00000044154722299477774350000007843373537564305599_" d="M1475.4,1327.3c0-488.2,287.2-885.5,645.2-898.6
					c-24.5-1.4-49.2-2.1-74.1-2.1c-593.2,0-1074.1,402.9-1074.1,899.9c0,497,480.9,899.9,1074.1,899.9c19.1,0,38.1-0.4,57-1.3
					C1753.4,2200,1475.4,1807.7,1475.4,1327.3z"/>
			</defs>
			<clipPath id="SVGID_00000065046793795635089570000000018510457152118960_">
				<use xlink:href="#SVGID_00000044154722299477774350000007843373537564305599_"  style="overflow:visible;"/>
			</clipPath>
			<path style="clip-path:url(#SVGID_00000065046793795635089570000000018510457152118960_);fill:#054C05;" d="M1475.4,1327.3
				c0-488.2,287.2-885.5,645.2-898.6c-24.5-1.4-49.2-2.1-74.1-2.1c-593.2,0-1074.1,402.9-1074.1,899.9
				c0,497,480.9,899.9,1074.1,899.9c19.1,0,38.1-0.4,57-1.3C1753.4,2200,1475.4,1807.7,1475.4,1327.3z"/>
			
				<path style="opacity:0.63;clip-path:url(#SVGID_00000065046793795635089570000000018510457152118960_);fill:none;stroke:#B9EFA5;stroke-width:41;stroke-miterlimit:10;" d="
				M958,1031.2c0,0,263.2-377,832.3-355.7"/>
			
				<path style="opacity:0.63;clip-path:url(#SVGID_00000065046793795635089570000000018510457152118960_);fill:none;stroke:#B9EFA5;stroke-width:41;stroke-miterlimit:10;" d="
				M822.9,1294.4c0,0,71.1,106.7,860.7,71.1"/>
			
				<path style="opacity:0.63;clip-path:url(#SVGID_00000065046793795635089570000000018510457152118960_);fill:none;stroke:#B9EFA5;stroke-width:41;stroke-miterlimit:10;" d="
				M837.1,1792.4c0,0,476.6,249,1059.9,142.3"/>
		</g>
	</g>
	<g style="clip-path:url(#SVGID_00000043456139943764183390000008432433805932557697_);">
		
			<ellipse transform="matrix(0.3997 -0.9166 0.9166 0.3997 -1680.4911 2093.3027)" class="st8" cx="758" cy="2329.7" rx="504.6" ry="585.7"/>
		<polygon class="st9" points="288.8,2070.9 135.1,2062.5 153.2,1989.9 288.8,2037.1 		"/>
		
			<ellipse transform="matrix(0.3997 -0.9166 0.9166 0.3997 -1499.2627 2063.2559)" class="st10" cx="825.7" cy="2176.3" rx="492.5" ry="603.8"/>
	</g>
	
		<path style="opacity:0.15;clip-path:url(#SVGID_00000043456139943764183390000008432433805932557697_);enable-background:new    ;" d="
		M1582.4,1482.3c-228-243.3-573.8-289.8-772.3-103.8c-22.5,21.1-42.2,44.4-59,69.3l-71.9-65.9l-45.4,59.5l89.1,44.3
		c-7.9,6.4-15.6,13.1-23.1,20.2c-203.3,190.6-188.9,536.4,32.3,772.4s565.3,272.9,768.7,82.3c9.7-9.1,18.9-18.6,27.7-28.4
		c39-18.1,75.2-42.2,107.6-72.5C1834.4,2073.7,1810.4,1725.6,1582.4,1482.3z"/>
	<g style="clip-path:url(#SVGID_00000043456139943764183390000008432433805932557697_);">
		
			<ellipse transform="matrix(0.7297 -0.6838 0.6838 0.7297 -974.0526 1288.7024)" class="st8" cx="1142.9" cy="1876.3" rx="504.6" ry="585.7"/>
		<polygon class="st9" points="814.2,1453 676.4,1384.5 721.8,1325 827.6,1421.9 		"/>
		
			<ellipse transform="matrix(0.7297 -0.6838 0.6838 0.7297 -862.8153 1341.84)" class="st10" cx="1265.7" cy="1762.2" rx="492.5" ry="603.8"/>
	</g>
	
		<path style="opacity:0.15;clip-path:url(#SVGID_00000043456139943764183390000008432433805932557697_);enable-background:new    ;" d="
		M3539.3,2015.4c-20.2-22.8-67.3-14-105.1,19.5c-4.6,4.1-8.8,8.3-12.7,12.7c-59.5,54.4-290.3,247.9-423.5,111.8
		c-12.6-12.8-26.5-28.2-41.3-45.7c2.3-16.1,2.1-32.6-0.9-49.2c-12.5-68.5-69.6-119.7-143.7-138.4
		c-156-211.5-335.4-464.6-402.1-443.6c-97.2,30.5-60.6,114-60.6,114s93-18.2,160.8,50.4c18.8,19,61.4,76.7,114.8,150.7
		c-35.9-9.8-76-11.8-117-4.3c-2.4,0.4-4.8,0.9-7.2,1.4c-48.4-48.6-128.1-72.8-211.7-57.6c-51.2,9.3-95.8,32-129.2,62.5
		c-48.8-36.5-118.5-53.2-191.2-39.9c-82.6,15-148.1,64.8-176.8,126.3c-48.8-37.5-119.4-54.7-193.1-41.3
		c-93.6,17-165.2,78.7-186.2,151.4c-15.5,27.1-23.8,57.1-22.8,87.6c-90.6,18.6-159.6,79.1-180.1,150.2
		c-19.4,33.8-27.4,72-20.4,110.3c3.3,18.2,9.8,35.3,19,50.8c-14.7,0.3-29.8,1.7-44.9,4.5c-94.7,17.2-166.9,80.2-187,154.1
		c-18,32.2-25.7,68.2-20.2,104.5c-112.5,28.9-187.7,123.4-170.4,218.6c18.3,100.7,133.1,164.1,256.4,141.7
		c35.2-6.4,67.3-19.1,94.8-36.4c37.9,76.1,137.2,119.8,242.8,100.6c21.9-4,42.6-10.4,61.8-18.9c21.4,97.6,134.3,158.3,255.4,136.3
		c95-17.3,167.3-80.5,187.1-154.7c9.4-17.2,15.8-35.4,18.9-54.2c44.8,21.7,100.2,29.8,157.4,19.4c23.5-4.3,45.6-11.4,65.9-20.7
		c46,58.6,133.2,89.7,225.2,72.9c95-17.3,167.3-80.5,187.1-154.7c4.7-8.6,8.6-17.4,11.8-26.4c14.3-0.3,29-1.8,43.7-4.4
		c95-17.3,167.3-80.5,187.1-154.7c18-33,25.2-69.8,18.5-106.8c-2.7-14.9-7.6-29.1-14.3-42.2c89.2-19.2,156.9-79.2,177.2-149.6
		c19.4-33.8,27.4-72,20.4-110.3c-7.3-40.2-30-74.4-62.5-99.6c1.5-2.6,2.9-5.2,4.2-7.8c46.7,58.5,83.5,98.5,100.3,103.1
		c62,16.9,276.9-60.7,448.1-168.7c11.2-5.2,22.5-12.5,33.1-21.7c1-0.7,2.1-1.4,3.1-2.1l-0.3-0.4
		C3545.6,2082.7,3559.3,2037.9,3539.3,2015.4z M2062.4,2507.9c14.9-26.7,22.8-56,21.9-86c10,4.4,20.5,8.2,31.3,11.3
		c-13.4,18.4-23.3,38.5-29,59.5c-18.7,33.4-26.3,71-19.5,108.7c0.1,0.5,0.2,0.9,0.3,1.4c-18.9-0.6-38.4,0.8-58,4.4
		c-6.4,1.2-12.6,2.5-18.7,4.1C2026.3,2583.4,2051.7,2547.2,2062.4,2507.9z M1368.1,2713.4c14.4-18.7,25.1-39.3,31.4-60.9
		c12.4,9.7,26.2,18,41.1,24.9c-5.5,14.5-8.9,29.5-10.1,44.9C1410.8,2716.9,1389.8,2713.9,1368.1,2713.4z"/>
	<g style="clip-path:url(#SVGID_00000043456139943764183390000008432433805932557697_);">
		
			<ellipse transform="matrix(0.3661 -0.9306 0.9306 0.3661 -1066.4509 3432.4395)" class="st12" cx="1986.3" cy="2499" rx="185.3" ry="226.9"/>
		
			<ellipse transform="matrix(0.3661 -0.9306 0.9306 0.3661 -1022.3273 3448.3894)" class="st13" cx="2020" cy="2474.6" rx="185.3" ry="226.9"/>
	</g>
	<g style="clip-path:url(#SVGID_00000043456139943764183390000008432433805932557697_);">
		<circle class="st14" cx="3415.1" cy="2099.5" r="207.3"/>
		<circle class="st14" cx="2928" cy="1931.1" r="207.3"/>
		<g>
			<path class="st15" d="M3429,1972.8c-12.5-68.2-27.8-133.6-41.7-200.4c-23.7-193.4-69.6-400.8-201.8-549.7l47.3-26.4
				c8.3,32,11.1,61.2,13.9,91.8c13.9,151.7-32,324.2-161.4,416.1c-54.3,32-112.7,51.5-172.6,58.4c79.3-39,140.6-94.6,196.2-157.3
				c86.3-108.5,98.8-263,68.2-395.2c-4.2-15.3,5.6-30.6,20.9-33.4c9.7-2.8,20.9,1.4,26.4,8.3c50.1,52.9,86.3,114.1,115.5,178.1
				c57.1,128,84.9,264.4,103,402.2C3447.1,1833.7,3440.1,1904.6,3429,1972.8L3429,1972.8z"/>
		</g>
	</g>
	
		<ellipse transform="matrix(0.9838 -0.1791 0.1791 0.9838 -506.6403 293.757)" style="opacity:0.15;clip-path:url(#SVGID_00000043456139943764183390000008432433805932557697_);enable-background:new    ;" cx="1373.7" cy="2953" rx="226.9" ry="185.3"/>
	<g style="clip-path:url(#SVGID_00000043456139943764183390000008432433805932557697_);">
		
			<ellipse transform="matrix(0.9838 -0.1791 0.1791 0.9838 -492.1124 231.8902)" class="st13" cx="1038.3" cy="2841.6" rx="226.9" ry="185.3"/>
		<g>
			
				<ellipse transform="matrix(0.9838 -0.1791 0.1791 0.9838 -450.9468 259.0609)" class="st12" cx="1209.4" cy="2627.2" rx="226.9" ry="185.3"/>
			
				<ellipse transform="matrix(0.9838 -0.1791 0.1791 0.9838 -443.5542 261.3469)" class="st13" cx="1225.7" cy="2587.4" rx="226.9" ry="185.3"/>
		</g>
		<g>
			
				<ellipse transform="matrix(0.9838 -0.1791 0.1791 0.9838 -514.0579 352.0645)" class="st12" cx="1693" cy="3023.2" rx="226.9" ry="185.3"/>
			
				<ellipse transform="matrix(0.9838 -0.1791 0.1791 0.9838 -506.8958 354.2199)" class="st13" cx="1708.5" cy="2984.7" rx="226.9" ry="185.3"/>
		</g>
		<g>
			
				<ellipse transform="matrix(0.9838 -0.1791 0.1791 0.9838 -461.0814 345.853)" class="st12" cx="1685" cy="2726.7" rx="226.9" ry="185.3"/>
			
				<ellipse transform="matrix(0.9838 -0.1791 0.1791 0.9838 -453.9189 348.0085)" class="st13" cx="1700.6" cy="2688.1" rx="226.9" ry="185.3"/>
		</g>
		<g>
			
				<ellipse transform="matrix(0.9838 -0.1791 0.1791 0.9838 -425.2682 325.435)" class="st12" cx="1589.9" cy="2518.2" rx="226.9" ry="185.3"/>
			
				<ellipse transform="matrix(0.9838 -0.1791 0.1791 0.9838 -418.1059 327.5906)" class="st13" cx="1605.4" cy="2479.6" rx="226.9" ry="185.3"/>
		</g>
		<g>
			
				<ellipse transform="matrix(0.9838 -0.1791 0.1791 0.9838 -390.2451 295.5399)" class="st12" cx="1441.8" cy="2309.2" rx="226.9" ry="185.3"/>
			
				<ellipse transform="matrix(0.9838 -0.1791 0.1791 0.9838 -383.0328 297.8756)" class="st13" cx="1458.3" cy="2270.4" rx="226.9" ry="185.3"/>
		</g>
		<g>
			
				<ellipse transform="matrix(0.9838 -0.1791 0.1791 0.9838 -344.3633 328.0366)" class="st12" cx="1644.7" cy="2071.3" rx="226.9" ry="185.3"/>
			
				<ellipse transform="matrix(0.9838 -0.1791 0.1791 0.9838 -337.1512 330.3723)" class="st13" cx="1661.3" cy="2032.6" rx="226.9" ry="185.3"/>
		</g>
		<g>
			
				<ellipse transform="matrix(0.9838 -0.1791 0.1791 0.9838 -383.625 371.0755)" class="st12" cx="1863.5" cy="2310.3" rx="226.9" ry="185.3"/>
			
				<ellipse transform="matrix(0.9838 -0.1791 0.1791 0.9838 -376.4626 373.231)" class="st13" cx="1879" cy="2271.7" rx="226.9" ry="185.3"/>
		</g>
		<g>
			
				<ellipse transform="matrix(0.9838 -0.1791 0.1791 0.9838 -474.2392 414.0797)" class="st12" cx="2056.3" cy="2833.7" rx="226.9" ry="185.3"/>
			
				<ellipse transform="matrix(0.9838 -0.1791 0.1791 0.9838 -467.0769 416.235)" class="st13" cx="2071.9" cy="2795.1" rx="226.9" ry="185.3"/>
		</g>
		<g>
			
				<ellipse transform="matrix(0.9838 -0.1791 0.1791 0.9838 -478.8794 467.0498)" class="st12" cx="2347.4" cy="2885.9" rx="226.9" ry="185.3"/>
			
				<ellipse transform="matrix(0.9838 -0.1791 0.1791 0.9838 -471.717 469.2054)" class="st13" cx="2362.9" cy="2847.3" rx="226.9" ry="185.3"/>
		</g>
		<g>
			
				<ellipse transform="matrix(0.9838 -0.1791 0.1791 0.9838 -422.1072 456.9194)" class="st12" cx="2319.7" cy="2566.4" rx="226.9" ry="185.3"/>
			
				<ellipse transform="matrix(0.9838 -0.1791 0.1791 0.9838 -414.7146 459.2052)" class="st13" cx="2336" cy="2526.6" rx="226.9" ry="185.3"/>
		</g>
		<g>
			
				<ellipse transform="matrix(0.9838 -0.1791 0.1791 0.9838 -368.9564 436.13)" class="st12" cx="2231.1" cy="2261.6" rx="226.9" ry="185.3"/>
			
				<ellipse transform="matrix(0.9838 -0.1791 0.1791 0.9838 -361.794 438.2856)" class="st13" cx="2246.6" cy="2223" rx="226.9" ry="185.3"/>
		</g>
		<g>
			
				<ellipse transform="matrix(0.9838 -0.1791 0.1791 0.9838 -323.1593 392.8953)" class="st12" cx="2014.6" cy="1986.3" rx="226.9" ry="185.3"/>
			
				<ellipse transform="matrix(0.9838 -0.1791 0.1791 0.9838 -315.9469 395.231)" class="st13" cx="2031.1" cy="1947.6" rx="226.9" ry="185.3"/>
		</g>
		<g>
			
				<ellipse transform="matrix(0.9838 -0.1791 0.1791 0.9838 -313.8831 450.0899)" class="st12" cx="2336" cy="1963.6" rx="226.9" ry="185.3"/>
			
				<ellipse transform="matrix(0.9838 -0.1791 0.1791 0.9838 -306.7209 452.2455)" class="st13" cx="2351.5" cy="1925" rx="226.9" ry="185.3"/>
		</g>
		<g>
			
				<ellipse transform="matrix(0.9838 -0.1791 0.1791 0.9838 -359.0582 484.0536)" class="st12" cx="2501.5" cy="2230.7" rx="226.9" ry="185.3"/>
			
				<ellipse transform="matrix(0.9838 -0.1791 0.1791 0.9838 -351.8461 486.3894)" class="st13" cx="2518" cy="2192" rx="226.9" ry="185.3"/>
		</g>
		<g>
			
				<ellipse transform="matrix(0.9838 -0.1791 0.1791 0.9838 -387.2517 501.0806)" class="st12" cx="2581.7" cy="2395.4" rx="226.9" ry="185.3"/>
			
				<ellipse transform="matrix(0.9838 -0.1791 0.1791 0.9838 -379.9091 503.186)" class="st13" cx="2597" cy="2355.8" rx="226.9" ry="185.3"/>
		</g>
		<g>
			
				<ellipse transform="matrix(0.9838 -0.1791 0.1791 0.9838 -441.7233 507.4955)" class="st12" cx="2590" cy="2700.3" rx="226.9" ry="185.3"/>
			
				<ellipse transform="matrix(0.9838 -0.1791 0.1791 0.9838 -434.561 509.6511)" class="st13" cx="2605.5" cy="2661.7" rx="226.9" ry="185.3"/>
		</g>
		<g>
			<path class="st16" d="M3465.1,2039.8c0,0-283.9,282.5-437.9,125.3c-154.9-157-490.9-707.4-588.1-676.9
				c-97.2,30.5-60.6,114-60.6,114s93-18.2,160.8,50.4c67.8,68.6,448.2,644,514.7,662.1c66.5,18.1,308.6-72.3,484.4-192.5
				L3465.1,2039.8z"/>
			
				<ellipse transform="matrix(0.7479 -0.6638 0.6638 0.7479 -499.6176 2848.1357)" class="st17" cx="3500.1" cy="2081.9" rx="91.6" ry="55.2"/>
		</g>
		<g>
			
				<ellipse transform="matrix(0.9838 -0.1791 0.1791 0.9838 -320.4601 490.0155)" class="st12" cx="2553.8" cy="2019.9" rx="226.9" ry="185.3"/>
			
				<ellipse transform="matrix(0.9838 -0.1791 0.1791 0.9838 -313.248 492.3512)" class="st13" cx="2570.4" cy="1981.2" rx="226.9" ry="185.3"/>
		</g>
		<g>
			
				<ellipse transform="matrix(0.9838 -0.1791 0.1791 0.9838 -384.7042 535.2726)" class="st12" cx="2772.4" cy="2398.4" rx="226.9" ry="185.3"/>
			
				<ellipse transform="matrix(0.9838 -0.1791 0.1791 0.9838 -377.4919 537.6083)" class="st13" cx="2788.9" cy="2359.6" rx="226.9" ry="185.3"/>
		</g>
		<g>
			
				<ellipse transform="matrix(0.9838 -0.1791 0.1791 0.9838 -340.71 526.6194)" class="st12" cx="2746.4" cy="2150.4" rx="226.9" ry="185.3"/>
			
				<ellipse transform="matrix(0.9838 -0.1791 0.1791 0.9838 -333.3672 528.7247)" class="st13" cx="2761.8" cy="2110.8" rx="226.9" ry="185.3"/>
		</g>
		<g>
			
				<ellipse transform="matrix(0.9838 -0.1791 0.1791 0.9838 -414.8398 375.3482)" class="st12" cx="1871.5" cy="2485.3" rx="226.9" ry="185.3"/>
			
				<ellipse transform="matrix(0.9838 -0.1791 0.1791 0.9838 -407.447 377.6344)" class="st13" cx="1887.9" cy="2445.5" rx="226.9" ry="185.3"/>
		</g>
		
			<ellipse transform="matrix(0.9838 -0.1791 0.1791 0.9838 -498.159 293.3744)" class="st13" cx="1375.8" cy="2905.8" rx="226.9" ry="185.3"/>
	</g>
	
		<path style="opacity:0.15;clip-path:url(#SVGID_00000043456139943764183390000008432433805932557697_);enable-background:new    ;" d="
		M3097,2600.4c-36.5,0-70.8,9.4-100.6,26c-59.1-19-112.2-46.6-165.2-80.3c-112.7-80.7-167-224-175.3-359c0-11.1-5.6-20.9-15.3-25
		c-13.9-7-30.6-1.4-37.6,12.5c-33.4,64-51.5,133.6-61.2,203.2c-19.5,137.8-7,276.9,13.9,414.7c10.3,41.1,24.3,81.7,40.3,121.5
		c-75.1,31.2-128,105.2-128,191.6c0,114.5,92.8,207.3,207.3,207.3s207.3-92.8,207.3-207.3s-92.8-207.3-207.3-207.3
		c-19.1,0-37.5,2.6-55.1,7.4c-3-40.8-5-81.4-7.5-121.5c-25.1-157.4-39.9-327.8,3.1-483c33.4,143.3,123.6,283.6,266.9,334.1
		c27.4,6.8,54.8,11.2,81.9,13c-45.8,38-74.9,95.4-74.9,159.6c0,114.5,92.8,207.3,207.3,207.3c114.5,0,207.3-92.8,207.3-207.3
		C3304.3,2693.2,3211.5,2600.4,3097,2600.4z"/>
	<g style="clip-path:url(#SVGID_00000043456139943764183390000008432433805932557697_);">
		<circle class="st14" cx="2709.1" cy="3114.4" r="207.3"/>
		<circle class="st14" cx="3130.8" cy="2816.6" r="207.3"/>
		<g>
			<path class="st15" d="M2661.8,2996.1c-29.2-62.6-55.7-128-72.4-194.8c-20.9-137.8-33.4-276.9-13.9-414.7
				c9.7-69.6,27.8-139.2,61.2-203.2c7-13.9,23.7-19.5,37.6-12.5c9.7,4.2,15.3,13.9,15.3,25c8.3,135,62.6,278.3,175.3,359
				c72.4,45.9,144.7,80.7,232.4,97.4c-58.4,9.7-119.7,7-180.9-8.3c-150.3-52.9-242.1-204.6-271.4-354.9
				c-5.6-30.6-9.7-59.8-11.1-91.8l52.9,12.5c-86.3,179.5-71,391-40.4,583.1C2650.7,2859.8,2653.5,2927.9,2661.8,2996.1
				L2661.8,2996.1z"/>
		</g>
	</g>
	<path style="clip-path:url(#SVGID_00000043456139943764183390000008432433805932557697_);fill:#96CC96;" d="M-678,1542.1
		c11.7,0.8,23.6,1.3,35.5,1.3c51.5,0,101.6-7.9,149.7-23C-552.8,1532-614.7,1539.4-678,1542.1z M-642.5-254.6
		c-6.1,0-12.2,0.1-18.3,0.3c51.6,3,102.2,8.9,151.5,17.8C-552.3-248.3-596.9-254.6-642.5-254.6z"/>
	<path style="clip-path:url(#SVGID_00000043456139943764183390000008432433805932557697_);fill:none;" d="M339.3,1456.7
		c11.7,0.8,23.6,1.3,35.5,1.3c51.5,0,101.6-7.9,149.7-23C464.4,1446.6,402.6,1454,339.3,1456.7z M374.7-339.9
		c-6.1,0-12.2,0.1-18.3,0.3c51.6,3,102.2,8.9,151.5,17.8C464.9-333.7,420.4-339.9,374.7-339.9z"/>
	
		<path style="opacity:0.15;clip-path:url(#SVGID_00000043456139943764183390000008432433805932557697_);enable-background:new    ;" d="
		M984.6,2701.3c-21.3-33.6,23.8-8.5,28.2-43.2c4.4-34.8-50-3.2-86.8-42c-36.8-38.8,10.5-41.4-0.7-71.1c-11.2-29.6-65,4.4-78.6-24.6
		c-13.6-29,8.9-32-19.1-40.6c-28-8.6-44.2-16.3-52-58.4c-7.8-42.1-15.4-67.4-36.2-36.4c-13.2,19.7-26.9,70.6-36,106.5
		c-27.6-15.4-57.5-28.6-89.9-39.1c-312.6-101.5-467,353.7-545,531c-128.9,293,75.8,362.5,245.6,281.3
		c134.4-64.3,228.2-40.8,546.6-251.6c73.8-48.8,92.8-152.8,59.9-259.9c21.9,2.5,52.1,5.9,73.5,8.1
		C1031.4,2764.8,1005.9,2734.9,984.6,2701.3z"/>
	<g style="clip-path:url(#SVGID_00000043456139943764183390000008432433805932557697_);">
		<path class="st20" d="M744.3,2550c2.8-4.6,25-113.7,45.9-144.7c20.8-31.1,28.4-5.7,36.2,36.4c7.8,42.1,24,49.8,52,58.4
			s5.5,11.6,19.1,40.6c13.6,29,67.4-5,78.6,24.6s-36.1,32.2,0.7,71.1c36.8,38.8,91.2,7.3,86.8,42s-49.4,9.6-28.2,43.2
			c21.3,33.6,46.8,63.6,9.6,59.8s-101.2-11.3-101.2-11.3L744.3,2550z"/>
		<path class="st4" d="M119.3,3003.6c78-177.3,232.4-632.5,545-531c312.6,101.5,404.7,456.5,247.3,560.7
			c-318.4,210.8-412.3,187.3-546.6,251.6C195.2,3366.1-9.5,3296.6,119.3,3003.6z"/>
		
			<ellipse transform="matrix(0.923 -0.3847 0.3847 0.923 -935.8658 408.8216)" class="st21" cx="553.9" cy="2543.6" rx="27.3" ry="14"/>
		
			<ellipse transform="matrix(0.808 -0.5892 0.5892 0.808 -1446.5127 888.7009)" class="st21" cx="640.3" cy="2663.8" rx="27.3" ry="14"/>
		
			<ellipse transform="matrix(0.6794 -0.7337 0.7337 0.6794 -1794.6871 1429.4468)" class="st21" cx="738.6" cy="2768.7" rx="27.3" ry="14"/>
		
			<ellipse transform="matrix(0.5169 -0.856 0.856 0.5169 -2053.9268 2103.2009)" class="st21" cx="836.5" cy="2871.4" rx="27.3" ry="14"/>
		
			<ellipse transform="matrix(0.5169 -0.856 0.856 0.5169 -2060.3064 2200.9453)" class="st21" cx="919.9" cy="2925.9" rx="27.3" ry="14"/>
		
			<ellipse transform="matrix(0.5169 -0.856 0.856 0.5169 -2216.0156 2143.8904)" class="st21" cx="791.5" cy="3035.4" rx="27.3" ry="14"/>
		
			<ellipse transform="matrix(0.5169 -0.856 0.856 0.5169 -2195.6062 2044.8108)" class="st21" cx="713.9" cy="2967.8" rx="27.3" ry="14"/>
		
			<ellipse transform="matrix(0.7759 -0.6309 0.6309 0.7759 -1635.5605 1001.4481)" class="st21" cx="591.7" cy="2802.7" rx="27.3" ry="14"/>
		
			<ellipse transform="matrix(0.7759 -0.6309 0.6309 0.7759 -1682.3119 909.2365)" class="st21" cx="438.6" cy="2822.4" rx="27.3" ry="14"/>
		
			<ellipse transform="matrix(0.6004 -0.7997 0.7997 0.6004 -2029.4688 1342.385)" class="st21" cx="328.5" cy="2702" rx="27.3" ry="14"/>
		
			<ellipse transform="matrix(0.7759 -0.6309 0.6309 0.7759 -1750.725 1011.9026)" class="st21" cx="548.9" cy="2970.1" rx="27.3" ry="14"/>
		
			<ellipse transform="matrix(0.7759 -0.6309 0.6309 0.7759 -1804.1584 1106.6974)" class="st21" cx="655.6" cy="3092.7" rx="27.3" ry="14"/>
		
			<ellipse transform="matrix(0.7759 -0.6309 0.6309 0.7759 -1855.3641 1018.4352)" class="st21" cx="505.7" cy="3120.6" rx="27.3" ry="14"/>
		
			<ellipse transform="matrix(0.7759 -0.6309 0.6309 0.7759 -1808.8472 903.9951)" class="st21" cx="367.9" cy="2997.9" rx="27.3" ry="14"/>
		
			<ellipse transform="matrix(0.5857 -0.8106 0.8106 0.5857 -2208.2776 1410.5625)" class="st21" cx="275.6" cy="2865.3" rx="27.3" ry="14"/>
		
			<ellipse transform="matrix(0.5857 -0.8106 0.8106 0.5857 -2341.8245 1440.0551)" class="st21" cx="237.7" cy="3010.7" rx="27.3" ry="14"/>
		
			<ellipse transform="matrix(0.8015 -0.598 0.598 0.8015 -1811.2996 824.1382)" class="st21" cx="335.8" cy="3140.6" rx="27.3" ry="14"/>
		
			<ellipse transform="matrix(0.3253 -0.9456 0.9456 0.3253 -2654.8726 2156.3208)" class="st21" cx="183.6" cy="2938.5" rx="27.3" ry="14"/>
		
			<ellipse transform="matrix(0.7802 -0.6256 0.6256 0.7802 -1714.01 942.1222)" class="st21" cx="483.5" cy="2909.8" rx="27.3" ry="14"/>
		
			<ellipse transform="matrix(0.6503 -0.7596 0.7596 0.6503 -1977.9597 1513.0544)" class="st21" cx="654.6" cy="2905.1" rx="27.3" ry="14"/>
		
			<ellipse transform="matrix(0.7759 -0.6309 0.6309 0.7759 -1580.1896 891.2509)" class="st21" cx="464.3" cy="2669.7" rx="27.3" ry="14"/>
		
			<ellipse transform="matrix(0.7759 -0.6309 0.6309 0.7759 -1492.3352 1085.4556)" class="st21" cx="781.6" cy="2643.2" rx="27.3" ry="14"/>
		
			<ellipse transform="matrix(0.648 -0.7616 0.7616 0.648 -1776.8153 1632.3385)" class="st21" cx="877.7" cy="2738.6" rx="27.3" ry="14"/>
		
			<ellipse transform="matrix(0.9862 -0.1657 0.1657 0.9862 -413.1737 149.1857)" class="st21" cx="687.6" cy="2551.1" rx="27.3" ry="14"/>
	</g>
	
		<path style="opacity:0.15;clip-path:url(#SVGID_00000043456139943764183390000008432433805932557697_);enable-background:new    ;" d="
		M1475.5,3005.2c-124.5-81.8-152.9-174.3-497.9-337.9c-80-37.9-178.8-0.4-253.4,83.1c-9.2-20-21.9-47.7-31.1-67.1
		c-16-33.8-28.5,3.6-46.2,39.1c-17.8,35.6-19.6-16-51.6-1.8c-32,14.2,23.1,44.5,8.9,96c-14.2,51.6-40.9,12.4-60.5,37.3
		c-19.6,24.9,37.3,53.4,19.6,80c-17.8,26.7-32,8.9-24.9,37.3c7.1,28.5,8.9,46.2-23.1,74.7c-32,28.5-49.8,48-12.4,49.8
		c23.6,1.1,74.3-13.4,109.7-24.3c1.1,31.6,5.2,64,13,97.2c74.7,320.1,544.2,217,736.3,192.1
		C1679.2,3319.7,1632.9,3108.6,1475.5,3005.2z"/>
	
		<ellipse transform="matrix(0.1546 -0.988 0.988 0.1546 -1885.2864 4120.1855)" style="clip-path:url(#SVGID_00000043456139943764183390000008432433805932557697_);fill:#FF9797;" cx="1464.9" cy="3161.7" rx="14" ry="27.3"/>
	
		<ellipse transform="matrix(0.9776 -0.2104 0.2104 0.9776 -654.2585 372.1727)" style="clip-path:url(#SVGID_00000043456139943764183390000008432433805932557697_);fill:#FF9797;" cx="1422.2" cy="3261.3" rx="27.3" ry="14"/>
	
		<ellipse transform="matrix(0.6111 -0.7915 0.7915 0.6111 -1796.9081 2295.8928)" style="clip-path:url(#SVGID_00000043456139943764183390000008432433805932557697_);fill:#FF9797;" cx="1438.2" cy="2976.8" rx="14" ry="27.3"/>
	<g style="clip-path:url(#SVGID_00000043456139943764183390000008432433805932557697_);">
		<path class="st20" d="M664.6,3023c-5.3,0-110.3,37.3-147.6,35.6s-19.6-21.3,12.4-49.8c32-28.5,30.2-46.2,23.1-74.7
			s7.1-10.7,24.9-37.3s-39.1-55.1-19.6-80s46.2,14.2,60.5-37.3c14.2-51.6-40.9-81.8-8.9-96c32-14.2,33.8,37.3,51.6,1.8
			c17.8-35.6,30.2-72.9,46.2-39.1s42.7,92.5,42.7,92.5L664.6,3023z"/>
		<path class="st4" d="M1376,3323.5c-192.1,24.9-661.6,128-736.3-192.1s181.6-582.4,352.1-501.5c345,163.6,373.5,256.1,497.9,337.9
			C1647.1,3071.2,1693.4,3282.4,1376,3323.5z"/>
		
			<ellipse transform="matrix(0.5913 -0.8065 0.8065 0.5913 -2262.4766 1914.3835)" class="st21" cx="757.5" cy="3189.4" rx="14" ry="27.3"/>
		
			<ellipse transform="matrix(0.3871 -0.922 0.922 0.3871 -2315.1987 2623.416)" class="st21" cx="815.8" cy="3053.2" rx="14" ry="27.3"/>
		
			<ellipse transform="matrix(0.2023 -0.9793 0.9793 0.2023 -2172.8301 3162.1338)" class="st21" cx="854.7" cy="2914.9" rx="14" ry="27.3"/>
		<path class="st21" d="M892.1,2791.9c15.1,0,27.3-6.3,27.3-14s-12.2-14-27.3-14s-27.3,6.3-27.3,14S877,2791.9,892.1,2791.9z"/>
		<path class="st21" d="M895.6,2692.3c15.1,0,27.3-6.3,27.3-14s-12.2-14-27.3-14s-27.3,6.3-27.3,14S880.6,2692.3,895.6,2692.3z"/>
		<path class="st21" d="M1055.7,2745.7c15.1,0,27.3-6.3,27.3-14s-12.2-14-27.3-14s-27.3,6.3-27.3,14S1040.6,2745.7,1055.7,2745.7z"
			/>
		<path class="st21" d="M1037.9,2847.1c15.1,0,27.3-6.3,27.3-14s-12.2-14-27.3-14s-27.3,6.3-27.3,14S1022.8,2847.1,1037.9,2847.1z"
			/>
		
			<ellipse transform="matrix(0.3381 -0.9411 0.9411 0.3381 -2209.6738 2904.304)" class="st21" cx="959.8" cy="3023" rx="14" ry="27.3"/>
		
			<ellipse transform="matrix(0.3381 -0.9411 0.9411 0.3381 -2259.917 3074.7295)" class="st21" cx="1055.8" cy="3143.9" rx="14" ry="27.3"/>
		
			<ellipse transform="matrix(0.1006 -0.9949 0.9949 0.1006 -2375.6335 3972.9089)" class="st21" cx="1009.6" cy="3300.4" rx="14" ry="27.3"/>
		
			<ellipse transform="matrix(0.3381 -0.9411 0.9411 0.3381 -2053.3347 3026.9951)" class="st21" cx="1125.2" cy="2973.2" rx="14" ry="27.3"/>
		
			<ellipse transform="matrix(0.3381 -0.9411 0.9411 0.3381 -1874.7643 2971.4448)" class="st21" cx="1175" cy="2818.5" rx="14" ry="27.3"/>
		
			<ellipse transform="matrix(0.3381 -0.9411 0.9411 0.3381 -1914.7812 3142.1829)" class="st21" cx="1276.4" cy="2932.3" rx="14" ry="27.3"/>
		
			<ellipse transform="matrix(0.3381 -0.9411 0.9411 0.3381 -2107.8623 3230.4536)" class="st21" cx="1242.6" cy="3113.7" rx="14" ry="27.3"/>
		
			<ellipse transform="matrix(8.236008e-02 -0.9966 0.9966 8.236008e-02 -2170.3611 4165.4766)" class="st21" cx="1176.8" cy="3261.3" rx="14" ry="27.3"/>
		
			<ellipse transform="matrix(8.236008e-02 -0.9966 0.9966 8.236008e-02 -1995.6394 4269.8706)" class="st21" cx="1320.8" cy="3218.6" rx="14" ry="27.3"/>
		
			<ellipse transform="matrix(0.377 -0.9262 0.9262 0.377 -1980.5759 3190.2949)" class="st21" cx="1381.3" cy="3067.5" rx="14" ry="27.3"/>
		
			<ellipse transform="matrix(0.9776 -0.2104 0.2104 0.9776 -665.888 344.6547)" class="st21" cx="1287" cy="3302.2" rx="27.3" ry="14"/>
		
			<ellipse transform="matrix(0.3445 -0.9388 0.9388 0.3445 -2147.0928 3045.7727)" class="st21" cx="1107.4" cy="3060.3" rx="14" ry="27.3"/>
		
			<ellipse transform="matrix(0.164 -0.9865 0.9865 0.164 -2028.3308 3439.1167)" class="st21" cx="1014.9" cy="2916.3" rx="14" ry="27.3"/>
		
			<ellipse transform="matrix(0.3381 -0.9411 0.9411 0.3381 -2408.8247 2976.8311)" class="st21" cx="911.8" cy="3200.8" rx="14" ry="27.3"/>
		
			<ellipse transform="matrix(0.3381 -0.9411 0.9411 0.3381 -2289.7439 2630.4062)" class="st21" cx="725.1" cy="2943" rx="14" ry="27.3"/>
		
			<ellipse transform="matrix(0.1611 -0.9869 0.9869 0.1611 -2139.5181 3105.7834)" class="st21" cx="757.1" cy="2811.4" rx="14" ry="27.3"/>
		
			<ellipse transform="matrix(0.7586 -0.6516 0.6516 0.7586 -1833.3322 1194.2375)" class="st21" cx="694.8" cy="3071" rx="14" ry="27.3"/>
	</g>
</g>
</svg>
