<?xml version="1.0" encoding="utf-8"?>
<!-- Generator: Adobe Illustrator 26.5.0, SVG Export Plug-In . SVG Version: 6.00 Build 0)  -->
<svg version="1.1" id="Livello_1" xmlns="http://www.w3.org/2000/svg" xmlns:xlink="http://www.w3.org/1999/xlink" x="0px" y="0px"
	 viewBox="0 0 3835.8 3845.2" style="enable-background:new 0 0 3835.8 3845.2;" xml:space="preserve">
<style type="text/css">
	.st0{opacity:9.000000e-02;fill:#00FF00;enable-background:new    ;}
	.st1{fill:#8FDB45;}
	.st2{fill:#FFFDC0;}
	.st3{fill:#FF5C5C;}
	.st4{fill:none;stroke:#F4E495;stroke-width:9;stroke-miterlimit:10;}
	.st5{fill:#FFFDE1;}
	.st6{fill:#F4E495;}
	.st7{clip-path:url(#SVGID_00000171714051670421647140000006795431777197815974_);fill:#0D8543;}
	
		.st8{clip-path:url(#SVGID_00000047749423281213810670000011906500386973283768_);fill:none;stroke:#98ED9C;stroke-width:0.5;stroke-miterlimit:10;}
	
		.st9{clip-path:url(#SVGID_00000047052982801629810010000009425761851585629341_);fill:none;stroke:#98ED9C;stroke-width:0.5;stroke-miterlimit:10;}
	
		.st10{clip-path:url(#SVGID_00000047048862496315646130000004532442334313315490_);fill:none;stroke:#98ED9C;stroke-width:0.5;stroke-miterlimit:10;}
	
		.st11{clip-path:url(#SVGID_00000124162982625889802510000012289106426564821918_);fill:none;stroke:#98ED9C;stroke-width:0.5;stroke-miterlimit:10;}
	.st12{fill:#98ED9C;}
	.st13{clip-path:url(#SVGID_00000038400775866701349450000016879109881760155046_);fill:#0D8543;}
	
		.st14{clip-path:url(#SVGID_00000142135403661998451130000003272821773184124038_);fill:none;stroke:#98ED9C;stroke-width:0.5;stroke-miterlimit:10;}
	
		.st15{clip-path:url(#SVGID_00000068658458376386767900000011674848825599956903_);fill:none;stroke:#98ED9C;stroke-width:0.5;stroke-miterlimit:10;}
	
		.st16{clip-path:url(#SVGID_00000182500455099335149740000007541796422227036819_);fill:none;stroke:#98ED9C;stroke-width:0.5;stroke-miterlimit:10;}
	
		.st17{clip-path:url(#SVGID_00000003070838196471248070000012414997093416915347_);fill:none;stroke:#98ED9C;stroke-width:0.5;stroke-miterlimit:10;}
	.st18{fill:#0D8543;}
	.st19{fill:#FF8F1F;}
	.st20{fill:#FFB069;}
	.st21{fill:#FF4040;}
	.st22{fill:#298419;}
	.st23{fill:#226D13;}
</style>
<g>
	<path class="st0" d="M1461.2,3072c-4.8-344.3-761.5,38.4-1100.6-595.1c-135.7-253.5,262.4-684.7,224-966.2
		c-38.4-281.5-275.1-799.9,435.1-755.1c217.2,13.7,947,32,1094.2-134.4s851-383.9,1043-121.6s-12.8,806.3,422.3,1260.6
		c277.8,290.1,128,1318.2-185.6,1484.5c-313.5,166.4-415.9,147.2-863.8,307.1S1467.6,3532.7,1461.2,3072z"/>
	<path class="st1" d="M3756.8,1387.5l-619.1,1622.1C3056.2,3259.1,2797,3192,2797,3192l-1286.2,72L47.1,1555.5l1574.1-4.8
		l494.3-1339L3756.8,1387.5z"/>
	<path class="st2" d="M162.3,1593.8l1372.5,1602.9l1420.5-81.6l719.9-1708.5L2129.9,293.3c0,0-513.5,686.3-508.7,1233.4
		C1621.2,1526.7,1069.3,1171.5,162.3,1593.8z"/>
	<path class="st3" d="M607,1427.5c0,0-96.2,99.4,83.2,211.2c195.2,121.6,240,265.6,176,355.1l67.2-6.4l48,60.8
		c0,0,114.8-258.6-156.8-435.1c-192-124.8-105.6-198.4-105.6-198.4L607,1427.5z"/>
	<line class="st4" x1="1621.2" y1="1526.7" x2="2955.4" y2="3115.2"/>
	<polygon class="st5" points="162.3,1593.8 303.1,1536.3 1746,3078.4 1534.8,3196.8 	"/>
	<path class="st6" d="M1534.8,3196.8c0,0,1156.5-508.7,1420.5-81.6c0,0-235.3-676.7,719.9-1708.5l-719.3,1709.6L1534.8,3196.8z"/>
</g>
<g>
	<g>
		<g>
			<g>
				<defs>
					<path id="SVGID_1_" d="M1935.3,2162.8c0,0-78.3-123.2,19.5-196.8c97.8-73.6,178.6-5.6,216.4,28.1s327,406.4,598.9,436.1
						c272.7,30,169.4,298.3,38.8,259.7C2677.3,2651.9,2182.3,2481,1935.3,2162.8z"/>
				</defs>
				<clipPath id="SVGID_00000022552245297797407880000004331667466668706207_">
					<use xlink:href="#SVGID_1_"  style="overflow:visible;"/>
				</clipPath>
				<path style="clip-path:url(#SVGID_00000022552245297797407880000004331667466668706207_);fill:#0D8543;" d="M1935.3,2162.8
					c0,0-78.3-123.2,19.5-196.8c97.8-73.6,178.6-5.6,216.4,28.1s327,406.4,598.9,436.1c272.7,30,169.4,298.3,38.8,259.7
					C2677.3,2651.9,2182.3,2481,1935.3,2162.8z"/>
			</g>
			<g>
				<defs>
					<path id="SVGID_00000018212139466067803790000003167551585323426177_" d="M1935.3,2162.8c0,0-78.3-123.2,19.5-196.8
						c97.8-73.6,178.6-5.6,216.4,28.1s327,406.4,598.9,436.1c272.7,30,169.4,298.3,38.8,259.7
						C2677.3,2651.9,2182.3,2481,1935.3,2162.8z"/>
				</defs>
				<clipPath id="SVGID_00000115492457885904564610000016878828482803370403_">
					<use xlink:href="#SVGID_00000018212139466067803790000003167551585323426177_"  style="overflow:visible;"/>
				</clipPath>
				
					<path style="clip-path:url(#SVGID_00000115492457885904564610000016878828482803370403_);fill:none;stroke:#98ED9C;stroke-width:0.5;stroke-miterlimit:10;" d="
					M1994.3,1923.7c0,0,85.6,8.1,157.3,100c71.8,91.9,305.1,375.8,557.7,428.1s220.4,53.3,243,110.8"/>
			</g>
			<g>
				<defs>
					<path id="SVGID_00000023995220333281824360000017180568434969152434_" d="M1935.3,2162.8c0,0-78.3-123.2,19.5-196.8
						c97.8-73.6,178.6-5.6,216.4,28.1s327,406.4,598.9,436.1c272.7,30,169.4,298.3,38.8,259.7
						C2677.3,2651.9,2182.3,2481,1935.3,2162.8z"/>
				</defs>
				<clipPath id="SVGID_00000013189466932477629030000008871842561965545366_">
					<use xlink:href="#SVGID_00000023995220333281824360000017180568434969152434_"  style="overflow:visible;"/>
				</clipPath>
				
					<path style="clip-path:url(#SVGID_00000013189466932477629030000008871842561965545366_);fill:none;stroke:#98ED9C;stroke-width:0.5;stroke-miterlimit:10;" d="
					M1953.1,1945.1c0,0,72.9,44.2,131.3,112.6c59.3,68.6,241.7,285.5,402.3,357.1c160.6,71.6,479.4,134.2,488.9,164.6"/>
			</g>
			<g>
				<defs>
					<path id="SVGID_00000091719000659432425560000001700875489831030700_" d="M1935.3,2162.8c0,0-78.3-123.2,19.5-196.8
						c97.8-73.6,178.6-5.6,216.4,28.1s327,406.4,598.9,436.1c272.7,30,169.4,298.3,38.8,259.7
						C2677.3,2651.9,2182.3,2481,1935.3,2162.8z"/>
				</defs>
				<clipPath id="SVGID_00000026856220963546674360000003413321364800826540_">
					<use xlink:href="#SVGID_00000091719000659432425560000001700875489831030700_"  style="overflow:visible;"/>
				</clipPath>
				
					<path style="clip-path:url(#SVGID_00000026856220963546674360000003413321364800826540_);fill:none;stroke:#98ED9C;stroke-width:0.5;stroke-miterlimit:10;" d="
					M1877.7,2009.4c0,0,52.7,119.9,146.2,210.4s408.6,324.4,716.9,410.4c308.2,86,320.9,38.3,320.9,38.3"/>
			</g>
			<g>
				<defs>
					<path id="SVGID_00000176723926064770649190000003885102546682544574_" d="M1935.3,2162.8c0,0-78.3-123.2,19.5-196.8
						c97.8-73.6,178.6-5.6,216.4,28.1s327,406.4,598.9,436.1c272.7,30,169.4,298.3,38.8,259.7
						C2677.3,2651.9,2182.3,2481,1935.3,2162.8z"/>
				</defs>
				<clipPath id="SVGID_00000166677891936581467990000003528995183545706901_">
					<use xlink:href="#SVGID_00000176723926064770649190000003885102546682544574_"  style="overflow:visible;"/>
				</clipPath>
				
					<path style="clip-path:url(#SVGID_00000166677891936581467990000003528995183545706901_);fill:none;stroke:#98ED9C;stroke-width:0.5;stroke-miterlimit:10;" d="
					M1910.9,1973.2c0,0,52.3,70.9,113.8,129.5c60.4,59.1,210.6,223.7,289.8,273.4c79,50.5,368.6,174.5,480.8,200.4
					c113,26.1,169.7,70.8,169.7,70.8"/>
			</g>
		</g>
		<path class="st12" d="M2937.3,2535.8c0,0,11.9,40-3.7,79.8c0,0,34,22.7,44.7,19.7s-8.7-21.3-7-27s14.3-9,7.3-18.2
			c-7-9.2-8-14.8-3.9-22.5c3.3-7.9,3.1-13.3-4.3-18.2c-7.4-4.9-7.1-3-5.7-10.6C2966.2,2531.2,2937.3,2535.8,2937.3,2535.8z"/>
	</g>
	<g>
		<g>
			<defs>
				<path id="SVGID_00000093897127559479487590000005566740378520343986_" d="M1499.5,1938.2c0,0-197-30-183.9-196.2
					c13-166.1,154.6-186.9,223-196.4c68.4-9.5,708.5,29.7,983.5-221.9s456.8,94.2,300.4,193.8
					C2666,1617,2047.3,1970.5,1499.5,1938.2z"/>
			</defs>
			<clipPath id="SVGID_00000163036837129740092740000007922600580052938930_">
				<use xlink:href="#SVGID_00000093897127559479487590000005566740378520343986_"  style="overflow:visible;"/>
			</clipPath>
			<path style="clip-path:url(#SVGID_00000163036837129740092740000007922600580052938930_);fill:#0D8543;" d="M1499.5,1938.2
				c0,0-197-30-183.9-196.2c13-166.1,154.6-186.9,223-196.4c68.4-9.5,708.5,29.7,983.5-221.9s456.8,94.2,300.4,193.8
				C2666,1617,2047.3,1970.5,1499.5,1938.2z"/>
		</g>
		<g>
			<defs>
				<path id="SVGID_00000120552671152441246350000003490744591855009428_" d="M1499.5,1938.2c0,0-197-30-183.9-196.2
					c13-166.1,154.6-186.9,223-196.4c68.4-9.5,708.5,29.7,983.5-221.9s456.8,94.2,300.4,193.8
					C2666,1617,2047.3,1970.5,1499.5,1938.2z"/>
			</defs>
			<clipPath id="SVGID_00000090269363237077252980000004659668973209587132_">
				<use xlink:href="#SVGID_00000120552671152441246350000003490744591855009428_"  style="overflow:visible;"/>
			</clipPath>
			
				<path style="clip-path:url(#SVGID_00000090269363237077252980000004659668973209587132_);fill:none;stroke:#98ED9C;stroke-width:0.5;stroke-miterlimit:10;" d="
				M1308.2,1663.4c0,0,84.7-79.9,243.1-71.2s657.9,24.7,938.2-186.9c280.2-210.5,252.4-177.2,331.1-149.6"/>
		</g>
		<g>
			<defs>
				<path id="SVGID_00000096019831956572224540000005093218483295312784_" d="M1499.5,1938.2c0,0-197-30-183.9-196.2
					c13-166.1,154.6-186.9,223-196.4c68.4-9.5,708.5,29.7,983.5-221.9s456.8,94.2,300.4,193.8
					C2666,1617,2047.3,1970.5,1499.5,1938.2z"/>
			</defs>
			<clipPath id="SVGID_00000034075056434296216890000016407640544785364399_">
				<use xlink:href="#SVGID_00000096019831956572224540000005093218483295312784_"  style="overflow:visible;"/>
			</clipPath>
			
				<path style="clip-path:url(#SVGID_00000034075056434296216890000016407640544785364399_);fill:none;stroke:#98ED9C;stroke-width:0.5;stroke-miterlimit:10;" d="
				M1294,1724.7c0,0,110.4-34.4,233.5-33.7c123.2,0.6,508.3,8.7,725.1-90.7c216.8-99.4,566.9-370.3,605.8-352.5"/>
		</g>
		<g>
			<defs>
				<path id="SVGID_00000172408058135358020680000018258668919420904325_" d="M1499.5,1938.2c0,0-197-30-183.9-196.2
					c13-166.1,154.6-186.9,223-196.4c68.4-9.5,708.5,29.7,983.5-221.9s456.8,94.2,300.4,193.8
					C2666,1617,2047.3,1970.5,1499.5,1938.2z"/>
			</defs>
			<clipPath id="SVGID_00000157994994291730294230000015671660201015300528_">
				<use xlink:href="#SVGID_00000172408058135358020680000018258668919420904325_"  style="overflow:visible;"/>
			</clipPath>
			
				<path style="clip-path:url(#SVGID_00000157994994291730294230000015671660201015300528_);fill:none;stroke:#98ED9C;stroke-width:0.5;stroke-miterlimit:10;" d="
				M1291.1,1859.3c0,0,170.3,53,346,39c176.9-13.8,698.5-127,1061.7-365.3c364.3-238.1,326.7-293,326.7-293"/>
		</g>
		<g>
			<defs>
				<path id="SVGID_00000055691569333722920820000001793957870164211357_" d="M1499.5,1938.2c0,0-197-30-183.9-196.2
					c13-166.1,154.6-186.9,223-196.4c68.4-9.5,708.5,29.7,983.5-221.9s456.8,94.2,300.4,193.8
					C2666,1617,2047.3,1970.5,1499.5,1938.2z"/>
			</defs>
			<clipPath id="SVGID_00000183244585472029634000000009271482287117201827_">
				<use xlink:href="#SVGID_00000055691569333722920820000001793957870164211357_"  style="overflow:visible;"/>
			</clipPath>
			
				<path style="clip-path:url(#SVGID_00000183244585472029634000000009271482287117201827_);fill:none;stroke:#98ED9C;stroke-width:0.5;stroke-miterlimit:10;" d="
				M1284.9,1792.4c0,0,120,9.6,234.8,0.1s417.7-15.4,539.8-51s509-220.3,635.6-312.3c127.7-91.9,224.9-110.2,224.9-110.2"/>
		</g>
	</g>
	<g>
		<path class="st18" d="M1584.2,638.7c0,0-58.3-61.7-228.7-33.1c-169.4,28.3-184.4-157.4-64.5-151.6c119.9,5.9,119.9,5.9,119.9,5.9
			s-157.8-114.3-97.6-154.1s186.6,73.5,249.8,32.4c63.1-41.1,3.5-192.4,111.6-186.3c108.2,6.1-9.1,268.3,33.9,341.3
			C1751.9,567.3,1584.2,638.7,1584.2,638.7z"/>
		<path class="st19" d="M2162.4,1503.7c0,0-578.2-480.7-637.9-704.3c-59.6-223.6,127.7-385.2,318.1-286.1
			c190.9,100.2,461.3,930.1,461.3,930.1s17.1,48.5-45.1,89.1C2219.2,1559,2162.4,1503.7,2162.4,1503.7z"/>
		<g>
			<path class="st20" d="M1576.4,846c7-114.5,94.6-220.5,205-250.9c15.9-4.4,31.7-6.4,47.4-8.3c-6.6,4-14.2,8.4-20.8,12.4
				C1703.3,650.9,1626.4,740.5,1576.4,846L1576.4,846z"/>
		</g>
		<g>
			<path class="st20" d="M1693,994.4c5.1-107.7,83.4-205.1,178.7-251.6c14.1-6,28.1-12,43-15.9c-10.9,10.6-22.7,19.1-33.6,29.7
				C1802.3,822.2,1737.8,901.8,1693,994.4L1693,994.4z"/>
		</g>
		<g>
			<path class="st20" d="M1811.9,1128.8c19.3-107.8,114.2-196.9,218-223.3C1948.5,973.4,1872.4,1042.5,1811.9,1128.8L1811.9,1128.8z
				"/>
		</g>
		<g>
			<path class="st20" d="M1967.7,1291.3c-12.8-94.2,69.8-181.5,157.6-203.5C2065.3,1150.2,2001.5,1209.3,1967.7,1291.3
				L1967.7,1291.3z"/>
		</g>
	</g>
	<g>
		<path class="st18" d="M1608.4,2185c0,0,21.3-31.2-7.4-102.6c-28.4-71,50.9-95.2,59.8-42.5c8.9,52.7,8.9,52.7,8.9,52.7
			s34.7-79.5,57.7-57.1s-14.2,88.2,9.7,111.7c23.9,23.5,84-16.8,91.6,30.8c7.6,47.6-117.5,21.6-145.2,47.2
			C1655.4,2251.1,1608.4,2185,1608.4,2185z"/>
		<path class="st19" d="M1287.4,2518.8c0,0,153.9-297.2,245.5-344.5c91.6-47.2,179.7,18.8,154.7,111.1
			c-25.4,92.5-360.5,289.2-360.5,289.2s-19.4,12-43.1-11.1C1268.7,2548.8,1287.4,2518.8,1287.4,2518.8z"/>
		<g>
			<path class="st20" d="M1517.5,2201.4c50.4-7.9,104.9,20.1,128.7,65.2c3.4,6.5,5.8,13.2,8.1,19.8c-2.4-2.5-5-5.4-7.4-7.9
				C1614.5,2238,1568.1,2213.1,1517.5,2201.4L1517.5,2201.4z"/>
		</g>
		<g>
			<path class="st20" d="M1464.1,2266.2c47.3-8,97.1,16.7,126.4,53.7c3.9,5.5,7.9,11.1,11,17.2c-5.6-3.7-10.5-8-16.1-11.8
				C1549.4,2297.3,1508.6,2276.9,1464.1,2266.2L1464.1,2266.2z"/>
		</g>
		<g>
			<path class="st20" d="M1417,2330.7c48.7-1.9,96.5,30.9,117.9,73.5C1497.6,2375.3,1460.3,2348.8,1417,2330.7L1417,2330.7z"/>
		</g>
		<g>
			<path class="st20" d="M1361.2,2413.9c39.7-14.5,85.6,13,103.5,49.2C1431.8,2442.9,1400,2420.8,1361.2,2413.9L1361.2,2413.9z"/>
		</g>
	</g>
	<g>
		
			<ellipse transform="matrix(0.556 -0.8312 0.8312 0.556 -496.6479 1540.5442)" class="st21" cx="1193.6" cy="1235.1" rx="420.6" ry="377.9"/>
		<polygon class="st22" points="1017.3,1181.3 1004.7,1117.2 1039.6,1175.5 1086.3,1149.3 1060,1181.3 1116.4,1193.9 1061,1205.6 
			1073.6,1261 1033.8,1217.3 989.1,1242.5 1004.7,1203.7 953.2,1181.3 		"/>
		<g>
			<path class="st23" d="M1032.8,1185.2c6.8-4.9,15.5,1.9,17.5,8.7c2.9,6.8-2.9,17.5-10.7,16.5
				C1047.4,1202.7,1043.5,1188.1,1032.8,1185.2L1032.8,1185.2z"/>
		</g>
	</g>
	<g>
		
			<ellipse transform="matrix(0.9607 -0.2774 0.2774 0.9607 -436.4942 781.3509)" class="st21" cx="2542.7" cy="1933" rx="126.6" ry="140.9"/>
		<polygon class="st22" points="2594.5,1899.5 2613.7,1910.1 2591.2,1906.5 2587.8,1924.1 2585.3,1910.4 2569.9,1922.1 
			2578.9,1905.4 2561.9,1896.7 2581.7,1895.9 2584.9,1879 2591.5,1891.4 2608.4,1883 		"/>
		<g>
			<path class="st23" d="M2590.2,1902.6c-0.2,2.8-3.9,3.6-6,2.6c-2.4-0.7-3.9-4.5-1.9-6.3
				C2582.5,1902.6,2587.1,1904.7,2590.2,1902.6L2590.2,1902.6z"/>
		</g>
	</g>
</g>
</svg>
