<?xml version="1.0" encoding="utf-8"?>
<!-- Generator: Adobe Illustrator 26.5.0, SVG Export Plug-In . SVG Version: 6.00 Build 0)  -->
<svg version="1.1" id="Livello_1" xmlns="http://www.w3.org/2000/svg" xmlns:xlink="http://www.w3.org/1999/xlink" x="0px" y="0px"
	 viewBox="0 0 3860.9 3810.8" style="enable-background:new 0 0 3860.9 3810.8;" xml:space="preserve">
<style type="text/css">
	.st0{opacity:9.000000e-02;fill:#00FF00;enable-background:new    ;}
	.st1{fill:#33A027;}
	.st2{fill:#FBD38E;}
	.st3{opacity:0.15;}
	.st4{fill:url(#SVGID_1_);}
	.st5{fill:#F4E495;}
	.st6{fill:#A41809;}
	.st7{fill:url(#SVGID_00000072266217776006770640000010316308790818386070_);}
	.st8{opacity:0.25;}
	.st9{fill:#7F6244;}
	.st10{clip-path:url(#SVGID_00000016062710206854776890000018300667934330262933_);fill:#0D8543;}
	
		.st11{clip-path:url(#SVGID_00000108311320686218089740000006831561705203195309_);fill:none;stroke:#98ED9C;stroke-width:0.5;stroke-miterlimit:10;}
	
		.st12{clip-path:url(#SVGID_00000011715052200505981090000005804026088913237425_);fill:none;stroke:#98ED9C;stroke-width:0.5;stroke-miterlimit:10;}
	
		.st13{clip-path:url(#SVGID_00000139997765315014391110000004925996707453865363_);fill:none;stroke:#98ED9C;stroke-width:0.5;stroke-miterlimit:10;}
	
		.st14{clip-path:url(#SVGID_00000001662117469479504270000004383236173403842190_);fill:none;stroke:#98ED9C;stroke-width:0.5;stroke-miterlimit:10;}
	.st15{fill:#98ED9C;}
	.st16{clip-path:url(#SVGID_00000062171461409532251880000015244986895713424311_);fill:#0D8543;}
	
		.st17{clip-path:url(#SVGID_00000141429172488618210390000010728442848956885437_);fill:none;stroke:#98ED9C;stroke-width:0.5;stroke-miterlimit:10;}
	
		.st18{clip-path:url(#SVGID_00000016069244542899349850000011633581437977254788_);fill:none;stroke:#98ED9C;stroke-width:0.5;stroke-miterlimit:10;}
	
		.st19{clip-path:url(#SVGID_00000025442816618964756140000011386060146160586673_);fill:none;stroke:#98ED9C;stroke-width:0.5;stroke-miterlimit:10;}
	
		.st20{clip-path:url(#SVGID_00000129183629755779396130000005734174759005678229_);fill:none;stroke:#98ED9C;stroke-width:0.5;stroke-miterlimit:10;}
	.st21{fill:#0D8543;}
	.st22{fill:#FF8F1F;}
	.st23{fill:#FFB069;}
	.st24{fill:#FF4040;}
	.st25{fill:#298419;}
	.st26{fill:#226D13;}
</style>
<path class="st0" d="M289.5,1733.8c0,0-283.4,259-155.6,542.5s475.2,297.5,707.7,806.1s1304.8,304.1,1401.9-215.4
	c97.2-519.4,330.9-874.1,1039.7-1193.6s332.5-1212.6,31.1-1240.8s-1001.3,303.7-1230,167.4S1157.2,325.9,927,659.3
	S893.7,1320.5,289.5,1733.8z"/>
<path class="st1" d="M346.8,2902l1488.9,9.2c0,0,27.5,33.6,73.4,36.7c45.9,3.1,195.7,0,195.7,0s42.8,0,64.2-36.7l1498,3.1
	L3660.9,930h-3311L346.8,2902z"/>
<polygon class="st2" points="3458.2,903.4 3458.3,936 3480.2,936 3641.4,1081.6 3641.4,1098.8 3672.7,1098.8 3673.5,902.3 "/>
<polygon class="st2" points="340.6,2694.7 373.2,2694.7 373.2,2716.6 518.8,2877.8 536,2877.8 536,2909.1 339.6,2909.9 "/>
<polygon class="st2" points="343.8,1126 376.4,1125.2 375.9,1103.3 517.9,938.9 535.1,938.5 534.4,907.2 338,910.8 "/>
<path class="st3" d="M494.9,986.4c0,0-75.1,6.3-103.3-25c-28.2-31.3-3.1,1893.9-3.1,1893.9l113.5,54l34-0.2l-0.2-6.3l13.7,0.2
	L494.9,986.4z"/>
<linearGradient id="SVGID_1_" gradientUnits="userSpaceOnUse" x1="427.6087" y1="1801.4664" x2="2005.3478" y2="1801.4664">
	<stop  offset="0" style="stop-color:#FFFDC0"/>
	<stop  offset="0.4819" style="stop-color:#FFFBBE"/>
	<stop  offset="0.666" style="stop-color:#FFF5B7"/>
	<stop  offset="0.7991" style="stop-color:#FFEAAB"/>
	<stop  offset="0.907" style="stop-color:#FFDB9A"/>
	<stop  offset="1" style="stop-color:#FFC784"/>
</linearGradient>
<path class="st4" d="M429.2,789.2l-1.6,1967.5c0,0,352.2,29.7,446.1,23.5c93.9-6.3,698.1-37.6,752.9-37.6s219.1,3.9,375.7,77.5
	l3.1-1962c0,0-131.5-76.7-372.5-75.1c-241,1.6-518.1,65.7-715.3,61C720.3,839.3,512.1,814.2,429.2,789.2z"/>
<path class="st5" d="M427.6,2756.7l129.9,92.3l1242.8,9.4c0,0,47-3.1,84.5,26.6c37.6,29.7,230.1,14.1,256.7,0s42.3-34.4,122.1-32.9
	c79.8,1.6,1186.4-4.7,1186.4-4.7l128.3-90.8c0,0-317.7,34.4-463.3,23.5s-655.8-47-795.1-36s-165.1,6.3-318.5,75.1
	c0,0-176.1-78.3-374.9-76.7s-654.3,34.2-752.9,37.6C737.5,2784.8,427.6,2756.7,427.6,2756.7z"/>
<path class="st6" d="M2412.7,2709.7c0,0-1.2,119.7,52.8,147.9c54,28.2,66.9,66.9,70.4,111.5s-1.2,116.2-1.2,116.2l-75.1-62.2
	l-69.3,15.3c0,0,24.7-129.1-20-156.1s-89.2-14.1-89.2-164.3L2412.7,2709.7z"/>
<linearGradient id="SVGID_00000111896827547964740330000000807764199207367615_" gradientUnits="userSpaceOnUse" x1="1999.0869" y1="1801.4664" x2="3576.8262" y2="1801.4664">
	<stop  offset="0" style="stop-color:#FFC784"/>
	<stop  offset="9.302217e-02" style="stop-color:#FFDB9A"/>
	<stop  offset="0.2009" style="stop-color:#FFEAAB"/>
	<stop  offset="0.334" style="stop-color:#FFF5B7"/>
	<stop  offset="0.5181" style="stop-color:#FFFBBE"/>
	<stop  offset="1" style="stop-color:#FFFDC0"/>
</linearGradient>
<path style="fill:url(#SVGID_00000111896827547964740330000000807764199207367615_);" d="M3575.3,789.2l1.6,1967.5
	c0,0-352.2,29.7-446.1,23.5c-93.9-6.3-698.1-37.6-752.9-37.6c-54.8,0-219.1,3.9-375.7,77.5l-3.1-1962c0,0,131.5-76.7,372.5-75.1
	c241,1.6,518.1,65.7,715.3,61C3284.1,839.3,3492.3,814.2,3575.3,789.2z"/>
<g class="st8">
	<g>
		<path class="st9" d="M2365.6,2547.8c5.8,2.7,11.6,5.5,19.7,9.4c-70.8,5.9-140.9,15.8-210.3,31.4c-0.5,5.3-0.8,9-1.3,13.9
			c4.7-1.1,8.9-2.1,13.1-3c54.5-11.6,109.8-19.4,165.4-24.6c15.1-1.4,30.2-2.9,45.2-4.1c6.8-0.6,13.5,0,18.8-5.8
			c1.6-1.7,9.8,0.5,17.1,1.2c7.3-16.4,15.6-31.1,35.3-33.8c-21.4-4.3-34.8,15.7-52.3,23.5c5-10.2,7-18.4-4.3-21.8
			c-12.4-3.8-25.9,3.4-34.9,11.9c3.1-4.1,5.4-9.1,9.3-12.1c18.3-14.1,38.9-16.9,62.9-16.1c27.6,3,51.2,12.3,76,24.4
			c-14.5-15-26.4-33.4-49.6-34.1c8.6-12.9,26.4-7.6,36.9-0.1c7.2-3.6,13.6-7.5,20.6-9.8c2.8-0.9,7.1,1.9,12,3.5
			c-15.9,8.3-17.6,24.5-7.4,38.1c5.6,7.5,13.5,16.2,21.5,21.8c25,17.4,55.9,28.2,86.6,25.1c9.2-0.9,16.8-4.6,20.8-14.1
			c-11.6,0.1-13.9-5.3-12.3-15c-6.6,3.4-13.5,6.6-19.6,10.2c-10.3,6.2-21.3,7.9-32.4,6.5c-9.9-1.2-19.7-10.4-17.7-21.8
			c0.9,0.6,2.1,0.9,2.4,1.6c6.3,12.8,17.2,18.4,30.8,11.5c7.8-3,15-7.3,22.4-11.1c9.1-4.7,23.2-6.8,30.2,2.7
			c6.3,10.9,0,23.8-10.6,28.9c-11.6,5.6-25.2,5.1-37.6,3.1c-24.8-4-48.5-14.1-70-27.1c-10.6-6.4-21.4-12.5-32.1-18.3
			c-16.7-9.1-33.2-6.2-49.5,2.1c21.4-5,42,0.1,59.5,13c-1,0.5-1.6,1.1-1.9,1c-17.5-6-33-4.2-44.3,11.5c-3.6,4.3-6.4,9.6-11.3,12.5
			c-5.4,3.2-12.6,4-21.1,6.5c2.5-7.8,4-12.7,5.6-17.7c-1.2-0.6-2.4-1.2-3.7-1.8c-1.6,2.1-2.9,4.6-4.7,6.3
			c-6.2,5.9-18.6,9.2-26.7,5.4c-12.2-5.7-26.6-3.9-39.8-2.9c-29,2.3-58.8,4.7-87.9,8.6c-41,5.4-81.9,13.1-122.3,22.5
			c-2.6,0.6-5.5,2.3-7.7,4c-15.3,11.5-51.5,24.7-62.1-0.1c-0.7-1.6-1.1-3.2-1.7-4.8c-4.4,0.7-8.4,1.3-12.4,1.9
			c-0.1-0.7-0.3-1.3-0.4-2c3.9-2.1,7.9-4.3,12.7-6.8c-0.2,0.2,0.5-0.3,0.7-0.8c8-21.8,24.1-37.8,46.4-44.5
			c19.9-6.2,45.8-4.4,59.4,13.2c3.9,5,3.9,5.1,10.9,3.9c-0.1-3.1-1.5-6.5,0-9.3c1.2-2.3,6-4,10.7-6.2c-7.5,8.1-2.2,9.9,4.7,8.7
			c8.6-1.5,17.6-3.9,25.7-7.2c8.2-3.4,15.5-8.9,23.3-12.7c17.5-8.6,35-12.9,54.3-11.9c5.3,0.3,8-0.4,8.2-5c-0.1,0.1-0.2,0.2-0.3,0.3
			c9.5,0,21.3,5.5,21.9,16.3c-14.4-12.1-34.9-12.6-51.9-6.8c-12.4,4.2-14.5,8.6-6,18.7c-6.9-0.7-12.6-0.1-15.9-1.9
			c-2.3-1.3-1.5-5.9-2.3-10.1c-9.5,6-18.9,12.1-28.4,18.2c0.3,0.5,0.5,0.9,0.8,1.4c35.6-5.5,71.2-9.9,107-13.3
			C2367.7,2551.6,2366.7,2549.7,2365.6,2547.8z M2128,2595.7c11.6-3.1,23.3-6.1,35-9c-12.8-8.5-25.1,1.8-35.2,9.3
			c6-11.9,24.9-20.7,36.7-14.2c7.6,4.2,16,1.1,25-1.2c-5.9-16.5-33.8-16.3-47.3-12.1c-15.2,4.5-32.3,16.7-35.6,33.3
			C2113.8,2599.8,2120.9,2597.8,2128,2595.7z M2106.1,2607.6c0.6,12.7,13,18.1,23.9,17.7c8.5-0.3,20.4-3.6,27-9.9
			c-4.1,0.1-8.2,1.6-12,2c-4.3,0.4-12,0.7-12-0.5c0.1-6.4,7.6-5.8,12.3-7.3c7.5-2.3,15-3.9,24-6c-1.7-4.8,7-13.9-6.7-11
			C2143.7,2596.6,2124.8,2602.1,2106.1,2607.6z"/>
		<path class="st9" d="M2905.1,2583.4c17.7-9.3,36.3-22.2,41.7-42.6c4.1-13.8-3.5-22.6-15.7-28.3c12.4-11.2,23.5-0.5,33.3,8.2
			c16.2-11.1,29.7-8.8,46.3-0.4c-26,0.3-38,18.7-55,34.8c18.9-6.2,37.7-12.6,56.9-18c26.6-5.8,50.6-5.8,76.8,1
			c17.2,4.4,34.8,15.9,40,33.9c7.6-9.2,14.4-17.5,23.4-25.5c29.8-21.5,70.8-11.5,97.7,9.5c-5.2-1.8-10.6-3.7-15.6-5.7
			c-23-8.9-43.8-9.6-67.9-1.8c28.4-3.8,53.2-0.8,79.3,9.7c1.5,0.6,3.9,0,5.9-0.1c11.5,9.8,27.5,12.8,42,9.6c8.7-1.9,9.5-5.8,3-11.5
			c14.6,0.1,17,2.8,12.6,14.4c8.8,3,10.5-2.5,12.9-8.1c12.8-30.8,52.3-49.2,84.3-43.1c15.6,3.3,27.9,14.3,32.3,29.8
			c5-0.3,9.9-0.6,14.7-1c0.1,1.1,0.2,2.2,0.3,3.3c-4.4,2.1-8.7,4.2-11.1,5.3c-4.3,10.1-8.2,21.4-14.6,30.3
			c-11.5,15.8-35.1,22.8-53.3,14.7c-3.7-1.6-8.8-2.5-13.1-1.9c-87.1,11.3-175.5,9.7-263.2,3.8c-3.5-0.2-7.5-0.3-10.4,0.9
			c-17.6,7.9-32.1,4.1-45.3-9.5c-0.5-0.4-1.5-0.5-5.2-1.5c2.9,6.6,5.2,12,7.9,18.1c-8.9,3.6-21.1-1.7-27.1-7.9
			c-6-6.2-12-13.1-18.4-19.4c-9.9-11.1-23.3-14.3-37.5-11.4c-2.9,0.6-5.7,1.3-9.4,2.2c18.1-18.4,45.1-14,67.8-9.4
			c-14.9-14.2-39.7-17.1-58.1-8.1c-17.8,8.3-35.4,17-53,25.7c-1.2,0.6-2.7,0.8-4.1,1.2C2905.8,2584.1,2905.4,2583.7,2905.1,2583.4z
			 M3114.8,2573.2c-0.6,0.5-1.2,0.9-1.8,1.4c-3.5-1.1-6.9-2.6-10.4-3c-1-0.1-3.5,3.1-3,4.4c1,2.7,3,6.3,5.7,7.6
			c3.1,1.5,8.1,1.9,11.2,0.9c2-0.6,2.1-4.5,3.1-7c0.4-1.1,0.3-3,1.2-3.4c8.2-3.2,2.6-8.3,0-11.7c-7.4-9.6-23.3-14.5-34.9-10.8
			c-3.3,1-7.6,3.6-8,6.2c-0.8,5,0.8,10.5,1.7,18.3c-7.1-4.7-13.9-8.5-19.5-13.2c-11.3-10.3-26.3-15.5-41.5-14.6
			c23,3.6,35.1,19.8,45.7,38.8c9.6,0.4,15.9,0,22,1.1c5.9,1.1,11.7,5.2,17.4,5.6c82.1,5.6,164.3,6.6,246.3-2.9
			c3.9-0.5,7.8-1,12.1-1.6c-0.8-5.9-1.4-10.6-2.1-15.9c-4.3,0.4-8.2,0.6-12.1,1.1c-68.9,8.4-138.6,8.7-208.1,5.9
			c-5.6-0.2-10.8,3.3-16.5,4.4c-5.9,1.2-12.3,3-18,1.7c-3.6-0.8-8-6.6-8.7-10.2c-0.5-2.8,3.4-7.4,6.8-8.1
			C3106.1,2567.5,3110.9,2571.4,3114.8,2573.2z M3369.6,2564.2c21.4-3.5,42.6-7.7,63.7-12.7c-6.8-20.4-27.5-24.6-46.4-20.1
			c-16.8,4-41.5,17.4-44,37c10.2-0.6,20.7-2,27.7-10.5c8-9.5,21.4-11.8,32.3-6.2C3388.7,2552.9,3379.8,2554.3,3369.6,2564.2z
			 M3208.1,2572c5.6-5.8,8.3-10.5-0.2-15.2c-20.3-11.7-57.7-5.8-68.8,16.3c40.4,1.7,80.6,2.3,121,1.1c-10.6-5.1-21.1-10.1-31.6-15.4
			C3228,2572.1,3220,2574,3208.1,2572z M3435.1,2558.5c-21.1,5-42.4,9.2-63.7,13.1c-2.2,0.4-6.2,5.7-5.6,7.3
			c1.2,3.4,4.6,8.2,7.7,8.3c7.7,0.2,15.7-2.6,23.5-3.2c3.8-0.3,7.4,2.1,11,3.3c-3.3,2.3-6.3,5.4-9.9,6.5c-5.3,1.8-11,2.2-16.6,3.1
			c0.1,1,0.2,2,0.3,3c14.6,2,22.3,1,34.1-6C3427,2587.1,3435.5,2572.9,3435.1,2558.5z"/>
		<path class="st9" d="M2683,2547.4c-24.2-7.1-45.7-3.3-69.9,0c-14.6,2-29.7,2.1-44.4,0.5c-9.9-1-20.2-6.8-22.4-17.3
			c12.1,4.1,24.2,8.2,36.2,12.3c15.1-28.5,56.6-32.9,83.4-20.9c28.3,13.1,46.1,41,34.8,72.2c14.1-2.7,23.8-15.9,20.6-30.2
			c-0.8-3.6-2.3-8.2-1-11.4c3.9-9.6,14.7,0.4,20.7-4.3c2.2,3,5.2,5.9,6.4,9.1c0.9,2.6-0.7,5.7-0.8,8.5c-0.6,13.7,10.9,27.1,25,29.2
			c-10.9-25.9-6.3-50.8,18.4-66.1c24.8-15.3,59.5-11.8,83.6,3.5c4.4,2.8,9.6,6.4,11.8,10.4c3.8,6.9,9.3,7.5,15.2,6.3
			c10.4-2.2,20.7-5.2,31-8c-1,7.2-6.7,12.1-15.3,15.1c-16.8,3.8-31.1,3.1-47.6-0.3c-12.6-2.6-25.9-6.3-38.5-8.7
			c-14.9-2.9-30.3-4.5-45.2,1.5c30.1-17.3,68.2-3.9,100.3-0.3c-5.6-4.1-8.1-6.4-11.1-8.1c-29.6-16.2-75.3-19.5-98.5,9.7
			c-11.6,13.1-8,26.2,0.1,38.4c2.1,3.2,7.8,7.8,10.3,7.4c4.1-0.7,7.3-4.9,10.3-8.1c1.3-1.4,1-4,1.4-6.1c1.1,0.5,2.2,0.9,3.2,1.4
			c-3.1,6-6.2,12-9.4,18.4c18.1,13.1,46.1,14,66.5,7.9c13.2-3.9,26.2-9.5,39.8-12.5c13.9-2.9,28.1-4.1,42.2-4.2
			c15.7-0.1,28.2,7.5,40.7,16c10.2,8.9,22.2,10.1,34.2,4.2c-3.1,3.9-5,9.2-9.4,11.4c-10.9,4.9-21.9-2.2-31-7.1
			c-7.1,14.3-18.8,12-31.1,5.1c-6-3.1-12.4-5.5-18.8-10.7c5.4,0.5,10.8,0.6,16.1,1.7c4.1,0.9,8.2,4.2,12.2,4.7
			c3.7,0.4,10.1-0.8,10.4-2.6c0.6-3.5-1.1-10.1-3.8-11.5c-8.1-4-19.7-10-28.7-9.2c-16.6,1.6-34,7.1-50.8,12.3
			c-24.4,7.6-47,11.5-71.3,6c-5.2-1.2-10.6-3.2-16.3-4.4c9.4,5.9,16.7,14.8,18.8,25.9c4,15.6-7.5,28.3-20.1,35.1
			c-7.4,4-16.2,6.1-23.9,9.9c-5.7,2.8-11.9,6-15.6,10.8c-5.9,7.6-1.8,14.6,8.2,15.5c-6,6.5-8.4,5.3-18.1-8.9
			c-8.4,13.7-11.5,15.1-17,7.3c9.5,0.5,13.3-5.1,7.6-12.9c-3.8-5.1-9.9-9-15.6-12.2c-8.9-4.5-18.4-7.7-27-12.9
			c-24.7-15.1-28.8-41.3-6.9-61.2c-29.4,8.9-55.5,4.6-83.1-8.1c-12.7-5.9-26.4-10.6-39.2-15.3c-8.7-3.1-21.9-1.5-29.6,3.8
			c-2.3,1.5-4.8,3.7-5.6,6.1c-1.7,5.4,0.8,9.4,8,8.6c4.7-0.5,9.3-2.1,13.8-3.6c8.1-2.9,13.7-0.2,17.3,4.6c-6.9,1.5-14.5,2-20.4,4.7
			c-11.4,5.3-21.4,3.6-27.5-8.1c-12.3,6.1-31.5,10.7-35-7.4c5.1,1.5,10.7,4.7,15.6,4.2c5.4-0.5,10.9-3.8,15.1-7
			c17.9-11.3,33.6-13.3,52.5-7.8c15.5,4.5,31.8,12.3,47.1,18.5c24.2,9.8,45.6,11.6,71.1,2.2c-4-6.9-7.8-13.3-11.6-19.7
			c1-0.4,1.9-0.8,2.9-1.1c0.7,2.1,0.7,4.6,2.1,6.1c3.2,3.3,6.7,7.3,10.8,8.7c1.9,0.7,6.5-3.7,8.4-6.3c7.2-10.1,6.3-19.2,1.3-29.8
			c-0.2-1.2-0.1-2.6-0.7-3.6c-20.7-31.5-74.7-40.7-104-16.6c-0.3,0.3-0.1,1.1-0.1,2.6c3.7-0.2,7.4-0.3,11-0.6
			c15.5-1.2,32.4-4.1,46.7-2.7C2660.5,2538.7,2671.6,2543.4,2683,2547.4z M2784.3,2603.4c-20.5-2.3-39.3-12.2-48.9-31.1
			c-6.2,7.1-11.1,15.6-18.6,20.7c-7.5,5.1-17.4,7.7-26,10.6c5.1,1.9,9.4,2.7,12.9,4.8c9.5,5.7,10.5,16.9,1.6,21.8
			c-2.9,1.6-8.1,1.3-11.4-0.1c-2-0.8-2.4-5.5-2.7-6.2c5.7-2.6,9.2-4.2,12.7-5.8c-3.4-2.5-6.7-6.9-10.1-7.2
			c-9-0.7-14.3,4.7-17.3,12.1c-2.8,7-2.1,14.2,5.1,18.6c5.3,3.3,13.5,6.8,18.2,5.2c5.9-2.1,9.6-9.2,14.8-14.7
			c0.8,1.4,4.3,5.2,3.6,7.4c-2.2,6.3-6.1,12-9.3,17.8c12-1.5,24.6,2.2,30.6,13.5c4.6-3.7,8.5-8.3,13.6-10.3c5.4-2.1,12-1.7,18.5-2.4
			c-7.5-6.1-19.6-18.3-6.8-26c1.3,8.3,4.9,16.4,14.5,16.9c6.8,0.4,14.7-2.4,19.8-6.2c7.2-5.5,4.1-13.8-1.2-20.8
			c-4.8-6.3-11.3-11.2-19.7-9c-2.9,0.7-4.5,4.6-6.7,7c2.2,1.2,4.4,2.6,6.7,3.7c2.5,1.2,5.1,2.1,7.7,3.1c-2.3,2.3-4.8,6.9-6.8,6.5
			c-4.5-0.8-10.8-3.2-12.4-6.4c-2-4.1-2.1-10.7,0.4-14C2770.1,2609.1,2776.6,2607.4,2784.3,2603.4z"/>
		<path class="st9" d="M2793.7,2471.7c0.5-2.3,0.4-6.4,1.5-6.7c4.6-0.9,10.5-2.2,14.4-0.4c11.2,5.3,17.1,20.9,9.9,31.4
			c-3.8,5.6-10.3,10.2-15.9,14.8c-3.9,3.1-8.4,5.7-12.9,8.1c-21.5,11.1-39.1,29.4-31.8,55.3c-9-18.1-1.9-38.3,10.4-52.9
			c-5.7,2-9.7,3.4-13.7,4.8c-0.6-1.3-1.2-2-1-2.2c17.4-24.6,12.1-45.1,1.5-71.6c-4.2-9.7-7.4-20.4-9.6-30.8
			c24.5,24.2,52.8,56.7,30.7,91.9c0.7,0.6,1.4,1.2,2.1,1.8c9-8.7,17.9-17.2,26.4-26.4c2.9-3.4,3-10,1.7-14.7
			C2805.3,2467.8,2800.3,2465.7,2793.7,2471.7z"/>
		<path class="st9" d="M2729,2404.5c14.1,32.4,27.2,63.9,27.9,99.6c0,17.7-16.7,27.5-32.8,23.2c-10-2.7-17.6-10.8-19.6-21.2
			c-3.5-25.2,1.6-46.9,9.2-71c3.4-10.4,7.9-20.5,12.2-30.6C2727,2404.5,2728,2404.5,2729,2404.5z M2727.7,2415.4
			c-9.5,24.8-14.7,47.7-12.8,74.3c0.4,2.8,1.4,6.3,3.4,8.1c3.5,3.1,8.2,7.3,12.2,7.2c4.2,0,9-3.9,11.9-7.3c2.3-2.7,3.1-7.3,3.1-11
			C2745.7,2461.7,2737.8,2438.8,2727.7,2415.4z"/>
		<path class="st9" d="M2685.2,2510.7c-17.9-36.2-0.3-62.9,26-89.2c-2.1,8.2-3.8,16.4-6.1,24.3c-2,6.8-4.7,13.3-6.9,19.9
			c-8.3,22.3-2.1,42,11.7,60.2c-5.1-2-10.2-4.1-15.2-6.1C2691.5,2516.8,2688.3,2513.8,2685.2,2510.7z"/>
		<path class="st9" d="M2685.2,2510.7c3.2,3,6.4,6.1,9.6,9.1c13.8,14.5,22.5,34.8,17.6,54.9c-0.3,1.2-0.7,2.4-1.2,3.6
			c-0.2,0.5-0.8,1-2.5,2.9c8.5-28.2-9.6-50.2-32.9-63.3c-10.6-6.7-19.3-13.3-28.5-21.8c-9-10-8-26,3.8-32.6
			c3.2-1.8,8.6-1.5,12.7-0.7c1.9,0.4,3,4.4,4.7,7.1c-5-0.7-10.3-2.2-10.6-1.5c-1.8,3.9-4.3,9-3,12.4
			C2659.8,2494.5,2671.7,2505.1,2685.2,2510.7z"/>
		<path class="st9" d="M2906.2,2584.5c-26.2,10.8-51,14.2-78.4,10.4c-13.7-1.9-33.8-14.9-30.7-30.4c2.4-12.1,18.3-12.4,27.9-8.1
			c7.8,3.5,15.6,8.2,23.5,12.2c4.5,2.2,9.2,4.4,13.9,5.9c11.6,3.8,21.7,2.5,25.8-10.1c0.3-1,1.2-1.9,2.1-3.3
			c5.2,11.9-4.8,22.2-16.8,21.3c-11.3-0.8-22.5-4.5-33-8.3c-9.4-3.4-18.4-9.3-27.3-14.2c3.4,9.2,6.1,17.1-8.8,15.2
			c4.4,9.3,12.2,13.8,21.1,15.9c21.5,5.1,42.8,2.1,64.9-3.4c4.9-1.2,9.6-2.8,14.5-4.2C2905.4,2583.7,2905.8,2584.1,2906.2,2584.5z"
			/>
		<path class="st9" d="M2344,2531.8c0.1-0.1,0.2-0.2,0.3-0.3c-1.7,0.3-3.6,1.1-5,0.9c-18.3-3.4-36,1.3-53,8.2
			c2.8-3.1,3.6-4.8,4.9-5.5c15.1-7.8,29.1-11.2,45.6-8.3C2339.6,2527.2,2341.7,2530.1,2344,2531.8z"/>
		<path class="st9" d="M2685.6,2567.5c9.1,2.7,14,4.9,10.9,11c-0.8,1.6-5,1.6-7.6,2.3C2687.9,2577,2687,2573.1,2685.6,2567.5z"/>
		<path class="st9" d="M2784.4,2569.4c-1.1,5.4-1.8,9.1-2.6,12.8c-2.8-1-7.3-1.3-8.1-2.9C2770.4,2573,2774.7,2570.8,2784.4,2569.4z"
			/>
		<path class="st9" d="M2387.9,2553.3c3.5-1.8,7-5,9.5-4.6c3,0.4,7,3.8,7.2,6.2c0.5,5.9-3.4,10.1-9.2,10.6c1.7-4.2,3.5-8.7,5.3-13.2
			C2397.4,2552.6,2393.9,2552.8,2387.9,2553.3z"/>
	</g>
</g>
<g class="st8">
	<g>
		<path class="st9" d="M787.9,1063.7c5.8-2.7,11.6-5.5,19.7-9.4c-70.8-5.9-140.9-15.8-210.3-31.4c-0.5-5.3-0.8-9-1.3-13.9
			c4.7,1.1,8.9,2.1,13.1,3c54.5,11.6,109.8,19.4,165.4,24.6c15.1,1.4,30.2,2.9,45.2,4.1c6.8,0.6,13.5,0,18.8,5.8
			c1.6,1.7,9.8-0.5,17.1-1.2c7.3,16.4,15.6,31.1,35.3,33.8c-21.4,4.3-34.8-15.7-52.3-23.5c5,10.2,7,18.4-4.3,21.8
			c-12.4,3.8-25.9-3.4-34.9-11.9c3.1,4.1,5.4,9.1,9.3,12.1c18.3,14.1,38.9,16.9,62.9,16.1c27.6-3,51.2-12.3,76-24.4
			c-14.5,15-26.4,33.4-49.6,34.1c8.6,12.9,26.4,7.6,36.9,0.1c7.2,3.6,13.6,7.5,20.6,9.8c2.8,0.9,7.1-1.9,12-3.5
			c-15.9-8.3-17.6-24.5-7.4-38.1c5.6-7.5,13.5-16.2,21.5-21.8c25-17.4,55.9-28.2,86.6-25.1c9.2,0.9,16.8,4.6,20.8,14.1
			c-11.6-0.1-13.9,5.3-12.3,15c-6.6-3.4-13.5-6.6-19.6-10.2c-10.3-6.2-21.3-7.9-32.4-6.5c-9.9,1.2-19.7,10.4-17.7,21.8
			c0.9-0.6,2.1-0.9,2.4-1.6c6.3-12.8,17.2-18.4,30.8-11.5c7.8,3,15,7.3,22.4,11.1c9.1,4.7,23.2,6.8,30.2-2.7
			c6.3-10.9,0-23.8-10.6-28.9c-11.6-5.6-25.2-5.1-37.6-3.1c-24.8,4-48.5,14.1-70,27.1c-10.6,6.4-21.4,12.5-32.1,18.3
			c-16.7,9.1-33.2,6.2-49.5-2.1c21.4,5,42-0.1,59.5-13c-1-0.5-1.6-1.1-1.9-1c-17.5,6-33,4.2-44.3-11.5c-3.6-4.3-6.4-9.6-11.3-12.5
			c-5.4-3.2-12.6-4-21.1-6.5c2.5,7.8,4,12.7,5.6,17.7c-1.2,0.6-2.4,1.2-3.7,1.8c-1.6-2.1-2.9-4.6-4.7-6.3
			c-6.2-5.9-18.6-9.2-26.7-5.4c-12.2,5.7-26.6,3.9-39.8,2.9c-29-2.3-58.8-4.7-87.9-8.6c-41-5.4-81.9-13.1-122.3-22.5
			c-2.6-0.6-5.5-2.3-7.7-4c-15.3-11.5-51.5-24.7-62.1,0.1c-0.7,1.6-1.1,3.2-1.7,4.8c-4.4-0.7-8.4-1.3-12.4-1.9
			c-0.1,0.7-0.3,1.3-0.4,2c3.9,2.1,7.9,4.3,12.7,6.8c-0.2-0.2,0.5,0.3,0.7,0.8c8,21.8,24.1,37.8,46.4,44.5
			c19.9,6.2,45.8,4.4,59.4-13.2c3.9-5,3.9-5.1,10.9-3.9c-0.1,3.1-1.5,6.5,0,9.3c1.2,2.3,6,4,10.7,6.2c-7.5-8.1-2.2-9.9,4.7-8.7
			c8.6,1.5,17.6,3.9,25.7,7.2c8.2,3.4,15.5,8.9,23.3,12.7c17.5,8.6,35,12.9,54.3,11.9c5.3-0.3,8,0.4,8.2,5c-0.1-0.1-0.2-0.2-0.3-0.3
			c9.5,0,21.3-5.5,21.9-16.3c-14.4,12.1-34.9,12.6-51.9,6.8c-12.4-4.2-14.5-8.6-6-18.7c-6.9,0.7-12.6,0.1-15.9,1.9
			c-2.3,1.3-1.5,5.9-2.3,10.1c-9.5-6-18.9-12.1-28.4-18.2c0.3-0.5,0.5-0.9,0.8-1.4c35.6,5.5,71.2,9.9,107,13.3
			C790,1060,788.9,1061.9,787.9,1063.7z M550.3,1015.8c11.6,3.1,23.3,6.1,35,9c-12.8,8.5-25.1-1.8-35.2-9.3
			c6,11.9,24.9,20.7,36.7,14.2c7.6-4.2,16-1.1,25,1.2c-5.9,16.5-33.8,16.3-47.3,12.1c-15.2-4.5-32.3-16.7-35.6-33.3
			C536,1011.8,543.1,1013.8,550.3,1015.8z M528.3,1004c0.6-12.7,13-18.1,23.9-17.7c8.5,0.3,20.4,3.6,27,9.9c-4.1-0.1-8.2-1.6-12-2
			c-4.3-0.4-12-0.7-12,0.5c0.1,6.4,7.6,5.8,12.3,7.3c7.5,2.3,15,3.9,24,6c-1.7,4.8,7,13.9-6.7,11
			C565.9,1014.9,547.1,1009.5,528.3,1004z"/>
		<path class="st9" d="M1327.3,1028.2c17.7,9.3,36.3,22.2,41.7,42.6c4.1,13.8-3.5,22.6-15.7,28.3c12.4,11.2,23.5,0.5,33.3-8.2
			c16.2,11.1,29.7,8.8,46.3,0.4c-26-0.3-38-18.7-55-34.8c18.9,6.2,37.7,12.6,56.9,18c26.6,5.8,50.6,5.8,76.8-1
			c17.2-4.4,34.8-15.9,40-33.9c7.6,9.2,14.4,17.5,23.4,25.5c29.8,21.5,70.8,11.5,97.7-9.5c-5.2,1.8-10.6,3.7-15.6,5.7
			c-23,8.9-43.8,9.6-67.9,1.8c28.4,3.8,53.2,0.8,79.3-9.7c1.5-0.6,3.9,0,5.9,0.1c11.5-9.8,27.5-12.8,42-9.6c8.7,1.9,9.5,5.8,3,11.5
			c14.6-0.1,17-2.8,12.6-14.4c8.8-3,10.5,2.5,12.9,8.1c12.8,30.8,52.3,49.2,84.3,43.1c15.6-3.3,27.9-14.3,32.3-29.8
			c5,0.3,9.9,0.6,14.7,1c0.1-1.1,0.2-2.2,0.3-3.3c-4.4-2.1-8.7-4.2-11.1-5.3c-4.3-10.1-8.2-21.4-14.6-30.3
			c-11.5-15.8-35.1-22.8-53.3-14.7c-3.7,1.6-8.8,2.5-13.1,1.9c-87.1-11.3-175.5-9.7-263.2-3.8c-3.5,0.2-7.5,0.3-10.4-0.9
			c-17.6-7.9-32.1-4.1-45.3,9.5c-0.5,0.4-1.5,0.5-5.2,1.5c2.9-6.6,5.2-12,7.9-18.1c-8.9-3.6-21.1,1.7-27.1,7.9
			c-6,6.2-12,13.1-18.4,19.4c-9.9,11.1-23.3,14.3-37.5,11.4c-2.9-0.6-5.7-1.3-9.4-2.2c18.1,18.4,45.1,14,67.8,9.4
			c-14.9,14.2-39.7,17.1-58.1,8.1c-17.8-8.3-35.4-17-53-25.7c-1.2-0.6-2.7-0.8-4.1-1.2C1328.1,1027.4,1327.7,1027.8,1327.3,1028.2z
			 M1537.1,1038.4c-0.6-0.5-1.2-0.9-1.8-1.4c-3.5,1.1-6.9,2.6-10.4,3c-1,0.1-3.5-3.1-3-4.4c1-2.7,3-6.3,5.7-7.6
			c3.1-1.5,8.1-1.9,11.2-0.9c2,0.6,2.1,4.5,3.1,7c0.4,1.1,0.3,3,1.2,3.4c8.2,3.2,2.6,8.3,0,11.7c-7.4,9.6-23.3,14.5-34.9,10.8
			c-3.3-1-7.6-3.6-8-6.2c-0.8-5,0.8-10.5,1.7-18.3c-7.1,4.7-13.9,8.5-19.5,13.2c-11.3,10.3-26.3,15.5-41.5,14.6
			c23-3.6,35.1-19.8,45.7-38.8c9.6-0.4,15.9,0,22-1.1c5.9-1.1,11.7-5.2,17.4-5.6c82.1-5.6,164.3-6.6,246.3,2.9
			c3.9,0.5,7.8,1,12.1,1.6c-0.8,5.9-1.4,10.6-2.1,15.9c-4.3-0.4-8.2-0.6-12.1-1.1c-68.9-8.4-138.6-8.7-208.1-5.9
			c-5.6,0.2-10.8-3.3-16.5-4.4c-5.9-1.2-12.3-3-18-1.7c-3.6,0.8-8,6.6-8.7,10.2c-0.5,2.8,3.4,7.4,6.8,8.1
			C1528.4,1044,1533.2,1040.2,1537.1,1038.4z M1791.9,1047.3c21.4,3.5,42.6,7.7,63.7,12.7c-6.8,20.4-27.5,24.6-46.4,20.1
			c-16.8-4-41.5-17.4-44-37c10.2,0.6,20.7,2,27.7,10.5c8,9.5,21.4,11.8,32.3,6.2C1811,1058.7,1802,1057.2,1791.9,1047.3z
			 M1630.4,1039.5c5.6,5.8,8.3,10.5-0.2,15.2c-20.3,11.7-57.7,5.8-68.8-16.3c40.4-1.7,80.6-2.3,121-1.1
			c-10.6,5.1-21.1,10.1-31.6,15.4C1650.3,1039.5,1642.2,1037.5,1630.4,1039.5z M1857.3,1053.1c-21.1-5-42.4-9.2-63.7-13.1
			c-2.2-0.4-6.2-5.7-5.6-7.3c1.2-3.4,4.6-8.2,7.7-8.3c7.7-0.2,15.7,2.6,23.5,3.2c3.8,0.3,7.4-2.1,11-3.3c-3.3-2.3-6.3-5.4-9.9-6.5
			c-5.3-1.8-11-2.2-16.6-3.1c0.1-1,0.2-2,0.3-3c14.6-2,22.3-1,34.1,6C1849.3,1024.5,1857.7,1038.7,1857.3,1053.1z"/>
		<path class="st9" d="M1105.2,1064.2c-24.2,7.1-45.7,3.3-69.9,0c-14.6-2-29.7-2.1-44.4-0.5c-9.9,1-20.2,6.8-22.4,17.3
			c12.1-4.1,24.2-8.2,36.2-12.3c15.1,28.5,56.6,32.9,83.4,20.9c28.3-13.1,46.1-41,34.8-72.2c14.1,2.7,23.8,15.9,20.6,30.2
			c-0.8,3.6-2.3,8.2-1,11.4c3.9,9.6,14.7-0.4,20.7,4.3c2.2-3,5.2-5.9,6.4-9.1c0.9-2.6-0.7-5.7-0.8-8.5c-0.6-13.7,10.9-27.1,25-29.2
			c-10.9,25.9-6.3,50.8,18.4,66.1c24.8,15.3,59.5,11.8,83.6-3.5c4.4-2.8,9.6-6.4,11.8-10.4c3.8-6.9,9.3-7.5,15.2-6.3
			c10.4,2.2,20.7,5.2,31,8c-1-7.2-6.7-12.1-15.3-15.1c-16.8-3.8-31.1-3.1-47.6,0.3c-12.6,2.6-25.9,6.3-38.5,8.7
			c-14.9,2.9-30.3,4.5-45.2-1.5c30.1,17.3,68.2,3.9,100.3,0.3c-5.6,4.1-8.1,6.4-11.1,8.1c-29.6,16.2-75.3,19.5-98.5-9.7
			c-11.6-13.1-8-26.2,0.1-38.4c2.1-3.2,7.8-7.8,10.3-7.4c4.1,0.7,7.3,4.9,10.3,8.1c1.3,1.4,1,4,1.4,6.1c1.1-0.5,2.2-0.9,3.2-1.4
			c-3.1-6-6.2-12-9.4-18.4c18.1-13.1,46.1-14,66.5-7.9c13.2,3.9,26.2,9.5,39.8,12.5c13.9,2.9,28.1,4.1,42.2,4.2
			c15.7,0.1,28.2-7.5,40.7-16c10.2-8.9,22.2-10.1,34.2-4.2c-3.1-3.9-5-9.2-9.4-11.4c-10.9-4.9-21.9,2.2-31,7.1
			c-7.1-14.3-18.8-12-31.1-5.1c-6,3.1-12.4,5.5-18.8,10.7c5.4-0.5,10.8-0.6,16.1-1.7c4.1-0.9,8.2-4.2,12.2-4.7
			c3.7-0.4,10.1,0.8,10.4,2.6c0.6,3.5-1.1,10.1-3.8,11.5c-8.1,4-19.7,10-28.7,9.2c-16.6-1.6-34-7.1-50.8-12.3
			c-24.4-7.6-47-11.5-71.3-6c-5.2,1.2-10.6,3.2-16.3,4.4c9.4-5.9,16.7-14.8,18.8-25.9c4-15.6-7.5-28.3-20.1-35.1
			c-7.4-4-16.2-6.1-23.9-9.9c-5.7-2.8-11.9-6-15.6-10.8c-5.9-7.6-1.8-14.6,8.2-15.5c-6.1-6.5-8.4-5.3-18.1,8.9
			c-8.4-13.7-11.5-15.1-17-7.3c9.5-0.5,13.3,5.1,7.6,12.9c-3.8,5.1-9.9,9-15.6,12.2c-8.9,4.5-18.4,7.7-27,12.9
			c-24.7,15.1-28.8,41.3-6.9,61.2c-29.4-8.9-55.5-4.6-83.1,8.1c-12.7,5.9-26.4,10.6-39.2,15.3c-8.7,3.1-21.9,1.5-29.6-3.8
			c-2.3-1.5-4.8-3.7-5.6-6.1c-1.7-5.4,0.8-9.4,8-8.6c4.7,0.5,9.3,2.1,13.8,3.6c8.1,2.9,13.7,0.2,17.3-4.6c-6.9-1.5-14.5-2-20.4-4.7
			c-11.4-5.3-21.4-3.6-27.5,8.1c-12.3-6.1-31.5-10.7-35,7.4c5.1-1.5,10.7-4.7,15.6-4.2c5.4,0.5,10.9,3.8,15.1,7
			c17.9,11.3,33.6,13.3,52.5,7.8c15.5-4.5,31.8-12.3,47.1-18.5c24.2-9.8,45.6-11.6,71.1-2.2c-4,6.9-7.8,13.3-11.6,19.7
			c1,0.4,1.9,0.8,2.9,1.1c0.7-2.1,0.7-4.6,2.1-6.1c3.2-3.3,6.7-7.3,10.8-8.7c1.9-0.7,6.5,3.7,8.4,6.3c7.2,10.1,6.3,19.2,1.3,29.8
			c-0.2,1.2-0.1,2.6-0.7,3.6c-20.7,31.5-74.7,40.7-104,16.6c-0.3-0.3-0.1-1.1-0.1-2.6c3.7,0.2,7.4,0.3,11,0.6
			c15.5,1.2,32.4,4.1,46.7,2.7C1082.8,1072.9,1093.9,1068.2,1105.2,1064.2z M1206.6,1008.1c-20.5,2.3-39.3,12.2-48.9,31.1
			c-6.2-7.1-11.1-15.6-18.6-20.7c-7.5-5.1-17.4-7.7-26-10.6c5.1-1.8,9.4-2.7,12.9-4.8c9.5-5.7,10.5-16.9,1.6-21.8
			c-2.9-1.6-8.1-1.3-11.4,0.1c-2,0.8-2.4,5.5-2.7,6.2c5.7,2.6,9.2,4.2,12.7,5.8c-3.4,2.5-6.7,6.9-10.1,7.2
			c-9,0.7-14.3-4.7-17.3-12.1c-2.8-7-2.1-14.2,5.1-18.6c5.3-3.3,13.5-6.8,18.2-5.2c5.9,2.1,9.6,9.2,14.8,14.7
			c0.8-1.4,4.3-5.2,3.6-7.4c-2.2-6.3-6.1-12-9.3-17.8c12,1.5,24.6-2.2,30.6-13.5c4.6,3.7,8.5,8.3,13.6,10.3c5.4,2.1,12,1.7,18.5,2.4
			c-7.5,6.1-19.6,18.3-6.8,26c1.3-8.3,4.9-16.4,14.5-16.9c6.8-0.4,14.7,2.4,19.8,6.2c7.2,5.5,4.1,13.8-1.2,20.8
			c-4.8,6.3-11.3,11.2-19.7,9c-2.9-0.7-4.5-4.6-6.7-7c2.2-1.2,4.4-2.6,6.7-3.7c2.5-1.2,5.1-2.1,7.7-3.1c-2.3-2.3-4.8-6.9-6.8-6.5
			c-4.5,0.8-10.8,3.2-12.4,6.4c-2,4.1-2.1,10.7,0.4,14C1192.4,1002.5,1198.8,1004.1,1206.6,1008.1z"/>
		<path class="st9" d="M1215.9,1139.9c0.5,2.3,0.4,6.4,1.5,6.7c4.6,0.9,10.5,2.2,14.4,0.4c11.2-5.3,17.1-20.9,9.9-31.4
			c-3.8-5.6-10.3-10.2-15.9-14.8c-3.9-3.1-8.4-5.7-12.9-8.1c-21.5-11.1-39.1-29.4-31.8-55.3c-9,18.1-1.9,38.3,10.4,52.9
			c-5.7-2-9.7-3.4-13.7-4.8c-0.6,1.3-1.2,2-1,2.2c17.4,24.6,12.1,45.1,1.5,71.6c-4.2,9.7-7.4,20.4-9.6,30.8
			c24.5-24.2,52.8-56.7,30.7-91.9c0.7-0.6,1.4-1.2,2.1-1.8c9,8.7,17.9,17.2,26.4,26.4c2.9,3.4,3,10,1.7,14.7
			C1227.6,1143.8,1222.6,1145.8,1215.9,1139.9z"/>
		<path class="st9" d="M1151.3,1207.1c14.1-32.4,27.2-63.9,27.9-99.6c0-17.7-16.7-27.5-32.8-23.2c-10,2.7-17.6,10.8-19.6,21.2
			c-3.5,25.2,1.6,46.9,9.2,71c3.4,10.4,7.9,20.5,12.2,30.6C1149.3,1207,1150.3,1207.1,1151.3,1207.1z M1150,1196.2
			c-9.5-24.8-14.7-47.7-12.8-74.3c0.4-2.8,1.4-6.3,3.4-8.1c3.5-3.1,8.2-7.3,12.2-7.2c4.2,0,9,3.9,11.9,7.3c2.3,2.7,3.1,7.3,3.1,11
			C1168,1149.8,1160,1172.7,1150,1196.2z"/>
		<path class="st9" d="M1107.4,1100.8c-17.9,36.2-0.3,62.9,26,89.2c-2.1-8.2-3.8-16.4-6.1-24.3c-2-6.8-4.7-13.3-6.9-19.9
			c-8.3-22.3-2.1-42,11.7-60.2c-5.1,2-10.2,4.1-15.2,6.1C1113.8,1094.8,1110.6,1097.8,1107.4,1100.8z"/>
		<path class="st9" d="M1107.4,1100.8c3.2-3,6.4-6.1,9.6-9.1c13.8-14.5,22.5-34.8,17.6-54.9c-0.3-1.2-0.7-2.4-1.2-3.6
			c-0.2-0.5-0.8-1-2.5-2.9c8.5,28.2-9.6,50.2-32.9,63.3c-10.6,6.7-19.3,13.3-28.5,21.8c-9,10-8,26,3.8,32.6
			c3.2,1.8,8.6,1.5,12.7,0.7c1.9-0.4,3-4.4,4.7-7.1c-5,0.7-10.3,2.2-10.6,1.5c-1.8-3.9-4.3-9-3-12.4
			C1082,1117.1,1093.9,1106.5,1107.4,1100.8z"/>
		<path class="st9" d="M1328.5,1027.1c-26.2-10.8-51-14.2-78.4-10.4c-13.7,1.9-33.8,14.9-30.7,30.4c2.4,12.1,18.3,12.4,27.9,8.1
			c7.8-3.5,15.6-8.2,23.5-12.2c4.5-2.2,9.2-4.4,13.9-5.9c11.6-3.8,21.7-2.5,25.8,10.1c0.3,1,1.2,1.9,2.1,3.3
			c5.2-11.9-4.8-22.2-16.8-21.3c-11.3,0.8-22.5,4.5-33,8.3c-9.4,3.4-18.4,9.3-27.3,14.2c3.4-9.2,6.1-17.1-8.8-15.2
			c4.4-9.3,12.2-13.8,21.1-15.9c21.5-5.1,42.8-2.1,64.9,3.4c4.9,1.2,9.6,2.8,14.5,4.2C1327.7,1027.8,1328.1,1027.4,1328.5,1027.1z"
			/>
		<path class="st9" d="M766.3,1079.8c0.1,0.1,0.2,0.2,0.3,0.3c-1.7-0.3-3.6-1.1-5-0.9c-18.3,3.4-36-1.3-53-8.2
			c2.8,3.1,3.6,4.8,4.9,5.5c15.1,7.8,29.1,11.2,45.6,8.3C761.9,1084.3,763.9,1081.5,766.3,1079.8z"/>
		<path class="st9" d="M1107.9,1044c9.1-2.7,14-4.9,10.9-11c-0.8-1.6-5-1.6-7.6-2.3C1110.2,1034.6,1109.2,1038.4,1107.9,1044z"/>
		<path class="st9" d="M1206.6,1042.2c-1.1-5.4-1.8-9.1-2.6-12.8c-2.8,1-7.3,1.3-8.1,2.9C1192.6,1038.5,1197,1040.8,1206.6,1042.2z"
			/>
		<path class="st9" d="M810.2,1058.3c3.5,1.8,7,5,9.5,4.6c3-0.4,7-3.8,7.2-6.2c0.5-5.9-3.4-10.1-9.2-10.6c1.7,4.2,3.5,8.7,5.3,13.2
			C819.6,1059,816.2,1058.7,810.2,1058.3z"/>
	</g>
</g>
<g class="st8">
	<g>
		<path class="st9" d="M3185.3,1035.6c-5.8-2.7-11.6-5.5-19.7-9.4c70.8-5.9,140.9-15.8,210.3-31.4c0.5-5.3,0.8-9,1.3-13.9
			c-4.7,1.1-8.9,2.1-13.1,3c-54.5,11.6-109.8,19.4-165.4,24.6c-15.1,1.4-30.2,2.9-45.2,4.1c-6.8,0.6-13.5,0-18.8,5.8
			c-1.6,1.7-9.8-0.5-17.1-1.2c-7.3,16.4-15.6,31.1-35.3,33.8c21.4,4.3,34.8-15.7,52.3-23.5c-5,10.2-7,18.4,4.3,21.8
			c12.4,3.8,25.9-3.4,34.9-11.9c-3.1,4.1-5.4,9.1-9.3,12.1c-18.3,14.1-38.9,16.9-62.9,16.1c-27.6-3-51.2-12.3-76-24.4
			c14.5,15,26.4,33.4,49.6,34.1c-8.6,12.9-26.4,7.6-36.9,0.1c-7.2,3.6-13.6,7.5-20.6,9.8c-2.8,0.9-7.1-1.9-12-3.5
			c15.9-8.3,17.6-24.5,7.4-38.1c-5.6-7.5-13.5-16.2-21.5-21.8c-25-17.4-55.9-28.2-86.6-25.1c-9.2,0.9-16.8,4.6-20.8,14.1
			c11.6-0.1,13.9,5.3,12.3,15c6.6-3.4,13.5-6.6,19.6-10.2c10.3-6.2,21.3-7.9,32.4-6.5c9.9,1.2,19.7,10.4,17.7,21.8
			c-0.9-0.6-2.1-0.9-2.4-1.6c-6.3-12.8-17.2-18.4-30.8-11.5c-7.8,3-15,7.3-22.4,11.1c-9.1,4.7-23.2,6.8-30.2-2.7
			c-6.3-10.9,0-23.8,10.6-28.9c11.6-5.6,25.2-5.1,37.6-3.1c24.8,4,48.5,14.1,70,27.1c10.6,6.4,21.4,12.5,32.1,18.3
			c16.7,9.1,33.2,6.2,49.5-2.1c-21.4,5-42-0.1-59.5-13c1-0.5,1.6-1.1,1.9-1c17.5,6,33,4.2,44.3-11.5c3.6-4.3,6.4-9.6,11.3-12.5
			c5.4-3.2,12.6-4,21.1-6.5c-2.5,7.8-4,12.7-5.6,17.7c1.2,0.6,2.4,1.2,3.7,1.8c1.6-2.1,2.9-4.6,4.7-6.3c6.2-5.9,18.6-9.2,26.7-5.4
			c12.2,5.7,26.6,3.9,39.8,2.9c29-2.3,58.8-4.7,87.9-8.6c41-5.4,81.9-13.1,122.3-22.5c2.6-0.6,5.5-2.3,7.7-4
			c15.3-11.5,51.5-24.7,62.1,0.1c0.7,1.6,1.1,3.2,1.7,4.8c4.4-0.7,8.4-1.3,12.4-1.9c0.1,0.7,0.3,1.3,0.4,2
			c-3.9,2.1-7.9,4.3-12.7,6.8c0.2-0.2-0.5,0.3-0.7,0.8c-8,21.8-24.1,37.8-46.4,44.5c-19.9,6.2-45.8,4.4-59.4-13.2
			c-3.9-5-3.9-5.1-10.9-3.9c0.1,3.1,1.5,6.5,0,9.3c-1.2,2.3-6,4-10.7,6.2c7.5-8.1,2.2-9.9-4.7-8.7c-8.6,1.5-17.6,3.9-25.7,7.2
			c-8.2,3.4-15.5,8.9-23.3,12.7c-17.5,8.6-35,12.9-54.3,11.9c-5.3-0.3-8,0.4-8.2,5c0.1-0.1,0.2-0.2,0.3-0.3
			c-9.5,0-21.3-5.5-21.9-16.3c14.4,12.1,34.9,12.6,51.9,6.8c12.4-4.2,14.5-8.6,6-18.7c6.9,0.7,12.6,0.1,15.9,1.9
			c2.3,1.3,1.5,5.9,2.3,10.1c9.5-6,18.9-12.1,28.4-18.2c-0.3-0.5-0.5-0.9-0.8-1.4c-35.6,5.5-71.2,9.9-107,13.3
			C3183.1,1031.8,3184.2,1033.7,3185.3,1035.6z M3422.9,987.6c-11.6,3.1-23.3,6.1-35,9c12.8,8.5,25.1-1.8,35.2-9.3
			c-6,11.9-24.9,20.7-36.7,14.2c-7.6-4.2-16-1.1-25,1.2c5.9,16.5,33.8,16.3,47.3,12.1c15.2-4.5,32.3-16.7,35.6-33.3
			C3437.1,983.6,3430,985.6,3422.9,987.6z M3444.8,975.8c-0.6-12.7-13-18.1-23.9-17.7c-8.5,0.3-20.4,3.6-27,9.9
			c4.1-0.1,8.2-1.6,12-2c4.3-0.4,12-0.7,12,0.5c-0.1,6.4-7.6,5.8-12.3,7.3c-7.5,2.3-15,3.9-24,6c1.7,4.8-7,13.9,6.7,11
			C3407.2,986.7,3426,981.3,3444.8,975.8z"/>
		<path class="st9" d="M2645.8,1000c-17.7,9.3-36.3,22.2-41.7,42.6c-4.1,13.8,3.5,22.6,15.7,28.3c-12.4,11.2-23.5,0.5-33.3-8.2
			c-16.2,11.1-29.7,8.8-46.3,0.4c26-0.3,38-18.7,55-34.8c-18.9,6.2-37.7,12.6-56.9,18c-26.6,5.8-50.6,5.8-76.8-1
			c-17.2-4.4-34.8-15.9-40-33.9c-7.6,9.2-14.4,17.5-23.4,25.5c-29.8,21.5-70.8,11.5-97.7-9.5c5.2,1.8,10.6,3.7,15.6,5.7
			c23,8.9,43.8,9.6,67.9,1.8c-28.4,3.8-53.2,0.8-79.3-9.7c-1.5-0.6-3.9,0-5.9,0.1c-11.5-9.8-27.5-12.8-42-9.6
			c-8.7,1.9-9.5,5.8-3,11.5c-14.6-0.1-17-2.8-12.6-14.4c-8.8-3-10.5,2.5-12.9,8.1c-12.8,30.8-52.3,49.2-84.3,43.1
			c-15.6-3.3-27.9-14.3-32.3-29.8c-5,0.3-9.9,0.6-14.7,1c-0.1-1.1-0.2-2.2-0.3-3.3c4.4-2.1,8.7-4.2,11.1-5.3
			c4.3-10.1,8.2-21.4,14.6-30.3c11.5-15.8,35.1-22.8,53.3-14.7c3.7,1.6,8.8,2.5,13.1,1.9c87.1-11.3,175.5-9.7,263.2-3.8
			c3.5,0.2,7.5,0.3,10.4-0.9c17.6-7.9,32.1-4.1,45.3,9.5c0.5,0.4,1.5,0.5,5.2,1.5c-2.9-6.6-5.2-12-7.9-18.1
			c8.9-3.6,21.1,1.7,27.1,7.9c6,6.2,12,13.1,18.4,19.4c9.9,11.1,23.3,14.3,37.5,11.4c2.9-0.6,5.7-1.3,9.4-2.2
			c-18.1,18.4-45.1,14-67.8,9.4c14.9,14.2,39.7,17.1,58.1,8.1c17.8-8.3,35.4-17,53-25.7c1.2-0.6,2.7-0.8,4.1-1.2
			C2645,999.3,2645.4,999.6,2645.8,1000z M2436.1,1010.2c0.6-0.5,1.2-0.9,1.8-1.4c3.5,1.1,6.9,2.6,10.4,3c1,0.1,3.5-3.1,3-4.4
			c-1.1-2.7-3-6.3-5.7-7.6c-3.1-1.5-8.1-1.9-11.2-0.9c-2,0.6-2.1,4.5-3.1,7c-0.4,1.1-0.3,3-1.2,3.4c-8.2,3.2-2.6,8.3,0,11.7
			c7.4,9.6,23.3,14.5,34.9,10.8c3.3-1,7.6-3.6,8-6.2c0.8-5-0.8-10.5-1.7-18.3c7.1,4.7,13.9,8.5,19.5,13.2
			c11.3,10.3,26.3,15.5,41.5,14.6c-23-3.6-35.1-19.8-45.7-38.8c-9.6-0.4-15.9,0-22-1.1c-5.9-1.1-11.7-5.2-17.4-5.6
			c-82.1-5.6-164.3-6.6-246.3,2.9c-3.9,0.5-7.8,1-12.1,1.6c0.8,5.9,1.4,10.6,2.1,15.9c4.3-0.4,8.2-0.6,12.1-1.1
			c68.9-8.4,138.6-8.7,208.1-5.9c5.6,0.2,10.8-3.3,16.5-4.4c5.9-1.2,12.3-3,18-1.7c3.6,0.8,8,6.6,8.7,10.2c0.5,2.8-3.4,7.4-6.8,8.1
			C2444.8,1015.8,2440,1012,2436.1,1010.2z M2181.3,1019.2c-21.4,3.5-42.6,7.7-63.7,12.7c6.8,20.4,27.5,24.6,46.4,20.1
			c16.8-4,41.5-17.4,44-37c-10.2,0.6-20.7,2-27.7,10.5c-8,9.5-21.4,11.8-32.3,6.2C2162.1,1030.5,2171.1,1029.1,2181.3,1019.2z
			 M2342.7,1011.4c-5.6,5.8-8.3,10.5,0.2,15.2c20.3,11.7,57.7,5.8,68.8-16.3c-40.4-1.7-80.6-2.3-121-1.1
			c10.6,5.1,21.1,10.1,31.6,15.4C2322.8,1011.3,2330.9,1009.4,2342.7,1011.4z M2115.8,1024.9c21.1-5,42.4-9.2,63.7-13.1
			c2.2-0.4,6.2-5.7,5.6-7.3c-1.2-3.4-4.6-8.2-7.7-8.3c-7.7-0.2-15.7,2.6-23.5,3.2c-3.8,0.3-7.4-2.1-11-3.3c3.3-2.3,6.3-5.4,9.9-6.5
			c5.3-1.8,11-2.2,16.6-3.1c-0.1-1-0.2-2-0.3-3c-14.6-2-22.3-1-34.1,6C2123.8,996.3,2115.4,1010.5,2115.8,1024.9z"/>
		<path class="st9" d="M2867.9,1036c24.2,7.1,45.7,3.3,69.9,0c14.6-2,29.7-2.1,44.4-0.5c9.9,1,20.2,6.8,22.4,17.3
			c-12.1-4.1-24.2-8.2-36.2-12.3c-15.1,28.5-56.6,32.9-83.4,20.9c-28.3-13.1-46.1-41-34.8-72.2c-14.1,2.7-23.8,15.9-20.6,30.2
			c0.8,3.6,2.3,8.2,1,11.4c-3.9,9.6-14.7-0.4-20.7,4.3c-2.2-3-5.2-5.9-6.4-9.1c-0.9-2.6,0.7-5.7,0.8-8.5c0.6-13.7-10.9-27.1-25-29.2
			c10.9,25.9,6.3,50.8-18.4,66.1c-24.8,15.3-59.5,11.8-83.6-3.5c-4.4-2.8-9.6-6.4-11.8-10.4c-3.8-6.9-9.3-7.5-15.2-6.3
			c-10.4,2.2-20.7,5.2-31,8c1-7.2,6.7-12.1,15.3-15.1c16.8-3.8,31.1-3.1,47.6,0.3c12.6,2.6,25.9,6.3,38.5,8.7
			c14.9,2.9,30.3,4.5,45.2-1.5c-30.1,17.3-68.2,3.9-100.3,0.3c5.6,4.1,8.1,6.4,11.1,8.1c29.6,16.2,75.3,19.5,98.5-9.7
			c11.6-13.1,8-26.2-0.1-38.4c-2.1-3.2-7.8-7.8-10.3-7.4c-4.1,0.7-7.3,4.9-10.3,8.1c-1.3,1.4-1,4-1.4,6.1c-1.1-0.5-2.2-0.9-3.2-1.4
			c3.1-6,6.2-12,9.4-18.4c-18.1-13.1-46.1-14-66.5-7.9c-13.2,3.9-26.2,9.5-39.8,12.5c-13.9,2.9-28.1,4.1-42.2,4.2
			c-15.7,0.1-28.2-7.5-40.7-16c-10.2-8.9-22.2-10.1-34.2-4.2c3.1-3.9,5-9.2,9.4-11.4c10.9-4.9,21.9,2.2,31,7.1
			c7.1-14.3,18.8-12,31.1-5.1c6,3.1,12.4,5.5,18.8,10.7c-5.4-0.5-10.8-0.6-16.1-1.7c-4.1-0.9-8.2-4.2-12.2-4.7
			c-3.7-0.4-10.1,0.8-10.4,2.6c-0.6,3.5,1.1,10.1,3.8,11.5c8.1,4,19.7,10,28.7,9.2c16.6-1.6,34-7.1,50.8-12.3
			c24.4-7.6,47-11.5,71.3-6c5.2,1.2,10.6,3.2,16.3,4.4c-9.4-5.9-16.7-14.8-18.8-25.9c-4-15.6,7.5-28.3,20.1-35.1
			c7.4-4,16.2-6.1,23.9-9.9c5.7-2.8,11.9-6,15.6-10.8c5.9-7.6,1.8-14.6-8.2-15.5c6.1-6.5,8.4-5.3,18.1,8.9
			c8.4-13.7,11.5-15.1,17-7.3c-9.5-0.5-13.3,5.1-7.6,12.9c3.8,5.1,9.9,9,15.6,12.2c8.9,4.5,18.4,7.7,27,12.9
			c24.7,15.1,28.8,41.3,6.9,61.2c29.4-8.9,55.5-4.6,83.1,8.1c12.7,5.9,26.4,10.6,39.2,15.3c8.7,3.1,21.9,1.5,29.6-3.8
			c2.3-1.5,4.8-3.7,5.6-6.1c1.7-5.4-0.8-9.4-8-8.6c-4.7,0.5-9.3,2.1-13.8,3.6c-8.1,2.9-13.7,0.2-17.3-4.6c6.9-1.5,14.5-2,20.4-4.7
			c11.4-5.3,21.4-3.6,27.5,8.1c12.3-6.1,31.5-10.7,35,7.4c-5.1-1.5-10.7-4.7-15.6-4.2c-5.4,0.5-10.9,3.8-15.1,7
			c-17.9,11.3-33.6,13.3-52.5,7.8c-15.5-4.5-31.8-12.3-47.1-18.5c-24.2-9.8-45.6-11.6-71.1-2.2c4,6.9,7.8,13.3,11.6,19.7
			c-1,0.4-1.9,0.8-2.9,1.1c-0.7-2.1-0.7-4.6-2.1-6.1c-3.2-3.3-6.7-7.3-10.8-8.7c-1.9-0.7-6.5,3.7-8.4,6.3
			c-7.2,10.1-6.3,19.2-1.3,29.8c0.2,1.2,0.1,2.6,0.7,3.6c20.7,31.5,74.7,40.7,104,16.6c0.3-0.3,0.1-1.1,0.1-2.6
			c-3.7,0.2-7.4,0.3-11,0.6c-15.5,1.2-32.4,4.1-46.7,2.7C2890.4,1044.7,2879.2,1040,2867.9,1036z M2766.5,980
			c20.5,2.3,39.3,12.2,48.9,31.1c6.2-7.1,11.1-15.6,18.6-20.7c7.5-5.1,17.4-7.7,26-10.6c-5.1-1.8-9.4-2.7-12.9-4.8
			c-9.5-5.7-10.5-16.9-1.6-21.8c2.9-1.6,8.1-1.3,11.4,0.1c2,0.8,2.4,5.5,2.7,6.2c-5.7,2.6-9.2,4.2-12.7,5.8
			c3.4,2.5,6.7,6.9,10.1,7.2c9,0.7,14.3-4.7,17.3-12.1c2.8-7,2.1-14.2-5.1-18.6c-5.3-3.3-13.5-6.8-18.2-5.2
			c-5.9,2.1-9.6,9.2-14.8,14.7c-0.8-1.4-4.3-5.2-3.6-7.4c2.2-6.3,6.1-12,9.3-17.8c-12,1.5-24.6-2.2-30.6-13.5
			c-4.6,3.7-8.5,8.3-13.6,10.3c-5.4,2.1-12,1.7-18.5,2.4c7.5,6.1,19.6,18.3,6.8,26c-1.3-8.3-4.9-16.4-14.5-16.9
			c-6.8-0.4-14.7,2.4-19.8,6.2c-7.2,5.5-4.1,13.8,1.2,20.8c4.8,6.3,11.3,11.2,19.7,9c2.9-0.7,4.5-4.6,6.7-7
			c-2.2-1.2-4.4-2.6-6.7-3.7c-2.5-1.2-5.1-2.1-7.7-3.1c2.3-2.3,4.8-6.9,6.8-6.5c4.5,0.8,10.8,3.2,12.4,6.4c2,4.1,2.1,10.7-0.4,14
			C2780.7,974.3,2774.3,976,2766.5,980z"/>
		<path class="st9" d="M2757.2,1111.7c-0.5,2.3-0.4,6.4-1.5,6.7c-4.6,0.9-10.5,2.2-14.4,0.4c-11.2-5.3-17.1-20.9-9.9-31.4
			c3.8-5.6,10.3-10.2,15.9-14.8c3.9-3.1,8.4-5.7,12.9-8.1c21.5-11.1,39.1-29.4,31.8-55.3c9,18.1,1.9,38.3-10.4,52.9
			c5.7-2,9.7-3.4,13.7-4.8c0.6,1.3,1.2,2,1,2.2c-17.4,24.6-12.1,45.1-1.5,71.6c4.2,9.7,7.4,20.4,9.6,30.8
			c-24.5-24.2-52.8-56.7-30.7-91.9c-0.7-0.6-1.4-1.2-2.1-1.8c-9,8.7-17.9,17.2-26.4,26.4c-2.9,3.4-3,10-1.7,14.7
			C2745.6,1115.6,2750.5,1117.7,2757.2,1111.7z"/>
		<path class="st9" d="M2821.8,1178.9c-14.1-32.4-27.2-63.9-27.9-99.6c0-17.7,16.7-27.5,32.8-23.2c10,2.7,17.6,10.8,19.6,21.2
			c3.5,25.2-1.6,46.9-9.2,71c-3.4,10.4-7.9,20.5-12.2,30.6C2823.9,1178.8,2822.8,1178.9,2821.8,1178.9z M2823.2,1168
			c9.5-24.8,14.7-47.7,12.8-74.3c-0.4-2.8-1.4-6.3-3.4-8.1c-3.5-3.1-8.2-7.3-12.2-7.2c-4.2,0-9,3.9-11.9,7.3
			c-2.3,2.7-3.1,7.3-3.1,11C2805.2,1121.6,2813.1,1144.6,2823.2,1168z"/>
		<path class="st9" d="M2865.7,1072.7c17.9,36.2,0.3,62.9-26,89.2c2.1-8.2,3.8-16.4,6.1-24.3c2-6.8,4.7-13.3,6.9-19.9
			c8.3-22.3,2.1-42-11.7-60.2c5.1,2,10.2,4.1,15.2,6.1C2859.3,1066.6,2862.5,1069.6,2865.7,1072.7z"/>
		<path class="st9" d="M2865.7,1072.7c-3.2-3-6.4-6.1-9.6-9.1c-13.8-14.5-22.5-34.8-17.6-54.9c0.3-1.2,0.7-2.4,1.2-3.6
			c0.2-0.5,0.8-1,2.5-2.9c-8.5,28.2,9.6,50.2,32.9,63.3c10.6,6.7,19.3,13.3,28.5,21.8c9,10,8,26-3.8,32.6c-3.2,1.8-8.6,1.5-12.7,0.7
			c-1.9-0.4-3-4.4-4.7-7.1c5,0.7,10.3,2.2,10.6,1.5c1.8-3.9,4.3-9,3-12.4C2891.1,1088.9,2879.2,1078.3,2865.7,1072.7z"/>
		<path class="st9" d="M2644.6,998.9c26.2-10.8,51-14.2,78.4-10.4c13.7,1.9,33.8,14.9,30.7,30.4c-2.4,12.1-18.3,12.4-27.9,8.1
			c-7.8-3.5-15.6-8.2-23.5-12.2c-4.5-2.2-9.2-4.4-13.9-5.9c-11.6-3.8-21.7-2.5-25.8,10.1c-0.3,1-1.2,1.9-2.1,3.3
			c-5.2-11.9,4.8-22.2,16.8-21.3c11.3,0.8,22.5,4.5,33,8.3c9.4,3.4,18.4,9.3,27.3,14.2c-3.4-9.2-6.1-17.1,8.8-15.2
			c-4.4-9.3-12.2-13.8-21.1-15.9c-21.5-5.1-42.8-2.1-64.9,3.4c-4.9,1.2-9.6,2.8-14.5,4.2C2645.4,999.6,2645,999.3,2644.6,998.9z"/>
		<path class="st9" d="M3206.8,1051.6c-0.1,0.1-0.2,0.2-0.3,0.3c1.7-0.3,3.6-1.1,5-0.9c18.3,3.4,36-1.3,53-8.2
			c-2.8,3.1-3.6,4.8-4.9,5.5c-15.1,7.8-29.1,11.2-45.6,8.3C3211.3,1056.1,3209.2,1053.3,3206.8,1051.6z"/>
		<path class="st9" d="M2865.3,1015.9c-9.1-2.7-14-4.9-10.9-11c0.8-1.6,5-1.6,7.6-2.3C2863,1006.4,2863.9,1010.3,2865.3,1015.9z"/>
		<path class="st9" d="M2766.5,1014c1.1-5.4,1.8-9.1,2.6-12.8c2.8,1,7.3,1.3,8.1,2.9C2780.5,1010.4,2776.2,1012.6,2766.5,1014z"/>
		<path class="st9" d="M3162.9,1030.1c-3.5,1.8-7,5-9.5,4.6c-3-0.4-7-3.8-7.2-6.2c-0.5-5.9,3.4-10.1,9.2-10.6
			c-1.7,4.2-3.5,8.7-5.3,13.2C3153.5,1030.8,3157,1030.6,3162.9,1030.1z"/>
	</g>
</g>
<g class="st8">
	<g>
		<path class="st9" d="M1598.1,2547.8c-5.8,2.7-11.6,5.5-19.7,9.4c70.8,5.9,140.9,15.8,210.3,31.4c0.5,5.3,0.8,9,1.3,13.9
			c-4.7-1.1-8.9-2.1-13.1-3c-54.5-11.6-109.8-19.4-165.4-24.6c-15.1-1.4-30.2-2.9-45.2-4.1c-6.8-0.6-13.5,0-18.8-5.8
			c-1.6-1.7-9.8,0.5-17.1,1.2c-7.3-16.4-15.6-31.1-35.3-33.8c21.4-4.3,34.8,15.7,52.3,23.5c-5-10.2-7-18.4,4.3-21.8
			c12.4-3.8,25.9,3.4,34.9,11.9c-3.1-4.1-5.4-9.1-9.3-12.1c-18.3-14.1-38.9-16.9-62.9-16.1c-27.6,3-51.2,12.3-76,24.4
			c14.5-15,26.4-33.4,49.6-34.1c-8.6-12.9-26.4-7.6-36.9-0.1c-7.2-3.6-13.6-7.5-20.6-9.8c-2.8-0.9-7.1,1.9-12,3.5
			c15.9,8.3,17.6,24.5,7.4,38.1c-5.6,7.5-13.5,16.2-21.5,21.8c-25,17.4-55.9,28.2-86.6,25.1c-9.2-0.9-16.8-4.6-20.8-14.1
			c11.6,0.1,13.9-5.3,12.3-15c6.6,3.4,13.5,6.6,19.6,10.2c10.3,6.2,21.3,7.9,32.4,6.5c9.9-1.2,19.7-10.4,17.7-21.8
			c-0.9,0.6-2.1,0.9-2.4,1.6c-6.3,12.8-17.2,18.4-30.8,11.5c-7.8-3-15-7.3-22.4-11.1c-9.1-4.7-23.2-6.8-30.2,2.7
			c-6.3,10.9,0,23.8,10.6,28.9c11.6,5.6,25.2,5.1,37.6,3.1c24.8-4,48.5-14.1,70-27.1c10.6-6.4,21.4-12.5,32.1-18.3
			c16.7-9.1,33.2-6.2,49.5,2.1c-21.4-5-42,0.1-59.5,13c1,0.5,1.6,1.1,1.9,1c17.5-6,33-4.2,44.3,11.5c3.6,4.3,6.4,9.6,11.3,12.5
			c5.4,3.2,12.6,4,21.1,6.5c-2.5-7.8-4-12.7-5.6-17.7c1.2-0.6,2.4-1.2,3.7-1.8c1.6,2.1,2.9,4.6,4.7,6.3c6.2,5.9,18.6,9.2,26.7,5.4
			c12.2-5.7,26.6-3.9,39.8-2.9c29,2.3,58.8,4.7,87.9,8.6c41,5.4,81.9,13.1,122.3,22.5c2.6,0.6,5.5,2.3,7.7,4
			c15.3,11.5,51.5,24.7,62.1-0.1c0.7-1.6,1.1-3.2,1.7-4.8c4.4,0.7,8.4,1.3,12.4,1.9c0.1-0.7,0.3-1.3,0.4-2
			c-3.9-2.1-7.9-4.3-12.7-6.8c0.2,0.2-0.5-0.3-0.7-0.8c-8-21.8-24.1-37.8-46.4-44.5c-19.9-6.2-45.8-4.4-59.4,13.2
			c-3.9,5-3.9,5.1-10.9,3.9c0.1-3.1,1.5-6.5,0-9.3c-1.2-2.3-6-4-10.7-6.2c7.5,8.1,2.2,9.9-4.7,8.7c-8.6-1.5-17.6-3.9-25.7-7.2
			c-8.2-3.4-15.5-8.9-23.3-12.7c-17.5-8.6-35-12.9-54.3-11.9c-5.3,0.3-8-0.4-8.2-5c0.1,0.1,0.2,0.2,0.3,0.3
			c-9.5,0-21.3,5.5-21.9,16.3c14.4-12.1,34.9-12.6,51.9-6.8c12.4,4.2,14.5,8.6,6,18.7c6.9-0.7,12.6-0.1,15.9-1.9
			c2.3-1.3,1.5-5.9,2.3-10.1c9.5,6,18.9,12.1,28.4,18.2c-0.3,0.5-0.5,0.9-0.8,1.4c-35.6-5.5-71.2-9.9-107-13.3
			C1596,2551.6,1597.1,2549.7,1598.1,2547.8z M1835.7,2595.7c-11.6-3.1-23.3-6.1-35-9c12.8-8.5,25.1,1.8,35.2,9.3
			c-6-11.9-24.9-20.7-36.7-14.2c-7.6,4.2-16,1.1-25-1.2c5.9-16.5,33.8-16.3,47.3-12.1c15.2,4.5,32.3,16.7,35.6,33.3
			C1850,2599.8,1842.9,2597.8,1835.7,2595.7z M1857.7,2607.6c-0.6,12.7-13,18.1-23.9,17.7c-8.5-0.3-20.4-3.6-27-9.9
			c4.1,0.1,8.2,1.6,12,2c4.3,0.4,12,0.7,12-0.5c-0.1-6.4-7.6-5.8-12.3-7.3c-7.5-2.3-15-3.9-24-6c1.7-4.8-7-13.9,6.7-11
			C1820.1,2596.6,1838.9,2602.1,1857.7,2607.6z"/>
		<path class="st9" d="M1058.7,2583.4c-17.7-9.3-36.3-22.2-41.7-42.6c-4.1-13.8,3.5-22.6,15.7-28.3c-12.4-11.2-23.5-0.5-33.3,8.2
			c-16.2-11.1-29.7-8.8-46.3-0.4c26,0.3,38,18.7,55,34.8c-18.9-6.2-37.7-12.6-56.9-18c-26.6-5.8-50.6-5.8-76.8,1
			c-17.2,4.4-34.8,15.9-40,33.9c-7.6-9.2-14.4-17.5-23.4-25.5c-29.8-21.5-70.8-11.5-97.7,9.5c5.2-1.8,10.6-3.7,15.6-5.7
			c23-8.9,43.8-9.6,67.9-1.8c-28.4-3.8-53.2-0.8-79.3,9.7c-1.5,0.6-3.9,0-5.9-0.1c-11.5,9.8-27.5,12.8-42,9.6
			c-8.7-1.9-9.5-5.8-3-11.5c-14.6,0.1-17,2.8-12.6,14.4c-8.8,3-10.5-2.5-12.9-8.1c-12.8-30.8-52.3-49.2-84.3-43.1
			c-15.6,3.3-27.9,14.3-32.3,29.8c-5-0.3-9.9-0.6-14.7-1c-0.1,1.1-0.2,2.2-0.3,3.3c4.4,2.1,8.7,4.2,11.1,5.3
			c4.3,10.1,8.2,21.4,14.6,30.3c11.5,15.8,35.1,22.8,53.3,14.7c3.7-1.6,8.8-2.5,13.1-1.9c87.1,11.3,175.5,9.7,263.2,3.8
			c3.5-0.2,7.5-0.3,10.4,0.9c17.6,7.9,32.1,4.1,45.3-9.5c0.5-0.4,1.5-0.5,5.2-1.5c-2.9,6.6-5.2,12-7.9,18.1
			c8.9,3.6,21.1-1.7,27.1-7.9c6-6.2,12-13.1,18.4-19.4c9.9-11.1,23.3-14.3,37.5-11.4c2.9,0.6,5.7,1.3,9.4,2.2
			c-18.1-18.4-45.1-14-67.8-9.4c14.9-14.2,39.7-17.1,58.1-8.1c17.8,8.3,35.4,17,53,25.7c1.2,0.6,2.7,0.8,4.1,1.2
			C1057.9,2584.1,1058.3,2583.7,1058.7,2583.4z M848.9,2573.2c0.6,0.5,1.2,0.9,1.8,1.4c3.5-1.1,6.9-2.6,10.4-3c1-0.1,3.5,3.1,3,4.4
			c-1,2.7-3,6.3-5.7,7.6c-3.1,1.5-8.1,1.9-11.2,0.9c-2-0.6-2.1-4.5-3.1-7c-0.4-1.1-0.3-3-1.2-3.4c-8.2-3.2-2.6-8.3,0-11.7
			c7.4-9.6,23.3-14.5,34.9-10.8c3.3,1,7.6,3.6,8,6.2c0.8,5-0.8,10.5-1.7,18.3c7.1-4.7,13.9-8.5,19.5-13.2
			c11.3-10.3,26.3-15.5,41.5-14.6c-23,3.6-35.1,19.8-45.7,38.8c-9.6,0.4-15.9,0-22,1.1c-5.9,1.1-11.7,5.2-17.4,5.6
			c-82.1,5.6-164.3,6.6-246.3-2.9c-3.9-0.5-7.8-1-12.1-1.6c0.8-5.9,1.4-10.6,2.1-15.9c4.3,0.4,8.2,0.6,12.1,1.1
			c68.9,8.4,138.6,8.7,208.1,5.9c5.6-0.2,10.8,3.3,16.5,4.4c5.9,1.2,12.3,3,18,1.7c3.6-0.8,8-6.6,8.7-10.2c0.5-2.8-3.4-7.4-6.8-8.1
			C857.6,2567.5,852.8,2571.4,848.9,2573.2z M594.1,2564.2c-21.4-3.5-42.6-7.7-63.7-12.7c6.8-20.4,27.5-24.6,46.4-20.1
			c16.8,4,41.5,17.4,44,37c-10.2-0.6-20.7-2-27.7-10.5c-8-9.5-21.4-11.8-32.3-6.2C575,2552.9,584,2554.3,594.1,2564.2z M755.6,2572
			c-5.6-5.8-8.3-10.5,0.2-15.2c20.3-11.7,57.7-5.8,68.8,16.3c-40.4,1.7-80.6,2.3-121,1.1c10.6-5.1,21.1-10.1,31.6-15.4
			C735.7,2572.1,743.8,2574,755.6,2572z M528.7,2558.5c21.1,5,42.4,9.2,63.7,13.1c2.2,0.4,6.2,5.7,5.6,7.3c-1.2,3.4-4.6,8.2-7.7,8.3
			c-7.7,0.2-15.7-2.6-23.5-3.2c-3.8-0.3-7.4,2.1-11,3.3c3.3,2.3,6.3,5.4,9.9,6.5c5.3,1.8,11,2.2,16.6,3.1c-0.1,1-0.2,2-0.3,3
			c-14.6,2-22.3,1-34.1-6C536.7,2587.1,528.3,2572.9,528.7,2558.5z"/>
		<path class="st9" d="M1280.8,2547.4c24.2-7.1,45.7-3.3,69.9,0c14.6,2,29.7,2.1,44.4,0.5c9.9-1,20.2-6.8,22.4-17.3
			c-12.1,4.1-24.2,8.2-36.2,12.3c-15.1-28.5-56.6-32.9-83.4-20.9c-28.3,13.1-46.1,41-34.8,72.2c-14.1-2.7-23.8-15.9-20.6-30.2
			c0.8-3.6,2.3-8.2,1-11.4c-3.9-9.6-14.7,0.4-20.7-4.3c-2.2,3-5.2,5.9-6.4,9.1c-0.9,2.6,0.7,5.7,0.8,8.5c0.6,13.7-10.9,27.1-25,29.2
			c10.9-25.9,6.3-50.8-18.4-66.1c-24.8-15.3-59.5-11.8-83.6,3.5c-4.4,2.8-9.6,6.4-11.8,10.4c-3.8,6.9-9.3,7.5-15.2,6.3
			c-10.4-2.2-20.7-5.2-31-8c1,7.2,6.7,12.1,15.3,15.1c16.8,3.8,31.1,3.1,47.6-0.3c12.6-2.6,25.9-6.3,38.5-8.7
			c14.9-2.9,30.3-4.5,45.2,1.5c-30.1-17.3-68.2-3.9-100.3-0.3c5.6-4.1,8.1-6.4,11.1-8.1c29.7-16.2,75.3-19.5,98.5,9.7
			c11.6,13.1,8,26.2-0.1,38.4c-2.1,3.2-7.8,7.8-10.3,7.4c-4.1-0.7-7.3-4.9-10.3-8.1c-1.3-1.4-1-4-1.4-6.1c-1.1,0.5-2.2,0.9-3.2,1.4
			c3.1,6,6.2,12,9.4,18.4c-18.1,13.1-46.1,14-66.5,7.9c-13.2-3.9-26.2-9.5-39.8-12.5c-13.9-2.9-28.1-4.1-42.2-4.2
			c-15.7-0.1-28.2,7.5-40.7,16c-10.2,8.9-22.2,10.1-34.2,4.2c3.1,3.9,5,9.2,9.4,11.4c10.9,4.9,21.9-2.2,31-7.1
			c7.1,14.3,18.8,12,31.1,5.1c6-3.1,12.4-5.5,18.8-10.7c-5.4,0.5-10.8,0.6-16.1,1.7c-4.1,0.9-8.2,4.2-12.2,4.7
			c-3.7,0.4-10.1-0.8-10.4-2.6c-0.6-3.5,1.1-10.1,3.8-11.5c8.1-4,19.7-10,28.7-9.2c16.6,1.6,34,7.1,50.8,12.3
			c24.4,7.6,47,11.5,71.3,6c5.2-1.2,10.6-3.2,16.3-4.4c-9.4,5.9-16.7,14.8-18.8,25.9c-4,15.6,7.5,28.3,20.1,35.1
			c7.4,4,16.2,6.1,23.9,9.9c5.7,2.8,11.9,6,15.6,10.8c5.9,7.6,1.8,14.6-8.2,15.5c6,6.5,8.4,5.3,18.1-8.9c8.4,13.7,11.5,15.1,17,7.3
			c-9.5,0.5-13.3-5.1-7.6-12.9c3.8-5.1,9.9-9,15.6-12.2c8.9-4.5,18.4-7.7,27-12.9c24.7-15.1,28.8-41.3,6.9-61.2
			c29.4,8.9,55.5,4.6,83.1-8.1c12.7-5.9,26.4-10.6,39.2-15.3c8.7-3.1,21.9-1.5,29.6,3.8c2.3,1.5,4.8,3.7,5.6,6.1
			c1.7,5.4-0.8,9.4-8,8.6c-4.7-0.5-9.3-2.1-13.8-3.6c-8.1-2.9-13.7-0.2-17.3,4.6c6.9,1.5,14.5,2,20.4,4.7
			c11.4,5.3,21.4,3.6,27.5-8.1c12.3,6.1,31.5,10.7,35-7.4c-5.1,1.5-10.7,4.7-15.6,4.2c-5.4-0.5-10.9-3.8-15.1-7
			c-17.9-11.3-33.6-13.3-52.5-7.8c-15.5,4.5-31.8,12.3-47.1,18.5c-24.2,9.8-45.6,11.6-71.1,2.2c4-6.9,7.8-13.3,11.6-19.7
			c-1-0.4-1.9-0.8-2.9-1.1c-0.7,2.1-0.7,4.6-2.1,6.1c-3.2,3.3-6.7,7.3-10.8,8.7c-1.9,0.7-6.5-3.7-8.4-6.3
			c-7.2-10.1-6.3-19.2-1.3-29.8c0.2-1.2,0.1-2.6,0.7-3.6c20.7-31.5,74.7-40.7,104-16.6c0.3,0.3,0.1,1.1,0.1,2.6
			c-3.7-0.2-7.4-0.3-11-0.6c-15.5-1.2-32.4-4.1-46.7-2.7C1303.2,2538.7,1292.1,2543.4,1280.8,2547.4z M1179.4,2603.4
			c20.5-2.3,39.3-12.2,48.9-31.1c6.2,7.1,11.1,15.6,18.6,20.7c7.5,5.1,17.4,7.7,26,10.6c-5.1,1.8-9.4,2.7-12.9,4.8
			c-9.5,5.7-10.5,16.9-1.6,21.8c2.9,1.6,8.1,1.3,11.4-0.1c2-0.8,2.4-5.5,2.7-6.2c-5.7-2.6-9.2-4.2-12.7-5.8
			c3.4-2.5,6.7-6.9,10.1-7.2c9-0.7,14.3,4.7,17.3,12.1c2.8,7,2.1,14.2-5.1,18.6c-5.3,3.3-13.5,6.8-18.2,5.2
			c-5.9-2.1-9.6-9.2-14.8-14.7c-0.8,1.4-4.3,5.2-3.6,7.4c2.2,6.3,6.1,12,9.3,17.8c-12-1.5-24.6,2.2-30.6,13.5
			c-4.6-3.7-8.5-8.3-13.6-10.3c-5.4-2.1-12-1.7-18.5-2.4c7.5-6.1,19.6-18.3,6.8-26c-1.3,8.3-4.9,16.4-14.5,16.9
			c-6.8,0.4-14.7-2.4-19.8-6.2c-7.2-5.5-4.1-13.8,1.2-20.8c4.8-6.3,11.3-11.2,19.7-9c2.9,0.7,4.5,4.6,6.7,7
			c-2.2,1.2-4.4,2.6-6.7,3.7c-2.5,1.2-5.1,2.1-7.7,3.1c2.3,2.3,4.8,6.9,6.8,6.5c4.5-0.8,10.8-3.2,12.4-6.4c2-4.1,2.1-10.7-0.4-14
			C1193.6,2609.1,1187.2,2607.4,1179.4,2603.4z"/>
		<path class="st9" d="M1170.1,2471.7c-0.5-2.3-0.4-6.4-1.5-6.7c-4.6-0.9-10.5-2.2-14.4-0.4c-11.2,5.3-17.1,20.9-9.9,31.4
			c3.8,5.6,10.3,10.2,15.9,14.8c3.9,3.1,8.4,5.7,12.9,8.1c21.5,11.1,39.1,29.4,31.8,55.3c9-18.1,1.9-38.3-10.4-52.9
			c5.7,2,9.7,3.4,13.7,4.8c0.6-1.3,1.2-2,1-2.2c-17.4-24.6-12.1-45.1-1.5-71.6c4.2-9.7,7.4-20.4,9.6-30.8
			c-24.5,24.2-52.8,56.7-30.7,91.9c-0.7,0.6-1.4,1.2-2.1,1.8c-9-8.7-17.9-17.2-26.4-26.4c-2.9-3.4-3-10-1.7-14.7
			C1158.4,2467.8,1163.4,2465.7,1170.1,2471.7z"/>
		<path class="st9" d="M1234.7,2404.5c-14.1,32.4-27.2,63.9-27.9,99.6c0,17.7,16.7,27.5,32.8,23.2c10-2.7,17.6-10.8,19.6-21.2
			c3.5-25.2-1.6-46.9-9.2-71c-3.4-10.4-7.9-20.5-12.2-30.6C1236.7,2404.5,1235.7,2404.5,1234.7,2404.5z M1236,2415.4
			c9.5,24.8,14.7,47.7,12.8,74.3c-0.4,2.8-1.4,6.3-3.4,8.1c-3.5,3.1-8.2,7.3-12.2,7.2c-4.2,0-9-3.9-11.9-7.3
			c-2.3-2.7-3.1-7.3-3.1-11C1218,2461.7,1226,2438.8,1236,2415.4z"/>
		<path class="st9" d="M1278.6,2510.7c17.9-36.2,0.3-62.9-26-89.2c2.1,8.2,3.8,16.4,6.1,24.3c2,6.8,4.7,13.3,6.9,19.9
			c8.3,22.3,2.1,42-11.7,60.2c5.1-2,10.2-4.1,15.2-6.1C1272.2,2516.8,1275.4,2513.8,1278.6,2510.7z"/>
		<path class="st9" d="M1278.6,2510.7c-3.2,3-6.4,6.1-9.6,9.1c-13.8,14.5-22.5,34.8-17.6,54.9c0.3,1.2,0.7,2.4,1.2,3.6
			c0.2,0.5,0.8,1,2.5,2.9c-8.5-28.2,9.6-50.2,32.9-63.3c10.6-6.7,19.3-13.3,28.5-21.8c9-10,8-26-3.8-32.6c-3.2-1.8-8.6-1.5-12.7-0.7
			c-1.9,0.4-3,4.4-4.7,7.1c5-0.7,10.3-2.2,10.6-1.5c1.8,3.9,4.3,9,3,12.4C1304,2494.5,1292.1,2505.1,1278.6,2510.7z"/>
		<path class="st9" d="M1057.5,2584.5c26.2,10.8,51,14.2,78.4,10.4c13.7-1.9,33.8-14.9,30.7-30.4c-2.4-12.1-18.3-12.4-27.9-8.1
			c-7.8,3.5-15.6,8.2-23.5,12.2c-4.5,2.2-9.2,4.4-13.9,5.9c-11.6,3.8-21.7,2.5-25.8-10.1c-0.3-1-1.2-1.9-2.1-3.3
			c-5.2,11.9,4.8,22.2,16.8,21.3c11.3-0.8,22.5-4.5,33-8.3c9.4-3.4,18.4-9.3,27.3-14.2c-3.4,9.2-6.1,17.1,8.8,15.2
			c-4.4,9.3-12.2,13.8-21.1,15.9c-21.5,5.1-42.8,2.1-64.9-3.4c-4.9-1.2-9.6-2.8-14.5-4.2C1058.3,2583.7,1057.9,2584.1,1057.5,2584.5
			z"/>
		<path class="st9" d="M1619.7,2531.8c-0.1-0.1-0.2-0.2-0.3-0.3c1.7,0.3,3.6,1.1,5,0.9c18.3-3.4,36,1.3,53,8.2
			c-2.8-3.1-3.6-4.8-4.9-5.5c-15.1-7.8-29.1-11.2-45.6-8.3C1624.1,2527.2,1622.1,2530.1,1619.7,2531.8z"/>
		<path class="st9" d="M1278.1,2567.5c-9.1,2.7-14,4.9-10.9,11c0.8,1.6,5,1.6,7.6,2.3C1275.8,2577,1276.8,2573.1,1278.1,2567.5z"/>
		<path class="st9" d="M1179.4,2569.4c1.1,5.4,1.8,9.1,2.6,12.8c2.8-1,7.3-1.3,8.1-2.9C1193.4,2573,1189,2570.8,1179.4,2569.4z"/>
		<path class="st9" d="M1575.8,2553.3c-3.5-1.8-7-5-9.5-4.6c-3,0.4-7,3.8-7.2,6.2c-0.5,5.9,3.4,10.1,9.2,10.6
			c-1.7-4.2-3.5-8.7-5.3-13.2C1566.4,2552.6,1569.8,2552.8,1575.8,2553.3z"/>
	</g>
</g>
<polygon class="st2" points="3675.6,2706.7 3643,2706.7 3643,2728.6 3497.4,2889.8 3480.2,2889.8 3480.2,2921.1 3676.6,2921.9 "/>
<g>
	<g>
		<g>
			<g>
				<defs>
					<path id="SVGID_00000148660531781772881010000018172696751907735695_" d="M2013.6,2383.8c0,0-78.3-123.2,19.5-196.8
						s178.6-5.6,216.4,28.1s327,406.4,598.9,436.1c272.7,30,169.4,298.3,38.8,259.7C2755.6,2873,2260.5,2702,2013.6,2383.8z"/>
				</defs>
				<clipPath id="SVGID_00000110438807160867258130000010041804405939995838_">
					<use xlink:href="#SVGID_00000148660531781772881010000018172696751907735695_"  style="overflow:visible;"/>
				</clipPath>
				<path style="clip-path:url(#SVGID_00000110438807160867258130000010041804405939995838_);fill:#0D8543;" d="M2013.6,2383.8
					c0,0-78.3-123.2,19.5-196.8s178.6-5.6,216.4,28.1s327,406.4,598.9,436.1c272.7,30,169.4,298.3,38.8,259.7
					C2755.6,2873,2260.5,2702,2013.6,2383.8z"/>
			</g>
			<g>
				<defs>
					<path id="SVGID_00000104692000490605931260000008598473875929845161_" d="M2013.6,2383.8c0,0-78.3-123.2,19.5-196.8
						s178.6-5.6,216.4,28.1s327,406.4,598.9,436.1c272.7,30,169.4,298.3,38.8,259.7C2755.6,2873,2260.5,2702,2013.6,2383.8z"/>
				</defs>
				<clipPath id="SVGID_00000080164179762683895920000008330467883562191004_">
					<use xlink:href="#SVGID_00000104692000490605931260000008598473875929845161_"  style="overflow:visible;"/>
				</clipPath>
				
					<path style="clip-path:url(#SVGID_00000080164179762683895920000008330467883562191004_);fill:none;stroke:#98ED9C;stroke-width:0.5;stroke-miterlimit:10;" d="
					M2072.5,2144.7c0,0,85.6,8.1,157.3,100c71.8,91.9,305.1,375.8,557.7,428.1c252.6,52.3,220.4,53.3,243,110.8"/>
			</g>
			<g>
				<defs>
					<path id="SVGID_00000150799347405516343310000015571510504221315727_" d="M2013.6,2383.8c0,0-78.3-123.2,19.5-196.8
						s178.6-5.6,216.4,28.1s327,406.4,598.9,436.1c272.7,30,169.4,298.3,38.8,259.7C2755.6,2873,2260.5,2702,2013.6,2383.8z"/>
				</defs>
				<clipPath id="SVGID_00000034052887580940606830000016088108720993922437_">
					<use xlink:href="#SVGID_00000150799347405516343310000015571510504221315727_"  style="overflow:visible;"/>
				</clipPath>
				
					<path style="clip-path:url(#SVGID_00000034052887580940606830000016088108720993922437_);fill:none;stroke:#98ED9C;stroke-width:0.5;stroke-miterlimit:10;" d="
					M2031.4,2166.1c0,0,72.9,44.2,131.3,112.6c59.3,68.6,241.7,285.5,402.3,357.1c160.6,71.6,479.4,134.2,488.9,164.6"/>
			</g>
			<g>
				<defs>
					<path id="SVGID_00000007409260650654897840000009971872084190212284_" d="M2013.6,2383.8c0,0-78.3-123.2,19.5-196.8
						s178.6-5.6,216.4,28.1s327,406.4,598.9,436.1c272.7,30,169.4,298.3,38.8,259.7C2755.6,2873,2260.5,2702,2013.6,2383.8z"/>
				</defs>
				<clipPath id="SVGID_00000141438336227993728910000006409397506859569074_">
					<use xlink:href="#SVGID_00000007409260650654897840000009971872084190212284_"  style="overflow:visible;"/>
				</clipPath>
				
					<path style="clip-path:url(#SVGID_00000141438336227993728910000006409397506859569074_);fill:none;stroke:#98ED9C;stroke-width:0.5;stroke-miterlimit:10;" d="
					M1956,2230.4c0,0,52.7,119.9,146.2,210.4s408.6,324.4,716.9,410.4c308.2,86,320.9,38.3,320.9,38.3"/>
			</g>
			<g>
				<defs>
					<path id="SVGID_00000083811791194469718560000003503043613718698885_" d="M2013.6,2383.8c0,0-78.3-123.2,19.5-196.8
						s178.6-5.6,216.4,28.1s327,406.4,598.9,436.1c272.7,30,169.4,298.3,38.8,259.7C2755.6,2873,2260.5,2702,2013.6,2383.8z"/>
				</defs>
				<clipPath id="SVGID_00000011007314506357496080000006290028229970342279_">
					<use xlink:href="#SVGID_00000083811791194469718560000003503043613718698885_"  style="overflow:visible;"/>
				</clipPath>
				
					<path style="clip-path:url(#SVGID_00000011007314506357496080000006290028229970342279_);fill:none;stroke:#98ED9C;stroke-width:0.5;stroke-miterlimit:10;" d="
					M1989.1,2194.2c0,0,52.3,70.9,113.8,129.5c60.4,59.1,210.6,223.7,289.8,273.4c79,50.5,368.6,174.5,480.8,200.4
					c113,26.1,169.7,70.8,169.7,70.8"/>
			</g>
		</g>
		<path class="st15" d="M3015.5,2756.9c0,0,11.9,40-3.7,79.8c0,0,34,22.7,44.7,19.7c10.7-3-8.7-21.3-7-27s14.3-9,7.3-18.2
			c-7-9.2-8-14.8-3.9-22.5c3.3-7.9,3.1-13.3-4.3-18.2c-7.4-4.9-7.1-3-5.7-10.6C3044.5,2752.3,3015.5,2756.9,3015.5,2756.9z"/>
	</g>
	<g>
		<g>
			<defs>
				<path id="SVGID_00000011716300630977083030000001299109966414725027_" d="M1577.7,2159.2c0,0-197-30-183.9-196.2
					c13-166.1,154.6-186.9,223-196.4c68.4-9.5,708.5,29.7,983.5-221.9s456.8,94.2,300.4,193.8
					C2744.3,1838,2125.6,2191.6,1577.7,2159.2z"/>
			</defs>
			<clipPath id="SVGID_00000019664015191312596080000012182043519502146199_">
				<use xlink:href="#SVGID_00000011716300630977083030000001299109966414725027_"  style="overflow:visible;"/>
			</clipPath>
			<path style="clip-path:url(#SVGID_00000019664015191312596080000012182043519502146199_);fill:#0D8543;" d="M1577.7,2159.2
				c0,0-197-30-183.9-196.2c13-166.1,154.6-186.9,223-196.4c68.4-9.5,708.5,29.7,983.5-221.9s456.8,94.2,300.4,193.8
				C2744.3,1838,2125.6,2191.6,1577.7,2159.2z"/>
		</g>
		<g>
			<defs>
				<path id="SVGID_00000078748547245352113280000013732501695880097447_" d="M1577.7,2159.2c0,0-197-30-183.9-196.2
					c13-166.1,154.6-186.9,223-196.4c68.4-9.5,708.5,29.7,983.5-221.9s456.8,94.2,300.4,193.8
					C2744.3,1838,2125.6,2191.6,1577.7,2159.2z"/>
			</defs>
			<clipPath id="SVGID_00000164476745551553368030000011639729433110287805_">
				<use xlink:href="#SVGID_00000078748547245352113280000013732501695880097447_"  style="overflow:visible;"/>
			</clipPath>
			
				<path style="clip-path:url(#SVGID_00000164476745551553368030000011639729433110287805_);fill:none;stroke:#98ED9C;stroke-width:0.5;stroke-miterlimit:10;" d="
				M1386.5,1884.4c0,0,84.7-79.9,243.1-71.2s657.9,24.7,938.2-186.9c280.2-210.5,252.4-177.2,331.1-149.6"/>
		</g>
		<g>
			<defs>
				<path id="SVGID_00000143602313433987743160000012754439659713816212_" d="M1577.7,2159.2c0,0-197-30-183.9-196.2
					c13-166.1,154.6-186.9,223-196.4c68.4-9.5,708.5,29.7,983.5-221.9s456.8,94.2,300.4,193.8
					C2744.3,1838,2125.6,2191.6,1577.7,2159.2z"/>
			</defs>
			<clipPath id="SVGID_00000086665117314302054300000007410857506004973445_">
				<use xlink:href="#SVGID_00000143602313433987743160000012754439659713816212_"  style="overflow:visible;"/>
			</clipPath>
			
				<path style="clip-path:url(#SVGID_00000086665117314302054300000007410857506004973445_);fill:none;stroke:#98ED9C;stroke-width:0.5;stroke-miterlimit:10;" d="
				M1372.2,1945.8c0,0,110.4-34.4,233.5-33.7c123.2,0.6,508.3,8.7,725.1-90.7c216.8-99.4,566.9-370.3,605.8-352.5"/>
		</g>
		<g>
			<defs>
				<path id="SVGID_00000013908068258015194280000008471882722778424763_" d="M1577.7,2159.2c0,0-197-30-183.9-196.2
					c13-166.1,154.6-186.9,223-196.4c68.4-9.5,708.5,29.7,983.5-221.9s456.8,94.2,300.4,193.8
					C2744.3,1838,2125.6,2191.6,1577.7,2159.2z"/>
			</defs>
			<clipPath id="SVGID_00000065756365809879375940000000238709055044051617_">
				<use xlink:href="#SVGID_00000013908068258015194280000008471882722778424763_"  style="overflow:visible;"/>
			</clipPath>
			
				<path style="clip-path:url(#SVGID_00000065756365809879375940000000238709055044051617_);fill:none;stroke:#98ED9C;stroke-width:0.5;stroke-miterlimit:10;" d="
				M1369.3,2080.3c0,0,170.3,53,346,39c176.9-13.8,698.5-127,1061.7-365.3c364.3-238.1,326.7-293,326.7-293"/>
		</g>
		<g>
			<defs>
				<path id="SVGID_00000137846496925284295150000003488856247235507118_" d="M1577.7,2159.2c0,0-197-30-183.9-196.2
					c13-166.1,154.6-186.9,223-196.4c68.4-9.5,708.5,29.7,983.5-221.9s456.8,94.2,300.4,193.8
					C2744.3,1838,2125.6,2191.6,1577.7,2159.2z"/>
			</defs>
			<clipPath id="SVGID_00000057113175576430476730000017925132914418637487_">
				<use xlink:href="#SVGID_00000137846496925284295150000003488856247235507118_"  style="overflow:visible;"/>
			</clipPath>
			
				<path style="clip-path:url(#SVGID_00000057113175576430476730000017925132914418637487_);fill:none;stroke:#98ED9C;stroke-width:0.5;stroke-miterlimit:10;" d="
				M1363.2,2013.5c0,0,120,9.6,234.8,0.1c114.9-9.5,417.7-15.4,539.8-51s509-220.3,635.6-312.3c127.7-91.9,224.9-110.2,224.9-110.2"
				/>
		</g>
	</g>
	<g>
		<path class="st21" d="M1662.5,859.7c0,0-58.3-61.7-228.7-33.1c-169.4,28.3-184.4-157.4-64.5-151.6c119.9,5.9,119.9,5.9,119.9,5.9
			s-157.8-114.3-97.6-154.1c60.1-39.8,186.6,73.5,249.8,32.4c63.1-41.1,3.5-192.4,111.6-186.3c108.2,6.1-9.1,268.3,33.9,341.3
			C1830.1,788.4,1662.5,859.7,1662.5,859.7z"/>
		<path class="st22" d="M2240.7,1724.7c0,0-578.2-480.7-637.9-704.3s127.7-385.2,318.1-286.1c190.9,100.2,461.3,930.1,461.3,930.1
			s17.1,48.5-45.1,89.1C2297.4,1780,2240.7,1724.7,2240.7,1724.7z"/>
		<g>
			<path class="st23" d="M1654.7,1067c7-114.5,94.6-220.5,205-250.9c15.9-4.4,31.7-6.4,47.4-8.3c-6.6,4-14.2,8.4-20.8,12.4
				C1781.5,871.9,1704.7,961.6,1654.7,1067L1654.7,1067z"/>
		</g>
		<g>
			<path class="st23" d="M1771.3,1215.4c5.1-107.7,83.4-205.1,178.7-251.6c14.1-6,28.1-12,43-15.9c-10.9,10.6-22.7,19.1-33.6,29.7
				C1880.5,1043.2,1816,1122.9,1771.3,1215.4L1771.3,1215.4z"/>
		</g>
		<g>
			<path class="st23" d="M1890.1,1349.8c19.3-107.8,114.2-196.9,218-223.3C2026.7,1194.4,1950.7,1263.6,1890.1,1349.8L1890.1,1349.8
				z"/>
		</g>
		<g>
			<path class="st23" d="M2045.9,1512.4c-12.8-94.2,69.8-181.5,157.6-203.5C2143.5,1371.2,2079.8,1430.3,2045.9,1512.4
				L2045.9,1512.4z"/>
		</g>
	</g>
	<g>
		<path class="st21" d="M1686.7,2406.1c0,0,21.3-31.2-7.4-102.6c-28.4-71,50.9-95.2,59.8-42.5s8.9,52.7,8.9,52.7
			s34.7-79.5,57.7-57.1c23,22.3-14.2,88.2,9.7,111.7c23.9,23.5,84-16.8,91.6,30.8c7.6,47.6-117.5,21.6-145.2,47.2
			C1733.7,2472.2,1686.7,2406.1,1686.7,2406.1z"/>
		<path class="st22" d="M1365.6,2739.9c0,0,153.9-297.2,245.5-344.5c91.6-47.2,179.7,18.8,154.7,111.1
			c-25.4,92.5-360.5,289.2-360.5,289.2s-19.4,12-43.1-11.1C1347,2769.8,1365.6,2739.9,1365.6,2739.9z"/>
		<g>
			<path class="st23" d="M1595.8,2422.4c50.4-7.9,104.9,20.1,128.7,65.2c3.4,6.5,5.8,13.2,8.1,19.8c-2.4-2.5-5-5.4-7.4-7.9
				C1692.7,2459,1646.4,2434.1,1595.8,2422.4L1595.8,2422.4z"/>
		</g>
		<g>
			<path class="st23" d="M1542.3,2487.2c47.3-8,97.1,16.7,126.4,53.7c3.9,5.5,7.9,11.1,11,17.2c-5.6-3.7-10.5-8-16.1-11.8
				C1627.7,2518.4,1586.9,2497.9,1542.3,2487.2L1542.3,2487.2z"/>
		</g>
		<g>
			<path class="st23" d="M1495.2,2551.7c48.7-1.9,96.5,30.9,117.9,73.5C1575.8,2596.3,1538.5,2569.8,1495.2,2551.7L1495.2,2551.7z"
				/>
		</g>
		<g>
			<path class="st23" d="M1439.4,2635c39.7-14.5,85.6,13,103.5,49.2C1510.1,2664,1478.3,2641.9,1439.4,2635L1439.4,2635z"/>
		</g>
	</g>
	<g>
		
			<ellipse transform="matrix(0.556 -0.8312 0.8312 0.556 -645.6202 1703.7242)" class="st24" cx="1271.9" cy="1456.2" rx="420.6" ry="377.9"/>
		<polygon class="st25" points="1095.5,1402.3 1082.9,1338.2 1117.9,1396.5 1164.5,1370.3 1138.3,1402.3 1194.6,1415 1139.3,1426.6 
			1151.9,1482 1112.1,1438.3 1067.4,1463.5 1082.9,1424.7 1031.4,1402.3 		"/>
		<g>
			<path class="st26" d="M1111.1,1406.2c6.8-4.9,15.5,1.9,17.5,8.7c2.9,6.8-2.9,17.5-10.7,16.5
				C1125.7,1423.7,1121.8,1409.1,1111.1,1406.2L1111.1,1406.2z"/>
		</g>
	</g>
	<g>
		
			<ellipse transform="matrix(0.9607 -0.2774 0.2774 0.9607 -494.7464 811.7391)" class="st24" cx="2620.9" cy="2154.1" rx="126.6" ry="140.9"/>
		<polygon class="st25" points="2672.8,2120.5 2691.9,2131.1 2669.4,2127.5 2666.1,2145.1 2663.5,2131.4 2648.1,2143.2 
			2657.1,2126.5 2640.2,2117.7 2660,2117 2663.2,2100.1 2669.8,2112.4 2686.6,2104.1 		"/>
		<g>
			<path class="st26" d="M2668.4,2123.6c-0.2,2.8-3.9,3.6-6,2.6c-2.4-0.7-3.9-4.5-1.9-6.3
				C2660.8,2123.6,2665.4,2125.7,2668.4,2123.6L2668.4,2123.6z"/>
		</g>
	</g>
</g>
<path d="M-262.7,3324.8"/>
</svg>
