<?xml version="1.0" encoding="utf-8"?>
<!-- Generator: Adobe Illustrator 26.5.0, SVG Export Plug-In . SVG Version: 6.00 Build 0)  -->
<svg version="1.1" id="Livello_1" xmlns="http://www.w3.org/2000/svg" xmlns:xlink="http://www.w3.org/1999/xlink" x="0px" y="0px"
	 viewBox="0 0 3853 3853" style="enable-background:new 0 0 3853 3853;" xml:space="preserve">
<style type="text/css">
	.st0{fill:#004F11;}
	.st1{fill:#75C111;}
	.st2{fill:none;}
</style>
<path class="st0" d="M1278.3,1893.8H908.6c3,36.5,15.8,65.1,38.3,85.8c22.5,20.7,50.2,31,83.1,31c47.5,0,81.2-20.4,101.3-61.2h137.8
	c-14.6,48.7-42.6,88.7-84,120c-41.4,31.4-92.2,47-152.4,47c-48.7,0-92.4-10.8-131-32.4c-38.7-21.6-68.8-52.2-90.4-91.7
	c-21.6-39.6-32.4-85.2-32.4-136.9c0-52.3,10.6-98.3,32-137.8c21.3-39.6,51.1-70,89.5-91.3c38.3-21.3,82.5-32,132.4-32
	c48.1,0,91.1,10.4,129.2,31c38,20.7,67.6,50.1,88.5,88.1c21,38,31.5,81.7,31.5,131C1282,1862.8,1280.8,1879.2,1278.3,1893.8z
	 M1149.6,1808c-0.6-32.9-12.5-59.2-35.6-79c-23.1-19.8-51.4-29.7-84.9-29.7c-31.7,0-58.3,9.6-79.9,28.8
	c-21.6,19.2-34.8,45.8-39.7,79.9H1149.6z"/>
<path class="st0" d="M1672.7,1616.7c28.6,14.9,51.1,34.2,67.6,58v-72.1h128.7V2112c0,46.9-9.4,88.7-28.3,125.5
	c-18.9,36.8-47.2,66-84.9,87.6c-37.7,21.6-83.4,32.4-136.9,32.4c-71.8,0-130.7-16.7-176.6-50.2c-46-33.5-72-79.1-78-136.9H1491
	c6.7,23.1,21.1,41.5,43.4,55.2c22.2,13.7,49.1,20.5,80.8,20.5c37.1,0,67.2-11.1,90.4-33.3c23.1-22.2,34.7-55.8,34.7-100.9v-78.5
	c-16.4,23.7-39.1,43.5-68,59.3c-28.9,15.8-61.9,23.7-99,23.7c-42.6,0-81.6-11-116.8-32.9c-35.3-21.9-63.1-52.8-83.5-92.7
	c-20.4-39.9-30.6-85.7-30.6-137.4c0-51.1,10.2-96.4,30.6-136c20.4-39.6,48.1-70,83.1-91.3c35-21.3,74.1-32,117.3-32
	C1610.9,1594.4,1644.1,1601.8,1672.7,1616.7z M1722,1775.6c-12.2-22.2-28.6-39.3-49.3-51.1c-20.7-11.9-42.9-17.8-66.6-17.8
	c-23.7,0-45.6,5.8-65.7,17.3c-20.1,11.6-36.4,28.5-48.8,50.7c-12.5,22.2-18.7,48.5-18.7,79c0,30.4,6.2,57.1,18.7,79.9
	c12.5,22.8,28.9,40.3,49.3,52.5c20.4,12.2,42.1,18.3,65.3,18.3c23.7,0,45.9-5.9,66.6-17.8c20.7-11.9,37.1-28.9,49.3-51.1
	c12.2-22.2,18.3-48.8,18.3-79.9C1740.2,1824.4,1734.1,1797.8,1722,1775.6z"/>
<path class="st1" d="M2005.4,1620.4c28.3-49.6,66.9-88.2,115.9-115.9c49-27.7,103.9-41.5,164.8-41.5c71.2,0,133.6,18.3,187.1,54.8
	c53.5,36.5,91,87,112.3,151.5h-147c-14.6-30.4-35.1-53.2-61.6-68.5c-26.5-15.2-57.1-22.8-91.7-22.8c-37.1,0-70.1,8.7-99,26
	c-28.9,17.3-51.4,41.8-67.6,73.5c-16.1,31.6-24.2,68.8-24.2,111.4c0,42,8.1,79,24.2,110.9c16.1,32,38.6,56.6,67.6,73.9
	c28.9,17.3,61.9,26,99,26c34.7,0,65.3-7.8,91.7-23.3c26.5-15.5,47-38.5,61.6-68.9h147c-21.3,65.1-58.6,115.8-111.8,152
	c-53.3,36.2-115.8,54.3-187.6,54.3c-60.9,0-115.8-13.8-164.8-41.5c-49-27.7-87.6-66.2-115.9-115.5c-28.3-49.3-42.4-105.3-42.4-168
	C1963,1726.1,1977.1,1670,2005.4,1620.4z"/>
<path class="st1" d="M2703.7,1520.9c-14.9-14.3-22.4-32.1-22.4-53.4c0-21.3,7.4-39.1,22.4-53.4c14.9-14.3,33.6-21.5,56.1-21.5
	c22.5,0,41.2,7.2,56.1,21.5c14.9,14.3,22.4,32.1,22.4,53.4c0,21.3-7.5,39.1-22.4,53.4c-14.9,14.3-33.6,21.5-56.1,21.5
	C2737.4,1542.3,2718.6,1535.2,2703.7,1520.9z M2822.9,1602.6v505.7h-127.8v-505.7H2822.9z"/>
<path class="st1" d="M3097.6,1707.6v244.6c0,17,4.1,29.4,12.3,37c8.2,7.6,22.1,11.4,41.5,11.4h59.3v107.7h-80.3
	c-107.7,0-161.6-52.3-161.6-157v-243.7h-60.2v-105h60.2v-125.1h128.7v125.1h113.2v105H3097.6z"/>
<polygon class="st0" points="599.2,1471.1 446.8,1913.9 444.3,2031.6 425,1977.4 424.8,1977.8 416.9,1955 413.3,1944.8 
	413.4,1944.6 249.6,1471.1 112.6,1471.1 346.3,2108.3 501.5,2108.3 735.2,1471.1 "/>
<polygon class="st1" points="3650.8,1602.6 3537.4,1905.2 3535.3,2006 3504.3,1919.2 3504.6,1918.4 3387.9,1602.6 3244.6,1602.6 
	3447.2,2095.5 3337.7,2347.5 3473.7,2347.5 3786.8,1602.6 "/>
<rect x="473.1" y="1141.3" class="st2" width="2.8" height="0"/>
</svg>
