<?xml version="1.0" encoding="utf-8"?>
<!-- Generator: Adobe Illustrator 26.5.0, SVG Export Plug-In . SVG Version: 6.00 Build 0)  -->
<svg version="1.1" xmlns="http://www.w3.org/2000/svg" xmlns:xlink="http://www.w3.org/1999/xlink" x="0px" y="0px"
	 viewBox="0 0 1920 1920" style="enable-background:new 0 0 1920 1920;" xml:space="preserve">
<style type="text/css">
	.st0{display:none;}
	.st1{fill:#073505;}
	.st2{opacity:9.000000e-02;fill:#00FF00;}
	.st3{clip-path:url(#SVGID_00000035529988173717571310000011154052404109249966_);}
	.st4{fill:#FF8F1F;}
	.st5{fill:#0D8543;}
	.st6{fill:#FFB26C;}
	.st7{clip-path:url(#SVGID_00000060002563861292140960000016158065939118387875_);fill:#FF4040;}
	.st8{opacity:0.41;clip-path:url(#SVGID_00000060002563861292140960000016158065939118387875_);fill:#F42121;}
	.st9{fill:#E29F81;}
	.st10{fill:#EDDD9A;}
	.st11{fill:#E5D17F;}
	.st12{clip-path:url(#SVGID_00000045590410661194863230000016917072532767189420_);fill:#E29F81;}
	.st13{clip-path:url(#SVGID_00000045590410661194863230000016917072532767189420_);}
	.st14{clip-path:url(#SVGID_00000160151774969192054630000014742499997595063689_);fill:#FFC9AE;}
	.st15{opacity:0.59;clip-path:url(#SVGID_00000160151774969192054630000014742499997595063689_);fill:#F9B698;}
	.st16{clip-path:url(#SVGID_00000045590410661194863230000016917072532767189420_);fill:#FFABAB;}
	.st17{clip-path:url(#SVGID_00000043419418136361852550000009777653724126489733_);fill:#050000;}
	.st18{clip-path:url(#SVGID_00000043419418136361852550000009777653724126489733_);fill:#EAEAEA;}
	.st19{clip-path:url(#SVGID_00000043419418136361852550000009777653724126489733_);fill:#7A1C1C;}
	.st20{clip-path:url(#SVGID_00000045590410661194863230000016917072532767189420_);fill:#A02424;}
	.st21{fill:#EFAC8F;}
	.st22{clip-path:url(#SVGID_00000114778363272563894820000002523029783417016753_);fill:#3968D1;}
	.st23{opacity:0.54;clip-path:url(#SVGID_00000114778363272563894820000002523029783417016753_);fill:#314984;}
	.st24{clip-path:url(#SVGID_00000064337633734540133970000001751670551451893694_);fill:#0B1549;}
	.st25{clip-path:url(#SVGID_00000064337633734540133970000001751670551451893694_);fill:#222D5B;}
	.st26{opacity:0.3;clip-path:url(#SVGID_00000064337633734540133970000001751670551451893694_);}
	.st27{fill:#FFFFFF;}
	.st28{clip-path:url(#SVGID_00000148663423900462804680000015754784616046833040_);fill:#0B1549;}
	.st29{clip-path:url(#SVGID_00000148663423900462804680000015754784616046833040_);fill:#222D5B;}
	.st30{opacity:0.3;clip-path:url(#SVGID_00000148663423900462804680000015754784616046833040_);}
	.st31{fill:none;stroke:#999999;stroke-width:10;stroke-linecap:round;stroke-miterlimit:10;}
	.st32{clip-path:url(#SVGID_00000161604245724674344330000016096930787551353740_);fill:#FFC9AE;}
	.st33{opacity:0.3;clip-path:url(#SVGID_00000161604245724674344330000016096930787551353740_);fill:#F79063;}
	.st34{fill:#E88B6B;}
	.st35{fill:#314984;}
	.st36{clip-path:url(#SVGID_00000082360553033001052530000008217673985990277275_);fill:#090B23;}
	.st37{clip-path:url(#SVGID_00000082360553033001052530000008217673985990277275_);fill:#1E2344;}
	.st38{fill:#49AA44;}
	.st39{fill:#41933A;}
	.st40{fill:#61BA5A;}
	.st41{clip-path:url(#SVGID_00000132050920250279019300000013220155423054693779_);fill:#FFC9AE;}
	.st42{opacity:0.3;clip-path:url(#SVGID_00000132050920250279019300000013220155423054693779_);fill:#F79063;}
	.st43{fill:#96EA8F;}
	.st44{fill:#298419;}
	.st45{fill:#226D13;}
	.st46{clip-path:url(#SVGID_00000072255883209525234040000017612792810102832063_);}
	.st47{clip-path:url(#SVGID_00000024684723673599412980000016332101602105341843_);}
	.st48{fill:#98ED9C;}
	.st49{clip-path:url(#SVGID_00000139985641571297829230000000128867042232350893_);}
	.st50{clip-path:url(#SVGID_00000083787293666084178910000014095112817922422419_);}
	.st51{clip-path:url(#SVGID_00000119839825854474116290000013277064075568284058_);}
	.st52{fill:#DCFF71;}
	.st53{clip-path:url(#SVGID_00000053533948699192238180000016365674740295926656_);fill:#4C2A09;}
	.st54{clip-path:url(#SVGID_00000053533948699192238180000016365674740295926656_);fill:#2D1705;}
	.st55{opacity:0.13;}
	.st56{fill:#EF2525;}
	.st57{fill:#FFE0D2;}
	.st58{fill:#80C478;}
	.st59{opacity:0.39;}
	.st60{fill:#1F6018;}
</style>
<g id="Livello_1" class="st0">
	
		<image style="display:inline;overflow:visible;" width="1536" height="2048" xlink:href="1169A851.jpg"  transform="matrix(1.2412 0 0 1.2412 9.6957 -311.2899)">
	</image>
</g>
<g id="Livello_2">
	<path class="st1" d="M267.3,1268.7c0,0-161.2-14.9-149.3-200.1c0,0,23.9-86.6,98.5-134.4s41.3-90.8,113-88.3L267.3,1268.7z"/>
	<path class="st2" d="M825.9,1795.7c0,0-311.3,71.7-443.3,17.9c-132-53.7-375.2-204.5-189-482.2s261.3-283.7,230.7-421
		s-144.5-492.7,47.2-615.1s466.9,146.3,625.4,143.3c158.4-3,403-229.9,550.3-203s361.3,334.4,211.2,686.7s-158.4,394.1-83.4,489.7
		c75,95.5-77.8,468.8-239,418S1091.3,1725.5,825.9,1795.7z"/>
	<g>
		<defs>
			<path id="SVGID_1_" d="M1305.6,611.2c0,0-91.1-253.8-126.9-312.8c-7-17.6-31.4-31.9-59.2-15.9c1.9-44.5,10.1-114.1-40.1-137.9
				c-88.1-6.7,0.4,86.2-20.7,99.9c-21,13.7-63.2-24.1-83.2-10.8c-20,13.3,32.5,51.4,32.5,51.4s-62.3-32.9-128-1.6
				c-53,19.4-85.1,159.7,15.7,73.9c79-38.7,131.9-36.9,162.8-28.3c-14.3,16.5-20.8,36.7-12.6,67.5
				c19.9,74.5,212.5,234.6,212.5,234.6s18.9,18.4,32.1,9.6C1311.3,627.4,1305.6,611.2,1305.6,611.2z"/>
		</defs>
		<clipPath id="SVGID_00000062896501181522107440000004476078514067021481_">
			<use xlink:href="#SVGID_1_"  style="overflow:visible;"/>
		</clipPath>
		<g style="clip-path:url(#SVGID_00000062896501181522107440000004476078514067021481_);">
			<g>
				<path class="st4" d="M1258.4,631.3c0,0-192.6-160.1-212.5-234.6c-16-60.2,24.2-79.9,68.5-110.9c29.9-20.9,56.7-6,64.2,12.7
					c35.8,59,126.9,312.8,126.9,312.8s5.7,16.2-15,29.7C1277.3,649.7,1258.4,631.3,1258.4,631.3z"/>
			</g>
			<g>
				<path class="st5" d="M1092.8,346.2c0,0-58.2-56.7-197.1,11.2c-100.8,85.8-68.7-54.5-15.7-73.9c65.7-31.4,128,1.6,128,1.6
					s-52.6-38.1-32.5-51.4c20-13.3,62.2,24.5,83.2,10.8c21.1-13.7-67.4-106.6,20.7-99.9c67.9,32.1,29,148.1,43.3,172.4
					C1118.9,347.7,1092.8,346.2,1092.8,346.2z"/>
			</g>
		</g>
		<g style="clip-path:url(#SVGID_00000062896501181522107440000004476078514067021481_);">
			<path class="st6" d="M1040.5,441c42.6,7.9,89.2,0.3,124.5-25.5c27.6-20.2,46.5-49.6,59.6-81c-11.2,34.9-32.3,68-63.4,88.3
				C1126.2,446,1080.9,451.8,1040.5,441L1040.5,441z"/>
		</g>
		<g style="clip-path:url(#SVGID_00000062896501181522107440000004476078514067021481_);">
			<path class="st6" d="M1079.4,508.7c41.8,9.1,88.2,2.8,123.3-22.6c1-0.8,6.2-4.7,7.1-5.5c0.9-0.8,3.1-2.7,4-3.5
				c3.2-2.6,7.3-7,10.3-10c16.1-17.8,28.2-38.7,37.6-61c-9.6,29.8-26.3,58.5-50.8,78.6C1174.8,514.6,1123.5,522.2,1079.4,508.7
				L1079.4,508.7z"/>
		</g>
		<g style="clip-path:url(#SVGID_00000062896501181522107440000004476078514067021481_);">
			<path class="st6" d="M1111.2,549.5c54,27.1,124.5,40.7,157.8-22.8c3.3-6.3,6.3-13.1,8.6-19.8c3.3-9.1,5.7-18.5,7.7-28
				c-1.2,9.6-3.1,19.2-5.9,28.6C1254.7,592.2,1175.5,588.4,1111.2,549.5L1111.2,549.5z"/>
		</g>
		<g style="clip-path:url(#SVGID_00000062896501181522107440000004476078514067021481_);">
			<path class="st6" d="M1134.1,576.4c48.4,31.8,123.3,63.3,157.4-3.6c2.8-5.2,5.1-10.8,7.1-16.4c3.3-9,5.7-18.3,7.7-27.7
				c-1.2,9.6-3.1,19.1-5.9,28.3C1274,644.9,1190.1,620.5,1134.1,576.4L1134.1,576.4z"/>
		</g>
	</g>
	<g>
		<defs>
			
				<ellipse id="SVGID_00000004541405035329006550000013154262372856571011_" transform="matrix(0.9888 -0.1494 0.1494 0.9888 -82.7086 69.2541)" cx="419.5" cy="585" rx="130.7" ry="171.5"/>
		</defs>
		<clipPath id="SVGID_00000057844028755814774650000000917026425978688415_">
			<use xlink:href="#SVGID_00000004541405035329006550000013154262372856571011_"  style="overflow:visible;"/>
		</clipPath>
		
			<ellipse transform="matrix(0.9888 -0.1494 0.1494 0.9888 -82.7086 69.2541)" style="clip-path:url(#SVGID_00000057844028755814774650000000917026425978688415_);fill:#FF4040;" cx="419.5" cy="585" rx="130.7" ry="171.5"/>
		<path style="opacity:0.41;clip-path:url(#SVGID_00000057844028755814774650000000917026425978688415_);fill:#F42121;" d="
			M409.9,399.8c0,0-56,39.6-55.2,138.8c0.7,99.3,36.6,222.4,101.5,243.3c64.9,20.9-196.3,29.1-209.8-38.1S262.8,464,262.8,464
			L409.9,399.8z"/>
	</g>
	<polygon class="st9" points="1027.7,1088.5 1032.7,1040.8 824.7,985 803.8,1003.9 842.6,1089.5 986.9,1113.4 	"/>
	<polygon class="st10" points="1461.7,1265.7 1558,1191 1563.9,1285.8 1513.9,1309 	"/>
	<path class="st11" d="M1178,1200l56-11.2c0,0,56,49.3,161.2,33.6c105.3-15.7,127.6,67.2,127.6,67.2s0.7-88.8,44.8-103.8
		s95.5-31.4,108.2-55.2l34.3-6l-125.4,226.9l-63.4,15.7l-147.8-19.4L1178,1200z"/>
	<g>
		<defs>
			<path id="SVGID_00000140707958104148282030000017534484073765000101_" d="M1212.6,867.4c-35.7,141.1-169.2,229-298.2,196.3
				S712.3,868.3,748,727.2c35.7-141.1,166.7-207,295.7-174.4C1172.7,585.5,1248.3,726.3,1212.6,867.4z"/>
		</defs>
		<clipPath id="SVGID_00000163068748226614967760000013947450023595378084_">
			<use xlink:href="#SVGID_00000140707958104148282030000017534484073765000101_"  style="overflow:visible;"/>
		</clipPath>
		<path style="clip-path:url(#SVGID_00000163068748226614967760000013947450023595378084_);fill:#E29F81;" d="M1157.4,868.9
			c-35.7,141.1-149.6,233.9-254.5,207.4S745.1,892.1,780.8,751s146.6-212.1,251.4-185.6C1137.1,592,1193.1,727.8,1157.4,868.9z"/>
		<g style="clip-path:url(#SVGID_00000163068748226614967760000013947450023595378084_);">
			<defs>
				<path id="SVGID_00000039134832689926182500000003929741374961674926_" d="M1179.3,858.9c-35.7,141.1-149.6,233.9-254.5,207.4
					S767,882.1,802.7,741.1c35.7-141.1,146.6-212.1,251.4-185.6S1215,717.9,1179.3,858.9z"/>
			</defs>
			<clipPath id="SVGID_00000176751317477701875430000002995008008590071168_">
				<use xlink:href="#SVGID_00000039134832689926182500000003929741374961674926_"  style="overflow:visible;"/>
			</clipPath>
			<path style="clip-path:url(#SVGID_00000176751317477701875430000002995008008590071168_);fill:#FFC9AE;" d="M1179.3,858.9
				c-35.7,141.1-149.6,233.9-254.5,207.4S767,882.1,802.7,741.1c35.7-141.1,146.6-212.1,251.4-185.6S1215,717.9,1179.3,858.9z"/>
			<path style="opacity:0.59;clip-path:url(#SVGID_00000176751317477701875430000002995008008590071168_);fill:#F9B698;" d="
				M987.9,538.1c0,0-238.9,146.3-77.6,533.5c0,0-183.1-46.8-180.1-179.2S819.7,538.1,987.9,538.1z"/>
		</g>
		
			<ellipse transform="matrix(0.1872 -0.9823 0.9823 0.1872 73.2076 1544.2)" style="clip-path:url(#SVGID_00000163068748226614967760000013947450023595378084_);" cx="969.7" cy="727.9" rx="35.5" ry="13.4"/>
		
			<ellipse transform="matrix(0.1872 -0.9823 0.9823 0.1872 151.5547 1720.2534)" style="clip-path:url(#SVGID_00000163068748226614967760000013947450023595378084_);" cx="1115.3" cy="768.5" rx="35.5" ry="13.4"/>
		<g style="clip-path:url(#SVGID_00000163068748226614967760000013947450023595378084_);">
			<path d="M960.7,726c-14.9,4.3-36,5.3-44.4-10.4c-7.4-14.1-5.1-34.2,9.1-43c-13.5,9-15,28.8-7.3,42c8.4,14.1,27.9,12,41.4,7.6
				C959.4,722.2,960.7,726,960.7,726L960.7,726z"/>
		</g>
		<g style="clip-path:url(#SVGID_00000163068748226614967760000013947450023595378084_);">
			<path d="M1126.1,773.7c5.6,2,11.5,3.6,17.3,4.7c5.7,1,11.9,1.8,17.5,0.2c2.8-0.8,5-2.9,7.1-4.8c2.1-2,4-4.4,5-7.2
				c2.5-6-1.5-11.8-6.5-15.1c12.5,7.4,9.1,18.6-0.7,26.6c-9,7.7-30.5,2.2-41-0.7C1124.8,777.5,1126.1,773.7,1126.1,773.7
				L1126.1,773.7z"/>
		</g>
		<g style="clip-path:url(#SVGID_00000163068748226614967760000013947450023595378084_);">
			<path d="M919.6,649.4c26.7-14.4,63-12.6,87.4,5.8c3.5,2.6,6.8,5.5,9.9,8.6c0,0-0.3,0.3-0.3,0.3c-5.5-3.3-11-6.7-16.8-9.5
				c-3.6-1.9-7.8-3.6-11.6-5.2c-13.7-5.8-28.8-8.2-43.7-6.4c-8.5,1-16.9,3.1-24.8,6.7C919.8,649.8,919.6,649.4,919.6,649.4
				L919.6,649.4z"/>
		</g>
		<g style="clip-path:url(#SVGID_00000163068748226614967760000013947450023595378084_);">
			<path d="M1090.3,688.2c18.5-12.1,44.2-10.2,61.7,2.8c5.7,4.4,10.7,9.7,14.7,15.7c0,0-0.3,0.2-0.3,0.2
				c-4.5-5.5-9.6-10.4-15.5-14.2c-12.2-8.1-25.5-9.6-39.8-8.1c-6.9,0.6-13.7,2-20.6,3.9L1090.3,688.2L1090.3,688.2z"/>
		</g>
		
			<ellipse style="clip-path:url(#SVGID_00000163068748226614967760000013947450023595378084_);" cx="1174" cy="722.3" rx="4" ry="5"/>
		
			<ellipse transform="matrix(0.1496 -0.9888 0.9888 0.1496 -44.9908 1563.9044)" style="clip-path:url(#SVGID_00000163068748226614967760000013947450023595378084_);fill:#FFABAB;" cx="886.6" cy="808.1" rx="60.5" ry="32.1"/>
		
			<ellipse transform="matrix(0.1496 -0.9888 0.9888 0.1496 115.4159 1880.0426)" style="clip-path:url(#SVGID_00000163068748226614967760000013947450023595378084_);fill:#FFABAB;" cx="1150.6" cy="872.9" rx="60.5" ry="26.3"/>
		<g style="clip-path:url(#SVGID_00000163068748226614967760000013947450023595378084_);">
			<defs>
				<path id="SVGID_00000156556960261487718740000001969435473888078012_" d="M900.3,891.7c0,0,123,46.9,183.6,54.5
					c0,0-35.8,75.4-100,56S897.3,916.3,900.3,891.7z"/>
			</defs>
			<clipPath id="SVGID_00000122689848345752559190000000671922630951394201_">
				<use xlink:href="#SVGID_00000156556960261487718740000001969435473888078012_"  style="overflow:visible;"/>
			</clipPath>
			<path style="clip-path:url(#SVGID_00000122689848345752559190000000671922630951394201_);fill:#050000;" d="M900.3,891.7
				c0,0,121.7,50,183.6,54.5c0,0-35.8,75.4-100,56S897.3,916.3,900.3,891.7z"/>
			<path style="clip-path:url(#SVGID_00000122689848345752559190000000671922630951394201_);fill:#EAEAEA;" d="M876.4,904.4
				c0,0,108.2,47,210.5,64.9l10.5-32.1l-194.8-62L876.4,904.4z"/>
			<path style="clip-path:url(#SVGID_00000122689848345752559190000000671922630951394201_);fill:#7A1C1C;" d="M901.1,964.1
				c0,0,94.1-30.6,142.6,41.8s-156-23.9-156-23.9L901.1,964.1z"/>
		</g>
		<path style="clip-path:url(#SVGID_00000163068748226614967760000013947450023595378084_);fill:#A02424;" d="M900.3,891.7
			c0,0,91.8-4.5,112,20.2c0,0,36.6-5.2,71.7,34.3C1084,946.2,993.6,934.3,900.3,891.7z"/>
		<g style="clip-path:url(#SVGID_00000163068748226614967760000013947450023595378084_);">
			<path class="st21" d="M997.4,858.6c14.4,0.2,30.9-1.8,40.1-13.8c5.6-7.6,8.1-18.3,4.8-27.3c-1.6-4.6-4.6-8.8-7.6-13
				c-6.4-8.6-11.6-18-10.9-29.1c0,0,0.6,0,0.6,0c0.3,10.8,5.7,19.3,12.6,27.3c5,6,10.3,13.2,11,21.5c0.7,8.4-1.3,16.9-5.8,24.1
				c-3.2,4.8-7.9,8.7-13.2,10.8c-10.3,4.1-21.7,3.8-32,0.3C997.3,859.2,997.4,858.6,997.4,858.6L997.4,858.6z"/>
		</g>
	</g>
	<g>
		<defs>
			<path id="SVGID_00000090285557376670079560000007461906697429587845_" d="M488.3,1619.5c16.4,156.8,183.6,158.3,286.6,158.3
				s291.1-61.2,518-77.6s-54.5-482.2-54.5-482.2l-14.2-16.4c-99-77.1-163.7-114-163.7-114l-27.9-22.9
				c-157.5,85.8-227.9-72.2-227.9-72.2s-191.1,0-283.7,67.2c-92.6,67.2-256.8,255.3-283.7,468.8s418,97,491.2,61.2
				c73.2-35.8,59.2-59.2,59.2-59.2s-31.8-94.1,0-174.2c0,0-141.3-36.8-278.7,8"/>
		</defs>
		<clipPath id="SVGID_00000065046437762674131380000011386987469359232700_">
			<use xlink:href="#SVGID_00000090285557376670079560000007461906697429587845_"  style="overflow:visible;"/>
		</clipPath>
		<path style="clip-path:url(#SVGID_00000065046437762674131380000011386987469359232700_);fill:#3968D1;" d="M488.3,1619.5
			c16.4,156.8,183.6,158.3,286.6,158.3s291.1-61.2,518-77.6s-54.5-482.2-54.5-482.2l-14.2-16.4c-129.9-32.8-167.1-164.1-167.1-164.1
			s157.4-86-0.1-0.1s-252.3-44.8-252.3-44.8s-191.1,0-283.7,67.2c-92.6,67.2-256.8,255.3-283.7,468.8s418,97,491.2,61.2
			c73.2-35.8,59.2-59.2,59.2-59.2s-31.8-94.1,0-174.2c0,0-141.3-36.8-278.7,8"/>
		<path style="opacity:0.54;clip-path:url(#SVGID_00000065046437762674131380000011386987469359232700_);fill:#314984;" d="
			M812.7,994c0,0-234.9,49.8-304.6,127.4c-79,88-147.3,179.2-203,329.4s67.7,208,67.7,208s-176.2,18.9-195.1-65.7
			s97.5-360.3,159.2-421C398.7,1111.4,594.8,980,662.5,980S812.7,994,812.7,994z"/>
		<path style="opacity:0.54;clip-path:url(#SVGID_00000065046437762674131380000011386987469359232700_);fill:#314984;" d="
			M487,1715.2c0,0,191.1-14.9,318-134.4c0,0,113.5,31.8,170.2-21.9c0,0-70.9,14.7-109-4.5c0,0-55.7-20.4-73.4-22.6
			c0,0-168.5,110.2-306.8,117.2L487,1715.2z"/>
		<path style="opacity:0.54;clip-path:url(#SVGID_00000065046437762674131380000011386987469359232700_);fill:#314984;" d="
			M997.1,1074.9c0,0,41.5,146.1,263.4,176.8l-14.4-119.1l-189.4-110.1L997.1,1074.9z"/>
	</g>
	<g>
		<defs>
			<polygon id="SVGID_00000136407511992968599830000016759067847659455132_" points="878.4,1302.5 916.3,1357.3 978.5,1353.3 
				919.2,1261.7 			"/>
		</defs>
		<clipPath id="SVGID_00000159428648238979357600000006169392585514158510_">
			<use xlink:href="#SVGID_00000136407511992968599830000016759067847659455132_"  style="overflow:visible;"/>
		</clipPath>
		<polygon style="clip-path:url(#SVGID_00000159428648238979357600000006169392585514158510_);fill:#0B1549;" points="878.4,1302.5 
			916.3,1357.3 978.5,1353.3 919.2,1261.7 		"/>
		<polygon style="clip-path:url(#SVGID_00000159428648238979357600000006169392585514158510_);fill:#222D5B;" points="910.8,1260.7 
			982.9,1373.7 1002.8,1349.8 935.7,1245.3 		"/>
		<g style="opacity:0.3;clip-path:url(#SVGID_00000159428648238979357600000006169392585514158510_);">
			<path class="st27" d="M928.5,1289.5c9.4,12.4,17.9,25.5,26.1,38.7c6.2,9.8,18.8,29.6,24.9,39.4c0,0-0.2,0.1-0.2,0.1
				c-6.6-9.6-19.6-29-26.1-38.7c-6.6-9.6-13.1-19.3-19-29.4c0,0-3-5-3-5c-1-1.7-2-3.4-2.9-5.1
				C928.4,1289.6,928.5,1289.5,928.5,1289.5L928.5,1289.5z"/>
		</g>
	</g>
	<g>
		<defs>
			<path id="SVGID_00000088119254498270045460000004188557828487062425_" d="M874.4,1297.5l-75.6-96.5c0,0-10.9-12.4-6-25.9
				s22.4-38.3,22.4-38.3s9-11.4,21.4,3s77.6,113.5,77.6,113.5C919.8,1262.8,879.2,1305.4,874.4,1297.5z"/>
		</defs>
		<clipPath id="SVGID_00000015331173313597891920000000015584644865595565_">
			<use xlink:href="#SVGID_00000088119254498270045460000004188557828487062425_"  style="overflow:visible;"/>
		</clipPath>
		<path style="clip-path:url(#SVGID_00000015331173313597891920000000015584644865595565_);fill:#0B1549;" d="M874.4,1297.5
			l-75.6-96.5c0,0-10.9-12.4-6-25.9s22.4-38.3,22.4-38.3s9-11.4,21.4,3s77.6,113.5,77.6,113.5
			C919.8,1262.8,879.2,1305.4,874.4,1297.5z"/>
		<path style="clip-path:url(#SVGID_00000015331173313597891920000000015584644865595565_);fill:#222D5B;" d="M785.9,1136.8
			c1.5,1,85.6,63.2,131.4,131.4c0,0,8.5-11.9,7-12.9c-1.5-1-100-139.8-100-139.8L785.9,1136.8z"/>
		<g style="opacity:0.3;clip-path:url(#SVGID_00000015331173313597891920000000015584644865595565_);">
			<path class="st27" d="M800.2,1170.8c4.1-7.5,8.1-15.2,13.1-22.2c2.3-3.6,4.7-8,9.1-9.6c5.2-1.8,8.3,3.7,10.9,7.1
				c2.1,2.8,4.1,5.5,6.1,8.3c18.3,25.9,41.5,58.5,58.7,84.7c-21.1-29.5-44.8-63-66.4-91.8c-2.1-2.6-3.8-6.1-6.6-6.6
				c-4.8-0.6-7.9,5.4-10.5,8.8c-5.3,6.8-9.5,14.2-14.1,21.5C800.3,1171,800.1,1170.9,800.2,1170.8L800.2,1170.8z"/>
		</g>
	</g>
	<path class="st31" d="M914.3,1253.2c-13.9,41.8-39.8,44.3-39.8,44.3"/>
	<path class="st31" d="M840.6,1147.7c0-1.5,15.4-9,26.9-1.5c11.4,7.5,11,40.9,12.4,54.2c1.5,13.4,10,25.4,26.9,17.4"/>
	<g>
		<path class="st27" d="M912.5,1245.8c0.1-0.1,0.1-0.1,0.2-0.1c1.4-0.1,2.8,0.2,4.1,0.7c6,2.4,4.5,6.6,2.7,11.5
			c-1.9,5.2-4,10.6-6.5,15.4c1.5-5.2,3.6-10.5,5-15.9c0.3-1.3,0.7-2.7,0.9-4c0.2-1.2,0.4-2.3-0.1-3.3
			C917.9,1248.1,914.7,1246.5,912.5,1245.8L912.5,1245.8z"/>
	</g>
	<g>
		<path class="st27" d="M853.3,1137.2c24.9-1.8,28.1,20.1,29.8,39.6c0.5,6.2,0.7,12.3,0.9,18.5c0,0.1-0.2,0.1-0.2,0
			c-0.5-6.2-1-12.3-1.7-18.4c-1.2-9-2.2-18.4-6.7-26.4c-1.3-2.2-2.8-4.4-4.5-6.3c-2.4-2.3-5.4-3.8-8.6-4.9c-2.9-0.9-6-1.6-9-1.8
			C853.2,1137.4,853.2,1137.2,853.3,1137.2L853.3,1137.2z"/>
	</g>
	<g>
		<defs>
			<path id="SVGID_00000136395565137971076360000008571598729765552773_" d="M787.9,1530.4c0,0-42.8-48.8,0-174.2
				c0,0,223.9-67.7,278.7,60.7c0,0,13.9,62.7-25.9,55.7c0,0-18.9,77.6-51.8,83.6s-81.6,14.9-121.4-2S787.9,1530.4,787.9,1530.4z"/>
		</defs>
		<clipPath id="SVGID_00000178195527888239870620000003553147671959515540_">
			<use xlink:href="#SVGID_00000136395565137971076360000008571598729765552773_"  style="overflow:visible;"/>
		</clipPath>
		<path style="clip-path:url(#SVGID_00000178195527888239870620000003553147671959515540_);fill:#FFC9AE;" d="M787.9,1530.4
			c0,0-42.8-48.8,0-174.2c0,0,223.9-67.7,278.7,60.7c0,0,13.9,62.7-25.9,55.7c0,0-18.9,77.6-51.8,83.6s-81.6,14.9-121.4-2
			S787.9,1530.4,787.9,1530.4z"/>
		<path style="opacity:0.3;clip-path:url(#SVGID_00000178195527888239870620000003553147671959515540_);fill:#F79063;" d="
			M779.4,1301.5c0,0,25.4,186.6,162.7,289.6l-177.7-29.9l-55.2-116.4L779.4,1301.5z"/>
	</g>
	<g>
		<path class="st34" d="M919.2,1384.9c38.4,0.4,81.4,12.9,105.6,44.6c1.5,1.9,3,4.5,4.3,6.5c1.3,2.3,2.5,4.6,3.7,6.9
			c0.6,1.6,2.5,5.6,3,7.2c0,0,0.8,2.5,0.8,2.5c2.3,6.5,3.4,13.4,4.2,20.1l-0.4,0.1c-0.5-1.6-1-3.3-1.4-4.9c-0.4-1.5-0.9-3.4-1.5-4.8
			c-1-2.9-2.3-6.7-3.6-9.4c-2.5-6-5.9-12.2-9.6-17.5c-0.8-1.2-2-3-2.9-4.1c-15.1-20.4-38-33.4-62.2-40.1c-13-3.7-26.5-6.1-40-6.6
			C919.2,1385.3,919.2,1384.9,919.2,1384.9L919.2,1384.9z"/>
	</g>
	<g>
		<path class="st34" d="M909.3,1447.6c8.6,0,17.3,1.8,25.6,4.2c13.9,3.9,27.1,10.3,39.5,17.6c12.3,7.4,24.3,16.1,34.4,26.4
			c6.2,6,11.8,12.7,17.1,19.5c0,0-0.3,0.3-0.3,0.3c-4.4-3.8-8.6-7.7-12.7-11.6c-3.7-3.1-7.6-6.6-11.3-9.9
			c-9.3-7.5-18.8-15.5-28.8-22c-13.1-8.5-27.4-15.6-42.4-20.1c-6.9-2-13.9-3.6-21-4C909.3,1448,909.3,1447.6,909.3,1447.6
			L909.3,1447.6z"/>
	</g>
	<g>
		<path class="st34" d="M994.8,1553.5c-18.1-4.1-35.5-11.1-52.1-19.4c-16.7-8.1-32.8-17.8-46.5-30.4c0,0,0.2-0.3,0.2-0.3
			c16.2,9,31.8,18.7,47.8,27.9c8.1,4.5,16.3,8.5,24.7,12.3c8.4,3.7,17.1,6.9,26,9.5C994.9,1553.1,994.8,1553.5,994.8,1553.5
			L994.8,1553.5z"/>
	</g>
	<g>
		<path class="st35" d="M506.8,1357.9c78.7-20.3,166.6-24.4,246.7-11c11.7,1.9,23.3,4.4,34.9,7.1c1.4,0.3,2.2,1.8,1.6,3.1
			c-12.2,35.1-20.4,72.3-19.2,109.6c0.8,21.7,6,44.5,19.6,61.6c1.1,1.4,0.9,3.4-0.4,4.6c-26.7,22.6-56.9,40.8-88,56.7
			c-54.5,27.5-113.5,45.7-173.6,55.9c-42.8,7-86.5,10-129.8,8.7c-0.2,0-0.4-0.2-0.4-0.4c0-0.2,0.2-0.4,0.4-0.4
			c47.5-1.5,94.9-6.8,141.4-16.7c19.6-4.1,40.3-9.6,59.4-15.3c62.4-19.6,123.4-46.5,176.2-85.6c3.4-2.6,6.8-5.3,9.9-7.9
			c0,0-0.4,4.6-0.4,4.6c-9.6-12.4-15.3-27.4-18-42.7c-5.3-30.2-1.3-61.2,5.4-90.8c3.5-14.8,7.7-29.3,13-43.6c0,0,1.6,3.1,1.6,3.1
			c-22.8-5.7-46-9.9-69.4-12.6c-46.8-5.4-94.3-5-141.2,0.3c-23.4,2.7-46.8,6.5-69.7,12.4c-0.2,0.1-0.4-0.1-0.5-0.3
			C506.5,1358.1,506.6,1357.9,506.8,1357.9L506.8,1357.9z"/>
	</g>
	<g>
		<defs>
			<path id="SVGID_00000120534106755499100250000002553042796718223543_" d="M825.7,1012.9c0,0-52.3-253.3,20.9-360.8
				c0,0,20.9-37.3,104.5-37.3c83.6,0,103,23.9,140.3-10.5c0,0,1.5,37.3,67.2,62.7c0,0,44.8,41.8,23.9,164.2
				c-21.1,123.3-106,200.8-156,226.2c0,0,76.9,123.2,197.8,144.1c0,0,85.1-50.8,170.2-23.9c0,0-141.8-56.7-153.8-444.9
				S933.2,432.6,906.3,441.6c-26.9,9-291.1,37.3-322.5,585.2C583.8,1026.8,761,969.1,825.7,1012.9z"/>
		</defs>
		<clipPath id="SVGID_00000083787496760784470510000016635631883030439838_">
			<use xlink:href="#SVGID_00000120534106755499100250000002553042796718223543_"  style="overflow:visible;"/>
		</clipPath>
		<path style="clip-path:url(#SVGID_00000083787496760784470510000016635631883030439838_);fill:#090B23;" d="M825.7,1012.9
			c0,0-52.3-253.3,20.9-360.8c0,0,20.9-37.3,104.5-37.3c83.6,0,103,23.9,140.3-10.5c0,0,1.5,37.3,67.2,62.7
			c0,0,44.8,41.8,23.9,164.2c-21.1,123.3-103.8,200.1-156,226.2c0,0,76.9,123.2,197.8,144.1c0,0,85.1-50.8,170.2-23.9
			c0,0-141.8-56.7-153.8-444.9S933.2,432.6,906.3,441.6c-26.9,9-291.1,37.3-322.5,585.2C583.8,1026.8,761,969.1,825.7,1012.9z"/>
		<path style="clip-path:url(#SVGID_00000083787496760784470510000016635631883030439838_);fill:#1E2344;" d="M592.8,708.1
			c0,0,62.7-67.2,105.3-20.2c42.5,47,78.4-13.4,105.3-9c26.9,4.5,78.4,2.2,100.8,58.2l-22.4,159c0,0-51.5-58.2-85.1-53.7
			c-33.6,4.5-51.5,31.4-85.1,24.6c-33.6-6.7-47-49.3-80.6-44.8c-33.6,4.5-76.1,33.6-76.1,33.6L592.8,708.1z"/>
		<path style="clip-path:url(#SVGID_00000083787496760784470510000016635631883030439838_);fill:#1E2344;" d="M1047.4,804.4
			c0,0,62.7-67.2,105.3-20.2s78.4-13.4,105.3-9c26.9,4.5,78.4,2.2,100.8,58.2l-22.4,159c0,0-51.5-58.2-85.1-53.7
			c-33.6,4.5-51.5,31.4-85.1,24.6s-47-49.3-80.6-44.8c-33.6,4.5-76.1,33.6-76.1,33.6L1047.4,804.4z"/>
	</g>
	<polygon class="st38" points="930.2,1624 1170.5,1182.1 1488.5,1346.3 1303.4,1706.1 	"/>
	<path class="st39" d="M1488.5,1346.3c0,0,67.2,34.3,110.5-17.9L1402,1722.5c0,0-53.7,29.9-98.5-16.4L1488.5,1346.3z"/>
	<polygon class="st38" points="1723.4,1129.3 1537.8,1568.8 1402,1722.5 1599,1328.4 	"/>
	<polygon class="st40" points="1710.2,1124.6 1629.9,1270.7 1644.8,1267.2 1723.4,1129.3 	"/>
	<polygon class="st40" points="1170.5,1182.1 1488.5,1346.3 1484.1,1334.4 1179.5,1178.4 	"/>
	<path class="st40" d="M1484.1,1334.4c0,0,34.3,18.7,57.5,14.9c23.1-3.7,53-26.1,53-26.1l-3.7,15.7c0,0-30.6,20.9-48.5,20.2
		c-17.9-0.7-41.1-6-53.7-12.7L1484.1,1334.4z"/>
	<g>
		<defs>
			<path id="SVGID_00000059997746204010667930000000407129639419324813_" d="M1676.7,1413.5c0,0-64.2,34.3-80.6,11.9
				c-16.4-22.4-13.4-147.8,26.9-165.7c40.3-17.9,64.2-22.4,76.1-74.6c0,0,32.8,1.5,46.3,47.8S1717,1391.1,1676.7,1413.5z"/>
		</defs>
		<clipPath id="SVGID_00000110450585152990842480000010065282366088743355_">
			<use xlink:href="#SVGID_00000059997746204010667930000000407129639419324813_"  style="overflow:visible;"/>
		</clipPath>
		<path style="clip-path:url(#SVGID_00000110450585152990842480000010065282366088743355_);fill:#FFC9AE;" d="M1676.7,1413.5
			c0,0-64.2,34.3-80.6,11.9c-16.4-22.4-13.4-147.8,26.9-165.7c40.3-17.9,64.2-22.4,76.1-74.6c0,0,32.8,1.5,46.3,47.8
			S1717,1391.1,1676.7,1413.5z"/>
		<path style="opacity:0.3;clip-path:url(#SVGID_00000110450585152990842480000010065282366088743355_);fill:#F79063;" d="
			M1661,1185.1c0,0,78.4,141.1,40.3,230.7c0,0,89.6-114.2,76.1-208.3C1764,1113.4,1661,1185.1,1661,1185.1z"/>
	</g>
	<g>
		<g>
			<path class="st34" d="M1590.6,1325c31.3-5.6,62.4-16.5,87.5-36.5c8.4-6.6,16-14.2,22.8-22.4c0,0,0.2,0.2,0.2,0.2
				c-6.5,8.5-13.9,16.4-22.1,23.4c-20.7,17.2-45.7,29.8-72.4,34.2c-5.3,0.9-10.7,1.5-16.1,1.5
				C1590.6,1325.3,1590.6,1325,1590.6,1325L1590.6,1325z"/>
		</g>
		<g>
			<path class="st34" d="M1586.6,1366.6c25.3,3.8,52.2-2.8,74.7-14.6c11.4-6.1,22-13.8,31.6-22.5c9.7-8.6,18.5-18.3,26.5-28.6
				l0.2,0.2c-15.4,21-34.3,40.1-57.1,53c-17.1,9.8-36.6,16-56.5,15.6c-6.6-0.1-13.2-0.8-19.5-2.8
				C1586.5,1366.9,1586.6,1366.6,1586.6,1366.6L1586.6,1366.6z"/>
		</g>
		<g>
			<path class="st34" d="M1588.6,1402.9c17.9,8.4,39.1,7.3,57.3,0.6c18.4-7.2,35-18.9,50-31.5c9.8-8.7,19.5-18.3,25.3-30.3
				c0,0,0.3,0.1,0.3,0.1c-1.3,3.1-3,6-4.8,8.8c-5.5,8.4-12.4,15.7-19.7,22.5c-9.9,9-20.7,16.8-32.1,23.8
				c-8.4,5.4-17.7,9.9-27.5,12.4c-9.8,2.5-20.2,3-30.2,1c-6.6-1.3-13.1-3.5-18.7-7.2C1588.5,1403.2,1588.6,1402.9,1588.6,1402.9
				L1588.6,1402.9z"/>
		</g>
	</g>
	<g>
		<g>
			<path class="st43" d="M1206.4,1329.4c-0.3,0.2-3.2,2.4-6.7,0.9c-10.2-4.4-3.4-16.4,0.6-24.1c8.5-16.3,5.6-21.2-0.7-24.2
				c-2-0.9-2.9-1.4-4.9-2.3c-6.7,13-13.4,25.9-19.6,39.1c2.2,0.9,3.3,1.3,5.5,2.2c-0.1,0.2-0.1,0.2-0.2,0.4
				c-6.7-2.7-10.1-4-16.7-6.7c0.1-0.2,0.1-0.2,0.2-0.4c2.2,0.9,3.3,1.3,5.4,2.2c11.7-24.8,25.7-48.5,36.7-73.6c-2-1-3.1-1.5-5.1-2.6
				c0-0.1,0.1-0.2,0.1-0.3c6.2,3.1,9.3,4.7,15.7,7.8c8.3,4.1,14,8.7,7.4,22.1c-5.3,10.7-13.6,15.3-20.7,13.4
				c10.2,6.9,5.3,22.1,0.7,30.7c-6,11.2-6.2,14.6-2.8,15.9c2,0.8,4.4-0.6,5-1C1206.3,1329.1,1206.3,1329.2,1206.4,1329.4z
				 M1201.1,1282c6.3,2.9,12.8-6.3,17-14.9c4.9-9.9,5.5-15.4-1.5-18.9c-2.1-1-3.2-1.6-5.3-2.6c-5,11.4-10.8,22.4-16.5,33.5
				C1197.4,1280.2,1198.6,1280.8,1201.1,1282z"/>
			<path class="st43" d="M1250,1325.4c-4.8,9.5-7.1,14-9.7,19.9c-11.4-4.5-22.9-9-34.3-13.6c0.1-0.1,0.1-0.2,0.2-0.4
				c2.2,0.9,3.4,1.3,5.6,2.2c11-23.9,24.2-46.7,34.8-70.7c-2.2-1-3.2-1.6-5.4-2.6c0.1-0.1,0.1-0.2,0.1-0.3c10.3,5,20.6,9.9,31,14.8
				c-1.8,4.3-3.4,7.5-6.9,14.7c-0.1-0.1-0.2-0.1-0.3-0.1c4.6-10.7,3-16.2-4-19.5c-3.5-1.7-5.2-2.5-8.6-4.1
				c-4.7,10.7-10.1,21.1-15.4,31.6c1.5,0.7,2.2,1,3.7,1.7c6.3,2.9,12-2.9,16.9-12c0.1,0.1,0.2,0.1,0.3,0.1
				c-5.5,11.1-11.2,22.1-16.8,33.2c-0.1-0.1-0.2-0.1-0.3-0.1c4.7-10,5.9-17.7-0.4-20.5c-1.5-0.7-2.2-1-3.7-1.7
				c-6.4,12.6-13,25.2-18.9,38.1c4.5,1.8,6.8,2.7,11.3,4.5c10.2,2.4,16.6-6.9,20.6-15.2C1249.9,1325.3,1249.9,1325.3,1250,1325.4z"
				/>
			<path class="st43" d="M1291.9,1346.2c-5.9,7.9-15.3,13.9-25.3,10.1c-19.6-7.6-10.7-32.1-4.3-44.5c6.5-12.8,20.2-33.2,38.5-24.3
				c5,2.4,7.8,6.9,10.7,8.3c1.6,0.8,2.6,0.4,3.6-0.5c0.1,0.1,0.2,0.1,0.3,0.1c-2.4,5.4-4.6,9.6-9.1,18.6c-0.1-0.1-0.2-0.1-0.3-0.1
				c3.5-8.7,4.7-21.3-5.3-26.1c-14.9-7.1-27,16.8-32.1,26.8c-5,9.8-18.6,34.7-1.8,41.4c9.9,3.9,19-2.8,24.7-10.5
				C1291.6,1345.8,1291.7,1346,1291.9,1346.2z"/>
			<path class="st43" d="M1331.9,1303.3c-10.3,21.9-22.4,42.9-32.7,64.8c2.3,0.9,3.4,1.4,5.7,2.3c-0.1,0.1-0.1,0.2-0.1,0.3
				c-7-2.8-10.5-4.2-17.6-7c0.1-0.1,0.1-0.2,0.1-0.3c2.3,0.9,3.5,1.4,5.8,2.3c10.4-22,22.5-43.2,32.9-65.2c-2.3-1.1-3.4-1.6-5.7-2.7
				c0.1-0.1,0.1-0.2,0.1-0.3c6.9,3.3,10.3,4.9,17.2,8.1c-0.1,0.1-0.1,0.2-0.1,0.3C1335.2,1304.9,1334.1,1304.3,1331.9,1303.3z"/>
			<path class="st43" d="M1364.9,1338c-4.8,8.8-14.8,17.6-25.8,12.7c-2.3-1-3.5-1.5-5.8-2.6c-4.8,9.3-9.7,18.5-14.1,27.9
				c2.3,0.9,3.4,1.4,5.7,2.3c-0.1,0.1-0.1,0.2-0.1,0.3c-7-2.8-10.5-4.2-17.6-7c0.1-0.1,0.1-0.2,0.1-0.3c2.3,0.9,3.5,1.4,5.8,2.3
				c10.3-21.6,22.1-42.3,32.4-63.9c-2.2-1.1-3.4-1.6-5.6-2.7c0.1-0.1,0.1-0.2,0.1-0.3c6.5,3.1,9.8,4.6,16.2,7.7
				C1366.3,1318.4,1370.1,1328.5,1364.9,1338z M1358.8,1335.1c4.7-9,6.4-16-2.6-20.3c-1.9-0.9-2.8-1.3-4.7-2.2
				c-5.7,11.8-11.8,23.4-17.9,35c2.3,1,3.4,1.5,5.6,2.5C1347.5,1353.7,1354.2,1344.1,1358.8,1335.1z"/>
			<path class="st43" d="M1385.9,1383.2c-4,8-5.9,11.7-8.2,16.8c-11.2-4.6-22.5-9.1-33.8-13.7c0.1-0.1,0.1-0.2,0.1-0.3
				c2.2,0.9,3.4,1.4,5.6,2.3c9.9-20.8,21.3-40.9,31.3-61.6c-2.2-1-3.2-1.5-5.4-2.6c0.1-0.1,0.1-0.2,0.2-0.3
				c10,4.8,20.1,9.6,30.1,14.5c-2.1,4.5-3.6,7.6-6.9,14c-0.1-0.1-0.2-0.1-0.3-0.1c4.2-9.6,3.3-15.4-3.6-18.7c-3.3-1.6-5-2.4-8.4-4
				c-4.7,9.7-9.7,19.2-14.6,28.8c1.4,0.7,2.2,1,3.6,1.6c6.2,2.8,11.2-2,15.7-10.1c0.1,0.1,0.2,0.1,0.3,0.1
				c-4.9,9.5-9.8,19-14.6,28.4c-0.1-0.1-0.2-0.1-0.3-0.1c3.9-8.4,4.8-15.1-1.4-17.9c-1.4-0.7-2.2-1-3.6-1.6
				c-5.5,10.6-11.1,21.2-16.2,32c4.5,1.8,6.7,2.7,11.2,4.5c7.1,2.9,13.1-1.7,18.8-12.1C1385.8,1383.1,1385.8,1383.2,1385.9,1383.2z"
				/>
			<path class="st43" d="M1419.3,1400.5c-5,9.9-12.2,12.3-21.6,8.4c-4.9-2-7.8-6.3-10.6-7.4c-1.6-0.6-2.9,0.3-3.7,1.1
				c-0.1,0-0.2-0.1-0.3-0.1c2.3-5.1,4.2-9.1,8.4-17.3c0.1,0.1,0.2,0.1,0.3,0.1c-3.6,11-2.5,19.8,6,23.3c6.5,2.7,11.6,1.9,15.4-6.2
				c3.8-8-0.2-13.7-4.5-21.9c-4.8-9.1-5.8-15.8-1.2-25c4.7-9.3,12.3-11.3,19-8c4.8,2.4,5.2,6,7.4,7c1.4,0.7,2.1,0.1,3-0.8
				c0.1,0.1,0.2,0.1,0.3,0.1c-2.1,4.7-3.5,7.7-6.6,14c-0.1,0-0.1-0.1-0.2-0.1c3.3-10.8,2-17.1-4-20c-5.7-2.8-10.2-0.3-12.8,4.9
				c-2.3,4.6-3.2,10.4,2.3,19.2C1421.2,1380.5,1424,1391.1,1419.3,1400.5z"/>
		</g>
	</g>
	<g>
		<polygon class="st44" points="483.1,586.6 495.9,610.5 476.8,591.4 465.5,606.9 469.5,591.4 449.8,592.6 465.8,581.9 454.2,561.5 
			472.9,574.3 483.7,559.4 484.1,576.4 503.6,579.5 		"/>
	</g>
	<g>
		<g>
			<path class="st45" d="M477.6,586.8c-1.5,2.7-5.2,1-6.8-1.5c-1.9-2.3-1.5-7.2,1.2-7.7C470.6,581.5,473.8,586.8,477.6,586.8
				L477.6,586.8z"/>
		</g>
	</g>
	<g>
		<g>
			<g>
				<g>
					<defs>
						<path id="SVGID_00000073682404542337253050000007171512299356730502_" d="M1363.2,628.1c5.1-64.2,141.2-64.4,108.2,61.2
							c-32.9,125.2,82.8,316.2,91.2,338.6c8.4,22.4,24.8,69.7-24.3,100.4c-49.1,30.8-90.3-24.7-90.3-24.7
							C1349.3,940.5,1357.6,692.7,1363.2,628.1z"/>
					</defs>
					<clipPath id="SVGID_00000140013058816581027120000000192793765364916616_">
						<use xlink:href="#SVGID_00000073682404542337253050000007171512299356730502_"  style="overflow:visible;"/>
					</clipPath>
					<g style="clip-path:url(#SVGID_00000140013058816581027120000000192793765364916616_);">
						<path class="st5" d="M1363.2,628.1c5.1-64.2,141.2-64.4,108.2,61.2c-32.9,125.2,82.8,316.2,91.2,338.6
							c8.4,22.4,24.8,69.7-24.3,100.4c-49.1,30.8-90.3-24.7-90.3-24.7C1349.3,940.5,1357.6,692.7,1363.2,628.1z"/>
					</g>
				</g>
			</g>
			<g>
				<g>
					<defs>
						<path id="SVGID_00000030446884143850564380000001415361637267331969_" d="M1363.2,628.1c5.1-64.2,141.2-64.4,108.2,61.2
							c-32.9,125.2,82.8,316.2,91.2,338.6c8.4,22.4,24.8,69.7-24.3,100.4c-49.1,30.8-90.3-24.7-90.3-24.7
							C1349.3,940.5,1357.6,692.7,1363.2,628.1z"/>
					</defs>
					<clipPath id="SVGID_00000001652271216042795670000014143431856405813910_">
						<use xlink:href="#SVGID_00000030446884143850564380000001415361637267331969_"  style="overflow:visible;"/>
					</clipPath>
					<g style="clip-path:url(#SVGID_00000001652271216042795670000014143431856405813910_);">
						<path class="st48" d="M1443.8,586.3c2.6,2.4,5,4.3,7.1,6c3.9,3.1,6.9,5.5,9.1,9.1c2.3,3.8,3.4,8.7,3.6,15.9
							c0.2,7.5-0.6,18.2-2.6,33.5c-1.8,14.2-4.6,32.6-9.4,61.7c-1.1,6.4-1.8,13-2.3,19.6c-1.7,23.7,0.1,48.3,4.4,73
							c-2.8-16-4.5-31.6-5-46.2c-0.5-16.3,0.4-31.9,2.8-46.4c8.1-49.5,12.4-79.3,12-95.2c-0.4-15.2-5-18.9-12.6-25
							C1448.7,590.7,1446.3,588.8,1443.8,586.3L1443.8,586.3z M1546.2,1031.5c6.5,10.8,11.5,22.1,14.8,33.5
							c2.6,9.1,4.2,18.4,4.7,27.5c0.8,15.5-1.9,25.4-1.9,25.5l-0.1,0c0-0.1,2.7-10,1.9-25.5
							C1564.8,1078.2,1560.8,1056,1546.2,1031.5c-10.8-17.7-20.4-35-29.7-52.8c-13.8-26.6-25.7-53-35.5-78.4
							C1501,951.9,1526.4,998.6,1546.2,1031.5z"/>
					</g>
				</g>
			</g>
			<g>
				<g>
					<defs>
						<path id="SVGID_00000158727118910105016810000008941311027350374553_" d="M1363.2,628.1c5.1-64.2,141.2-64.4,108.2,61.2
							c-32.9,125.2,82.8,316.2,91.2,338.6c8.4,22.4,24.8,69.7-24.3,100.4c-49.1,30.8-90.3-24.7-90.3-24.7
							C1349.3,940.5,1357.6,692.7,1363.2,628.1z"/>
					</defs>
					<clipPath id="SVGID_00000089567523444040551570000009469430192105456809_">
						<use xlink:href="#SVGID_00000158727118910105016810000008941311027350374553_"  style="overflow:visible;"/>
					</clipPath>
					<g style="clip-path:url(#SVGID_00000089567523444040551570000009469430192105456809_);">
						<path class="st48" d="M1440.2,573.2c2.7,2.2,3.6,12,2.7,30.9c-0.8,17.1-2.9,40.4-5.2,65.1c-2.2,24-4.7,51.2-6.4,77
							c-1.9,29.4-2.3,52.7-1.3,71c1.8,34.1,14.1,78,36.4,130.5c18.3,43,39.2,81.8,50.4,102.6c1,1.9,2,3.6,2.8,5.2
							c10.5,19.3,17.4,39.3,21.4,52.6c4.3,14.4,6.1,24.4,6.1,24.5l0.1,0c0-0.1-1.9-10.1-6.1-24.5c-4-13.3-10.9-33.3-21.4-52.6
							c-0.9-1.6-1.8-3.4-2.8-5.2c-22.6-42-82.6-153.5-86.8-233.1c-1.3-24.2,0-53.9,2.2-84.5c1.5-21.2,3.5-42.9,5.4-63.4
							c2.3-24.7,4.4-48,5.2-65.1C1443.9,585.2,1443,575.3,1440.2,573.2L1440.2,573.2z"/>
					</g>
				</g>
			</g>
			<g>
				<g>
					<defs>
						<path id="SVGID_00000068650505355752490910000013800834696312734880_" d="M1363.2,628.1c5.1-64.2,141.2-64.4,108.2,61.2
							c-32.9,125.2,82.8,316.2,91.2,338.6c8.4,22.4,24.8,69.7-24.3,100.4c-49.1,30.8-90.3-24.7-90.3-24.7
							C1349.3,940.5,1357.6,692.7,1363.2,628.1z"/>
					</defs>
					<clipPath id="SVGID_00000062912270703307034830000006418101838427173562_">
						<use xlink:href="#SVGID_00000068650505355752490910000013800834696312734880_"  style="overflow:visible;"/>
					</clipPath>
					<g style="clip-path:url(#SVGID_00000062912270703307034830000006418101838427173562_);">
						<path class="st48" d="M1377,679.6c-2.3,32.2-2,67.4,0.9,104.8c2.8,36,8.1,73.8,15.6,112.5c6.3,32.2,14.1,65,22.8,94.8
							c7.3,25.3,15,47.7,21.5,63.1c5.5,12.9,12.5,26.2,20.9,39.6c6.7,10.7,14.2,21.4,22.3,31.8c13.9,17.8,24.9,28.8,25.1,28.9
							l0.1-0.1c-0.1-0.1-11.2-11.1-25-28.9c-12.8-16.4-30.7-42.1-43.2-71.4c-24.1-56.5-71.6-226.9-60.8-375
							c0.3-3.8,0.6-7.6,0.9-11.4c4.7-50,10.9-88.5,18.4-114.3c6.2-21.2,11.8-29.3,15.5-32.3c2.1-1.7,3.4-1.6,3.4-1.6l0-0.1
							c-0.1,0-1.3-0.1-3.5,1.6c-3.7,3-9.4,11.1-15.6,32.3c-7.5,25.9-13.7,64.4-18.4,114.4C1377.6,672.1,1377.3,675.8,1377,679.6z"/>
					</g>
				</g>
			</g>
			<g>
				<g>
					<defs>
						<path id="SVGID_00000060749376773470730430000011483481078635031945_" d="M1363.2,628.1c5.1-64.2,141.2-64.4,108.2,61.2
							c-32.9,125.2,82.8,316.2,91.2,338.6c8.4,22.4,24.8,69.7-24.3,100.4c-49.1,30.8-90.3-24.7-90.3-24.7
							C1349.3,940.5,1357.6,692.7,1363.2,628.1z"/>
					</defs>
					<clipPath id="SVGID_00000015317117388958311050000004526073223857078962_">
						<use xlink:href="#SVGID_00000060749376773470730430000011483481078635031945_"  style="overflow:visible;"/>
					</clipPath>
					<g style="clip-path:url(#SVGID_00000015317117388958311050000004526073223857078962_);">
						<path class="st48" d="M1408.4,566.4c0,0.1,2.5,8.3,4.1,23.1c1.4,13.6,2.3,35.8-1.6,63.9c-3.4,24.5-4.4,72.1-2.7,127.2
							c1.7,51.9,5.5,98.7,9.7,119.3c2.9,14.7,10.4,36.3,22.9,66.1c10.7,25.4,23.2,52.6,33.3,74.3c6.3,13.6,11.7,25.3,15.5,34
							c15.3,36.6,37.7,71.9,37.9,72.2l0.1-0.1c-0.2-0.4-22.6-35.6-37.9-72.2c-3.7-8.6-9.2-20.4-15.5-34
							c-21-45.3-49.7-107.2-56.2-140.5c-4.2-20.6-8.1-67.4-9.7-119.3c-1.8-55.1-0.8-102.6,2.7-127.2c1.7-12.4,2.7-24.7,2.8-36.5
							c0.1-9.5-0.3-18.7-1.2-27.4C1411,574.7,1408.5,566.5,1408.4,566.4L1408.4,566.4z"/>
					</g>
				</g>
			</g>
		</g>
		<g>
			<path class="st48" d="M1456.4,584.9c-3.6-0.7-2.8-0.2-3.7-4.3c-0.9-4.1-3.3-5.1-7.3-5c-4.1,0.5-6.4-0.9-9.3-5.5s-6.5,0.3-9.3,0.1
				s-7.6-11.9-10.8-7.7c-3.1,4.2,1.1,23.1,1.1,23.1c20.2-0.1,35.9,11.9,35.9,11.9S1460,585.5,1456.4,584.9z"/>
		</g>
	</g>
	<path class="st52" d="M216.6,1238.8c0,0-53.7-87.3-20.2-203.8c0,0,14.2-55.5,62.7-82.9c50.3-28.4,47.5-97.6,62-104
		c9-4,25.4-8,23.1,48c-2.2,56-3.9,101.5,11.2,152.3c15.9,53.5,4.1,169.7-40.3,203.8C289.2,1272.2,247.9,1272.4,216.6,1238.8z"/>
	<g>
		<defs>
			<ellipse id="SVGID_00000103262048926157973550000016678777279513725115_" cx="291.2" cy="1125.4" rx="44.8" ry="86.6"/>
		</defs>
		<clipPath id="SVGID_00000097459865831569320910000013343399340570377362_">
			<use xlink:href="#SVGID_00000103262048926157973550000016678777279513725115_"  style="overflow:visible;"/>
		</clipPath>
		
			<ellipse style="clip-path:url(#SVGID_00000097459865831569320910000013343399340570377362_);fill:#4C2A09;" cx="291.2" cy="1125.4" rx="44.8" ry="86.6"/>
		<path style="clip-path:url(#SVGID_00000097459865831569320910000013343399340570377362_);fill:#2D1705;" d="M293.7,1034.3
			c0,0-61.2,69.2-25.4,170.7l-62.7-81.6l39.8-64.2L293.7,1034.3z"/>
	</g>
	<g>
		<path class="st27" d="M974.7,697c2-1.4,4.3,0.8,5.3,2.4c3.3,5.4,2.4,12.1,2,18c-0.7,8-2.1,15.9-4.7,23.5c0,0-0.2-0.1-0.2-0.1
			c2.4-9.6,3.5-19.5,3.2-29.4c-0.3-4.6,0.3-10-3.1-13.6c-0.6-0.6-1.6-1-2.5-0.7C974.8,697.1,974.7,697,974.7,697L974.7,697z"/>
	</g>
	<g>
		<path class="st27" d="M1120.2,737.1c2-1.4,4.3,0.8,5.3,2.4c3.3,5.4,2.4,12.1,2,18c-0.7,8-2.1,15.9-4.7,23.5c0,0-0.2-0.1-0.2-0.1
			c2.4-9.6,3.5-19.5,3.2-29.4c-0.3-4.6,0.3-10-3.1-13.6c-0.6-0.6-1.6-1-2.5-0.7C1120.3,737.3,1120.2,737.1,1120.2,737.1
			L1120.2,737.1z"/>
	</g>
	<g class="st55">
		<path class="st56" d="M1013.7,915.2c20.2-2.3,40.3,7.5,55.1,20.7c0,0-0.1,0.2-0.1,0.2c-11.6-9.4-25.5-15.8-40.2-18.5
			c-4.8-1-9.8-1.7-14.8-2.2L1013.7,915.2L1013.7,915.2z"/>
	</g>
	<g class="st55">
		<path class="st56" d="M1009.4,913.6c-5.6-2.9-11.3-5.8-17.1-8c-17.9-6.2-37-8-55.8-10.4c0,0,0-0.2,0-0.2c12.6,0.9,25.3,2,37.9,4.1
			c9.4,1.4,19,3.8,27.2,8.9c2.7,1.6,5.4,3.4,7.9,5.3C1009.5,913.4,1009.4,913.6,1009.4,913.6L1009.4,913.6z"/>
	</g>
	<g>
		<path class="st57" d="M806.4,1359.8c42.7-10.6,86.9-16.7,131-14.4c4.5,0.5,11.1,0.8,15.5,1.5c33.6,3.8,66.4,18.9,89.7,43.5
			c0,0-0.2,0.2-0.2,0.2c-3.9-3.4-7.8-6.7-12-9.8c-5.2-3.8-10.5-7.4-16.2-10.5C952.5,1335.1,872.7,1346.7,806.4,1359.8L806.4,1359.8z
			"/>
	</g>
	<g>
		<path class="st58" d="M974.9,1558.3c49.1-90.8,148-273.4,197.2-364.2c0.5-1,1.8-1.4,2.8-0.9c40.3,20.7,85.2,44.1,125.2,65.3
			c10.3,5.5,31.2,16.6,41.5,22.2c0.1,0.1,0.1,0.2,0.1,0.3c-0.1,0.1-0.2,0.1-0.3,0.1c-10.6-5.1-31.7-15.5-42.3-20.7
			c-40.6-20.1-85.9-42.8-126.2-63.4c0,0,2.8-0.9,2.8-0.9C1125.7,1285.9,1025.1,1470.1,974.9,1558.3L974.9,1558.3z"/>
	</g>
	<g class="st59">
		<path class="st60" d="M1317.3,1693.1c55.3-106.8,117-229.3,173.5-335.1c0.5-0.9,1.6-1.1,2.4-0.6c16,10.1,35.7,15.8,54.6,12.4
			c6.3-1.1,12.4-3.4,18.1-6.4c0.1-0.1,0.2,0,0.3,0.1c0,0.1,0,0.2-0.1,0.3c-5.5,3.4-11.6,6-18,7.4c-19.4,4.4-40-0.8-56.8-11
			c0,0,2.4-0.6,2.4-0.6C1439,1465.6,1373.7,1588.8,1317.3,1693.1L1317.3,1693.1z"/>
	</g>
	<g>
		<path class="st57" d="M1705.8,1189.6c9.5,4.3,17.8,11,24.4,19c17.3,20.7,15.8,50,10.8,74.9c-1.1,5.1-2.3,10.1-3.9,15
			c3.9-22.3,7.1-46.2,1.4-68.3C1733.5,1213,1720.9,1198.8,1705.8,1189.6L1705.8,1189.6z"/>
	</g>
</g>
</svg>
