<?xml version="1.0" encoding="utf-8"?>
<!-- Generator: Adobe Illustrator 26.5.0, SVG Export Plug-In . SVG Version: 6.00 Build 0)  -->
<svg version="1.1" id="Livello_1" xmlns="http://www.w3.org/2000/svg" xmlns:xlink="http://www.w3.org/1999/xlink" x="0px" y="0px"
	 viewBox="0 0 3865.5 3865.5" style="enable-background:new 0 0 3865.5 3865.5;" xml:space="preserve">
<style type="text/css">
	.st0{opacity:9.000000e-02;fill:#00FF00;enable-background:new    ;}
	.st1{opacity:0.15;clip-path:url(#SVGID_00000164503938613379653770000005566856497568800688_);}
	.st2{clip-path:url(#SVGID_00000164503938613379653770000005566856497568800688_);}
	.st3{fill:#073505;}
	.st4{fill:#DCFF71;}
	.st5{fill:#4C2A09;}
	.st6{clip-path:url(#SVGID_00000172411625570840997730000016092251240833040299_);fill:#0D8543;}
	
		.st7{clip-path:url(#SVGID_00000160160114989760375130000007785490603298582686_);fill:none;stroke:#98ED9C;stroke-width:0.5;stroke-miterlimit:10;}
	
		.st8{clip-path:url(#SVGID_00000064316299455382470270000010930210822012776075_);fill:none;stroke:#98ED9C;stroke-width:0.5;stroke-miterlimit:10;}
	
		.st9{clip-path:url(#SVGID_00000016778753316684255580000016199262735327337382_);fill:none;stroke:#98ED9C;stroke-width:0.5;stroke-miterlimit:10;}
	
		.st10{clip-path:url(#SVGID_00000003105648064863775300000004971652773665870262_);fill:none;stroke:#98ED9C;stroke-width:0.5;stroke-miterlimit:10;}
	.st11{fill:#0D8543;}
	.st12{fill:#FF8F1F;}
	.st13{fill:#FFB069;}
	.st14{clip-path:url(#SVGID_00000176724280612590449040000001077838360842345605_);fill:#0D8543;}
	
		.st15{clip-path:url(#SVGID_00000057127495452570393960000015603546055222642093_);fill:none;stroke:#98ED9C;stroke-width:0.5;stroke-miterlimit:10;}
	
		.st16{clip-path:url(#SVGID_00000109023298770322651970000012614608144931167160_);fill:none;stroke:#98ED9C;stroke-width:0.5;stroke-miterlimit:10;}
	
		.st17{clip-path:url(#SVGID_00000013881788477858653400000014535707280074201261_);fill:none;stroke:#98ED9C;stroke-width:0.5;stroke-miterlimit:10;}
	
		.st18{clip-path:url(#SVGID_00000133488761371536661950000010070725101482518668_);fill:none;stroke:#98ED9C;stroke-width:0.5;stroke-miterlimit:10;}
	.st19{fill:#98ED9C;}
	.st20{fill:#FF4040;}
	.st21{fill:#298419;}
	.st22{fill:#226D13;}
</style>
<path class="st0" d="M518.3,1137.9c0,0-381.2,45.7-442.2,350.7S289.6,2007,182.9,2556s884.4,1006.4,1265.6,640.4
	s777.6-518.4,1540-365.9s975.9-792.9,747.1-991.1c-228.7-198.2-991.1-335.5-1097.8-579.4s-594.7-762.4-975.9-625.2
	S1250.2,1153.2,518.3,1137.9z"/>
<g>
	<defs>
		<path id="SVGID_1_" d="M3705.9,2457l-1.2,0c0,0.1,0.1,6.6-9.5,16.5c-16.6,17.4-59.2,42.9-167.9,66.1
			c-54.5,11.6-119.6,21.3-194.9,29.1c21.5-35.1,35.8-75.8,41.7-118.4c61.7,12.4,95.4,25.4,95.8,25.6l0.4-1.1
			c-0.4-0.1-34.2-13.3-96.1-25.6c5-37.4,3.6-76.2-5-113.7c6.4,26.5,10.2,56.9,7.6,89.2c0,0,93.3,28.4,115.6,14.2
			c22.3-14.2-34.5-42.6-34.5-56.8s26.4-30.4,4.1-46.6c-14.3-10.4-21.9-19.1-24.5-29.3c4.6,2.2,7.9,4.7,9.8,7.4l1-0.7
			c-2.1-3.1-5.8-5.8-11.1-8.2c-1.1-5.3-0.9-11.1,0.5-17.8c2-20.3-2-32.4-22.3-38.5c-20.3-6.1-18.2-2-20.3-20.3
			c-1.4-12.9-33.3-1.5-51.8,6.3c-15.1-20.6-29.9-35.5-58.1-44.9c-57.2-52.7-142.9-87.9-261.8-88.9c-33.4-54.1-75-103.1-124.6-145.1
			c196-96.7,345.9-185.8,422.9-234.8c61.7-39.3,89-103.6,88.3-170.8c52.1-40.5,95.8-77.7,130.7-111.4
			c69.8-67.3,89.3-105.8,93.4-126.1c2.3-11.8-0.8-16.6-0.9-16.8l-1,0.7c0,0,3,4.7,0.7,16.2c-4.1,20.3-23.7,58.6-93.5,125.7
			c-34.6,33.3-77.8,70.1-129.4,110.2c-0.6-35.1-8.7-71-23.6-104.6c52.6-20,84.2-26.2,84.8-26.3l-0.2-1.2
			c-0.7,0.1-32.4,6.3-85.1,26.4c-18.9-42-48.3-80.2-86.4-108.3c39.1-20.6,66.4-30.8,77.2-25.9l0.5-1.1c-11.3-5.2-39,5-78.9,26.1
			c-27.3-19.9-59-34.6-94.6-42c29.9-6.3,49.5,2.1,77.4,14.1c10.8,4.6,23,9.9,37.5,15l0.4-1.1c-14.5-5.1-26.7-10.3-37.4-14.9
			c-29-12.4-49.1-21.1-80.9-13.5c-91.9-17.8-208.6,13.8-339,133.1c-38.5,35.2-81.6,66.7-128.3,94.8
			c-74.4-71.1-209.6-123.7-277.6-201.9c-109.4-125.9-159.8-254.5-301.4-299.8c-141.6-45.3-401.1,38.4-437.6,126.6l0,0
			c-74.2,115.9-106.2,215.8-110.5,300.8c-124.8-285.6-271.4-560.1-395.1-625c-69.5-36.2-138.7-48.6-202.1-41.8
			C964.3,656.1,1118,299.6,965.6,291c-158.1-9-70.9,212.3-163.2,272.4c-92.3,60.1-277.3-105.6-365.2-47.4
			c-87.9,58.2,142.8,225.3,142.8,225.3s0,0-175.3-8.6c-175.3-8.6-153.3,263,94.4,221.7c125.5-21.1,209.4-8.7,261.7,8.8
			c-33.6,76.2-42.2,170.7-14.6,274.4c18,67.7,68.6,151.4,137.3,241.7c-10.4,2.9-20.8,6.4-31.2,10.6c-58.3-3.7-94.7,3.4-95.1,3.5
			l0.2,1.2c0.4-0.1,35.6-7,92.3-3.6c-43.2,17.8-85.9,47.4-126.1,92.9c-27.9-8.9-44.7-13.3-45.2-13.5l-0.3,1.2
			c0.6,0.1,17.1,4.5,44.7,13.3c-8.9,10.1-17.6,21-26.3,32.8c-20.3,27.7-34.6,55.4-43.9,82.5c-31.5-21.9-50.4-36-51-36.4l-0.7,1
			c0.6,0.4,19.6,14.6,51.3,36.6c-20.6,60.8-16.6,119.2-1,171.2c-62.8-59.7-99.8-102.8-100.2-103.3l-0.9,0.8
			c0.4,0.5,38.1,44.4,101.9,104.9c37.1,119.9,135.8,204.9,135.8,204.9c4.2,3,8.4,5.9,12.6,8.8c-24.1,54.9-49.5,112.7-81.6,171.6
			c-112.8,207.3-486.9,376.1-327.3,597.7c29.5,40.5,71,60.8,118.2,67.7c21.7,10.6,322.4,151.9,574-6.7
			c261.2-164.7,344.6-64,506.2-104.7c40.9-10.3,103.8-44.3,165.6-98.5c28.2,172.5,119.3,327.9,267.7,427.1
			c304.7,203.8,735.7,94.1,962.6-245.1c46.3-69.3,80.6-142.8,103.1-217.6c20.4,0.1,38.8,0,54.9-0.2c82.8-0.5,147.8-45.4,187.9-110
			c76.1-7.8,141.8-17.6,196.7-29.3c108.9-23.2,151.5-49,168-66.5C3706.1,2463.9,3706,2457.3,3705.9,2457z M3342.2,2234.7
			c-7.1,3-11.9,5.4-11.9,5.4s11.5,17.5,23.2,46.2c-14.7-34.7-36.4-67.1-65.9-94.9C3313.6,2200.8,3327.8,2215.1,3342.2,2234.7z
			 M1753.8,1752c-7.1,0.4-14.1,0.7-21,1.1c-3.6-9.2-7.1-18.5-10.8-27.8C1732.3,1734.9,1743,1743.8,1753.8,1752z"/>
	</defs>
	<clipPath id="SVGID_00000013152304363002742430000004500844573945360829_">
		<use xlink:href="#SVGID_1_"  style="overflow:visible;"/>
	</clipPath>
	<path style="opacity:0.15;clip-path:url(#SVGID_00000013152304363002742430000004500844573945360829_);" d="M3363.5,1408.2
		c-18.9-42-48.3-80.2-86.4-108.3"/>
	<path style="opacity:0.15;clip-path:url(#SVGID_00000013152304363002742430000004500844573945360829_);" d="M3387.6,1513.8
		c-0.6-35.1-8.7-71-23.6-104.6"/>
	<g style="clip-path:url(#SVGID_00000013152304363002742430000004500844573945360829_);">
		<path class="st3" d="M1721.2,1143.5c-305.8,477.7,104.5,684.3,222.2,687.8s159.9-78.6,365.1-4.7c205.3,73.9,397.8-83.3,397.8-83.3
			L1721.2,1143.5z"/>
		<path class="st4" d="M2439.5,1733.7c-84.8-21-86.7-33.1-335.4,19.5c-248.7,52.6-419.5-522.3-382.9-609.7
			c36.4-88.2,296-171.9,437.6-126.6s192,173.9,301.4,299.8s393.1,185.4,316.7,362.6C2726.9,1793.2,2537.5,1757.7,2439.5,1733.7z"/>
		
			<ellipse transform="matrix(0.4319 -0.9019 0.9019 0.4319 -25.1522 2726.0039)" class="st5" cx="2151.4" cy="1383" rx="170.9" ry="223.3"/>
	</g>
	<path style="opacity:0.15;clip-path:url(#SVGID_00000013152304363002742430000004500844573945360829_);" d="M3275.9,1298.9
		c-27.3-19.9-59-34.6-94.6-42c29.9-6.3,49.5,2.1,77.4,14.1c10.8,4.6,23,9.9,37.5,15l0.4-1.1c-14.5-5.1-26.7-10.3-37.4-14.9
		c-29-12.4-49.1-21.1-80.9-13.5c-91.9-17.8-208.6,13.8-339,133.1c-421,385.3-1401.1,325.3-1505.8,339.8
		c-75,10.4-207.5,29.7-284,133.4c-45,24.2-68.7,46.3-69,46.5l0.8,0.9c0.3-0.3,23.1-21.5,66.5-45.1c-24,33.2-42.2,75-51.1,127.7
		c-23.6,6-37.3,10.2-37.8,10.3l0.4,1.2c0.5-0.1,13.9-4.3,37.2-10.2c-1.9,11.5-3.4,23.5-4.4,36c-2.3,29.3-0.3,55.7,5,79.7
		c-31.8-1.6-51.2-3.1-51.8-3.1l-0.1,1.2c0.6,0,20.1,1.6,52.1,3.1c12.3,54.5,41.6,96,76.9,127.4c-72.5-14.9-118.8-29.2-119.4-29.3
		l-0.4,1.2c0.6,0.2,47.8,14.8,121.6,29.8c83.2,72.9,197.7,90.3,197.7,90.3c838.8,49.6,1786.1-491.7,2025.5-644.1
		c61.7-39.3,89-103.6,88.3-170.8"/>
	<g style="clip-path:url(#SVGID_00000013152304363002742430000004500844573945360829_);">
		<g>
			<defs>
				<path id="SVGID_00000135651892263935955030000009673021342453182080_" d="M1300.4,2364.6c0,0-301.6-46-281.6-300.3
					c19.9-254.3,236.7-286.2,341.4-300.7c104.7-14.5,1084.8,45.5,1505.8-339.8s699.4,144.3,460,296.7S2139.2,2414.1,1300.4,2364.6z"
					/>
			</defs>
			<clipPath id="SVGID_00000158736689304428345980000014377208609111167671_">
				<use xlink:href="#SVGID_00000135651892263935955030000009673021342453182080_"  style="overflow:visible;"/>
			</clipPath>
			<path style="clip-path:url(#SVGID_00000158736689304428345980000014377208609111167671_);fill:#0D8543;" d="M1300.4,2364.6
				c0,0-301.6-46-281.6-300.3c19.9-254.3,236.7-286.2,341.4-300.7c104.7-14.5,1084.8,45.5,1505.8-339.8s699.4,144.3,460,296.7
				S2139.2,2414.1,1300.4,2364.6z"/>
		</g>
		<g>
			<defs>
				<path id="SVGID_00000020368629079551784350000007048748650320217760_" d="M1300.4,2364.6c0,0-301.6-46-281.6-300.3
					c19.9-254.3,236.7-286.2,341.4-300.7c104.7-14.5,1084.8,45.5,1505.8-339.8s699.4,144.3,460,296.7S2139.2,2414.1,1300.4,2364.6z"
					/>
			</defs>
			<clipPath id="SVGID_00000008106967922887766580000006260994601600999810_">
				<use xlink:href="#SVGID_00000020368629079551784350000007048748650320217760_"  style="overflow:visible;"/>
			</clipPath>
			
				<path style="clip-path:url(#SVGID_00000008106967922887766580000006260994601600999810_);fill:none;stroke:#98ED9C;stroke-width:0.5;stroke-miterlimit:10;" d="
				M1007.6,1943.9c0,0,129.6-122.4,372.2-109c242.5,13.4,1007.2,37.8,1436.4-286.2c429-322.2,386.5-271.3,506.9-229.1"/>
		</g>
		<g>
			<defs>
				<path id="SVGID_00000069361637762933437590000012548537358357917886_" d="M1300.4,2364.6c0,0-301.6-46-281.6-300.3
					c19.9-254.3,236.7-286.2,341.4-300.7c104.7-14.5,1084.8,45.5,1505.8-339.8s699.4,144.3,460,296.7S2139.2,2414.1,1300.4,2364.6z"
					/>
			</defs>
			<clipPath id="SVGID_00000090268869771954203450000010153598272197303701_">
				<use xlink:href="#SVGID_00000069361637762933437590000012548537358357917886_"  style="overflow:visible;"/>
			</clipPath>
			
				<path style="clip-path:url(#SVGID_00000090268869771954203450000010153598272197303701_);fill:none;stroke:#98ED9C;stroke-width:0.5;stroke-miterlimit:10;" d="
				M985.8,2037.8c0,0,169-52.6,357.6-51.7c188.6,0.9,778.3,13.3,1110.2-138.8s868-567,927.6-539.7"/>
		</g>
		<g>
			<defs>
				<path id="SVGID_00000034771751478760398590000016882869144733949327_" d="M1300.4,2364.6c0,0-301.6-46-281.6-300.3
					c19.9-254.3,236.7-286.2,341.4-300.7c104.7-14.5,1084.8,45.5,1505.8-339.8s699.4,144.3,460,296.7S2139.2,2414.1,1300.4,2364.6z"
					/>
			</defs>
			<clipPath id="SVGID_00000150097043190430057340000001570162457862352030_">
				<use xlink:href="#SVGID_00000034771751478760398590000016882869144733949327_"  style="overflow:visible;"/>
			</clipPath>
			
				<path style="clip-path:url(#SVGID_00000150097043190430057340000001570162457862352030_);fill:none;stroke:#98ED9C;stroke-width:0.5;stroke-miterlimit:10;" d="
				M981.4,2243.9c0,0,260.7,81.1,529.8,59.8c270.9-21.1,1069.5-194.5,1625.5-559.3c557.8-364.6,500.3-448.7,500.3-448.7"/>
		</g>
		<g>
			<defs>
				<path id="SVGID_00000068653526276140683870000011310645323150566027_" d="M1300.4,2364.6c0,0-301.6-46-281.6-300.3
					c19.9-254.3,236.7-286.2,341.4-300.7c104.7-14.5,1084.8,45.5,1505.8-339.8s699.4,144.3,460,296.7S2139.2,2414.1,1300.4,2364.6z"
					/>
			</defs>
			<clipPath id="SVGID_00000106850307228464997710000008437851816196865671_">
				<use xlink:href="#SVGID_00000068653526276140683870000011310645323150566027_"  style="overflow:visible;"/>
			</clipPath>
			
				<path style="clip-path:url(#SVGID_00000106850307228464997710000008437851816196865671_);fill:none;stroke:#98ED9C;stroke-width:0.5;stroke-miterlimit:10;" d="
				M972,2141.5c0,0,183.7,14.7,359.5,0.1c175.9-14.6,639.6-23.6,826.5-78c187-54.4,779.3-337.3,973.1-478.2
				c195.5-140.8,344.3-168.7,344.3-168.7"/>
		</g>
	</g>
	<g style="clip-path:url(#SVGID_00000013152304363002742430000004500844573945360829_);">
		<path class="st11" d="M837.7,1002.7c0,0-85.3-90.3-334.4-48.3c-247.7,41.3-269.7-230.2-94.4-221.6s175.3,8.6,175.3,8.6
			S353.5,574.2,441.4,516c87.9-58.2,272.9,107.5,365.2,47.4C899,503.2,811.7,282,969.9,291c158.1,9-13.3,392.3,49.5,499.1
			C1082.8,898.3,837.7,1002.7,837.7,1002.7z"/>
		<path class="st12" d="M1683.2,2267.5c0,0-845.5-702.9-932.7-1029.9s186.7-563.3,465.2-418.3
			c279.1,146.5,674.5,1360.1,674.5,1360.1s25,70.9-65.9,130.4C1766.1,2348.3,1683.2,2267.5,1683.2,2267.5z"/>
		<g>
			<path class="st13" d="M826.3,1305.8c10.2-167.4,138.4-322.5,299.8-366.9c23.3-6.4,46.3-9.3,69.4-12.2
				c-9.7,5.8-20.8,12.3-30.4,18.2C1011.7,1020.5,899.4,1151.6,826.3,1305.8L826.3,1305.8z"/>
		</g>
		<g>
			<path class="st13" d="M996.7,1522.8c7.5-157.5,122-299.9,261.3-367.9c20.6-8.8,41.1-17.5,62.9-23.3c-16,15.5-33.2,28-49.1,43.5
				C1156.5,1271,1062.2,1387.4,996.7,1522.8L996.7,1522.8z"/>
		</g>
		<g>
			<path class="st13" d="M1170.6,1719.3c28.2-157.7,167-287.9,318.8-326.5C1370.3,1492.1,1259.1,1593.2,1170.6,1719.3L1170.6,1719.3
				z"/>
		</g>
		<g>
			<path class="st13" d="M1398.4,1957c-18.7-137.7,102-265.4,230.5-297.6C1541.1,1750.6,1447.9,1837.1,1398.4,1957L1398.4,1957z"/>
		</g>
	</g>
	<g style="clip-path:url(#SVGID_00000013152304363002742430000004500844573945360829_);">
		<g>
			<g>
				<defs>
					<path id="SVGID_00000154385205074186220490000006328335573933024404_" d="M792,2079.9c0,0-263.6-227.1-91.2-462.3
						c172.3-235.2,403.5-135.8,513-85.2c109.5,50.7,1025.9,701.5,1666.7,581.9c642.7-119.6,592,563.7,267.6,565.7
						C2821.6,2684.1,1574.6,2635.4,792,2079.9z"/>
				</defs>
				<clipPath id="SVGID_00000049930734837905405050000014168128917534921866_">
					<use xlink:href="#SVGID_00000154385205074186220490000006328335573933024404_"  style="overflow:visible;"/>
				</clipPath>
				<path style="clip-path:url(#SVGID_00000049930734837905405050000014168128917534921866_);fill:#0D8543;" d="M792,2079.9
					c0,0-263.6-227.1-91.2-462.3c172.3-235.2,403.5-135.8,513-85.2c109.5,50.7,1025.9,701.5,1666.7,581.9
					c642.7-119.6,592,563.7,267.6,565.7C2821.6,2684.1,1574.6,2635.4,792,2079.9z"/>
			</g>
			<g>
				<defs>
					<path id="SVGID_00000128458449422892401400000003617460497305572500_" d="M792,2079.9c0,0-263.6-227.1-91.2-462.3
						c172.3-235.2,403.5-135.8,513-85.2c109.5,50.7,1025.9,701.5,1666.7,581.9c642.7-119.6,592,563.7,267.6,565.7
						C2821.6,2684.1,1574.6,2635.4,792,2079.9z"/>
				</defs>
				<clipPath id="SVGID_00000062909270519467310580000016483250561075499676_">
					<use xlink:href="#SVGID_00000128458449422892401400000003617460497305572500_"  style="overflow:visible;"/>
				</clipPath>
				
					<path style="clip-path:url(#SVGID_00000062909270519467310580000016483250561075499676_);fill:none;stroke:#98ED9C;stroke-width:0.5;stroke-miterlimit:10;" d="
					M761.6,1493.9c0,0,200.7-40.6,427.8,119.6s955,646.8,1567.3,592c612.3-54.7,539.3-30.4,630.6,85.2"/>
			</g>
			<g>
				<defs>
					<path id="SVGID_00000158016170643138734290000001928694812810736536_" d="M792,2079.9c0,0-263.6-227.1-91.2-462.3
						c172.3-235.2,403.5-135.8,513-85.2c109.5,50.7,1025.9,701.5,1666.7,581.9c642.7-119.6,592,563.7,267.6,565.7
						C2821.6,2684.1,1574.6,2635.4,792,2079.9z"/>
				</defs>
				<clipPath id="SVGID_00000124851997496409481080000015355062213246496899_">
					<use xlink:href="#SVGID_00000158016170643138734290000001928694812810736536_"  style="overflow:visible;"/>
				</clipPath>
				
					<path style="clip-path:url(#SVGID_00000124851997496409481080000015355062213246496899_);fill:none;stroke:#98ED9C;stroke-width:0.5;stroke-miterlimit:10;" d="
					M682.5,1571c0,0,196.7,50.7,377.1,166.3c182.5,115.6,748.2,484.6,1163.8,537.3s1186.1-24.3,1228.7,38.5"/>
			</g>
			<g>
				<defs>
					<path id="SVGID_00000125594861691246871870000010702521828957411225_" d="M792,2079.9c0,0-263.6-227.1-91.2-462.3
						c172.3-235.2,403.5-135.8,513-85.2c109.5,50.7,1025.9,701.5,1666.7,581.9c642.7-119.6,592,563.7,267.6,565.7
						C2821.6,2684.1,1574.6,2635.4,792,2079.9z"/>
				</defs>
				<clipPath id="SVGID_00000119806980343297694060000007156800003812227773_">
					<use xlink:href="#SVGID_00000125594861691246871870000010702521828957411225_"  style="overflow:visible;"/>
				</clipPath>
				
					<path style="clip-path:url(#SVGID_00000119806980343297694060000007156800003812227773_);fill:none;stroke:#98ED9C;stroke-width:0.5;stroke-miterlimit:10;" d="
					M554.7,1769.7c0,0,202.8,237.2,478.5,379.2s1155.7,458.2,1918.1,442c762.4-16.2,758.3-133.8,758.3-133.8"/>
			</g>
			<g>
				<defs>
					<path id="SVGID_00000013876873385873727810000004012940063369982339_" d="M792,2079.9c0,0-263.6-227.1-91.2-462.3
						c172.3-235.2,403.5-135.8,513-85.2c109.5,50.7,1025.9,701.5,1666.7,581.9c642.7-119.6,592,563.7,267.6,565.7
						C2821.6,2684.1,1574.6,2635.4,792,2079.9z"/>
				</defs>
				<clipPath id="SVGID_00000160157552847600501890000007263253463217377933_">
					<use xlink:href="#SVGID_00000013876873385873727810000004012940063369982339_"  style="overflow:visible;"/>
				</clipPath>
				
					<path style="clip-path:url(#SVGID_00000160157552847600501890000007263253463217377933_);fill:none;stroke:#98ED9C;stroke-width:0.5;stroke-miterlimit:10;" d="
					M605.4,1664.2c0,0,168.3,125.7,348.7,216.9c178.4,93.3,634.6,365,849.6,423.8c214.9,60.8,961.1,144,1234.8,125.7
					c275.7-18.2,435.9,44.6,435.9,44.6"/>
			</g>
		</g>
		<path class="st19" d="M3334.5,2240.1c0,0,54.7,83.1,46.6,184.5c0,0,93.3,28.4,115.6,14.2c22.3-14.2-34.5-42.6-34.5-56.8
			s26.4-30.4,4.1-46.6c-22.3-16.2-28.4-28.4-24.3-48.7c2-20.3-2-32.4-22.3-38.5c-20.3-6.1-18.2-2-20.3-20.3
			C3397.4,2209.6,3334.5,2240.1,3334.5,2240.1z"/>
	</g>
	<path style="opacity:0.15;clip-path:url(#SVGID_00000013152304363002742430000004500844573945360829_);" d="M3321.5,2500.1
		c21.5-35.1,35.8-75.8,41.7-118.4c61.7,12.4,95.4,25.4,95.8,25.6l0.4-1.1c-0.4-0.1-34.2-13.3-96.1-25.6c5-37.4,3.6-76.2-5-113.7
		c6.4,26.5,10.2,56.9,7.6,89.2c0,0,93.3,28.4,115.6,14.2c22.3-14.2-34.5-42.6-34.5-56.8s26.4-30.4,4.1-46.6
		c-14.3-10.4-21.9-19.1-24.5-29.3c4.6,2.2,7.9,4.7,9.8,7.4l1-0.7c-2.1-3.1-5.8-5.8-11.1-8.2c-1.1-5.3-0.9-11.1,0.5-17.8
		c2-20.3-2-32.4-22.3-38.5c-20.3-6.1-18.2-2-20.3-20.3c-1.4-12.9-33.3-1.5-51.8,6.3c-15.1-20.6-29.9-35.5-58.1-44.9
		c-78.6-72.3-210.9-111.8-409.1-74.9c-640.7,119.6-1557.2-531.2-1666.7-581.9c-78.6-36.4-219.9-97.9-357.2-42.6
		c-58.3-3.7-59.2-2.3-2.6,1.1c-43.2,17.8-85.9,47.4-126.1,92.9c-27.9-8.9-28.4-7.8-0.9,1c-8.9,10.1-17.6,21-26.3,32.8
		c-20.3,27.7-44.3,83.7-44.3,83.7c-20.6,60.8-16.6,119.2-1,171.2c-62.8-59.7-63-58.1,0.7,2.4c37.1,119.9,135.8,204.9,135.8,204.9
		c782.6,555.6,2029.6,604.2,2356,600.2c82.8-0.5,147.8-45.4,187.9-110C3346.9,2496.9,3325.3,2502,3321.5,2500.1z M3331.2,2166.1
		c-7.1,3-11.9,5.4-11.9,5.4s11.5,17.5,23.2,46.2c-14.7-34.7-36.4-67.1-65.9-94.8C3302.6,2132.1,3316.9,2146.5,3331.2,2166.1z"/>
	<path style="opacity:0.15;clip-path:url(#SVGID_00000013152304363002742430000004500844573945360829_);" d="M1613.5,1780.6
		L1613.5,1780.6c-77.2-110.8-461.5-147.4-643.4-41.7c-181.9,105.7-212.4,298.8-325.3,506.2S158,2621.1,317.5,2842.7
		c29.5,40.5,71,60.8,118.2,67.7c21.7,10.6,322.4,151.9,574-6.7c261.2-164.7,344.6-64,506.2-104.7
		C1677.5,2758.4,2181.6,2347.7,1613.5,1780.6z"/>
	<g style="clip-path:url(#SVGID_00000013152304363002742430000004500844573945360829_);">
		<path class="st3" d="M512.6,2925.1c0,0,314.1,158.6,575.3-6.1s344.6-64,506.2-104.7c161.6-40.7,665.8-451.3,97.6-1018.4
			L512.6,2925.1z"/>
		<path class="st4" d="M395.7,2858c-159.6-221.6,214.5-390.3,327.3-597.7c112.8-207.3,143.3-400.5,325.3-506.2
			c181.9-105.7,566.1-69.1,643.4,41.7c77.2,109.8,16.3,956.4-343.5,959.5s-358.8,20.3-469.6,75.2
			C750.4,2893.5,499.4,3000.3,395.7,2858z"/>
		
			<ellipse transform="matrix(0.7878 -0.6159 0.6159 0.7878 -1142.4387 1199.6809)" class="st5" cx="1169.9" cy="2257.9" rx="316.1" ry="241.9"/>
	</g>
	
		<ellipse transform="matrix(0.556 -0.8312 0.8312 0.556 -1058.1758 3076.4707)" style="opacity:0.15;clip-path:url(#SVGID_00000013152304363002742430000004500844573945360829_);" cx="2350.5" cy="2528.7" rx="738.9" ry="663.8"/>
	<g style="clip-path:url(#SVGID_00000013152304363002742430000004500844573945360829_);">
		
			<ellipse transform="matrix(0.556 -0.8312 0.8312 0.556 -1019.2473 3149.3455)" class="st20" cx="2438.2" cy="2528.7" rx="738.9" ry="663.8"/>
		<polygon class="st21" points="2128.4,2434.1 2106.2,2321.5 2167.7,2423.9 2249.6,2377.8 2203.5,2434.1 2302.5,2456.3 
			2205.2,2476.8 2227.4,2574.1 2157.4,2497.3 2078.9,2541.7 2106.2,2473.4 2015.8,2434.1 		"/>
		<g>
			<path class="st22" d="M2155.7,2441c11.9-8.5,27.3,3.4,30.7,15.4c5.1,11.9-5.1,30.7-18.8,29
				C2181.3,2471.7,2174.5,2446.1,2155.7,2441L2155.7,2441z"/>
		</g>
	</g>
</g>
</svg>
